<?xml version="1.0" encoding="utf-8" standalone="no"?>
<!DOCTYPE svg PUBLIC "-//W3C//DTD SVG 1.1//EN"
  "http://www.w3.org/Graphics/SVG/1.1/DTD/svg11.dtd">
<svg xmlns:xlink="http://www.w3.org/1999/xlink" width="792pt" height="345.6pt" viewBox="0 0 792 345.6" xmlns="http://www.w3.org/2000/svg" version="1.1">
 <metadata>
  <rdf:RDF xmlns:dc="http://purl.org/dc/elements/1.1/" xmlns:cc="http://creativecommons.org/ns#" xmlns:rdf="http://www.w3.org/1999/02/22-rdf-syntax-ns#">
   <cc:Work>
    <dc:type rdf:resource="http://purl.org/dc/dcmitype/StillImage"/>
    <dc:date>2026-04-10T16:29:35.905361</dc:date>
    <dc:format>image/svg+xml</dc:format>
    <dc:creator>
     <cc:Agent>
      <dc:title>Matplotlib v3.9.2, https://matplotlib.org/</dc:title>
     </cc:Agent>
    </dc:creator>
   </cc:Work>
  </rdf:RDF>
 </metadata>
 <defs>
  <style type="text/css">*{stroke-linejoin: round; stroke-linecap: butt}</style>
 </defs>
 <g id="figure_1">
  <g id="patch_1">
   <path d="M 0 345.6 
L 792 345.6 
L 792 0 
L 0 0 
z
" style="fill: #ffffff"/>
  </g>
  <g id="axes_1">
   <g id="patch_2">
    <path d="M 57.17 303.64 
L 781.2 303.64 
L 781.2 26.88 
L 57.17 26.88 
z
" style="fill: #ffffff"/>
   </g>
   <g id="patch_3">
    <path d="M 90.080455 303.64 
L 101.706173 303.64 
L 101.706173 26.88 
L 90.080455 26.88 
z
" clip-path="url(#p5aa91a1a63)" style="fill: #ffd1dc; opacity: 0.22; stroke: #ffd1dc; stroke-linejoin: miter"/>
   </g>
   <g id="patch_4">
    <path d="M 101.706173 303.64 
L 160.26328 303.64 
L 160.26328 26.88 
L 101.706173 26.88 
z
" clip-path="url(#p5aa91a1a63)" style="fill: #aec6cf; opacity: 0.22; stroke: #aec6cf; stroke-linejoin: miter"/>
   </g>
   <g id="patch_5">
    <path d="M 160.26328 303.64 
L 277.358159 303.64 
L 277.358159 26.88 
L 160.26328 26.88 
z
" clip-path="url(#p5aa91a1a63)" style="fill: #77dd77; opacity: 0.22; stroke: #77dd77; stroke-linejoin: miter"/>
   </g>
   <g id="patch_6">
    <path d="M 277.358159 303.64 
L 376.995925 303.64 
L 376.995925 26.88 
L 277.358159 26.88 
z
" clip-path="url(#p5aa91a1a63)" style="fill: #fdfd96; opacity: 0.22; stroke: #fdfd96; stroke-linejoin: miter"/>
   </g>
   <g id="patch_7">
    <path d="M 376.995925 303.64 
L 473.986155 303.64 
L 473.986155 26.88 
L 376.995925 26.88 
z
" clip-path="url(#p5aa91a1a63)" style="fill: #ffd1dc; opacity: 0.22; stroke: #ffd1dc; stroke-linejoin: miter"/>
   </g>
   <g id="patch_8">
    <path d="M 473.986155 303.64 
L 598.871946 303.64 
L 598.871946 26.88 
L 473.986155 26.88 
z
" clip-path="url(#p5aa91a1a63)" style="fill: #aec6cf; opacity: 0.22; stroke: #aec6cf; stroke-linejoin: miter"/>
   </g>
   <g id="patch_9">
    <path d="M 598.871946 303.64 
L 650.242536 303.64 
L 650.242536 26.88 
L 598.871946 26.88 
z
" clip-path="url(#p5aa91a1a63)" style="fill: #77dd77; opacity: 0.22; stroke: #77dd77; stroke-linejoin: miter"/>
   </g>
   <g id="patch_10">
    <path d="M 650.242536 303.64 
L 748.289545 303.64 
L 748.289545 26.88 
L 650.242536 26.88 
z
" clip-path="url(#p5aa91a1a63)" style="fill: #fdfd96; opacity: 0.22; stroke: #fdfd96; stroke-linejoin: miter"/>
   </g>
   <g id="matplotlib.axis_1">
    <g id="xtick_1">
     <g id="line2d_1">
      <path d="M 90.080455 303.64 
L 90.080455 26.88 
" clip-path="url(#p5aa91a1a63)" style="fill: none; stroke: #b0b0b0; stroke-opacity: 0.25; stroke-width: 0.8; stroke-linecap: square"/>
     </g>
     <g id="line2d_2">
      <defs>
       <path id="m4f165c0d84" d="M 0 0 
L 0 3.5 
" style="stroke: #000000; stroke-width: 0.8"/>
      </defs>
      <g>
       <use xlink:href="#m4f165c0d84" x="90.080455" y="303.64" style="stroke: #000000; stroke-width: 0.8"/>
      </g>
     </g>
     <g id="text_1">
      <!-- 0 -->
      <g transform="translate(86.899205 318.238437) scale(0.1 -0.1)">
       <defs>
        <path id="DejaVuSans-30" d="M 2034 4250 
Q 1547 4250 1301 3770 
Q 1056 3291 1056 2328 
Q 1056 1369 1301 889 
Q 1547 409 2034 409 
Q 2525 409 2770 889 
Q 3016 1369 3016 2328 
Q 3016 3291 2770 3770 
Q 2525 4250 2034 4250 
z
M 2034 4750 
Q 2819 4750 3233 4129 
Q 3647 3509 3647 2328 
Q 3647 1150 3233 529 
Q 2819 -91 2034 -91 
Q 1250 -91 836 529 
Q 422 1150 422 2328 
Q 422 3509 836 4129 
Q 1250 4750 2034 4750 
z
" transform="scale(0.015625)"/>
       </defs>
       <use xlink:href="#DejaVuSans-30"/>
      </g>
     </g>
    </g>
    <g id="xtick_2">
     <g id="line2d_3">
      <path d="M 192.114033 303.64 
L 192.114033 26.88 
" clip-path="url(#p5aa91a1a63)" style="fill: none; stroke: #b0b0b0; stroke-opacity: 0.25; stroke-width: 0.8; stroke-linecap: square"/>
     </g>
     <g id="line2d_4">
      <g>
       <use xlink:href="#m4f165c0d84" x="192.114033" y="303.64" style="stroke: #000000; stroke-width: 0.8"/>
      </g>
     </g>
     <g id="text_2">
      <!-- 10000 -->
      <g transform="translate(176.207783 318.238437) scale(0.1 -0.1)">
       <defs>
        <path id="DejaVuSans-31" d="M 794 531 
L 1825 531 
L 1825 4091 
L 703 3866 
L 703 4441 
L 1819 4666 
L 2450 4666 
L 2450 531 
L 3481 531 
L 3481 0 
L 794 0 
L 794 531 
z
" transform="scale(0.015625)"/>
       </defs>
       <use xlink:href="#DejaVuSans-31"/>
       <use xlink:href="#DejaVuSans-30" x="63.623047"/>
       <use xlink:href="#DejaVuSans-30" x="127.246094"/>
       <use xlink:href="#DejaVuSans-30" x="190.869141"/>
       <use xlink:href="#DejaVuSans-30" x="254.492188"/>
      </g>
     </g>
    </g>
    <g id="xtick_3">
     <g id="line2d_5">
      <path d="M 294.147612 303.64 
L 294.147612 26.88 
" clip-path="url(#p5aa91a1a63)" style="fill: none; stroke: #b0b0b0; stroke-opacity: 0.25; stroke-width: 0.8; stroke-linecap: square"/>
     </g>
     <g id="line2d_6">
      <g>
       <use xlink:href="#m4f165c0d84" x="294.147612" y="303.64" style="stroke: #000000; stroke-width: 0.8"/>
      </g>
     </g>
     <g id="text_3">
      <!-- 20000 -->
      <g transform="translate(278.241362 318.238437) scale(0.1 -0.1)">
       <defs>
        <path id="DejaVuSans-32" d="M 1228 531 
L 3431 531 
L 3431 0 
L 469 0 
L 469 531 
Q 828 903 1448 1529 
Q 2069 2156 2228 2338 
Q 2531 2678 2651 2914 
Q 2772 3150 2772 3378 
Q 2772 3750 2511 3984 
Q 2250 4219 1831 4219 
Q 1534 4219 1204 4116 
Q 875 4013 500 3803 
L 500 4441 
Q 881 4594 1212 4672 
Q 1544 4750 1819 4750 
Q 2544 4750 2975 4387 
Q 3406 4025 3406 3419 
Q 3406 3131 3298 2873 
Q 3191 2616 2906 2266 
Q 2828 2175 2409 1742 
Q 1991 1309 1228 531 
z
" transform="scale(0.015625)"/>
       </defs>
       <use xlink:href="#DejaVuSans-32"/>
       <use xlink:href="#DejaVuSans-30" x="63.623047"/>
       <use xlink:href="#DejaVuSans-30" x="127.246094"/>
       <use xlink:href="#DejaVuSans-30" x="190.869141"/>
       <use xlink:href="#DejaVuSans-30" x="254.492188"/>
      </g>
     </g>
    </g>
    <g id="xtick_4">
     <g id="line2d_7">
      <path d="M 396.181191 303.64 
L 396.181191 26.88 
" clip-path="url(#p5aa91a1a63)" style="fill: none; stroke: #b0b0b0; stroke-opacity: 0.25; stroke-width: 0.8; stroke-linecap: square"/>
     </g>
     <g id="line2d_8">
      <g>
       <use xlink:href="#m4f165c0d84" x="396.181191" y="303.64" style="stroke: #000000; stroke-width: 0.8"/>
      </g>
     </g>
     <g id="text_4">
      <!-- 30000 -->
      <g transform="translate(380.274941 318.238437) scale(0.1 -0.1)">
       <defs>
        <path id="DejaVuSans-33" d="M 2597 2516 
Q 3050 2419 3304 2112 
Q 3559 1806 3559 1356 
Q 3559 666 3084 287 
Q 2609 -91 1734 -91 
Q 1441 -91 1130 -33 
Q 819 25 488 141 
L 488 750 
Q 750 597 1062 519 
Q 1375 441 1716 441 
Q 2309 441 2620 675 
Q 2931 909 2931 1356 
Q 2931 1769 2642 2001 
Q 2353 2234 1838 2234 
L 1294 2234 
L 1294 2753 
L 1863 2753 
Q 2328 2753 2575 2939 
Q 2822 3125 2822 3475 
Q 2822 3834 2567 4026 
Q 2313 4219 1838 4219 
Q 1578 4219 1281 4162 
Q 984 4106 628 3988 
L 628 4550 
Q 988 4650 1302 4700 
Q 1616 4750 1894 4750 
Q 2613 4750 3031 4423 
Q 3450 4097 3450 3541 
Q 3450 3153 3228 2886 
Q 3006 2619 2597 2516 
z
" transform="scale(0.015625)"/>
       </defs>
       <use xlink:href="#DejaVuSans-33"/>
       <use xlink:href="#DejaVuSans-30" x="63.623047"/>
       <use xlink:href="#DejaVuSans-30" x="127.246094"/>
       <use xlink:href="#DejaVuSans-30" x="190.869141"/>
       <use xlink:href="#DejaVuSans-30" x="254.492188"/>
      </g>
     </g>
    </g>
    <g id="xtick_5">
     <g id="line2d_9">
      <path d="M 498.21477 303.64 
L 498.21477 26.88 
" clip-path="url(#p5aa91a1a63)" style="fill: none; stroke: #b0b0b0; stroke-opacity: 0.25; stroke-width: 0.8; stroke-linecap: square"/>
     </g>
     <g id="line2d_10">
      <g>
       <use xlink:href="#m4f165c0d84" x="498.21477" y="303.64" style="stroke: #000000; stroke-width: 0.8"/>
      </g>
     </g>
     <g id="text_5">
      <!-- 40000 -->
      <g transform="translate(482.30852 318.238437) scale(0.1 -0.1)">
       <defs>
        <path id="DejaVuSans-34" d="M 2419 4116 
L 825 1625 
L 2419 1625 
L 2419 4116 
z
M 2253 4666 
L 3047 4666 
L 3047 1625 
L 3713 1625 
L 3713 1100 
L 3047 1100 
L 3047 0 
L 2419 0 
L 2419 1100 
L 313 1100 
L 313 1709 
L 2253 4666 
z
" transform="scale(0.015625)"/>
       </defs>
       <use xlink:href="#DejaVuSans-34"/>
       <use xlink:href="#DejaVuSans-30" x="63.623047"/>
       <use xlink:href="#DejaVuSans-30" x="127.246094"/>
       <use xlink:href="#DejaVuSans-30" x="190.869141"/>
       <use xlink:href="#DejaVuSans-30" x="254.492188"/>
      </g>
     </g>
    </g>
    <g id="xtick_6">
     <g id="line2d_11">
      <path d="M 600.248349 303.64 
L 600.248349 26.88 
" clip-path="url(#p5aa91a1a63)" style="fill: none; stroke: #b0b0b0; stroke-opacity: 0.25; stroke-width: 0.8; stroke-linecap: square"/>
     </g>
     <g id="line2d_12">
      <g>
       <use xlink:href="#m4f165c0d84" x="600.248349" y="303.64" style="stroke: #000000; stroke-width: 0.8"/>
      </g>
     </g>
     <g id="text_6">
      <!-- 50000 -->
      <g transform="translate(584.342099 318.238437) scale(0.1 -0.1)">
       <defs>
        <path id="DejaVuSans-35" d="M 691 4666 
L 3169 4666 
L 3169 4134 
L 1269 4134 
L 1269 2991 
Q 1406 3038 1543 3061 
Q 1681 3084 1819 3084 
Q 2600 3084 3056 2656 
Q 3513 2228 3513 1497 
Q 3513 744 3044 326 
Q 2575 -91 1722 -91 
Q 1428 -91 1123 -41 
Q 819 9 494 109 
L 494 744 
Q 775 591 1075 516 
Q 1375 441 1709 441 
Q 2250 441 2565 725 
Q 2881 1009 2881 1497 
Q 2881 1984 2565 2268 
Q 2250 2553 1709 2553 
Q 1456 2553 1204 2497 
Q 953 2441 691 2322 
L 691 4666 
z
" transform="scale(0.015625)"/>
       </defs>
       <use xlink:href="#DejaVuSans-35"/>
       <use xlink:href="#DejaVuSans-30" x="63.623047"/>
       <use xlink:href="#DejaVuSans-30" x="127.246094"/>
       <use xlink:href="#DejaVuSans-30" x="190.869141"/>
       <use xlink:href="#DejaVuSans-30" x="254.492188"/>
      </g>
     </g>
    </g>
    <g id="xtick_7">
     <g id="line2d_13">
      <path d="M 702.281928 303.64 
L 702.281928 26.88 
" clip-path="url(#p5aa91a1a63)" style="fill: none; stroke: #b0b0b0; stroke-opacity: 0.25; stroke-width: 0.8; stroke-linecap: square"/>
     </g>
     <g id="line2d_14">
      <g>
       <use xlink:href="#m4f165c0d84" x="702.281928" y="303.64" style="stroke: #000000; stroke-width: 0.8"/>
      </g>
     </g>
     <g id="text_7">
      <!-- 60000 -->
      <g transform="translate(686.375678 318.238437) scale(0.1 -0.1)">
       <defs>
        <path id="DejaVuSans-36" d="M 2113 2584 
Q 1688 2584 1439 2293 
Q 1191 2003 1191 1497 
Q 1191 994 1439 701 
Q 1688 409 2113 409 
Q 2538 409 2786 701 
Q 3034 994 3034 1497 
Q 3034 2003 2786 2293 
Q 2538 2584 2113 2584 
z
M 3366 4563 
L 3366 3988 
Q 3128 4100 2886 4159 
Q 2644 4219 2406 4219 
Q 1781 4219 1451 3797 
Q 1122 3375 1075 2522 
Q 1259 2794 1537 2939 
Q 1816 3084 2150 3084 
Q 2853 3084 3261 2657 
Q 3669 2231 3669 1497 
Q 3669 778 3244 343 
Q 2819 -91 2113 -91 
Q 1303 -91 875 529 
Q 447 1150 447 2328 
Q 447 3434 972 4092 
Q 1497 4750 2381 4750 
Q 2619 4750 2861 4703 
Q 3103 4656 3366 4563 
z
" transform="scale(0.015625)"/>
       </defs>
       <use xlink:href="#DejaVuSans-36"/>
       <use xlink:href="#DejaVuSans-30" x="63.623047"/>
       <use xlink:href="#DejaVuSans-30" x="127.246094"/>
       <use xlink:href="#DejaVuSans-30" x="190.869141"/>
       <use xlink:href="#DejaVuSans-30" x="254.492188"/>
      </g>
     </g>
    </g>
    <g id="text_8">
     <!-- Elapsed Seconds -->
     <g transform="translate(376.946719 331.916562) scale(0.1 -0.1)">
      <defs>
       <path id="DejaVuSans-45" d="M 628 4666 
L 3578 4666 
L 3578 4134 
L 1259 4134 
L 1259 2753 
L 3481 2753 
L 3481 2222 
L 1259 2222 
L 1259 531 
L 3634 531 
L 3634 0 
L 628 0 
L 628 4666 
z
" transform="scale(0.015625)"/>
       <path id="DejaVuSans-6c" d="M 603 4863 
L 1178 4863 
L 1178 0 
L 603 0 
L 603 4863 
z
" transform="scale(0.015625)"/>
       <path id="DejaVuSans-61" d="M 2194 1759 
Q 1497 1759 1228 1600 
Q 959 1441 959 1056 
Q 959 750 1161 570 
Q 1363 391 1709 391 
Q 2188 391 2477 730 
Q 2766 1069 2766 1631 
L 2766 1759 
L 2194 1759 
z
M 3341 1997 
L 3341 0 
L 2766 0 
L 2766 531 
Q 2569 213 2275 61 
Q 1981 -91 1556 -91 
Q 1019 -91 701 211 
Q 384 513 384 1019 
Q 384 1609 779 1909 
Q 1175 2209 1959 2209 
L 2766 2209 
L 2766 2266 
Q 2766 2663 2505 2880 
Q 2244 3097 1772 3097 
Q 1472 3097 1187 3025 
Q 903 2953 641 2809 
L 641 3341 
Q 956 3463 1253 3523 
Q 1550 3584 1831 3584 
Q 2591 3584 2966 3190 
Q 3341 2797 3341 1997 
z
" transform="scale(0.015625)"/>
       <path id="DejaVuSans-70" d="M 1159 525 
L 1159 -1331 
L 581 -1331 
L 581 3500 
L 1159 3500 
L 1159 2969 
Q 1341 3281 1617 3432 
Q 1894 3584 2278 3584 
Q 2916 3584 3314 3078 
Q 3713 2572 3713 1747 
Q 3713 922 3314 415 
Q 2916 -91 2278 -91 
Q 1894 -91 1617 61 
Q 1341 213 1159 525 
z
M 3116 1747 
Q 3116 2381 2855 2742 
Q 2594 3103 2138 3103 
Q 1681 3103 1420 2742 
Q 1159 2381 1159 1747 
Q 1159 1113 1420 752 
Q 1681 391 2138 391 
Q 2594 391 2855 752 
Q 3116 1113 3116 1747 
z
" transform="scale(0.015625)"/>
       <path id="DejaVuSans-73" d="M 2834 3397 
L 2834 2853 
Q 2591 2978 2328 3040 
Q 2066 3103 1784 3103 
Q 1356 3103 1142 2972 
Q 928 2841 928 2578 
Q 928 2378 1081 2264 
Q 1234 2150 1697 2047 
L 1894 2003 
Q 2506 1872 2764 1633 
Q 3022 1394 3022 966 
Q 3022 478 2636 193 
Q 2250 -91 1575 -91 
Q 1294 -91 989 -36 
Q 684 19 347 128 
L 347 722 
Q 666 556 975 473 
Q 1284 391 1588 391 
Q 1994 391 2212 530 
Q 2431 669 2431 922 
Q 2431 1156 2273 1281 
Q 2116 1406 1581 1522 
L 1381 1569 
Q 847 1681 609 1914 
Q 372 2147 372 2553 
Q 372 3047 722 3315 
Q 1072 3584 1716 3584 
Q 2034 3584 2315 3537 
Q 2597 3491 2834 3397 
z
" transform="scale(0.015625)"/>
       <path id="DejaVuSans-65" d="M 3597 1894 
L 3597 1613 
L 953 1613 
Q 991 1019 1311 708 
Q 1631 397 2203 397 
Q 2534 397 2845 478 
Q 3156 559 3463 722 
L 3463 178 
Q 3153 47 2828 -22 
Q 2503 -91 2169 -91 
Q 1331 -91 842 396 
Q 353 884 353 1716 
Q 353 2575 817 3079 
Q 1281 3584 2069 3584 
Q 2775 3584 3186 3129 
Q 3597 2675 3597 1894 
z
M 3022 2063 
Q 3016 2534 2758 2815 
Q 2500 3097 2075 3097 
Q 1594 3097 1305 2825 
Q 1016 2553 972 2059 
L 3022 2063 
z
" transform="scale(0.015625)"/>
       <path id="DejaVuSans-64" d="M 2906 2969 
L 2906 4863 
L 3481 4863 
L 3481 0 
L 2906 0 
L 2906 525 
Q 2725 213 2448 61 
Q 2172 -91 1784 -91 
Q 1150 -91 751 415 
Q 353 922 353 1747 
Q 353 2572 751 3078 
Q 1150 3584 1784 3584 
Q 2172 3584 2448 3432 
Q 2725 3281 2906 2969 
z
M 947 1747 
Q 947 1113 1208 752 
Q 1469 391 1925 391 
Q 2381 391 2643 752 
Q 2906 1113 2906 1747 
Q 2906 2381 2643 2742 
Q 2381 3103 1925 3103 
Q 1469 3103 1208 2742 
Q 947 2381 947 1747 
z
" transform="scale(0.015625)"/>
       <path id="DejaVuSans-20" transform="scale(0.015625)"/>
       <path id="DejaVuSans-53" d="M 3425 4513 
L 3425 3897 
Q 3066 4069 2747 4153 
Q 2428 4238 2131 4238 
Q 1616 4238 1336 4038 
Q 1056 3838 1056 3469 
Q 1056 3159 1242 3001 
Q 1428 2844 1947 2747 
L 2328 2669 
Q 3034 2534 3370 2195 
Q 3706 1856 3706 1288 
Q 3706 609 3251 259 
Q 2797 -91 1919 -91 
Q 1588 -91 1214 -16 
Q 841 59 441 206 
L 441 856 
Q 825 641 1194 531 
Q 1563 422 1919 422 
Q 2459 422 2753 634 
Q 3047 847 3047 1241 
Q 3047 1584 2836 1778 
Q 2625 1972 2144 2069 
L 1759 2144 
Q 1053 2284 737 2584 
Q 422 2884 422 3419 
Q 422 4038 858 4394 
Q 1294 4750 2059 4750 
Q 2388 4750 2728 4690 
Q 3069 4631 3425 4513 
z
" transform="scale(0.015625)"/>
       <path id="DejaVuSans-63" d="M 3122 3366 
L 3122 2828 
Q 2878 2963 2633 3030 
Q 2388 3097 2138 3097 
Q 1578 3097 1268 2742 
Q 959 2388 959 1747 
Q 959 1106 1268 751 
Q 1578 397 2138 397 
Q 2388 397 2633 464 
Q 2878 531 3122 666 
L 3122 134 
Q 2881 22 2623 -34 
Q 2366 -91 2075 -91 
Q 1284 -91 818 406 
Q 353 903 353 1747 
Q 353 2603 823 3093 
Q 1294 3584 2113 3584 
Q 2378 3584 2631 3529 
Q 2884 3475 3122 3366 
z
" transform="scale(0.015625)"/>
       <path id="DejaVuSans-6f" d="M 1959 3097 
Q 1497 3097 1228 2736 
Q 959 2375 959 1747 
Q 959 1119 1226 758 
Q 1494 397 1959 397 
Q 2419 397 2687 759 
Q 2956 1122 2956 1747 
Q 2956 2369 2687 2733 
Q 2419 3097 1959 3097 
z
M 1959 3584 
Q 2709 3584 3137 3096 
Q 3566 2609 3566 1747 
Q 3566 888 3137 398 
Q 2709 -91 1959 -91 
Q 1206 -91 779 398 
Q 353 888 353 1747 
Q 353 2609 779 3096 
Q 1206 3584 1959 3584 
z
" transform="scale(0.015625)"/>
       <path id="DejaVuSans-6e" d="M 3513 2113 
L 3513 0 
L 2938 0 
L 2938 2094 
Q 2938 2591 2744 2837 
Q 2550 3084 2163 3084 
Q 1697 3084 1428 2787 
Q 1159 2491 1159 1978 
L 1159 0 
L 581 0 
L 581 3500 
L 1159 3500 
L 1159 2956 
Q 1366 3272 1645 3428 
Q 1925 3584 2291 3584 
Q 2894 3584 3203 3211 
Q 3513 2838 3513 2113 
z
" transform="scale(0.015625)"/>
      </defs>
      <use xlink:href="#DejaVuSans-45"/>
      <use xlink:href="#DejaVuSans-6c" x="63.183594"/>
      <use xlink:href="#DejaVuSans-61" x="90.966797"/>
      <use xlink:href="#DejaVuSans-70" x="152.246094"/>
      <use xlink:href="#DejaVuSans-73" x="215.722656"/>
      <use xlink:href="#DejaVuSans-65" x="267.822266"/>
      <use xlink:href="#DejaVuSans-64" x="329.345703"/>
      <use xlink:href="#DejaVuSans-20" x="392.822266"/>
      <use xlink:href="#DejaVuSans-53" x="424.609375"/>
      <use xlink:href="#DejaVuSans-65" x="488.085938"/>
      <use xlink:href="#DejaVuSans-63" x="549.609375"/>
      <use xlink:href="#DejaVuSans-6f" x="604.589844"/>
      <use xlink:href="#DejaVuSans-6e" x="665.771484"/>
      <use xlink:href="#DejaVuSans-64" x="729.150391"/>
      <use xlink:href="#DejaVuSans-73" x="792.626953"/>
     </g>
    </g>
   </g>
   <g id="matplotlib.axis_2">
    <g id="ytick_1">
     <g id="line2d_15">
      <path d="M 57.17 283.244881 
L 781.2 283.244881 
" clip-path="url(#p5aa91a1a63)" style="fill: none; stroke: #b0b0b0; stroke-opacity: 0.25; stroke-width: 0.8; stroke-linecap: square"/>
     </g>
     <g id="line2d_16">
      <defs>
       <path id="m633e80eb97" d="M 0 0 
L -3.5 0 
" style="stroke: #000000; stroke-width: 0.8"/>
      </defs>
      <g>
       <use xlink:href="#m633e80eb97" x="57.17" y="283.244881" style="stroke: #000000; stroke-width: 0.8"/>
      </g>
     </g>
     <g id="text_9">
      <!-- 0.0% -->
      <g transform="translate(24.765313 287.0441) scale(0.1 -0.1)">
       <defs>
        <path id="DejaVuSans-2e" d="M 684 794 
L 1344 794 
L 1344 0 
L 684 0 
L 684 794 
z
" transform="scale(0.015625)"/>
        <path id="DejaVuSans-25" d="M 4653 2053 
Q 4381 2053 4226 1822 
Q 4072 1591 4072 1178 
Q 4072 772 4226 539 
Q 4381 306 4653 306 
Q 4919 306 5073 539 
Q 5228 772 5228 1178 
Q 5228 1588 5073 1820 
Q 4919 2053 4653 2053 
z
M 4653 2450 
Q 5147 2450 5437 2106 
Q 5728 1763 5728 1178 
Q 5728 594 5436 251 
Q 5144 -91 4653 -91 
Q 4153 -91 3862 251 
Q 3572 594 3572 1178 
Q 3572 1766 3864 2108 
Q 4156 2450 4653 2450 
z
M 1428 4353 
Q 1159 4353 1004 4120 
Q 850 3888 850 3481 
Q 850 3069 1003 2837 
Q 1156 2606 1428 2606 
Q 1700 2606 1854 2837 
Q 2009 3069 2009 3481 
Q 2009 3884 1853 4118 
Q 1697 4353 1428 4353 
z
M 4250 4750 
L 4750 4750 
L 1831 -91 
L 1331 -91 
L 4250 4750 
z
M 1428 4750 
Q 1922 4750 2215 4408 
Q 2509 4066 2509 3481 
Q 2509 2891 2217 2550 
Q 1925 2209 1428 2209 
Q 931 2209 642 2551 
Q 353 2894 353 3481 
Q 353 4063 643 4406 
Q 934 4750 1428 4750 
z
" transform="scale(0.015625)"/>
       </defs>
       <use xlink:href="#DejaVuSans-30"/>
       <use xlink:href="#DejaVuSans-2e" x="63.623047"/>
       <use xlink:href="#DejaVuSans-30" x="95.410156"/>
       <use xlink:href="#DejaVuSans-25" x="159.033203"/>
      </g>
     </g>
    </g>
    <g id="ytick_2">
     <g id="line2d_17">
      <path d="M 57.17 242.398046 
L 781.2 242.398046 
" clip-path="url(#p5aa91a1a63)" style="fill: none; stroke: #b0b0b0; stroke-opacity: 0.25; stroke-width: 0.8; stroke-linecap: square"/>
     </g>
     <g id="line2d_18">
      <g>
       <use xlink:href="#m633e80eb97" x="57.17" y="242.398046" style="stroke: #000000; stroke-width: 0.8"/>
      </g>
     </g>
     <g id="text_10">
      <!-- 1.0% -->
      <g transform="translate(24.765313 246.197264) scale(0.1 -0.1)">
       <use xlink:href="#DejaVuSans-31"/>
       <use xlink:href="#DejaVuSans-2e" x="63.623047"/>
       <use xlink:href="#DejaVuSans-30" x="95.410156"/>
       <use xlink:href="#DejaVuSans-25" x="159.033203"/>
      </g>
     </g>
    </g>
    <g id="ytick_3">
     <g id="line2d_19">
      <path d="M 57.17 201.55121 
L 781.2 201.55121 
" clip-path="url(#p5aa91a1a63)" style="fill: none; stroke: #b0b0b0; stroke-opacity: 0.25; stroke-width: 0.8; stroke-linecap: square"/>
     </g>
     <g id="line2d_20">
      <g>
       <use xlink:href="#m633e80eb97" x="57.17" y="201.55121" style="stroke: #000000; stroke-width: 0.8"/>
      </g>
     </g>
     <g id="text_11">
      <!-- 2.0% -->
      <g transform="translate(24.765313 205.350429) scale(0.1 -0.1)">
       <use xlink:href="#DejaVuSans-32"/>
       <use xlink:href="#DejaVuSans-2e" x="63.623047"/>
       <use xlink:href="#DejaVuSans-30" x="95.410156"/>
       <use xlink:href="#DejaVuSans-25" x="159.033203"/>
      </g>
     </g>
    </g>
    <g id="ytick_4">
     <g id="line2d_21">
      <path d="M 57.17 160.704375 
L 781.2 160.704375 
" clip-path="url(#p5aa91a1a63)" style="fill: none; stroke: #b0b0b0; stroke-opacity: 0.25; stroke-width: 0.8; stroke-linecap: square"/>
     </g>
     <g id="line2d_22">
      <g>
       <use xlink:href="#m633e80eb97" x="57.17" y="160.704375" style="stroke: #000000; stroke-width: 0.8"/>
      </g>
     </g>
     <g id="text_12">
      <!-- 3.0% -->
      <g transform="translate(24.765313 164.503593) scale(0.1 -0.1)">
       <use xlink:href="#DejaVuSans-33"/>
       <use xlink:href="#DejaVuSans-2e" x="63.623047"/>
       <use xlink:href="#DejaVuSans-30" x="95.410156"/>
       <use xlink:href="#DejaVuSans-25" x="159.033203"/>
      </g>
     </g>
    </g>
    <g id="ytick_5">
     <g id="line2d_23">
      <path d="M 57.17 119.857539 
L 781.2 119.857539 
" clip-path="url(#p5aa91a1a63)" style="fill: none; stroke: #b0b0b0; stroke-opacity: 0.25; stroke-width: 0.8; stroke-linecap: square"/>
     </g>
     <g id="line2d_24">
      <g>
       <use xlink:href="#m633e80eb97" x="57.17" y="119.857539" style="stroke: #000000; stroke-width: 0.8"/>
      </g>
     </g>
     <g id="text_13">
      <!-- 4.0% -->
      <g transform="translate(24.765313 123.656758) scale(0.1 -0.1)">
       <use xlink:href="#DejaVuSans-34"/>
       <use xlink:href="#DejaVuSans-2e" x="63.623047"/>
       <use xlink:href="#DejaVuSans-30" x="95.410156"/>
       <use xlink:href="#DejaVuSans-25" x="159.033203"/>
      </g>
     </g>
    </g>
    <g id="ytick_6">
     <g id="line2d_25">
      <path d="M 57.17 79.010704 
L 781.2 79.010704 
" clip-path="url(#p5aa91a1a63)" style="fill: none; stroke: #b0b0b0; stroke-opacity: 0.25; stroke-width: 0.8; stroke-linecap: square"/>
     </g>
     <g id="line2d_26">
      <g>
       <use xlink:href="#m633e80eb97" x="57.17" y="79.010704" style="stroke: #000000; stroke-width: 0.8"/>
      </g>
     </g>
     <g id="text_14">
      <!-- 5.0% -->
      <g transform="translate(24.765313 82.809922) scale(0.1 -0.1)">
       <use xlink:href="#DejaVuSans-35"/>
       <use xlink:href="#DejaVuSans-2e" x="63.623047"/>
       <use xlink:href="#DejaVuSans-30" x="95.410156"/>
       <use xlink:href="#DejaVuSans-25" x="159.033203"/>
      </g>
     </g>
    </g>
    <g id="ytick_7">
     <g id="line2d_27">
      <path d="M 57.17 38.163868 
L 781.2 38.163868 
" clip-path="url(#p5aa91a1a63)" style="fill: none; stroke: #b0b0b0; stroke-opacity: 0.25; stroke-width: 0.8; stroke-linecap: square"/>
     </g>
     <g id="line2d_28">
      <g>
       <use xlink:href="#m633e80eb97" x="57.17" y="38.163868" style="stroke: #000000; stroke-width: 0.8"/>
      </g>
     </g>
     <g id="text_15">
      <!-- 6.0% -->
      <g transform="translate(24.765313 41.963087) scale(0.1 -0.1)">
       <use xlink:href="#DejaVuSans-36"/>
       <use xlink:href="#DejaVuSans-2e" x="63.623047"/>
       <use xlink:href="#DejaVuSans-30" x="95.410156"/>
       <use xlink:href="#DejaVuSans-25" x="159.033203"/>
      </g>
     </g>
    </g>
    <g id="text_16">
     <!-- HPR (%) -->
     <g transform="translate(18.685625 185.750625) rotate(-90) scale(0.1 -0.1)">
      <defs>
       <path id="DejaVuSans-48" d="M 628 4666 
L 1259 4666 
L 1259 2753 
L 3553 2753 
L 3553 4666 
L 4184 4666 
L 4184 0 
L 3553 0 
L 3553 2222 
L 1259 2222 
L 1259 0 
L 628 0 
L 628 4666 
z
" transform="scale(0.015625)"/>
       <path id="DejaVuSans-50" d="M 1259 4147 
L 1259 2394 
L 2053 2394 
Q 2494 2394 2734 2622 
Q 2975 2850 2975 3272 
Q 2975 3691 2734 3919 
Q 2494 4147 2053 4147 
L 1259 4147 
z
M 628 4666 
L 2053 4666 
Q 2838 4666 3239 4311 
Q 3641 3956 3641 3272 
Q 3641 2581 3239 2228 
Q 2838 1875 2053 1875 
L 1259 1875 
L 1259 0 
L 628 0 
L 628 4666 
z
" transform="scale(0.015625)"/>
       <path id="DejaVuSans-52" d="M 2841 2188 
Q 3044 2119 3236 1894 
Q 3428 1669 3622 1275 
L 4263 0 
L 3584 0 
L 2988 1197 
Q 2756 1666 2539 1819 
Q 2322 1972 1947 1972 
L 1259 1972 
L 1259 0 
L 628 0 
L 628 4666 
L 2053 4666 
Q 2853 4666 3247 4331 
Q 3641 3997 3641 3322 
Q 3641 2881 3436 2590 
Q 3231 2300 2841 2188 
z
M 1259 4147 
L 1259 2491 
L 2053 2491 
Q 2509 2491 2742 2702 
Q 2975 2913 2975 3322 
Q 2975 3731 2742 3939 
Q 2509 4147 2053 4147 
L 1259 4147 
z
" transform="scale(0.015625)"/>
       <path id="DejaVuSans-28" d="M 1984 4856 
Q 1566 4138 1362 3434 
Q 1159 2731 1159 2009 
Q 1159 1288 1364 580 
Q 1569 -128 1984 -844 
L 1484 -844 
Q 1016 -109 783 600 
Q 550 1309 550 2009 
Q 550 2706 781 3412 
Q 1013 4119 1484 4856 
L 1984 4856 
z
" transform="scale(0.015625)"/>
       <path id="DejaVuSans-29" d="M 513 4856 
L 1013 4856 
Q 1481 4119 1714 3412 
Q 1947 2706 1947 2009 
Q 1947 1309 1714 600 
Q 1481 -109 1013 -844 
L 513 -844 
Q 928 -128 1133 580 
Q 1338 1288 1338 2009 
Q 1338 2731 1133 3434 
Q 928 4138 513 4856 
z
" transform="scale(0.015625)"/>
      </defs>
      <use xlink:href="#DejaVuSans-48"/>
      <use xlink:href="#DejaVuSans-50" x="75.195312"/>
      <use xlink:href="#DejaVuSans-52" x="135.498047"/>
      <use xlink:href="#DejaVuSans-20" x="204.980469"/>
      <use xlink:href="#DejaVuSans-28" x="236.767578"/>
      <use xlink:href="#DejaVuSans-25" x="275.78125"/>
      <use xlink:href="#DejaVuSans-29" x="370.800781"/>
     </g>
    </g>
   </g>
   <g id="line2d_29">
    <path d="M 90.080455 283.244881 
L 90.18267 288.804631 
L 96.044347 288.815176 
L 96.254759 285.56729 
L 98.310488 285.568951 
L 98.310488 291.059336 
L 98.412655 291.058505 
L 101.706173 291.059502 
L 101.808312 242.349024 
L 104.482948 242.351764 
L 107.668968 242.351099 
L 107.881758 243.472482 
L 113.841102 243.467251 
L 114.056657 239.736118 
L 120.015444 239.737114 
L 120.2304 244.884693 
L 126.196033 244.881703 
L 126.405142 239.236846 
L 132.366576 239.225802 
L 132.578156 233.840752 
L 144.713741 233.754648 
L 144.928363 232.263059 
L 150.887466 232.262477 
L 151.102229 231.183724 
L 157.066107 231.182561 
L 157.277962 231.349539 
L 161.602824 231.249153 
L 166.228351 231.245001 
L 166.438553 210.17659 
L 178.575339 210.174514 
L 178.786494 209.429301 
L 184.74829 209.42573 
L 184.960406 206.523175 
L 190.923792 206.522428 
L 191.133419 206.689489 
L 197.092218 206.689074 
L 197.30554 206.274162 
L 203.266908 206.273332 
L 203.47823 206.938834 
L 209.439318 206.938087 
L 209.650374 205.194329 
L 215.611789 205.195076 
L 215.824693 208.931108 
L 221.786094 208.927288 
L 221.998442 206.938336 
L 229.304838 206.937672 
L 229.407097 202.944407 
L 235.274695 202.937847 
L 235.478759 192.407959 
L 241.438411 192.400818 
L 241.651905 186.761524 
L 247.612505 186.753138 
L 247.825676 179.371663 
L 253.787891 179.370832 
L 254.001614 179.617272 
L 259.96291 179.620344 
L 260.1756 173.226453 
L 266.133621 173.227366 
L 266.348258 174.971042 
L 272.307289 174.973782 
L 272.524575 182.277373 
L 277.251961 182.279282 
L 277.460513 187.259717 
L 283.32688 187.250749 
L 283.531337 183.936438 
L 289.497283 183.932535 
L 289.604171 182.828706 
L 289.706448 182.862749 
L 295.669978 182.862666 
L 295.879404 175.469151 
L 301.840658 175.466827 
L 302.051282 186.927671 
L 308.01032 186.92518 
L 308.226492 184.517829 
L 314.186741 184.529204 
L 314.399241 192.40771 
L 320.354096 192.400735 
L 320.573068 195.149432 
L 324.785258 195.142789 
L 324.989547 186.595459 
L 330.85596 186.594712 
L 331.060319 186.844556 
L 337.032983 186.84439 
L 337.139302 189.750764 
L 343.214272 189.734075 
L 343.320477 174.472434 
L 349.391997 174.47343 
L 349.498518 177.627987 
L 355.568044 177.607644 
L 355.67427 158.198547 
L 361.743775 158.199295 
L 361.850405 159.112067 
L 367.927796 159.112565 
L 368.033894 158.114436 
L 370.29883 158.10605 
L 374.109974 158.112526 
L 374.217039 155.7075 
L 376.995925 155.696623 
L 376.995925 154.628082 
L 377.098195 154.628082 
L 382.965982 154.62667 
L 383.170731 153.549162 
L 389.138962 153.524917 
L 389.347052 141.590374 
L 395.314844 141.586887 
L 395.41068 127.725666 
L 395.42078 127.725915 
L 400.05257 127.738037 
L 401.491777 127.743019 
L 401.598313 133.291311 
L 407.667619 133.313148 
L 407.773913 173.310316 
L 413.845136 173.30824 
L 413.951083 170.403692 
L 418.2776 170.405519 
L 426.202446 170.404855 
L 426.407007 170.570172 
L 432.376101 170.56984 
L 432.482337 172.230898 
L 438.554418 172.221515 
L 438.661407 165.007101 
L 450.911471 165.061985 
L 451.017504 139.599263 
L 457.089285 139.597685 
L 457.195839 136.360677 
L 463.267095 136.356193 
L 463.341134 134.534302 
L 463.373182 134.537125 
L 469.446618 134.547504 
L 469.554018 154.046857 
L 473.986155 154.016301 
L 473.986155 128.306891 
L 474.088362 128.306891 
L 479.959476 128.298006 
L 480.052034 122.07948 
L 480.061657 122.079646 
L 486.133708 122.078068 
L 486.240186 121.664319 
L 492.313584 121.670961 
L 492.419579 133.289484 
L 498.492301 133.297704 
L 498.599317 141.260072 
L 504.673002 141.256917 
L 504.779507 138.685909 
L 510.852747 138.684498 
L 510.959033 139.433033 
L 517.02899 139.433199 
L 517.134803 140.097456 
L 523.203665 140.09812 
L 523.309487 137.938122 
L 527.324802 137.942273 
L 529.385321 137.944515 
L 529.441428 147.653381 
L 529.492343 147.652883 
L 535.467892 147.650641 
L 535.723388 146.906092 
L 541.692616 146.910327 
L 541.900874 150.891303 
L 545.400583 150.892715 
L 545.400583 148.313487 
L 545.502931 148.31357 
L 551.370579 148.311992 
L 551.575007 146.576455 
L 557.540651 146.561343 
L 557.748554 136.278392 
L 563.713231 136.281797 
L 563.819075 140.844745 
L 563.921462 140.834117 
L 569.901117 140.828471 
L 570.053581 132.458498 
L 576.029559 132.461072 
L 576.280712 135.282006 
L 582.257816 135.27744 
L 582.364714 135.613388 
L 588.447687 135.591218 
L 588.555236 115.269515 
L 592.478965 115.265695 
L 594.642855 115.261295 
L 594.750921 112.613482 
L 598.769499 112.610659 
L 598.973981 109.209496 
L 604.841358 109.212735 
L 605.045868 109.95662 
L 611.012477 109.952468 
L 611.220489 109.458593 
L 617.188338 109.453362 
L 617.294523 105.88821 
L 623.362417 105.882232 
L 623.468143 103.646342 
L 629.538888 103.630068 
L 629.627467 99.909896 
L 629.644676 99.910311 
L 633.657312 99.899351 
L 635.71516 99.899184 
L 635.821243 77.242036 
L 641.893233 77.237386 
L 641.999488 75.082287 
L 648.076393 75.055716 
L 648.1457 53.827053 
L 648.183068 53.828547 
L 650.140369 53.83245 
L 650.242536 53.830291 
L 650.344896 60.801753 
L 656.211852 60.800591 
L 656.416487 59.971432 
L 668.559792 60.047489 
L 668.665667 54.574342 
L 674.7363 54.57318 
L 674.944582 54.822691 
L 680.915179 54.815301 
L 681.021321 47.599808 
L 687.091134 47.599725 
L 687.198145 46.769071 
L 693.266693 46.768241 
L 693.350034 45.855966 
L 695.301975 45.854721 
L 695.407931 44.942613 
L 701.377045 44.945519 
L 701.635281 46.187597 
L 707.604607 46.191333 
L 707.813291 52.913367 
L 719.956464 52.986186 
L 720.063522 46.105063 
L 726.139836 46.104897 
L 726.246179 44.693516 
L 732.319236 44.691191 
L 732.425524 46.021367 
L 737.158851 46.022612 
L 738.497086 46.017132 
L 738.574546 44.610484 
L 738.603511 44.61256 
L 744.680491 44.613473 
L 744.787412 39.46083 
L 747.155282 39.466227 
L 748.289545 39.464152 
L 748.289545 39.464152 
" clip-path="url(#p5aa91a1a63)" style="fill: none; stroke: #2a9d8f; stroke-width: 1.8; stroke-linecap: square"/>
   </g>
   <g id="patch_11">
    <path d="M 57.17 303.64 
L 57.17 26.88 
" style="fill: none; stroke: #000000; stroke-width: 0.8; stroke-linejoin: miter; stroke-linecap: square"/>
   </g>
   <g id="patch_12">
    <path d="M 781.2 303.64 
L 781.2 26.88 
" style="fill: none; stroke: #000000; stroke-width: 0.8; stroke-linejoin: miter; stroke-linecap: square"/>
   </g>
   <g id="patch_13">
    <path d="M 57.17 303.64 
L 781.2 303.64 
" style="fill: none; stroke: #000000; stroke-width: 0.8; stroke-linejoin: miter; stroke-linecap: square"/>
   </g>
   <g id="patch_14">
    <path d="M 57.17 26.88 
L 781.2 26.88 
" style="fill: none; stroke: #000000; stroke-width: 0.8; stroke-linejoin: miter; stroke-linecap: square"/>
   </g>
   <g id="text_17">
    <!-- Holding Period Return (HPR) Over Time -->
    <g transform="translate(302.003125 20.88) scale(0.12 -0.12)">
     <defs>
      <path id="DejaVuSans-69" d="M 603 3500 
L 1178 3500 
L 1178 0 
L 603 0 
L 603 3500 
z
M 603 4863 
L 1178 4863 
L 1178 4134 
L 603 4134 
L 603 4863 
z
" transform="scale(0.015625)"/>
      <path id="DejaVuSans-67" d="M 2906 1791 
Q 2906 2416 2648 2759 
Q 2391 3103 1925 3103 
Q 1463 3103 1205 2759 
Q 947 2416 947 1791 
Q 947 1169 1205 825 
Q 1463 481 1925 481 
Q 2391 481 2648 825 
Q 2906 1169 2906 1791 
z
M 3481 434 
Q 3481 -459 3084 -895 
Q 2688 -1331 1869 -1331 
Q 1566 -1331 1297 -1286 
Q 1028 -1241 775 -1147 
L 775 -588 
Q 1028 -725 1275 -790 
Q 1522 -856 1778 -856 
Q 2344 -856 2625 -561 
Q 2906 -266 2906 331 
L 2906 616 
Q 2728 306 2450 153 
Q 2172 0 1784 0 
Q 1141 0 747 490 
Q 353 981 353 1791 
Q 353 2603 747 3093 
Q 1141 3584 1784 3584 
Q 2172 3584 2450 3431 
Q 2728 3278 2906 2969 
L 2906 3500 
L 3481 3500 
L 3481 434 
z
" transform="scale(0.015625)"/>
      <path id="DejaVuSans-72" d="M 2631 2963 
Q 2534 3019 2420 3045 
Q 2306 3072 2169 3072 
Q 1681 3072 1420 2755 
Q 1159 2438 1159 1844 
L 1159 0 
L 581 0 
L 581 3500 
L 1159 3500 
L 1159 2956 
Q 1341 3275 1631 3429 
Q 1922 3584 2338 3584 
Q 2397 3584 2469 3576 
Q 2541 3569 2628 3553 
L 2631 2963 
z
" transform="scale(0.015625)"/>
      <path id="DejaVuSans-74" d="M 1172 4494 
L 1172 3500 
L 2356 3500 
L 2356 3053 
L 1172 3053 
L 1172 1153 
Q 1172 725 1289 603 
Q 1406 481 1766 481 
L 2356 481 
L 2356 0 
L 1766 0 
Q 1100 0 847 248 
Q 594 497 594 1153 
L 594 3053 
L 172 3053 
L 172 3500 
L 594 3500 
L 594 4494 
L 1172 4494 
z
" transform="scale(0.015625)"/>
      <path id="DejaVuSans-75" d="M 544 1381 
L 544 3500 
L 1119 3500 
L 1119 1403 
Q 1119 906 1312 657 
Q 1506 409 1894 409 
Q 2359 409 2629 706 
Q 2900 1003 2900 1516 
L 2900 3500 
L 3475 3500 
L 3475 0 
L 2900 0 
L 2900 538 
Q 2691 219 2414 64 
Q 2138 -91 1772 -91 
Q 1169 -91 856 284 
Q 544 659 544 1381 
z
M 1991 3584 
L 1991 3584 
z
" transform="scale(0.015625)"/>
      <path id="DejaVuSans-4f" d="M 2522 4238 
Q 1834 4238 1429 3725 
Q 1025 3213 1025 2328 
Q 1025 1447 1429 934 
Q 1834 422 2522 422 
Q 3209 422 3611 934 
Q 4013 1447 4013 2328 
Q 4013 3213 3611 3725 
Q 3209 4238 2522 4238 
z
M 2522 4750 
Q 3503 4750 4090 4092 
Q 4678 3434 4678 2328 
Q 4678 1225 4090 567 
Q 3503 -91 2522 -91 
Q 1538 -91 948 565 
Q 359 1222 359 2328 
Q 359 3434 948 4092 
Q 1538 4750 2522 4750 
z
" transform="scale(0.015625)"/>
      <path id="DejaVuSans-76" d="M 191 3500 
L 800 3500 
L 1894 563 
L 2988 3500 
L 3597 3500 
L 2284 0 
L 1503 0 
L 191 3500 
z
" transform="scale(0.015625)"/>
      <path id="DejaVuSans-54" d="M -19 4666 
L 3928 4666 
L 3928 4134 
L 2272 4134 
L 2272 0 
L 1638 0 
L 1638 4134 
L -19 4134 
L -19 4666 
z
" transform="scale(0.015625)"/>
      <path id="DejaVuSans-6d" d="M 3328 2828 
Q 3544 3216 3844 3400 
Q 4144 3584 4550 3584 
Q 5097 3584 5394 3201 
Q 5691 2819 5691 2113 
L 5691 0 
L 5113 0 
L 5113 2094 
Q 5113 2597 4934 2840 
Q 4756 3084 4391 3084 
Q 3944 3084 3684 2787 
Q 3425 2491 3425 1978 
L 3425 0 
L 2847 0 
L 2847 2094 
Q 2847 2600 2669 2842 
Q 2491 3084 2119 3084 
Q 1678 3084 1418 2786 
Q 1159 2488 1159 1978 
L 1159 0 
L 581 0 
L 581 3500 
L 1159 3500 
L 1159 2956 
Q 1356 3278 1631 3431 
Q 1906 3584 2284 3584 
Q 2666 3584 2933 3390 
Q 3200 3197 3328 2828 
z
" transform="scale(0.015625)"/>
     </defs>
     <use xlink:href="#DejaVuSans-48"/>
     <use xlink:href="#DejaVuSans-6f" x="75.195312"/>
     <use xlink:href="#DejaVuSans-6c" x="136.376953"/>
     <use xlink:href="#DejaVuSans-64" x="164.160156"/>
     <use xlink:href="#DejaVuSans-69" x="227.636719"/>
     <use xlink:href="#DejaVuSans-6e" x="255.419922"/>
     <use xlink:href="#DejaVuSans-67" x="318.798828"/>
     <use xlink:href="#DejaVuSans-20" x="382.275391"/>
     <use xlink:href="#DejaVuSans-50" x="414.0625"/>
     <use xlink:href="#DejaVuSans-65" x="470.740234"/>
     <use xlink:href="#DejaVuSans-72" x="532.263672"/>
     <use xlink:href="#DejaVuSans-69" x="573.376953"/>
     <use xlink:href="#DejaVuSans-6f" x="601.160156"/>
     <use xlink:href="#DejaVuSans-64" x="662.341797"/>
     <use xlink:href="#DejaVuSans-20" x="725.818359"/>
     <use xlink:href="#DejaVuSans-52" x="757.605469"/>
     <use xlink:href="#DejaVuSans-65" x="822.587891"/>
     <use xlink:href="#DejaVuSans-74" x="884.111328"/>
     <use xlink:href="#DejaVuSans-75" x="923.320312"/>
     <use xlink:href="#DejaVuSans-72" x="986.699219"/>
     <use xlink:href="#DejaVuSans-6e" x="1026.0625"/>
     <use xlink:href="#DejaVuSans-20" x="1089.441406"/>
     <use xlink:href="#DejaVuSans-28" x="1121.228516"/>
     <use xlink:href="#DejaVuSans-48" x="1160.242188"/>
     <use xlink:href="#DejaVuSans-50" x="1235.4375"/>
     <use xlink:href="#DejaVuSans-52" x="1295.740234"/>
     <use xlink:href="#DejaVuSans-29" x="1365.222656"/>
     <use xlink:href="#DejaVuSans-20" x="1404.236328"/>
     <use xlink:href="#DejaVuSans-4f" x="1436.023438"/>
     <use xlink:href="#DejaVuSans-76" x="1514.734375"/>
     <use xlink:href="#DejaVuSans-65" x="1573.914062"/>
     <use xlink:href="#DejaVuSans-72" x="1635.4375"/>
     <use xlink:href="#DejaVuSans-20" x="1676.550781"/>
     <use xlink:href="#DejaVuSans-54" x="1708.337891"/>
     <use xlink:href="#DejaVuSans-69" x="1766.296875"/>
     <use xlink:href="#DejaVuSans-6d" x="1794.080078"/>
     <use xlink:href="#DejaVuSans-65" x="1891.492188"/>
    </g>
   </g>
  </g>
 </g>
 <defs>
  <clipPath id="p5aa91a1a63">
   <rect x="57.17" y="26.88" width="724.03" height="276.76"/>
  </clipPath>
 </defs>
</svg>
