<?xml version="1.0" encoding="utf-8" standalone="no"?>
<!DOCTYPE svg PUBLIC "-//W3C//DTD SVG 1.1//EN"
  "http://www.w3.org/Graphics/SVG/1.1/DTD/svg11.dtd">
<svg xmlns:xlink="http://www.w3.org/1999/xlink" width="720pt" height="432pt" viewBox="0 0 720 432" xmlns="http://www.w3.org/2000/svg" version="1.1">
 <metadata>
  <rdf:RDF xmlns:dc="http://purl.org/dc/elements/1.1/" xmlns:cc="http://creativecommons.org/ns#" xmlns:rdf="http://www.w3.org/1999/02/22-rdf-syntax-ns#">
   <cc:Work>
    <dc:type rdf:resource="http://purl.org/dc/dcmitype/StillImage"/>
    <dc:date>2026-04-10T14:36:39.260216</dc:date>
    <dc:format>image/svg+xml</dc:format>
    <dc:creator>
     <cc:Agent>
      <dc:title>Matplotlib v3.10.8, https://matplotlib.org/</dc:title>
     </cc:Agent>
    </dc:creator>
   </cc:Work>
  </rdf:RDF>
 </metadata>
 <defs>
  <style type="text/css">*{stroke-linejoin: round; stroke-linecap: butt}</style>
 </defs>
 <g id="figure_1">
  <g id="patch_1">
   <path d="M 0 432 
L 720 432 
L 720 0 
L 0 0 
z
" style="fill: #ffffff"/>
  </g>
  <g id="axes_1">
   <g id="patch_2">
    <path d="M 46.55 390.04 
L 709.2 390.04 
L 709.2 26.88 
L 46.55 26.88 
z
" style="fill: #ffffff"/>
   </g>
   <g id="matplotlib.axis_1">
    <g id="xtick_1">
     <g id="line2d_1">
      <path d="M 76.670455 390.04 
L 76.670455 26.88 
" clip-path="url(#p73f24afc6a)" style="fill: none; stroke: #b0b0b0; stroke-width: 0.8; stroke-linecap: square"/>
     </g>
     <g id="line2d_2">
      <defs>
       <path id="mefe3514dd2" d="M 0 0 
L 0 3.5 
" style="stroke: #000000; stroke-width: 0.8"/>
      </defs>
      <g>
       <use xlink:href="#mefe3514dd2" x="76.670455" y="390.04" style="stroke: #000000; stroke-width: 0.8"/>
      </g>
     </g>
     <g id="text_1">
      <!-- 0 -->
      <g transform="translate(73.489205 404.638438) scale(0.1 -0.1)">
       <defs>
        <path id="DejaVuSans-30" d="M 2034 4250 
Q 1547 4250 1301 3770 
Q 1056 3291 1056 2328 
Q 1056 1369 1301 889 
Q 1547 409 2034 409 
Q 2525 409 2770 889 
Q 3016 1369 3016 2328 
Q 3016 3291 2770 3770 
Q 2525 4250 2034 4250 
z
M 2034 4750 
Q 2819 4750 3233 4129 
Q 3647 3509 3647 2328 
Q 3647 1150 3233 529 
Q 2819 -91 2034 -91 
Q 1250 -91 836 529 
Q 422 1150 422 2328 
Q 422 3509 836 4129 
Q 1250 4750 2034 4750 
z
" transform="scale(0.015625)"/>
       </defs>
       <use xlink:href="#DejaVuSans-30"/>
      </g>
     </g>
    </g>
    <g id="xtick_2">
     <g id="line2d_3">
      <path d="M 163.026125 390.04 
L 163.026125 26.88 
" clip-path="url(#p73f24afc6a)" style="fill: none; stroke: #b0b0b0; stroke-width: 0.8; stroke-linecap: square"/>
     </g>
     <g id="line2d_4">
      <g>
       <use xlink:href="#mefe3514dd2" x="163.026125" y="390.04" style="stroke: #000000; stroke-width: 0.8"/>
      </g>
     </g>
     <g id="text_2">
      <!-- 10000 -->
      <g transform="translate(147.119875 404.638438) scale(0.1 -0.1)">
       <defs>
        <path id="DejaVuSans-31" d="M 794 531 
L 1825 531 
L 1825 4091 
L 703 3866 
L 703 4441 
L 1819 4666 
L 2450 4666 
L 2450 531 
L 3481 531 
L 3481 0 
L 794 0 
L 794 531 
z
" transform="scale(0.015625)"/>
       </defs>
       <use xlink:href="#DejaVuSans-31"/>
       <use xlink:href="#DejaVuSans-30" transform="translate(63.623047 0)"/>
       <use xlink:href="#DejaVuSans-30" transform="translate(127.246094 0)"/>
       <use xlink:href="#DejaVuSans-30" transform="translate(190.869141 0)"/>
       <use xlink:href="#DejaVuSans-30" transform="translate(254.492188 0)"/>
      </g>
     </g>
    </g>
    <g id="xtick_3">
     <g id="line2d_5">
      <path d="M 249.381794 390.04 
L 249.381794 26.88 
" clip-path="url(#p73f24afc6a)" style="fill: none; stroke: #b0b0b0; stroke-width: 0.8; stroke-linecap: square"/>
     </g>
     <g id="line2d_6">
      <g>
       <use xlink:href="#mefe3514dd2" x="249.381794" y="390.04" style="stroke: #000000; stroke-width: 0.8"/>
      </g>
     </g>
     <g id="text_3">
      <!-- 20000 -->
      <g transform="translate(233.475544 404.638438) scale(0.1 -0.1)">
       <defs>
        <path id="DejaVuSans-32" d="M 1228 531 
L 3431 531 
L 3431 0 
L 469 0 
L 469 531 
Q 828 903 1448 1529 
Q 2069 2156 2228 2338 
Q 2531 2678 2651 2914 
Q 2772 3150 2772 3378 
Q 2772 3750 2511 3984 
Q 2250 4219 1831 4219 
Q 1534 4219 1204 4116 
Q 875 4013 500 3803 
L 500 4441 
Q 881 4594 1212 4672 
Q 1544 4750 1819 4750 
Q 2544 4750 2975 4387 
Q 3406 4025 3406 3419 
Q 3406 3131 3298 2873 
Q 3191 2616 2906 2266 
Q 2828 2175 2409 1742 
Q 1991 1309 1228 531 
z
" transform="scale(0.015625)"/>
       </defs>
       <use xlink:href="#DejaVuSans-32"/>
       <use xlink:href="#DejaVuSans-30" transform="translate(63.623047 0)"/>
       <use xlink:href="#DejaVuSans-30" transform="translate(127.246094 0)"/>
       <use xlink:href="#DejaVuSans-30" transform="translate(190.869141 0)"/>
       <use xlink:href="#DejaVuSans-30" transform="translate(254.492188 0)"/>
      </g>
     </g>
    </g>
    <g id="xtick_4">
     <g id="line2d_7">
      <path d="M 335.737464 390.04 
L 335.737464 26.88 
" clip-path="url(#p73f24afc6a)" style="fill: none; stroke: #b0b0b0; stroke-width: 0.8; stroke-linecap: square"/>
     </g>
     <g id="line2d_8">
      <g>
       <use xlink:href="#mefe3514dd2" x="335.737464" y="390.04" style="stroke: #000000; stroke-width: 0.8"/>
      </g>
     </g>
     <g id="text_4">
      <!-- 30000 -->
      <g transform="translate(319.831214 404.638438) scale(0.1 -0.1)">
       <defs>
        <path id="DejaVuSans-33" d="M 2597 2516 
Q 3050 2419 3304 2112 
Q 3559 1806 3559 1356 
Q 3559 666 3084 287 
Q 2609 -91 1734 -91 
Q 1441 -91 1130 -33 
Q 819 25 488 141 
L 488 750 
Q 750 597 1062 519 
Q 1375 441 1716 441 
Q 2309 441 2620 675 
Q 2931 909 2931 1356 
Q 2931 1769 2642 2001 
Q 2353 2234 1838 2234 
L 1294 2234 
L 1294 2753 
L 1863 2753 
Q 2328 2753 2575 2939 
Q 2822 3125 2822 3475 
Q 2822 3834 2567 4026 
Q 2313 4219 1838 4219 
Q 1578 4219 1281 4162 
Q 984 4106 628 3988 
L 628 4550 
Q 988 4650 1302 4700 
Q 1616 4750 1894 4750 
Q 2613 4750 3031 4423 
Q 3450 4097 3450 3541 
Q 3450 3153 3228 2886 
Q 3006 2619 2597 2516 
z
" transform="scale(0.015625)"/>
       </defs>
       <use xlink:href="#DejaVuSans-33"/>
       <use xlink:href="#DejaVuSans-30" transform="translate(63.623047 0)"/>
       <use xlink:href="#DejaVuSans-30" transform="translate(127.246094 0)"/>
       <use xlink:href="#DejaVuSans-30" transform="translate(190.869141 0)"/>
       <use xlink:href="#DejaVuSans-30" transform="translate(254.492188 0)"/>
      </g>
     </g>
    </g>
    <g id="xtick_5">
     <g id="line2d_9">
      <path d="M 422.093134 390.04 
L 422.093134 26.88 
" clip-path="url(#p73f24afc6a)" style="fill: none; stroke: #b0b0b0; stroke-width: 0.8; stroke-linecap: square"/>
     </g>
     <g id="line2d_10">
      <g>
       <use xlink:href="#mefe3514dd2" x="422.093134" y="390.04" style="stroke: #000000; stroke-width: 0.8"/>
      </g>
     </g>
     <g id="text_5">
      <!-- 40000 -->
      <g transform="translate(406.186884 404.638438) scale(0.1 -0.1)">
       <defs>
        <path id="DejaVuSans-34" d="M 2419 4116 
L 825 1625 
L 2419 1625 
L 2419 4116 
z
M 2253 4666 
L 3047 4666 
L 3047 1625 
L 3713 1625 
L 3713 1100 
L 3047 1100 
L 3047 0 
L 2419 0 
L 2419 1100 
L 313 1100 
L 313 1709 
L 2253 4666 
z
" transform="scale(0.015625)"/>
       </defs>
       <use xlink:href="#DejaVuSans-34"/>
       <use xlink:href="#DejaVuSans-30" transform="translate(63.623047 0)"/>
       <use xlink:href="#DejaVuSans-30" transform="translate(127.246094 0)"/>
       <use xlink:href="#DejaVuSans-30" transform="translate(190.869141 0)"/>
       <use xlink:href="#DejaVuSans-30" transform="translate(254.492188 0)"/>
      </g>
     </g>
    </g>
    <g id="xtick_6">
     <g id="line2d_11">
      <path d="M 508.448804 390.04 
L 508.448804 26.88 
" clip-path="url(#p73f24afc6a)" style="fill: none; stroke: #b0b0b0; stroke-width: 0.8; stroke-linecap: square"/>
     </g>
     <g id="line2d_12">
      <g>
       <use xlink:href="#mefe3514dd2" x="508.448804" y="390.04" style="stroke: #000000; stroke-width: 0.8"/>
      </g>
     </g>
     <g id="text_6">
      <!-- 50000 -->
      <g transform="translate(492.542554 404.638438) scale(0.1 -0.1)">
       <defs>
        <path id="DejaVuSans-35" d="M 691 4666 
L 3169 4666 
L 3169 4134 
L 1269 4134 
L 1269 2991 
Q 1406 3038 1543 3061 
Q 1681 3084 1819 3084 
Q 2600 3084 3056 2656 
Q 3513 2228 3513 1497 
Q 3513 744 3044 326 
Q 2575 -91 1722 -91 
Q 1428 -91 1123 -41 
Q 819 9 494 109 
L 494 744 
Q 775 591 1075 516 
Q 1375 441 1709 441 
Q 2250 441 2565 725 
Q 2881 1009 2881 1497 
Q 2881 1984 2565 2268 
Q 2250 2553 1709 2553 
Q 1456 2553 1204 2497 
Q 953 2441 691 2322 
L 691 4666 
z
" transform="scale(0.015625)"/>
       </defs>
       <use xlink:href="#DejaVuSans-35"/>
       <use xlink:href="#DejaVuSans-30" transform="translate(63.623047 0)"/>
       <use xlink:href="#DejaVuSans-30" transform="translate(127.246094 0)"/>
       <use xlink:href="#DejaVuSans-30" transform="translate(190.869141 0)"/>
       <use xlink:href="#DejaVuSans-30" transform="translate(254.492188 0)"/>
      </g>
     </g>
    </g>
    <g id="xtick_7">
     <g id="line2d_13">
      <path d="M 594.804474 390.04 
L 594.804474 26.88 
" clip-path="url(#p73f24afc6a)" style="fill: none; stroke: #b0b0b0; stroke-width: 0.8; stroke-linecap: square"/>
     </g>
     <g id="line2d_14">
      <g>
       <use xlink:href="#mefe3514dd2" x="594.804474" y="390.04" style="stroke: #000000; stroke-width: 0.8"/>
      </g>
     </g>
     <g id="text_7">
      <!-- 60000 -->
      <g transform="translate(578.898224 404.638438) scale(0.1 -0.1)">
       <defs>
        <path id="DejaVuSans-36" d="M 2113 2584 
Q 1688 2584 1439 2293 
Q 1191 2003 1191 1497 
Q 1191 994 1439 701 
Q 1688 409 2113 409 
Q 2538 409 2786 701 
Q 3034 994 3034 1497 
Q 3034 2003 2786 2293 
Q 2538 2584 2113 2584 
z
M 3366 4563 
L 3366 3988 
Q 3128 4100 2886 4159 
Q 2644 4219 2406 4219 
Q 1781 4219 1451 3797 
Q 1122 3375 1075 2522 
Q 1259 2794 1537 2939 
Q 1816 3084 2150 3084 
Q 2853 3084 3261 2657 
Q 3669 2231 3669 1497 
Q 3669 778 3244 343 
Q 2819 -91 2113 -91 
Q 1303 -91 875 529 
Q 447 1150 447 2328 
Q 447 3434 972 4092 
Q 1497 4750 2381 4750 
Q 2619 4750 2861 4703 
Q 3103 4656 3366 4563 
z
" transform="scale(0.015625)"/>
       </defs>
       <use xlink:href="#DejaVuSans-36"/>
       <use xlink:href="#DejaVuSans-30" transform="translate(63.623047 0)"/>
       <use xlink:href="#DejaVuSans-30" transform="translate(127.246094 0)"/>
       <use xlink:href="#DejaVuSans-30" transform="translate(190.869141 0)"/>
       <use xlink:href="#DejaVuSans-30" transform="translate(254.492188 0)"/>
      </g>
     </g>
    </g>
    <g id="xtick_8">
     <g id="line2d_15">
      <path d="M 681.160144 390.04 
L 681.160144 26.88 
" clip-path="url(#p73f24afc6a)" style="fill: none; stroke: #b0b0b0; stroke-width: 0.8; stroke-linecap: square"/>
     </g>
     <g id="line2d_16">
      <g>
       <use xlink:href="#mefe3514dd2" x="681.160144" y="390.04" style="stroke: #000000; stroke-width: 0.8"/>
      </g>
     </g>
     <g id="text_8">
      <!-- 70000 -->
      <g transform="translate(665.253894 404.638438) scale(0.1 -0.1)">
       <defs>
        <path id="DejaVuSans-37" d="M 525 4666 
L 3525 4666 
L 3525 4397 
L 1831 0 
L 1172 0 
L 2766 4134 
L 525 4134 
L 525 4666 
z
" transform="scale(0.015625)"/>
       </defs>
       <use xlink:href="#DejaVuSans-37"/>
       <use xlink:href="#DejaVuSans-30" transform="translate(63.623047 0)"/>
       <use xlink:href="#DejaVuSans-30" transform="translate(127.246094 0)"/>
       <use xlink:href="#DejaVuSans-30" transform="translate(190.869141 0)"/>
       <use xlink:href="#DejaVuSans-30" transform="translate(254.492188 0)"/>
      </g>
     </g>
    </g>
    <g id="text_9">
     <!-- Elapsed Trading Seconds -->
     <g transform="translate(315.705469 418.316562) scale(0.1 -0.1)">
      <defs>
       <path id="DejaVuSans-45" d="M 628 4666 
L 3578 4666 
L 3578 4134 
L 1259 4134 
L 1259 2753 
L 3481 2753 
L 3481 2222 
L 1259 2222 
L 1259 531 
L 3634 531 
L 3634 0 
L 628 0 
L 628 4666 
z
" transform="scale(0.015625)"/>
       <path id="DejaVuSans-6c" d="M 603 4863 
L 1178 4863 
L 1178 0 
L 603 0 
L 603 4863 
z
" transform="scale(0.015625)"/>
       <path id="DejaVuSans-61" d="M 2194 1759 
Q 1497 1759 1228 1600 
Q 959 1441 959 1056 
Q 959 750 1161 570 
Q 1363 391 1709 391 
Q 2188 391 2477 730 
Q 2766 1069 2766 1631 
L 2766 1759 
L 2194 1759 
z
M 3341 1997 
L 3341 0 
L 2766 0 
L 2766 531 
Q 2569 213 2275 61 
Q 1981 -91 1556 -91 
Q 1019 -91 701 211 
Q 384 513 384 1019 
Q 384 1609 779 1909 
Q 1175 2209 1959 2209 
L 2766 2209 
L 2766 2266 
Q 2766 2663 2505 2880 
Q 2244 3097 1772 3097 
Q 1472 3097 1187 3025 
Q 903 2953 641 2809 
L 641 3341 
Q 956 3463 1253 3523 
Q 1550 3584 1831 3584 
Q 2591 3584 2966 3190 
Q 3341 2797 3341 1997 
z
" transform="scale(0.015625)"/>
       <path id="DejaVuSans-70" d="M 1159 525 
L 1159 -1331 
L 581 -1331 
L 581 3500 
L 1159 3500 
L 1159 2969 
Q 1341 3281 1617 3432 
Q 1894 3584 2278 3584 
Q 2916 3584 3314 3078 
Q 3713 2572 3713 1747 
Q 3713 922 3314 415 
Q 2916 -91 2278 -91 
Q 1894 -91 1617 61 
Q 1341 213 1159 525 
z
M 3116 1747 
Q 3116 2381 2855 2742 
Q 2594 3103 2138 3103 
Q 1681 3103 1420 2742 
Q 1159 2381 1159 1747 
Q 1159 1113 1420 752 
Q 1681 391 2138 391 
Q 2594 391 2855 752 
Q 3116 1113 3116 1747 
z
" transform="scale(0.015625)"/>
       <path id="DejaVuSans-73" d="M 2834 3397 
L 2834 2853 
Q 2591 2978 2328 3040 
Q 2066 3103 1784 3103 
Q 1356 3103 1142 2972 
Q 928 2841 928 2578 
Q 928 2378 1081 2264 
Q 1234 2150 1697 2047 
L 1894 2003 
Q 2506 1872 2764 1633 
Q 3022 1394 3022 966 
Q 3022 478 2636 193 
Q 2250 -91 1575 -91 
Q 1294 -91 989 -36 
Q 684 19 347 128 
L 347 722 
Q 666 556 975 473 
Q 1284 391 1588 391 
Q 1994 391 2212 530 
Q 2431 669 2431 922 
Q 2431 1156 2273 1281 
Q 2116 1406 1581 1522 
L 1381 1569 
Q 847 1681 609 1914 
Q 372 2147 372 2553 
Q 372 3047 722 3315 
Q 1072 3584 1716 3584 
Q 2034 3584 2315 3537 
Q 2597 3491 2834 3397 
z
" transform="scale(0.015625)"/>
       <path id="DejaVuSans-65" d="M 3597 1894 
L 3597 1613 
L 953 1613 
Q 991 1019 1311 708 
Q 1631 397 2203 397 
Q 2534 397 2845 478 
Q 3156 559 3463 722 
L 3463 178 
Q 3153 47 2828 -22 
Q 2503 -91 2169 -91 
Q 1331 -91 842 396 
Q 353 884 353 1716 
Q 353 2575 817 3079 
Q 1281 3584 2069 3584 
Q 2775 3584 3186 3129 
Q 3597 2675 3597 1894 
z
M 3022 2063 
Q 3016 2534 2758 2815 
Q 2500 3097 2075 3097 
Q 1594 3097 1305 2825 
Q 1016 2553 972 2059 
L 3022 2063 
z
" transform="scale(0.015625)"/>
       <path id="DejaVuSans-64" d="M 2906 2969 
L 2906 4863 
L 3481 4863 
L 3481 0 
L 2906 0 
L 2906 525 
Q 2725 213 2448 61 
Q 2172 -91 1784 -91 
Q 1150 -91 751 415 
Q 353 922 353 1747 
Q 353 2572 751 3078 
Q 1150 3584 1784 3584 
Q 2172 3584 2448 3432 
Q 2725 3281 2906 2969 
z
M 947 1747 
Q 947 1113 1208 752 
Q 1469 391 1925 391 
Q 2381 391 2643 752 
Q 2906 1113 2906 1747 
Q 2906 2381 2643 2742 
Q 2381 3103 1925 3103 
Q 1469 3103 1208 2742 
Q 947 2381 947 1747 
z
" transform="scale(0.015625)"/>
       <path id="DejaVuSans-20" transform="scale(0.015625)"/>
       <path id="DejaVuSans-54" d="M -19 4666 
L 3928 4666 
L 3928 4134 
L 2272 4134 
L 2272 0 
L 1638 0 
L 1638 4134 
L -19 4134 
L -19 4666 
z
" transform="scale(0.015625)"/>
       <path id="DejaVuSans-72" d="M 2631 2963 
Q 2534 3019 2420 3045 
Q 2306 3072 2169 3072 
Q 1681 3072 1420 2755 
Q 1159 2438 1159 1844 
L 1159 0 
L 581 0 
L 581 3500 
L 1159 3500 
L 1159 2956 
Q 1341 3275 1631 3429 
Q 1922 3584 2338 3584 
Q 2397 3584 2469 3576 
Q 2541 3569 2628 3553 
L 2631 2963 
z
" transform="scale(0.015625)"/>
       <path id="DejaVuSans-69" d="M 603 3500 
L 1178 3500 
L 1178 0 
L 603 0 
L 603 3500 
z
M 603 4863 
L 1178 4863 
L 1178 4134 
L 603 4134 
L 603 4863 
z
" transform="scale(0.015625)"/>
       <path id="DejaVuSans-6e" d="M 3513 2113 
L 3513 0 
L 2938 0 
L 2938 2094 
Q 2938 2591 2744 2837 
Q 2550 3084 2163 3084 
Q 1697 3084 1428 2787 
Q 1159 2491 1159 1978 
L 1159 0 
L 581 0 
L 581 3500 
L 1159 3500 
L 1159 2956 
Q 1366 3272 1645 3428 
Q 1925 3584 2291 3584 
Q 2894 3584 3203 3211 
Q 3513 2838 3513 2113 
z
" transform="scale(0.015625)"/>
       <path id="DejaVuSans-67" d="M 2906 1791 
Q 2906 2416 2648 2759 
Q 2391 3103 1925 3103 
Q 1463 3103 1205 2759 
Q 947 2416 947 1791 
Q 947 1169 1205 825 
Q 1463 481 1925 481 
Q 2391 481 2648 825 
Q 2906 1169 2906 1791 
z
M 3481 434 
Q 3481 -459 3084 -895 
Q 2688 -1331 1869 -1331 
Q 1566 -1331 1297 -1286 
Q 1028 -1241 775 -1147 
L 775 -588 
Q 1028 -725 1275 -790 
Q 1522 -856 1778 -856 
Q 2344 -856 2625 -561 
Q 2906 -266 2906 331 
L 2906 616 
Q 2728 306 2450 153 
Q 2172 0 1784 0 
Q 1141 0 747 490 
Q 353 981 353 1791 
Q 353 2603 747 3093 
Q 1141 3584 1784 3584 
Q 2172 3584 2450 3431 
Q 2728 3278 2906 2969 
L 2906 3500 
L 3481 3500 
L 3481 434 
z
" transform="scale(0.015625)"/>
       <path id="DejaVuSans-53" d="M 3425 4513 
L 3425 3897 
Q 3066 4069 2747 4153 
Q 2428 4238 2131 4238 
Q 1616 4238 1336 4038 
Q 1056 3838 1056 3469 
Q 1056 3159 1242 3001 
Q 1428 2844 1947 2747 
L 2328 2669 
Q 3034 2534 3370 2195 
Q 3706 1856 3706 1288 
Q 3706 609 3251 259 
Q 2797 -91 1919 -91 
Q 1588 -91 1214 -16 
Q 841 59 441 206 
L 441 856 
Q 825 641 1194 531 
Q 1563 422 1919 422 
Q 2459 422 2753 634 
Q 3047 847 3047 1241 
Q 3047 1584 2836 1778 
Q 2625 1972 2144 2069 
L 1759 2144 
Q 1053 2284 737 2584 
Q 422 2884 422 3419 
Q 422 4038 858 4394 
Q 1294 4750 2059 4750 
Q 2388 4750 2728 4690 
Q 3069 4631 3425 4513 
z
" transform="scale(0.015625)"/>
       <path id="DejaVuSans-63" d="M 3122 3366 
L 3122 2828 
Q 2878 2963 2633 3030 
Q 2388 3097 2138 3097 
Q 1578 3097 1268 2742 
Q 959 2388 959 1747 
Q 959 1106 1268 751 
Q 1578 397 2138 397 
Q 2388 397 2633 464 
Q 2878 531 3122 666 
L 3122 134 
Q 2881 22 2623 -34 
Q 2366 -91 2075 -91 
Q 1284 -91 818 406 
Q 353 903 353 1747 
Q 353 2603 823 3093 
Q 1294 3584 2113 3584 
Q 2378 3584 2631 3529 
Q 2884 3475 3122 3366 
z
" transform="scale(0.015625)"/>
       <path id="DejaVuSans-6f" d="M 1959 3097 
Q 1497 3097 1228 2736 
Q 959 2375 959 1747 
Q 959 1119 1226 758 
Q 1494 397 1959 397 
Q 2419 397 2687 759 
Q 2956 1122 2956 1747 
Q 2956 2369 2687 2733 
Q 2419 3097 1959 3097 
z
M 1959 3584 
Q 2709 3584 3137 3096 
Q 3566 2609 3566 1747 
Q 3566 888 3137 398 
Q 2709 -91 1959 -91 
Q 1206 -91 779 398 
Q 353 888 353 1747 
Q 353 2609 779 3096 
Q 1206 3584 1959 3584 
z
" transform="scale(0.015625)"/>
      </defs>
      <use xlink:href="#DejaVuSans-45"/>
      <use xlink:href="#DejaVuSans-6c" transform="translate(63.183594 0)"/>
      <use xlink:href="#DejaVuSans-61" transform="translate(90.966797 0)"/>
      <use xlink:href="#DejaVuSans-70" transform="translate(152.246094 0)"/>
      <use xlink:href="#DejaVuSans-73" transform="translate(215.722656 0)"/>
      <use xlink:href="#DejaVuSans-65" transform="translate(267.822266 0)"/>
      <use xlink:href="#DejaVuSans-64" transform="translate(329.345703 0)"/>
      <use xlink:href="#DejaVuSans-20" transform="translate(392.822266 0)"/>
      <use xlink:href="#DejaVuSans-54" transform="translate(424.609375 0)"/>
      <use xlink:href="#DejaVuSans-72" transform="translate(470.943359 0)"/>
      <use xlink:href="#DejaVuSans-61" transform="translate(512.056641 0)"/>
      <use xlink:href="#DejaVuSans-64" transform="translate(573.335938 0)"/>
      <use xlink:href="#DejaVuSans-69" transform="translate(636.8125 0)"/>
      <use xlink:href="#DejaVuSans-6e" transform="translate(664.595703 0)"/>
      <use xlink:href="#DejaVuSans-67" transform="translate(727.974609 0)"/>
      <use xlink:href="#DejaVuSans-20" transform="translate(791.451172 0)"/>
      <use xlink:href="#DejaVuSans-53" transform="translate(823.238281 0)"/>
      <use xlink:href="#DejaVuSans-65" transform="translate(886.714844 0)"/>
      <use xlink:href="#DejaVuSans-63" transform="translate(948.238281 0)"/>
      <use xlink:href="#DejaVuSans-6f" transform="translate(1003.21875 0)"/>
      <use xlink:href="#DejaVuSans-6e" transform="translate(1064.400391 0)"/>
      <use xlink:href="#DejaVuSans-64" transform="translate(1127.779297 0)"/>
      <use xlink:href="#DejaVuSans-73" transform="translate(1191.255859 0)"/>
     </g>
    </g>
   </g>
   <g id="matplotlib.axis_2">
    <g id="ytick_1">
     <g id="line2d_17">
      <path d="M 46.55 340.518182 
L 709.2 340.518182 
" clip-path="url(#p73f24afc6a)" style="fill: none; stroke: #b0b0b0; stroke-width: 0.8; stroke-linecap: square"/>
     </g>
     <g id="line2d_18">
      <defs>
       <path id="m895308a7c6" d="M 0 0 
L -3.5 0 
" style="stroke: #000000; stroke-width: 0.8"/>
      </defs>
      <g>
       <use xlink:href="#m895308a7c6" x="46.55" y="340.518182" style="stroke: #000000; stroke-width: 0.8"/>
      </g>
     </g>
     <g id="text_10">
      <!-- −4 -->
      <g transform="translate(24.807813 344.317401) scale(0.1 -0.1)">
       <defs>
        <path id="DejaVuSans-2212" d="M 678 2272 
L 4684 2272 
L 4684 1741 
L 678 1741 
L 678 2272 
z
" transform="scale(0.015625)"/>
       </defs>
       <use xlink:href="#DejaVuSans-2212"/>
       <use xlink:href="#DejaVuSans-34" transform="translate(83.789062 0)"/>
      </g>
     </g>
    </g>
    <g id="ytick_2">
     <g id="line2d_19">
      <path d="M 46.55 274.489091 
L 709.2 274.489091 
" clip-path="url(#p73f24afc6a)" style="fill: none; stroke: #b0b0b0; stroke-width: 0.8; stroke-linecap: square"/>
     </g>
     <g id="line2d_20">
      <g>
       <use xlink:href="#m895308a7c6" x="46.55" y="274.489091" style="stroke: #000000; stroke-width: 0.8"/>
      </g>
     </g>
     <g id="text_11">
      <!-- −2 -->
      <g transform="translate(24.807813 278.28831) scale(0.1 -0.1)">
       <use xlink:href="#DejaVuSans-2212"/>
       <use xlink:href="#DejaVuSans-32" transform="translate(83.789062 0)"/>
      </g>
     </g>
    </g>
    <g id="ytick_3">
     <g id="line2d_21">
      <path d="M 46.55 208.46 
L 709.2 208.46 
" clip-path="url(#p73f24afc6a)" style="fill: none; stroke: #b0b0b0; stroke-width: 0.8; stroke-linecap: square"/>
     </g>
     <g id="line2d_22">
      <g>
       <use xlink:href="#m895308a7c6" x="46.55" y="208.46" style="stroke: #000000; stroke-width: 0.8"/>
      </g>
     </g>
     <g id="text_12">
      <!-- 0 -->
      <g transform="translate(33.1875 212.259219) scale(0.1 -0.1)">
       <use xlink:href="#DejaVuSans-30"/>
      </g>
     </g>
    </g>
    <g id="ytick_4">
     <g id="line2d_23">
      <path d="M 46.55 142.430909 
L 709.2 142.430909 
" clip-path="url(#p73f24afc6a)" style="fill: none; stroke: #b0b0b0; stroke-width: 0.8; stroke-linecap: square"/>
     </g>
     <g id="line2d_24">
      <g>
       <use xlink:href="#m895308a7c6" x="46.55" y="142.430909" style="stroke: #000000; stroke-width: 0.8"/>
      </g>
     </g>
     <g id="text_13">
      <!-- 2 -->
      <g transform="translate(33.1875 146.230128) scale(0.1 -0.1)">
       <use xlink:href="#DejaVuSans-32"/>
      </g>
     </g>
    </g>
    <g id="ytick_5">
     <g id="line2d_25">
      <path d="M 46.55 76.401818 
L 709.2 76.401818 
" clip-path="url(#p73f24afc6a)" style="fill: none; stroke: #b0b0b0; stroke-width: 0.8; stroke-linecap: square"/>
     </g>
     <g id="line2d_26">
      <g>
       <use xlink:href="#m895308a7c6" x="46.55" y="76.401818" style="stroke: #000000; stroke-width: 0.8"/>
      </g>
     </g>
     <g id="text_14">
      <!-- 4 -->
      <g transform="translate(33.1875 80.201037) scale(0.1 -0.1)">
       <use xlink:href="#DejaVuSans-34"/>
      </g>
     </g>
    </g>
    <g id="text_15">
     <!-- Contracts -->
     <g transform="translate(18.728125 232.573281) rotate(-90) scale(0.1 -0.1)">
      <defs>
       <path id="DejaVuSans-43" d="M 4122 4306 
L 4122 3641 
Q 3803 3938 3442 4084 
Q 3081 4231 2675 4231 
Q 1875 4231 1450 3742 
Q 1025 3253 1025 2328 
Q 1025 1406 1450 917 
Q 1875 428 2675 428 
Q 3081 428 3442 575 
Q 3803 722 4122 1019 
L 4122 359 
Q 3791 134 3420 21 
Q 3050 -91 2638 -91 
Q 1578 -91 968 557 
Q 359 1206 359 2328 
Q 359 3453 968 4101 
Q 1578 4750 2638 4750 
Q 3056 4750 3426 4639 
Q 3797 4528 4122 4306 
z
" transform="scale(0.015625)"/>
       <path id="DejaVuSans-74" d="M 1172 4494 
L 1172 3500 
L 2356 3500 
L 2356 3053 
L 1172 3053 
L 1172 1153 
Q 1172 725 1289 603 
Q 1406 481 1766 481 
L 2356 481 
L 2356 0 
L 1766 0 
Q 1100 0 847 248 
Q 594 497 594 1153 
L 594 3053 
L 172 3053 
L 172 3500 
L 594 3500 
L 594 4494 
L 1172 4494 
z
" transform="scale(0.015625)"/>
      </defs>
      <use xlink:href="#DejaVuSans-43"/>
      <use xlink:href="#DejaVuSans-6f" transform="translate(69.824219 0)"/>
      <use xlink:href="#DejaVuSans-6e" transform="translate(131.005859 0)"/>
      <use xlink:href="#DejaVuSans-74" transform="translate(194.384766 0)"/>
      <use xlink:href="#DejaVuSans-72" transform="translate(233.59375 0)"/>
      <use xlink:href="#DejaVuSans-61" transform="translate(274.707031 0)"/>
      <use xlink:href="#DejaVuSans-63" transform="translate(335.986328 0)"/>
      <use xlink:href="#DejaVuSans-74" transform="translate(390.966797 0)"/>
      <use xlink:href="#DejaVuSans-73" transform="translate(430.175781 0)"/>
     </g>
    </g>
   </g>
   <g id="line2d_27">
    <path d="M 76.670455 373.532727 
L 80.673497 373.532727 
L 80.849306 340.518182 
L 81.717969 340.518182 
L 81.982586 274.489091 
L 87.815759 274.489091 
L 87.988671 241.474545 
L 91.034505 241.474545 
L 91.21054 208.46 
L 92.954152 208.46 
L 93.127133 241.474545 
L 93.303469 241.474545 
L 93.47643 274.489091 
L 93.739305 274.489091 
L 93.99877 340.518182 
L 95.477752 340.518182 
L 95.650696 208.46 
L 96.780174 208.46 
L 96.962608 175.445455 
L 97.135691 208.46 
L 97.484681 208.46 
L 97.571221 175.445455 
L 97.743883 208.46 
L 100.702011 208.46 
L 100.874987 175.445455 
L 100.961376 175.445455 
L 101.137438 142.430909 
L 101.573329 142.430909 
L 101.746436 109.416364 
L 102.005801 109.416364 
L 102.187728 76.401818 
L 104.62143 76.401818 
L 104.79765 43.387273 
L 106.541266 43.387273 
L 106.714437 76.401818 
L 108.80306 76.401818 
L 108.979238 43.387273 
L 110.369791 43.387273 
L 110.546186 76.401818 
L 110.71915 76.401818 
L 110.805578 208.46 
L 110.981653 142.430909 
L 111.154675 175.445455 
L 111.241133 175.445455 
L 111.41399 208.46 
L 113.159885 208.46 
L 113.332759 241.474545 
L 113.941375 241.474545 
L 114.117172 208.46 
L 117.681329 208.46 
L 117.865016 175.445455 
L 119.604412 175.445455 
L 119.777467 208.46 
L 119.953593 208.46 
L 120.126393 241.474545 
L 120.821262 241.474545 
L 120.997437 274.489091 
L 121.170246 274.489091 
L 121.343182 208.46 
L 122.30062 208.46 
L 122.476718 175.445455 
L 124.048266 175.445455 
L 124.134583 208.46 
L 124.30751 175.445455 
L 125.523853 175.445455 
L 125.699923 208.46 
L 130.056489 208.46 
L 130.22923 241.474545 
L 135.196946 241.474545 
L 135.369939 208.46 
L 135.978991 208.46 
L 136.155934 175.445455 
L 138.506727 175.445455 
L 138.682975 208.46 
L 139.205084 208.46 
L 139.378156 175.445455 
L 140.858516 175.445455 
L 141.031543 208.46 
L 148.347418 208.46 
L 148.610856 274.489091 
L 148.956567 274.489091 
L 149.133379 340.518182 
L 149.306315 307.503636 
L 149.568713 307.503636 
L 149.741404 208.46 
L 152.182007 208.46 
L 152.35497 175.445455 
L 152.441443 175.445455 
L 152.703867 241.474545 
L 152.962974 241.474545 
L 153.135784 208.46 
L 161.586396 208.46 
L 161.759377 175.445455 
L 162.10971 175.445455 
L 162.282555 208.46 
L 163.675415 208.46 
L 163.848247 241.474545 
L 165.15122 241.474545 
L 165.327246 208.46 
L 166.194982 208.46 
L 166.37115 175.445455 
L 168.201269 175.445455 
L 168.377499 208.46 
L 168.46401 208.46 
L 168.636884 175.445455 
L 172.730701 175.445455 
L 172.903556 208.46 
L 174.034571 208.46 
L 174.210758 175.445455 
L 178.477366 175.445455 
L 178.65019 142.430909 
L 181.609637 142.430909 
L 181.78246 109.416364 
L 182.131818 109.416364 
L 182.653905 274.489091 
L 183.439384 274.489091 
L 183.615758 208.46 
L 183.702342 208.46 
L 183.961603 274.489091 
L 196.422278 274.489091 
L 196.685119 208.46 
L 199.55496 208.46 
L 199.727669 175.445455 
L 202.337423 175.445455 
L 202.772768 307.503636 
L 202.859321 307.503636 
L 203.032354 208.46 
L 203.641652 208.46 
L 203.817668 175.445455 
L 204.076846 175.445455 
L 204.249735 208.46 
L 205.909968 208.46 
L 206.082779 175.445455 
L 206.341986 175.445455 
L 206.517848 274.489091 
L 206.776945 274.489091 
L 206.953219 208.46 
L 215.137203 208.46 
L 215.490911 109.416364 
L 215.663801 109.416364 
L 215.926707 43.387273 
L 220.190267 43.387273 
L 220.363251 142.430909 
L 220.449722 142.430909 
L 220.716066 208.46 
L 222.019109 208.46 
L 222.195713 175.445455 
L 222.455058 175.445455 
L 222.631131 208.46 
L 224.019938 208.46 
L 224.19599 175.445455 
L 226.63608 175.445455 
L 226.722585 109.416364 
L 226.985376 175.445455 
L 227.07181 175.445455 
L 227.244633 274.489091 
L 227.593669 274.489091 
L 227.76661 307.503636 
L 228.288388 307.503636 
L 228.464356 340.518182 
L 229.594942 340.518182 
L 229.76768 208.46 
L 230.029987 208.46 
L 230.1165 175.445455 
L 230.289564 208.46 
L 230.99078 208.46 
L 231.081232 241.474545 
L 231.340481 241.474545 
L 231.516748 274.489091 
L 231.603178 274.489091 
L 231.689628 241.474545 
L 231.862469 340.518182 
L 231.948936 340.518182 
L 232.038628 307.503636 
L 232.211474 340.518182 
L 232.297997 340.518182 
L 232.470741 307.503636 
L 235.082235 307.503636 
L 235.258741 208.46 
L 236.392294 208.46 
L 236.565172 175.445455 
L 236.651651 175.445455 
L 236.83063 241.474545 
L 236.916931 241.474545 
L 237.176093 175.445455 
L 237.352997 175.445455 
L 237.612323 241.474545 
L 237.874745 241.474545 
L 238.047622 274.489091 
L 239.787862 274.489091 
L 240.050802 208.46 
L 240.137293 208.46 
L 240.310162 142.430909 
L 240.483164 109.416364 
L 242.052141 109.416364 
L 242.138645 142.430909 
L 242.311584 43.387273 
L 243.183128 43.387273 
L 243.356198 208.46 
L 243.61897 208.46 
L 243.968886 307.503636 
L 244.228188 307.503636 
L 244.401238 340.518182 
L 244.491179 340.518182 
L 244.664237 373.532727 
L 245.186805 373.532727 
L 245.35974 340.518182 
L 245.446008 340.518182 
L 245.623035 373.532727 
L 245.70942 373.532727 
L 245.882337 340.518182 
L 246.145529 340.518182 
L 246.318406 307.503636 
L 247.103673 307.503636 
L 247.276727 208.46 
L 247.536159 208.46 
L 247.712349 43.387273 
L 248.407373 43.387273 
L 248.580339 76.401818 
L 251.020422 76.401818 
L 251.19342 109.416364 
L 251.629134 109.416364 
L 251.805448 142.430909 
L 252.064566 142.430909 
L 252.237391 208.46 
L 255.892769 208.46 
L 256.071031 175.445455 
L 256.506391 175.445455 
L 256.679253 208.46 
L 256.938357 208.46 
L 257.115348 241.474545 
L 258.24462 241.474545 
L 258.417482 208.46 
L 260.682387 208.46 
L 260.76874 142.430909 
L 260.941434 175.445455 
L 261.027876 175.445455 
L 261.210877 142.430909 
L 263.907726 142.430909 
L 264.080731 109.416364 
L 265.818969 109.416364 
L 265.996034 142.430909 
L 266.521671 142.430909 
L 266.694608 109.416364 
L 269.475224 109.416364 
L 269.65077 208.46 
L 271.039887 208.46 
L 271.215521 340.518182 
L 271.302067 274.489091 
L 271.475066 373.532727 
L 273.398315 373.532727 
L 273.484629 340.518182 
L 273.657389 175.445455 
L 275.135439 175.445455 
L 275.311831 208.46 
L 277.399377 208.46 
L 277.575398 175.445455 
L 278.098464 175.445455 
L 278.27163 142.430909 
L 280.189819 142.430909 
L 280.363077 208.46 
L 280.622701 208.46 
L 280.796015 241.474545 
L 282.015832 241.474545 
L 282.192232 274.489091 
L 284.28535 274.489091 
L 284.458656 373.532727 
L 284.545292 373.532727 
L 284.721421 208.46 
L 285.331354 208.46 
L 285.504454 241.474545 
L 286.986737 241.474545 
L 287.246841 373.532727 
L 287.510563 373.532727 
L 287.861038 274.489091 
L 287.947451 274.489091 
L 288.120778 208.46 
L 288.470394 208.46 
L 288.556808 175.445455 
L 288.816548 241.474545 
L 288.993012 241.474545 
L 289.166214 208.46 
L 289.252932 208.46 
L 289.429689 175.445455 
L 289.689628 175.445455 
L 289.862777 241.474545 
L 290.212263 241.474545 
L 290.47588 175.445455 
L 290.981291 175.445455 
L 291.085783 208.46 
L 292.477875 208.46 
L 292.741835 142.430909 
L 293.091353 142.430909 
L 293.351026 76.401818 
L 294.39602 76.401818 
L 294.568964 109.416364 
L 294.918322 109.416364 
L 295.091582 43.387273 
L 295.790969 43.387273 
L 295.964327 76.401818 
L 296.923523 76.401818 
L 297.096697 109.416364 
L 297.883635 109.416364 
L 298.056748 43.387273 
L 298.143406 109.416364 
L 298.229716 76.401818 
L 298.319575 109.416364 
L 298.406268 76.401818 
L 298.579403 175.445455 
L 298.841783 175.445455 
L 299.101717 274.489091 
L 299.274863 241.474545 
L 299.45114 241.474545 
L 299.624024 208.46 
L 300.147145 208.46 
L 300.320299 241.474545 
L 300.756398 241.474545 
L 300.932305 208.46 
L 301.191818 208.46 
L 301.364706 175.445455 
L 301.887398 175.445455 
L 302.063747 208.46 
L 302.323507 208.46 
L 302.500132 175.445455 
L 304.676819 175.445455 
L 304.84992 76.401818 
L 305.023174 43.387273 
L 305.895758 43.387273 
L 306.068863 109.416364 
L 306.15897 109.416364 
L 306.332053 142.430909 
L 306.591509 142.430909 
L 306.768333 175.445455 
L 307.114695 175.445455 
L 307.292194 142.430909 
L 308.42428 142.430909 
L 308.597402 175.445455 
L 308.773646 142.430909 
L 309.206855 142.430909 
L 309.384124 175.445455 
L 309.82235 175.445455 
L 309.995442 142.430909 
L 310.255389 142.430909 
L 310.432365 208.46 
L 310.51903 208.46 
L 310.692355 175.445455 
L 311.302319 175.445455 
L 311.479026 142.430909 
L 311.652229 142.430909 
L 311.825328 76.401818 
L 311.915123 142.430909 
L 312.348542 142.430909 
L 312.526316 76.401818 
L 312.699558 109.416364 
L 313.745513 109.416364 
L 313.918624 142.430909 
L 314.96459 142.430909 
L 315.141516 175.445455 
L 315.924033 175.445455 
L 316.100979 142.430909 
L 317.408284 142.430909 
L 317.494925 109.416364 
L 317.671454 142.430909 
L 318.017913 142.430909 
L 318.28063 208.46 
L 318.717652 208.46 
L 318.890747 175.445455 
L 319.064188 175.445455 
L 319.24045 274.489091 
L 319.413625 274.489091 
L 319.586654 208.46 
L 320.548005 208.46 
L 320.720774 175.445455 
L 322.288722 175.445455 
L 322.461748 208.46 
L 324.639527 208.46 
L 324.812692 175.445455 
L 324.899398 175.445455 
L 325.162569 241.474545 
L 325.509134 241.474545 
L 325.685563 340.518182 
L 326.208964 340.518182 
L 326.295547 208.46 
L 326.382071 241.474545 
L 326.817476 241.474545 
L 326.990695 274.489091 
L 327.253654 274.489091 
L 327.340288 307.503636 
L 327.513121 208.46 
L 328.731473 208.46 
L 329.254649 43.387273 
L 330.649838 43.387273 
L 330.822922 76.401818 
L 332.13134 76.401818 
L 332.304702 241.474545 
L 333.959332 241.474545 
L 334.135518 274.489091 
L 334.658248 274.489091 
L 334.831154 307.503636 
L 337.358607 307.503636 
L 337.531805 340.518182 
L 338.404749 340.518182 
L 338.577858 373.532727 
L 341.626936 373.532727 
L 341.800069 340.518182 
L 342.845647 340.518182 
L 343.021924 307.503636 
L 343.195124 307.503636 
L 343.458117 373.532727 
L 343.980457 373.532727 
L 344.240122 307.503636 
L 344.676807 307.503636 
L 344.849994 274.489091 
L 345.80862 274.489091 
L 345.981864 208.46 
L 349.295155 208.46 
L 349.468349 241.474545 
L 350.077692 241.474545 
L 350.254184 274.489091 
L 352.605583 274.489091 
L 352.778818 208.46 
L 353.82463 208.46 
L 354.00215 241.474545 
L 354.175463 241.474545 
L 354.348735 208.46 
L 355.394092 208.46 
L 355.570335 175.445455 
L 355.743526 208.46 
L 359.926607 208.46 
L 360.099801 241.474545 
L 361.665317 241.474545 
L 361.755183 208.46 
L 361.928235 241.474545 
L 362.277706 241.474545 
L 362.450824 208.46 
L 363.84649 208.46 
L 364.019611 109.416364 
L 364.10623 109.416364 
L 364.279421 142.430909 
L 364.455705 109.416364 
L 365.848166 109.416364 
L 366.024743 142.430909 
L 367.679852 142.430909 
L 367.85305 208.46 
L 369.421601 208.46 
L 369.684716 43.387273 
L 370.030966 43.387273 
L 370.207376 241.474545 
L 371.166813 241.474545 
L 371.339945 208.46 
L 373.605742 208.46 
L 373.782119 241.474545 
L 373.955325 208.46 
L 374.215058 208.46 
L 374.391348 175.445455 
L 375.17375 175.445455 
L 375.351142 208.46 
L 377.092561 208.46 
L 377.265819 175.445455 
L 377.788868 175.445455 
L 377.965571 142.430909 
L 378.488187 142.430909 
L 378.661411 208.46 
L 378.834502 241.474545 
L 379.010821 208.46 
L 379.79331 208.46 
L 379.966569 175.445455 
L 380.057088 175.445455 
L 380.230223 208.46 
L 380.666404 208.46 
L 380.752989 241.474545 
L 380.839518 340.518182 
L 381.102566 274.489091 
L 381.189014 274.489091 
L 381.362254 208.46 
L 383.626088 208.46 
L 383.802652 175.445455 
L 383.889257 175.445455 
L 384.062498 142.430909 
L 384.499097 142.430909 
L 384.67236 175.445455 
L 387.549934 175.445455 
L 387.723137 208.46 
L 388.072672 208.46 
L 388.245955 175.445455 
L 389.554695 175.445455 
L 389.727827 208.46 
L 390.773477 208.46 
L 390.859925 175.445455 
L 391.037381 76.401818 
L 392.342158 76.401818 
L 392.691662 175.445455 
L 393.388152 175.445455 
L 393.650803 109.416364 
L 393.823908 109.416364 
L 393.910542 142.430909 
L 394.083775 274.489091 
L 394.259974 307.503636 
L 394.346458 307.503636 
L 394.433108 340.518182 
L 394.60641 274.489091 
L 394.869646 208.46 
L 394.956282 208.46 
L 395.220271 274.489091 
L 395.39377 241.474545 
L 395.566734 241.474545 
L 395.743591 274.489091 
L 396.266572 274.489091 
L 396.439696 208.46 
L 396.526345 241.474545 
L 396.699389 373.532727 
L 396.875951 373.532727 
L 397.048622 307.503636 
L 397.312234 373.532727 
L 397.572044 373.532727 
L 397.745335 208.46 
L 398.44636 208.46 
L 398.532973 241.474545 
L 398.706154 208.46 
L 398.883469 208.46 
L 399.056589 175.445455 
L 399.316251 175.445455 
L 399.493204 142.430909 
L 400.362818 142.430909 
L 400.540042 175.445455 
L 400.713361 175.445455 
L 400.886293 208.46 
L 401.063509 109.416364 
L 401.15009 76.401818 
L 401.323334 142.430909 
L 401.500723 142.430909 
L 401.673855 208.46 
L 403.591149 208.46 
L 403.768154 142.430909 
L 404.028008 208.46 
L 404.464269 208.46 
L 404.727255 142.430909 
L 404.900475 175.445455 
L 405.073717 175.445455 
L 405.250036 208.46 
L 405.336701 208.46 
L 405.509809 175.445455 
L 405.683007 241.474545 
L 405.946582 241.474545 
L 406.119852 208.46 
L 406.721182 208.46 
L 406.816047 175.445455 
L 408.90741 175.445455 
L 409.080832 208.46 
L 409.167434 208.46 
L 409.343844 241.474545 
L 410.212886 241.474545 
L 410.389847 208.46 
L 412.567731 208.46 
L 412.654226 241.474545 
L 412.827445 208.46 
L 413.090531 208.46 
L 413.26365 175.445455 
L 413.526955 175.445455 
L 413.700086 142.430909 
L 415.35583 142.430909 
L 415.442533 109.416364 
L 415.619143 142.430909 
L 416.402442 142.430909 
L 416.575605 76.401818 
L 417.797525 76.401818 
L 417.970758 43.387273 
L 418.143935 43.387273 
L 418.321068 76.401818 
L 419.540072 76.401818 
L 419.713348 241.474545 
L 419.890062 274.489091 
L 419.976752 274.489091 
L 420.149997 241.474545 
L 420.236542 241.474545 
L 420.41378 208.46 
L 421.718843 208.46 
L 421.895399 175.445455 
L 422.678312 175.445455 
L 422.851578 208.46 
L 424.334676 208.46 
L 424.421207 175.445455 
L 424.597546 208.46 
L 427.822237 208.46 
L 427.995351 241.474545 
L 428.345875 241.474545 
L 428.519027 274.489091 
L 428.60569 274.489091 
L 428.782257 307.503636 
L 428.955432 208.46 
L 429.304914 208.46 
L 429.478123 241.474545 
L 429.564576 241.474545 
L 429.741133 274.489091 
L 430.787253 274.489091 
L 430.96034 241.474545 
L 431.04691 241.474545 
L 431.133551 208.46 
L 431.310075 241.474545 
L 431.483263 241.474545 
L 431.656308 208.46 
L 431.833183 241.474545 
L 433.138933 241.474545 
L 433.312171 208.46 
L 434.097868 208.46 
L 434.270921 241.474545 
L 437.407861 241.474545 
L 437.583691 208.46 
L 438.192617 208.46 
L 438.452365 142.430909 
L 438.629023 142.430909 
L 438.802081 208.46 
L 439.151599 208.46 
L 439.324784 241.474545 
L 439.584262 241.474545 
L 439.760682 208.46 
L 440.106898 208.46 
L 440.28309 241.474545 
L 441.588219 241.474545 
L 441.764275 274.489091 
L 443.331938 274.489091 
L 443.505071 307.503636 
L 444.550987 307.503636 
L 444.810308 373.532727 
L 446.119768 373.532727 
L 446.293129 340.518182 
L 446.470835 373.532727 
L 446.81706 373.532727 
L 446.994396 208.46 
L 447.691134 208.46 
L 447.8645 241.474545 
L 448.911187 241.474545 
L 449.175779 307.503636 
L 449.52209 307.503636 
L 449.785836 241.474545 
L 452.489255 241.474545 
L 452.662311 208.46 
L 454.620678 208.46 
L 454.797818 274.489091 
L 454.971165 274.489091 
L 455.057606 307.503636 
L 455.230773 274.489091 
L 455.493263 274.489091 
L 455.666394 241.474545 
L 455.842758 241.474545 
L 456.016063 208.46 
L 456.452177 208.46 
L 456.625289 175.445455 
L 463.250179 175.445455 
L 463.423399 208.46 
L 464.555136 208.46 
L 464.731238 241.474545 
L 466.908049 241.474545 
L 467.081319 208.46 
L 467.341041 274.489091 
L 467.427684 175.445455 
L 467.600923 208.46 
L 467.777002 175.445455 
L 467.863512 274.489091 
L 467.950242 175.445455 
L 468.123422 208.46 
L 468.735564 208.46 
L 468.908935 175.445455 
L 469.431791 175.445455 
L 469.780632 76.401818 
L 470.561894 76.401818 
L 470.734962 208.46 
L 471.6934 208.46 
L 471.870383 175.445455 
L 473.437264 175.445455 
L 473.523967 142.430909 
L 473.69728 175.445455 
L 473.870188 175.445455 
L 474.219849 274.489091 
L 474.482513 274.489091 
L 474.655548 373.532727 
L 475.700138 373.532727 
L 475.786649 340.518182 
L 475.873207 373.532727 
L 476.136001 307.503636 
L 476.395499 373.532727 
L 477.617049 373.532727 
L 477.877183 307.503636 
L 478.050599 340.518182 
L 478.228328 340.518182 
L 478.401572 307.503636 
L 479.361093 307.503636 
L 479.534038 340.518182 
L 479.620487 340.518182 
L 479.710365 307.503636 
L 479.883556 340.518182 
L 480.056683 307.503636 
L 480.319337 307.503636 
L 480.492691 274.489091 
L 481.538691 274.489091 
L 481.711937 208.46 
L 481.974722 208.46 
L 482.234188 274.489091 
L 482.417296 274.489091 
L 482.590363 208.46 
L 484.200296 208.46 
L 484.37349 241.474545 
L 484.464123 241.474545 
L 484.637345 208.46 
L 484.810279 241.474545 
L 485.073617 241.474545 
L 485.246776 208.46 
L 485.333479 208.46 
L 485.510081 241.474545 
L 485.683131 208.46 
L 486.033338 208.46 
L 486.206688 241.474545 
L 486.818325 241.474545 
L 486.991579 274.489091 
L 487.514889 274.489091 
L 487.691598 241.474545 
L 488.077192 241.474545 
L 488.250394 307.503636 
L 488.423769 274.489091 
L 488.601369 274.489091 
L 488.774504 208.46 
L 490.08177 208.46 
L 490.258915 43.387273 
L 490.431919 76.401818 
L 490.605242 76.401818 
L 490.781964 208.46 
L 491.564896 208.46 
L 491.743267 241.474545 
L 492.002928 175.445455 
L 492.176025 175.445455 
L 492.353127 142.430909 
L 494.184267 142.430909 
L 494.361875 208.46 
L 494.535134 175.445455 
L 495.317988 175.445455 
L 495.668382 76.401818 
L 495.755092 175.445455 
L 495.841804 142.430909 
L 496.018865 208.46 
L 496.10557 208.46 
L 496.456866 307.503636 
L 496.803137 307.503636 
L 497.15343 208.46 
L 497.937351 208.46 
L 498.115076 175.445455 
L 498.201686 175.445455 
L 498.552389 76.401818 
L 500.032848 76.401818 
L 500.296887 142.430909 
L 500.383408 142.430909 
L 500.469915 208.46 
L 500.64685 175.445455 
L 501.700185 175.445455 
L 501.786627 208.46 
L 501.87322 175.445455 
L 501.959882 208.46 
L 502.133227 175.445455 
L 502.569895 175.445455 
L 502.747683 142.430909 
L 503.358016 142.430909 
L 503.444698 175.445455 
L 503.618036 142.430909 
L 504.229322 142.430909 
L 504.406323 109.416364 
L 504.84251 109.416364 
L 505.102416 43.387273 
L 507.197186 43.387273 
L 507.370249 208.46 
L 509.286561 208.46 
L 509.463262 241.474545 
L 511.11776 241.474545 
L 511.290893 274.489091 
L 513.118437 274.489091 
L 513.291553 373.532727 
L 513.468007 307.503636 
L 513.727589 307.503636 
L 513.990668 241.474545 
L 514.163892 241.474545 
L 514.337033 274.489091 
L 514.513791 241.474545 
L 515.38185 241.474545 
L 515.558014 208.46 
L 518.257661 208.46 
L 518.430757 175.445455 
L 519.216539 175.445455 
L 519.389813 208.46 
L 520.171723 208.46 
L 520.34797 175.445455 
L 520.521183 208.46 
L 520.870801 208.46 
L 521.044 241.474545 
L 522.176399 241.474545 
L 522.263014 274.489091 
L 522.439557 241.474545 
L 522.526028 241.474545 
L 522.699263 208.46 
L 522.96229 208.46 
L 523.135234 175.445455 
L 523.657905 175.445455 
L 523.831095 208.46 
L 525.575128 208.46 
L 525.748347 175.445455 
L 526.097662 175.445455 
L 526.27066 142.430909 
L 527.315704 142.430909 
L 527.402159 109.416364 
L 527.838111 241.474545 
L 528.100775 241.474545 
L 528.274044 208.46 
L 531.410546 208.46 
L 531.497184 241.474545 
L 531.846734 142.430909 
L 531.933343 142.430909 
L 532.106457 76.401818 
L 532.193027 76.401818 
L 532.369979 43.387273 
L 534.11045 43.387273 
L 534.283643 208.46 
L 534.633636 208.46 
L 534.806793 175.445455 
L 535.592403 175.445455 
L 535.765509 142.430909 
L 535.852174 142.430909 
L 536.028991 175.445455 
L 536.28856 109.416364 
L 536.464916 142.430909 
L 536.810918 142.430909 
L 536.897512 208.46 
L 537.07442 175.445455 
L 539.601446 175.445455 
L 539.774691 142.430909 
L 539.947961 142.430909 
L 540.124452 175.445455 
L 540.384393 175.445455 
L 540.557684 208.46 
L 541.256672 208.46 
L 541.429906 175.445455 
L 541.779446 175.445455 
L 541.952641 142.430909 
L 543.762006 142.430909 
L 543.871337 340.518182 
L 544.740645 340.518182 
L 544.917579 142.430909 
L 545.004049 142.430909 
L 545.177133 175.445455 
L 545.263766 175.445455 
L 545.440538 208.46 
L 545.527126 208.46 
L 545.700256 307.503636 
L 545.786949 307.503636 
L 545.963295 373.532727 
L 546.136309 373.532727 
L 546.309368 307.503636 
L 546.486256 307.503636 
L 546.659501 340.518182 
L 547.269242 340.518182 
L 547.533634 274.489091 
L 547.70689 274.489091 
L 547.880003 241.474545 
L 548.230455 241.474545 
L 548.403586 274.489091 
L 548.754608 274.489091 
L 548.84118 241.474545 
L 549.018142 109.416364 
L 549.190925 142.430909 
L 549.277347 142.430909 
L 549.450463 109.416364 
L 550.151343 109.416364 
L 550.324595 142.430909 
L 550.674695 142.430909 
L 550.847796 208.46 
L 554.681013 208.46 
L 554.854072 241.474545 
L 555.289869 241.474545 
L 555.466761 208.46 
L 556.422896 208.46 
L 556.595653 175.445455 
L 558.946479 175.445455 
L 559.20887 241.474545 
L 559.381999 241.474545 
L 559.558234 307.503636 
L 559.990789 307.503636 
L 560.167294 208.46 
L 562.431037 208.46 
L 562.694574 76.401818 
L 564.608814 76.401818 
L 564.785188 208.46 
L 565.831147 208.46 
L 566.090784 142.430909 
L 566.786451 142.430909 
L 566.962708 208.46 
L 569.140033 208.46 
L 569.312995 175.445455 
L 569.662629 175.445455 
L 569.835874 208.46 
L 570.185523 208.46 
L 570.358634 241.474545 
L 571.754207 241.474545 
L 571.927297 274.489091 
L 574.019225 274.489091 
L 574.195216 208.46 
L 574.368381 208.46 
L 574.628204 274.489091 
L 575.852075 274.489091 
L 576.025194 208.46 
L 576.72082 208.46 
L 576.897313 175.445455 
L 585.782387 175.445455 
L 585.955451 208.46 
L 632.928596 208.46 
L 633.101821 175.445455 
L 633.2781 208.46 
L 637.720326 208.46 
L 637.893613 175.445455 
L 639.029124 175.445455 
L 639.202255 142.430909 
L 639.766969 142.430909 
L 640.117469 43.387273 
L 643.514052 43.387273 
L 643.690474 208.46 
L 644.559559 208.46 
L 644.736126 175.445455 
L 646.650238 175.445455 
L 646.826927 208.46 
L 648.481302 208.46 
L 648.654425 241.474545 
L 650.831366 241.474545 
L 651.007443 208.46 
L 651.180718 208.46 
L 651.353902 274.489091 
L 651.440536 274.489091 
L 651.616808 373.532727 
L 653.099221 373.532727 
L 653.272166 175.445455 
L 653.445617 142.430909 
L 654.490981 142.430909 
L 654.667098 175.445455 
L 654.753694 175.445455 
L 654.926748 142.430909 
L 655.450291 142.430909 
L 655.62351 109.416364 
L 655.713428 109.416364 
L 655.972955 208.46 
L 656.146153 175.445455 
L 657.456362 175.445455 
L 657.629792 76.401818 
L 659.199395 76.401818 
L 659.376179 109.416364 
L 660.42324 109.416364 
L 660.596424 208.46 
L 663.994152 208.46 
L 664.257199 142.430909 
L 664.516941 142.430909 
L 664.694092 109.416364 
L 664.780745 109.416364 
L 664.953799 76.401818 
L 665.739708 76.401818 
L 665.912724 142.430909 
L 666.785649 142.430909 
L 666.958807 109.416364 
L 667.221849 109.416364 
L 667.394832 76.401818 
L 667.568156 208.46 
L 668.35369 208.46 
L 668.789998 76.401818 
L 669.486118 76.401818 
L 669.659131 43.387273 
L 670.182127 43.387273 
L 670.268796 76.401818 
L 670.445273 43.387273 
L 671.227958 43.387273 
L 671.49235 175.445455 
L 671.752138 43.387273 
L 672.274656 43.387273 
L 672.451219 109.416364 
L 675.242112 109.416364 
L 675.415313 76.401818 
L 676.201816 76.401818 
L 676.375014 43.387273 
L 679.079545 43.387273 
L 679.079545 43.387273 
" clip-path="url(#p73f24afc6a)" style="fill: none; stroke: #000000; stroke-width: 1.5; stroke-linecap: square"/>
   </g>
   <g id="patch_3">
    <path d="M 46.55 390.04 
L 46.55 26.88 
" style="fill: none; stroke: #000000; stroke-width: 0.8; stroke-linejoin: miter; stroke-linecap: square"/>
   </g>
   <g id="patch_4">
    <path d="M 709.2 390.04 
L 709.2 26.88 
" style="fill: none; stroke: #000000; stroke-width: 0.8; stroke-linejoin: miter; stroke-linecap: square"/>
   </g>
   <g id="patch_5">
    <path d="M 46.55 390.04 
L 709.2 390.04 
" style="fill: none; stroke: #000000; stroke-width: 0.8; stroke-linejoin: miter; stroke-linecap: square"/>
   </g>
   <g id="patch_6">
    <path d="M 46.55 26.88 
L 709.2 26.88 
" style="fill: none; stroke: #000000; stroke-width: 0.8; stroke-linejoin: miter; stroke-linecap: square"/>
   </g>
   <g id="text_16">
    <!-- Inventory Over Time (Paper Trading) -->
    <g transform="translate(268.790313 20.88) scale(0.12 -0.12)">
     <defs>
      <path id="DejaVuSans-49" d="M 628 4666 
L 1259 4666 
L 1259 0 
L 628 0 
L 628 4666 
z
" transform="scale(0.015625)"/>
      <path id="DejaVuSans-76" d="M 191 3500 
L 800 3500 
L 1894 563 
L 2988 3500 
L 3597 3500 
L 2284 0 
L 1503 0 
L 191 3500 
z
" transform="scale(0.015625)"/>
      <path id="DejaVuSans-79" d="M 2059 -325 
Q 1816 -950 1584 -1140 
Q 1353 -1331 966 -1331 
L 506 -1331 
L 506 -850 
L 844 -850 
Q 1081 -850 1212 -737 
Q 1344 -625 1503 -206 
L 1606 56 
L 191 3500 
L 800 3500 
L 1894 763 
L 2988 3500 
L 3597 3500 
L 2059 -325 
z
" transform="scale(0.015625)"/>
      <path id="DejaVuSans-4f" d="M 2522 4238 
Q 1834 4238 1429 3725 
Q 1025 3213 1025 2328 
Q 1025 1447 1429 934 
Q 1834 422 2522 422 
Q 3209 422 3611 934 
Q 4013 1447 4013 2328 
Q 4013 3213 3611 3725 
Q 3209 4238 2522 4238 
z
M 2522 4750 
Q 3503 4750 4090 4092 
Q 4678 3434 4678 2328 
Q 4678 1225 4090 567 
Q 3503 -91 2522 -91 
Q 1538 -91 948 565 
Q 359 1222 359 2328 
Q 359 3434 948 4092 
Q 1538 4750 2522 4750 
z
" transform="scale(0.015625)"/>
      <path id="DejaVuSans-6d" d="M 3328 2828 
Q 3544 3216 3844 3400 
Q 4144 3584 4550 3584 
Q 5097 3584 5394 3201 
Q 5691 2819 5691 2113 
L 5691 0 
L 5113 0 
L 5113 2094 
Q 5113 2597 4934 2840 
Q 4756 3084 4391 3084 
Q 3944 3084 3684 2787 
Q 3425 2491 3425 1978 
L 3425 0 
L 2847 0 
L 2847 2094 
Q 2847 2600 2669 2842 
Q 2491 3084 2119 3084 
Q 1678 3084 1418 2786 
Q 1159 2488 1159 1978 
L 1159 0 
L 581 0 
L 581 3500 
L 1159 3500 
L 1159 2956 
Q 1356 3278 1631 3431 
Q 1906 3584 2284 3584 
Q 2666 3584 2933 3390 
Q 3200 3197 3328 2828 
z
" transform="scale(0.015625)"/>
      <path id="DejaVuSans-28" d="M 1984 4856 
Q 1566 4138 1362 3434 
Q 1159 2731 1159 2009 
Q 1159 1288 1364 580 
Q 1569 -128 1984 -844 
L 1484 -844 
Q 1016 -109 783 600 
Q 550 1309 550 2009 
Q 550 2706 781 3412 
Q 1013 4119 1484 4856 
L 1984 4856 
z
" transform="scale(0.015625)"/>
      <path id="DejaVuSans-50" d="M 1259 4147 
L 1259 2394 
L 2053 2394 
Q 2494 2394 2734 2622 
Q 2975 2850 2975 3272 
Q 2975 3691 2734 3919 
Q 2494 4147 2053 4147 
L 1259 4147 
z
M 628 4666 
L 2053 4666 
Q 2838 4666 3239 4311 
Q 3641 3956 3641 3272 
Q 3641 2581 3239 2228 
Q 2838 1875 2053 1875 
L 1259 1875 
L 1259 0 
L 628 0 
L 628 4666 
z
" transform="scale(0.015625)"/>
      <path id="DejaVuSans-29" d="M 513 4856 
L 1013 4856 
Q 1481 4119 1714 3412 
Q 1947 2706 1947 2009 
Q 1947 1309 1714 600 
Q 1481 -109 1013 -844 
L 513 -844 
Q 928 -128 1133 580 
Q 1338 1288 1338 2009 
Q 1338 2731 1133 3434 
Q 928 4138 513 4856 
z
" transform="scale(0.015625)"/>
     </defs>
     <use xlink:href="#DejaVuSans-49"/>
     <use xlink:href="#DejaVuSans-6e" transform="translate(29.492188 0)"/>
     <use xlink:href="#DejaVuSans-76" transform="translate(92.871094 0)"/>
     <use xlink:href="#DejaVuSans-65" transform="translate(152.050781 0)"/>
     <use xlink:href="#DejaVuSans-6e" transform="translate(213.574219 0)"/>
     <use xlink:href="#DejaVuSans-74" transform="translate(276.953125 0)"/>
     <use xlink:href="#DejaVuSans-6f" transform="translate(316.162109 0)"/>
     <use xlink:href="#DejaVuSans-72" transform="translate(377.34375 0)"/>
     <use xlink:href="#DejaVuSans-79" transform="translate(418.457031 0)"/>
     <use xlink:href="#DejaVuSans-20" transform="translate(477.636719 0)"/>
     <use xlink:href="#DejaVuSans-4f" transform="translate(509.423828 0)"/>
     <use xlink:href="#DejaVuSans-76" transform="translate(588.134766 0)"/>
     <use xlink:href="#DejaVuSans-65" transform="translate(647.314453 0)"/>
     <use xlink:href="#DejaVuSans-72" transform="translate(708.837891 0)"/>
     <use xlink:href="#DejaVuSans-20" transform="translate(749.951172 0)"/>
     <use xlink:href="#DejaVuSans-54" transform="translate(781.738281 0)"/>
     <use xlink:href="#DejaVuSans-69" transform="translate(839.697266 0)"/>
     <use xlink:href="#DejaVuSans-6d" transform="translate(867.480469 0)"/>
     <use xlink:href="#DejaVuSans-65" transform="translate(964.892578 0)"/>
     <use xlink:href="#DejaVuSans-20" transform="translate(1026.416016 0)"/>
     <use xlink:href="#DejaVuSans-28" transform="translate(1058.203125 0)"/>
     <use xlink:href="#DejaVuSans-50" transform="translate(1097.216797 0)"/>
     <use xlink:href="#DejaVuSans-61" transform="translate(1153.019531 0)"/>
     <use xlink:href="#DejaVuSans-70" transform="translate(1214.298828 0)"/>
     <use xlink:href="#DejaVuSans-65" transform="translate(1277.775391 0)"/>
     <use xlink:href="#DejaVuSans-72" transform="translate(1339.298828 0)"/>
     <use xlink:href="#DejaVuSans-20" transform="translate(1380.412109 0)"/>
     <use xlink:href="#DejaVuSans-54" transform="translate(1412.199219 0)"/>
     <use xlink:href="#DejaVuSans-72" transform="translate(1458.533203 0)"/>
     <use xlink:href="#DejaVuSans-61" transform="translate(1499.646484 0)"/>
     <use xlink:href="#DejaVuSans-64" transform="translate(1560.925781 0)"/>
     <use xlink:href="#DejaVuSans-69" transform="translate(1624.402344 0)"/>
     <use xlink:href="#DejaVuSans-6e" transform="translate(1652.185547 0)"/>
     <use xlink:href="#DejaVuSans-67" transform="translate(1715.564453 0)"/>
     <use xlink:href="#DejaVuSans-29" transform="translate(1779.041016 0)"/>
    </g>
   </g>
   <g id="legend_1">
    <g id="patch_7">
     <path d="M 337.992188 49.558125 
L 417.757812 49.558125 
Q 419.757812 49.558125 419.757812 47.558125 
L 419.757812 33.88 
Q 419.757812 31.88 417.757812 31.88 
L 337.992188 31.88 
Q 335.992188 31.88 335.992188 33.88 
L 335.992188 47.558125 
Q 335.992188 49.558125 337.992188 49.558125 
z
" style="fill: #ffffff; opacity: 0.8; stroke: #cccccc; stroke-linejoin: miter"/>
    </g>
    <g id="line2d_28">
     <path d="M 339.992188 39.978438 
L 349.992188 39.978438 
L 359.992188 39.978438 
" style="fill: none; stroke: #000000; stroke-width: 1.5; stroke-linecap: square"/>
    </g>
    <g id="text_17">
     <!-- Inventory -->
     <g transform="translate(367.992188 43.478438) scale(0.1 -0.1)">
      <use xlink:href="#DejaVuSans-49"/>
      <use xlink:href="#DejaVuSans-6e" transform="translate(29.492188 0)"/>
      <use xlink:href="#DejaVuSans-76" transform="translate(92.871094 0)"/>
      <use xlink:href="#DejaVuSans-65" transform="translate(152.050781 0)"/>
      <use xlink:href="#DejaVuSans-6e" transform="translate(213.574219 0)"/>
      <use xlink:href="#DejaVuSans-74" transform="translate(276.953125 0)"/>
      <use xlink:href="#DejaVuSans-6f" transform="translate(316.162109 0)"/>
      <use xlink:href="#DejaVuSans-72" transform="translate(377.34375 0)"/>
      <use xlink:href="#DejaVuSans-79" transform="translate(418.457031 0)"/>
     </g>
    </g>
   </g>
  </g>
 </g>
 <defs>
  <clipPath id="p73f24afc6a">
   <rect x="46.55" y="26.88" width="662.65" height="363.16"/>
  </clipPath>
 </defs>
</svg>
