<?xml version="1.0" encoding="utf-8" standalone="no"?>
<!DOCTYPE svg PUBLIC "-//W3C//DTD SVG 1.1//EN"
  "http://www.w3.org/Graphics/SVG/1.1/DTD/svg11.dtd">
<svg xmlns:xlink="http://www.w3.org/1999/xlink" width="720pt" height="432pt" viewBox="0 0 720 432" xmlns="http://www.w3.org/2000/svg" version="1.1">
 <metadata>
  <rdf:RDF xmlns:dc="http://purl.org/dc/elements/1.1/" xmlns:cc="http://creativecommons.org/ns#" xmlns:rdf="http://www.w3.org/1999/02/22-rdf-syntax-ns#">
   <cc:Work>
    <dc:type rdf:resource="http://purl.org/dc/dcmitype/StillImage"/>
    <dc:date>2026-04-09T14:30:32.995987</dc:date>
    <dc:format>image/svg+xml</dc:format>
    <dc:creator>
     <cc:Agent>
      <dc:title>Matplotlib v3.9.2, https://matplotlib.org/</dc:title>
     </cc:Agent>
    </dc:creator>
   </cc:Work>
  </rdf:RDF>
 </metadata>
 <defs>
  <style type="text/css">*{stroke-linejoin: round; stroke-linecap: butt}</style>
 </defs>
 <g id="figure_1">
  <g id="patch_1">
   <path d="M 0 432 
L 720 432 
L 720 0 
L 0 0 
z
" style="fill: #ffffff"/>
  </g>
  <g id="axes_1">
   <g id="patch_2">
    <path d="M 46.55 390.04 
L 709.2 390.04 
L 709.2 26.88 
L 46.55 26.88 
z
" style="fill: #ffffff"/>
   </g>
   <g id="matplotlib.axis_1">
    <g id="xtick_1">
     <g id="line2d_1">
      <path d="M 76.670455 390.04 
L 76.670455 26.88 
" clip-path="url(#pdf1d82d446)" style="fill: none; stroke: #b0b0b0; stroke-width: 0.8; stroke-linecap: square"/>
     </g>
     <g id="line2d_2">
      <defs>
       <path id="m3a40394dbf" d="M 0 0 
L 0 3.5 
" style="stroke: #000000; stroke-width: 0.8"/>
      </defs>
      <g>
       <use xlink:href="#m3a40394dbf" x="76.670455" y="390.04" style="stroke: #000000; stroke-width: 0.8"/>
      </g>
     </g>
     <g id="text_1">
      <!-- 0 -->
      <g transform="translate(73.489205 404.638438) scale(0.1 -0.1)">
       <defs>
        <path id="DejaVuSans-30" d="M 2034 4250 
Q 1547 4250 1301 3770 
Q 1056 3291 1056 2328 
Q 1056 1369 1301 889 
Q 1547 409 2034 409 
Q 2525 409 2770 889 
Q 3016 1369 3016 2328 
Q 3016 3291 2770 3770 
Q 2525 4250 2034 4250 
z
M 2034 4750 
Q 2819 4750 3233 4129 
Q 3647 3509 3647 2328 
Q 3647 1150 3233 529 
Q 2819 -91 2034 -91 
Q 1250 -91 836 529 
Q 422 1150 422 2328 
Q 422 3509 836 4129 
Q 1250 4750 2034 4750 
z
" transform="scale(0.015625)"/>
       </defs>
       <use xlink:href="#DejaVuSans-30"/>
      </g>
     </g>
    </g>
    <g id="xtick_2">
     <g id="line2d_3">
      <path d="M 186.39933 390.04 
L 186.39933 26.88 
" clip-path="url(#pdf1d82d446)" style="fill: none; stroke: #b0b0b0; stroke-width: 0.8; stroke-linecap: square"/>
     </g>
     <g id="line2d_4">
      <g>
       <use xlink:href="#m3a40394dbf" x="186.39933" y="390.04" style="stroke: #000000; stroke-width: 0.8"/>
      </g>
     </g>
     <g id="text_2">
      <!-- 10000 -->
      <g transform="translate(170.49308 404.638438) scale(0.1 -0.1)">
       <defs>
        <path id="DejaVuSans-31" d="M 794 531 
L 1825 531 
L 1825 4091 
L 703 3866 
L 703 4441 
L 1819 4666 
L 2450 4666 
L 2450 531 
L 3481 531 
L 3481 0 
L 794 0 
L 794 531 
z
" transform="scale(0.015625)"/>
       </defs>
       <use xlink:href="#DejaVuSans-31"/>
       <use xlink:href="#DejaVuSans-30" x="63.623047"/>
       <use xlink:href="#DejaVuSans-30" x="127.246094"/>
       <use xlink:href="#DejaVuSans-30" x="190.869141"/>
       <use xlink:href="#DejaVuSans-30" x="254.492188"/>
      </g>
     </g>
    </g>
    <g id="xtick_3">
     <g id="line2d_5">
      <path d="M 296.128206 390.04 
L 296.128206 26.88 
" clip-path="url(#pdf1d82d446)" style="fill: none; stroke: #b0b0b0; stroke-width: 0.8; stroke-linecap: square"/>
     </g>
     <g id="line2d_6">
      <g>
       <use xlink:href="#m3a40394dbf" x="296.128206" y="390.04" style="stroke: #000000; stroke-width: 0.8"/>
      </g>
     </g>
     <g id="text_3">
      <!-- 20000 -->
      <g transform="translate(280.221956 404.638438) scale(0.1 -0.1)">
       <defs>
        <path id="DejaVuSans-32" d="M 1228 531 
L 3431 531 
L 3431 0 
L 469 0 
L 469 531 
Q 828 903 1448 1529 
Q 2069 2156 2228 2338 
Q 2531 2678 2651 2914 
Q 2772 3150 2772 3378 
Q 2772 3750 2511 3984 
Q 2250 4219 1831 4219 
Q 1534 4219 1204 4116 
Q 875 4013 500 3803 
L 500 4441 
Q 881 4594 1212 4672 
Q 1544 4750 1819 4750 
Q 2544 4750 2975 4387 
Q 3406 4025 3406 3419 
Q 3406 3131 3298 2873 
Q 3191 2616 2906 2266 
Q 2828 2175 2409 1742 
Q 1991 1309 1228 531 
z
" transform="scale(0.015625)"/>
       </defs>
       <use xlink:href="#DejaVuSans-32"/>
       <use xlink:href="#DejaVuSans-30" x="63.623047"/>
       <use xlink:href="#DejaVuSans-30" x="127.246094"/>
       <use xlink:href="#DejaVuSans-30" x="190.869141"/>
       <use xlink:href="#DejaVuSans-30" x="254.492188"/>
      </g>
     </g>
    </g>
    <g id="xtick_4">
     <g id="line2d_7">
      <path d="M 405.857082 390.04 
L 405.857082 26.88 
" clip-path="url(#pdf1d82d446)" style="fill: none; stroke: #b0b0b0; stroke-width: 0.8; stroke-linecap: square"/>
     </g>
     <g id="line2d_8">
      <g>
       <use xlink:href="#m3a40394dbf" x="405.857082" y="390.04" style="stroke: #000000; stroke-width: 0.8"/>
      </g>
     </g>
     <g id="text_4">
      <!-- 30000 -->
      <g transform="translate(389.950832 404.638438) scale(0.1 -0.1)">
       <defs>
        <path id="DejaVuSans-33" d="M 2597 2516 
Q 3050 2419 3304 2112 
Q 3559 1806 3559 1356 
Q 3559 666 3084 287 
Q 2609 -91 1734 -91 
Q 1441 -91 1130 -33 
Q 819 25 488 141 
L 488 750 
Q 750 597 1062 519 
Q 1375 441 1716 441 
Q 2309 441 2620 675 
Q 2931 909 2931 1356 
Q 2931 1769 2642 2001 
Q 2353 2234 1838 2234 
L 1294 2234 
L 1294 2753 
L 1863 2753 
Q 2328 2753 2575 2939 
Q 2822 3125 2822 3475 
Q 2822 3834 2567 4026 
Q 2313 4219 1838 4219 
Q 1578 4219 1281 4162 
Q 984 4106 628 3988 
L 628 4550 
Q 988 4650 1302 4700 
Q 1616 4750 1894 4750 
Q 2613 4750 3031 4423 
Q 3450 4097 3450 3541 
Q 3450 3153 3228 2886 
Q 3006 2619 2597 2516 
z
" transform="scale(0.015625)"/>
       </defs>
       <use xlink:href="#DejaVuSans-33"/>
       <use xlink:href="#DejaVuSans-30" x="63.623047"/>
       <use xlink:href="#DejaVuSans-30" x="127.246094"/>
       <use xlink:href="#DejaVuSans-30" x="190.869141"/>
       <use xlink:href="#DejaVuSans-30" x="254.492188"/>
      </g>
     </g>
    </g>
    <g id="xtick_5">
     <g id="line2d_9">
      <path d="M 515.585958 390.04 
L 515.585958 26.88 
" clip-path="url(#pdf1d82d446)" style="fill: none; stroke: #b0b0b0; stroke-width: 0.8; stroke-linecap: square"/>
     </g>
     <g id="line2d_10">
      <g>
       <use xlink:href="#m3a40394dbf" x="515.585958" y="390.04" style="stroke: #000000; stroke-width: 0.8"/>
      </g>
     </g>
     <g id="text_5">
      <!-- 40000 -->
      <g transform="translate(499.679708 404.638438) scale(0.1 -0.1)">
       <defs>
        <path id="DejaVuSans-34" d="M 2419 4116 
L 825 1625 
L 2419 1625 
L 2419 4116 
z
M 2253 4666 
L 3047 4666 
L 3047 1625 
L 3713 1625 
L 3713 1100 
L 3047 1100 
L 3047 0 
L 2419 0 
L 2419 1100 
L 313 1100 
L 313 1709 
L 2253 4666 
z
" transform="scale(0.015625)"/>
       </defs>
       <use xlink:href="#DejaVuSans-34"/>
       <use xlink:href="#DejaVuSans-30" x="63.623047"/>
       <use xlink:href="#DejaVuSans-30" x="127.246094"/>
       <use xlink:href="#DejaVuSans-30" x="190.869141"/>
       <use xlink:href="#DejaVuSans-30" x="254.492188"/>
      </g>
     </g>
    </g>
    <g id="xtick_6">
     <g id="line2d_11">
      <path d="M 625.314834 390.04 
L 625.314834 26.88 
" clip-path="url(#pdf1d82d446)" style="fill: none; stroke: #b0b0b0; stroke-width: 0.8; stroke-linecap: square"/>
     </g>
     <g id="line2d_12">
      <g>
       <use xlink:href="#m3a40394dbf" x="625.314834" y="390.04" style="stroke: #000000; stroke-width: 0.8"/>
      </g>
     </g>
     <g id="text_6">
      <!-- 50000 -->
      <g transform="translate(609.408584 404.638438) scale(0.1 -0.1)">
       <defs>
        <path id="DejaVuSans-35" d="M 691 4666 
L 3169 4666 
L 3169 4134 
L 1269 4134 
L 1269 2991 
Q 1406 3038 1543 3061 
Q 1681 3084 1819 3084 
Q 2600 3084 3056 2656 
Q 3513 2228 3513 1497 
Q 3513 744 3044 326 
Q 2575 -91 1722 -91 
Q 1428 -91 1123 -41 
Q 819 9 494 109 
L 494 744 
Q 775 591 1075 516 
Q 1375 441 1709 441 
Q 2250 441 2565 725 
Q 2881 1009 2881 1497 
Q 2881 1984 2565 2268 
Q 2250 2553 1709 2553 
Q 1456 2553 1204 2497 
Q 953 2441 691 2322 
L 691 4666 
z
" transform="scale(0.015625)"/>
       </defs>
       <use xlink:href="#DejaVuSans-35"/>
       <use xlink:href="#DejaVuSans-30" x="63.623047"/>
       <use xlink:href="#DejaVuSans-30" x="127.246094"/>
       <use xlink:href="#DejaVuSans-30" x="190.869141"/>
       <use xlink:href="#DejaVuSans-30" x="254.492188"/>
      </g>
     </g>
    </g>
    <g id="text_7">
     <!-- Elapsed Trading Seconds -->
     <g transform="translate(315.705469 418.316562) scale(0.1 -0.1)">
      <defs>
       <path id="DejaVuSans-45" d="M 628 4666 
L 3578 4666 
L 3578 4134 
L 1259 4134 
L 1259 2753 
L 3481 2753 
L 3481 2222 
L 1259 2222 
L 1259 531 
L 3634 531 
L 3634 0 
L 628 0 
L 628 4666 
z
" transform="scale(0.015625)"/>
       <path id="DejaVuSans-6c" d="M 603 4863 
L 1178 4863 
L 1178 0 
L 603 0 
L 603 4863 
z
" transform="scale(0.015625)"/>
       <path id="DejaVuSans-61" d="M 2194 1759 
Q 1497 1759 1228 1600 
Q 959 1441 959 1056 
Q 959 750 1161 570 
Q 1363 391 1709 391 
Q 2188 391 2477 730 
Q 2766 1069 2766 1631 
L 2766 1759 
L 2194 1759 
z
M 3341 1997 
L 3341 0 
L 2766 0 
L 2766 531 
Q 2569 213 2275 61 
Q 1981 -91 1556 -91 
Q 1019 -91 701 211 
Q 384 513 384 1019 
Q 384 1609 779 1909 
Q 1175 2209 1959 2209 
L 2766 2209 
L 2766 2266 
Q 2766 2663 2505 2880 
Q 2244 3097 1772 3097 
Q 1472 3097 1187 3025 
Q 903 2953 641 2809 
L 641 3341 
Q 956 3463 1253 3523 
Q 1550 3584 1831 3584 
Q 2591 3584 2966 3190 
Q 3341 2797 3341 1997 
z
" transform="scale(0.015625)"/>
       <path id="DejaVuSans-70" d="M 1159 525 
L 1159 -1331 
L 581 -1331 
L 581 3500 
L 1159 3500 
L 1159 2969 
Q 1341 3281 1617 3432 
Q 1894 3584 2278 3584 
Q 2916 3584 3314 3078 
Q 3713 2572 3713 1747 
Q 3713 922 3314 415 
Q 2916 -91 2278 -91 
Q 1894 -91 1617 61 
Q 1341 213 1159 525 
z
M 3116 1747 
Q 3116 2381 2855 2742 
Q 2594 3103 2138 3103 
Q 1681 3103 1420 2742 
Q 1159 2381 1159 1747 
Q 1159 1113 1420 752 
Q 1681 391 2138 391 
Q 2594 391 2855 752 
Q 3116 1113 3116 1747 
z
" transform="scale(0.015625)"/>
       <path id="DejaVuSans-73" d="M 2834 3397 
L 2834 2853 
Q 2591 2978 2328 3040 
Q 2066 3103 1784 3103 
Q 1356 3103 1142 2972 
Q 928 2841 928 2578 
Q 928 2378 1081 2264 
Q 1234 2150 1697 2047 
L 1894 2003 
Q 2506 1872 2764 1633 
Q 3022 1394 3022 966 
Q 3022 478 2636 193 
Q 2250 -91 1575 -91 
Q 1294 -91 989 -36 
Q 684 19 347 128 
L 347 722 
Q 666 556 975 473 
Q 1284 391 1588 391 
Q 1994 391 2212 530 
Q 2431 669 2431 922 
Q 2431 1156 2273 1281 
Q 2116 1406 1581 1522 
L 1381 1569 
Q 847 1681 609 1914 
Q 372 2147 372 2553 
Q 372 3047 722 3315 
Q 1072 3584 1716 3584 
Q 2034 3584 2315 3537 
Q 2597 3491 2834 3397 
z
" transform="scale(0.015625)"/>
       <path id="DejaVuSans-65" d="M 3597 1894 
L 3597 1613 
L 953 1613 
Q 991 1019 1311 708 
Q 1631 397 2203 397 
Q 2534 397 2845 478 
Q 3156 559 3463 722 
L 3463 178 
Q 3153 47 2828 -22 
Q 2503 -91 2169 -91 
Q 1331 -91 842 396 
Q 353 884 353 1716 
Q 353 2575 817 3079 
Q 1281 3584 2069 3584 
Q 2775 3584 3186 3129 
Q 3597 2675 3597 1894 
z
M 3022 2063 
Q 3016 2534 2758 2815 
Q 2500 3097 2075 3097 
Q 1594 3097 1305 2825 
Q 1016 2553 972 2059 
L 3022 2063 
z
" transform="scale(0.015625)"/>
       <path id="DejaVuSans-64" d="M 2906 2969 
L 2906 4863 
L 3481 4863 
L 3481 0 
L 2906 0 
L 2906 525 
Q 2725 213 2448 61 
Q 2172 -91 1784 -91 
Q 1150 -91 751 415 
Q 353 922 353 1747 
Q 353 2572 751 3078 
Q 1150 3584 1784 3584 
Q 2172 3584 2448 3432 
Q 2725 3281 2906 2969 
z
M 947 1747 
Q 947 1113 1208 752 
Q 1469 391 1925 391 
Q 2381 391 2643 752 
Q 2906 1113 2906 1747 
Q 2906 2381 2643 2742 
Q 2381 3103 1925 3103 
Q 1469 3103 1208 2742 
Q 947 2381 947 1747 
z
" transform="scale(0.015625)"/>
       <path id="DejaVuSans-20" transform="scale(0.015625)"/>
       <path id="DejaVuSans-54" d="M -19 4666 
L 3928 4666 
L 3928 4134 
L 2272 4134 
L 2272 0 
L 1638 0 
L 1638 4134 
L -19 4134 
L -19 4666 
z
" transform="scale(0.015625)"/>
       <path id="DejaVuSans-72" d="M 2631 2963 
Q 2534 3019 2420 3045 
Q 2306 3072 2169 3072 
Q 1681 3072 1420 2755 
Q 1159 2438 1159 1844 
L 1159 0 
L 581 0 
L 581 3500 
L 1159 3500 
L 1159 2956 
Q 1341 3275 1631 3429 
Q 1922 3584 2338 3584 
Q 2397 3584 2469 3576 
Q 2541 3569 2628 3553 
L 2631 2963 
z
" transform="scale(0.015625)"/>
       <path id="DejaVuSans-69" d="M 603 3500 
L 1178 3500 
L 1178 0 
L 603 0 
L 603 3500 
z
M 603 4863 
L 1178 4863 
L 1178 4134 
L 603 4134 
L 603 4863 
z
" transform="scale(0.015625)"/>
       <path id="DejaVuSans-6e" d="M 3513 2113 
L 3513 0 
L 2938 0 
L 2938 2094 
Q 2938 2591 2744 2837 
Q 2550 3084 2163 3084 
Q 1697 3084 1428 2787 
Q 1159 2491 1159 1978 
L 1159 0 
L 581 0 
L 581 3500 
L 1159 3500 
L 1159 2956 
Q 1366 3272 1645 3428 
Q 1925 3584 2291 3584 
Q 2894 3584 3203 3211 
Q 3513 2838 3513 2113 
z
" transform="scale(0.015625)"/>
       <path id="DejaVuSans-67" d="M 2906 1791 
Q 2906 2416 2648 2759 
Q 2391 3103 1925 3103 
Q 1463 3103 1205 2759 
Q 947 2416 947 1791 
Q 947 1169 1205 825 
Q 1463 481 1925 481 
Q 2391 481 2648 825 
Q 2906 1169 2906 1791 
z
M 3481 434 
Q 3481 -459 3084 -895 
Q 2688 -1331 1869 -1331 
Q 1566 -1331 1297 -1286 
Q 1028 -1241 775 -1147 
L 775 -588 
Q 1028 -725 1275 -790 
Q 1522 -856 1778 -856 
Q 2344 -856 2625 -561 
Q 2906 -266 2906 331 
L 2906 616 
Q 2728 306 2450 153 
Q 2172 0 1784 0 
Q 1141 0 747 490 
Q 353 981 353 1791 
Q 353 2603 747 3093 
Q 1141 3584 1784 3584 
Q 2172 3584 2450 3431 
Q 2728 3278 2906 2969 
L 2906 3500 
L 3481 3500 
L 3481 434 
z
" transform="scale(0.015625)"/>
       <path id="DejaVuSans-53" d="M 3425 4513 
L 3425 3897 
Q 3066 4069 2747 4153 
Q 2428 4238 2131 4238 
Q 1616 4238 1336 4038 
Q 1056 3838 1056 3469 
Q 1056 3159 1242 3001 
Q 1428 2844 1947 2747 
L 2328 2669 
Q 3034 2534 3370 2195 
Q 3706 1856 3706 1288 
Q 3706 609 3251 259 
Q 2797 -91 1919 -91 
Q 1588 -91 1214 -16 
Q 841 59 441 206 
L 441 856 
Q 825 641 1194 531 
Q 1563 422 1919 422 
Q 2459 422 2753 634 
Q 3047 847 3047 1241 
Q 3047 1584 2836 1778 
Q 2625 1972 2144 2069 
L 1759 2144 
Q 1053 2284 737 2584 
Q 422 2884 422 3419 
Q 422 4038 858 4394 
Q 1294 4750 2059 4750 
Q 2388 4750 2728 4690 
Q 3069 4631 3425 4513 
z
" transform="scale(0.015625)"/>
       <path id="DejaVuSans-63" d="M 3122 3366 
L 3122 2828 
Q 2878 2963 2633 3030 
Q 2388 3097 2138 3097 
Q 1578 3097 1268 2742 
Q 959 2388 959 1747 
Q 959 1106 1268 751 
Q 1578 397 2138 397 
Q 2388 397 2633 464 
Q 2878 531 3122 666 
L 3122 134 
Q 2881 22 2623 -34 
Q 2366 -91 2075 -91 
Q 1284 -91 818 406 
Q 353 903 353 1747 
Q 353 2603 823 3093 
Q 1294 3584 2113 3584 
Q 2378 3584 2631 3529 
Q 2884 3475 3122 3366 
z
" transform="scale(0.015625)"/>
       <path id="DejaVuSans-6f" d="M 1959 3097 
Q 1497 3097 1228 2736 
Q 959 2375 959 1747 
Q 959 1119 1226 758 
Q 1494 397 1959 397 
Q 2419 397 2687 759 
Q 2956 1122 2956 1747 
Q 2956 2369 2687 2733 
Q 2419 3097 1959 3097 
z
M 1959 3584 
Q 2709 3584 3137 3096 
Q 3566 2609 3566 1747 
Q 3566 888 3137 398 
Q 2709 -91 1959 -91 
Q 1206 -91 779 398 
Q 353 888 353 1747 
Q 353 2609 779 3096 
Q 1206 3584 1959 3584 
z
" transform="scale(0.015625)"/>
      </defs>
      <use xlink:href="#DejaVuSans-45"/>
      <use xlink:href="#DejaVuSans-6c" x="63.183594"/>
      <use xlink:href="#DejaVuSans-61" x="90.966797"/>
      <use xlink:href="#DejaVuSans-70" x="152.246094"/>
      <use xlink:href="#DejaVuSans-73" x="215.722656"/>
      <use xlink:href="#DejaVuSans-65" x="267.822266"/>
      <use xlink:href="#DejaVuSans-64" x="329.345703"/>
      <use xlink:href="#DejaVuSans-20" x="392.822266"/>
      <use xlink:href="#DejaVuSans-54" x="424.609375"/>
      <use xlink:href="#DejaVuSans-72" x="470.943359"/>
      <use xlink:href="#DejaVuSans-61" x="512.056641"/>
      <use xlink:href="#DejaVuSans-64" x="573.335938"/>
      <use xlink:href="#DejaVuSans-69" x="636.8125"/>
      <use xlink:href="#DejaVuSans-6e" x="664.595703"/>
      <use xlink:href="#DejaVuSans-67" x="727.974609"/>
      <use xlink:href="#DejaVuSans-20" x="791.451172"/>
      <use xlink:href="#DejaVuSans-53" x="823.238281"/>
      <use xlink:href="#DejaVuSans-65" x="886.714844"/>
      <use xlink:href="#DejaVuSans-63" x="948.238281"/>
      <use xlink:href="#DejaVuSans-6f" x="1003.21875"/>
      <use xlink:href="#DejaVuSans-6e" x="1064.400391"/>
      <use xlink:href="#DejaVuSans-64" x="1127.779297"/>
      <use xlink:href="#DejaVuSans-73" x="1191.255859"/>
     </g>
    </g>
   </g>
   <g id="matplotlib.axis_2">
    <g id="ytick_1">
     <g id="line2d_13">
      <path d="M 46.55 340.518182 
L 709.2 340.518182 
" clip-path="url(#pdf1d82d446)" style="fill: none; stroke: #b0b0b0; stroke-width: 0.8; stroke-linecap: square"/>
     </g>
     <g id="line2d_14">
      <defs>
       <path id="mce7dfa0ba8" d="M 0 0 
L -3.5 0 
" style="stroke: #000000; stroke-width: 0.8"/>
      </defs>
      <g>
       <use xlink:href="#mce7dfa0ba8" x="46.55" y="340.518182" style="stroke: #000000; stroke-width: 0.8"/>
      </g>
     </g>
     <g id="text_8">
      <!-- −4 -->
      <g transform="translate(24.807813 344.317401) scale(0.1 -0.1)">
       <defs>
        <path id="DejaVuSans-2212" d="M 678 2272 
L 4684 2272 
L 4684 1741 
L 678 1741 
L 678 2272 
z
" transform="scale(0.015625)"/>
       </defs>
       <use xlink:href="#DejaVuSans-2212"/>
       <use xlink:href="#DejaVuSans-34" x="83.789062"/>
      </g>
     </g>
    </g>
    <g id="ytick_2">
     <g id="line2d_15">
      <path d="M 46.55 274.489091 
L 709.2 274.489091 
" clip-path="url(#pdf1d82d446)" style="fill: none; stroke: #b0b0b0; stroke-width: 0.8; stroke-linecap: square"/>
     </g>
     <g id="line2d_16">
      <g>
       <use xlink:href="#mce7dfa0ba8" x="46.55" y="274.489091" style="stroke: #000000; stroke-width: 0.8"/>
      </g>
     </g>
     <g id="text_9">
      <!-- −2 -->
      <g transform="translate(24.807813 278.28831) scale(0.1 -0.1)">
       <use xlink:href="#DejaVuSans-2212"/>
       <use xlink:href="#DejaVuSans-32" x="83.789062"/>
      </g>
     </g>
    </g>
    <g id="ytick_3">
     <g id="line2d_17">
      <path d="M 46.55 208.46 
L 709.2 208.46 
" clip-path="url(#pdf1d82d446)" style="fill: none; stroke: #b0b0b0; stroke-width: 0.8; stroke-linecap: square"/>
     </g>
     <g id="line2d_18">
      <g>
       <use xlink:href="#mce7dfa0ba8" x="46.55" y="208.46" style="stroke: #000000; stroke-width: 0.8"/>
      </g>
     </g>
     <g id="text_10">
      <!-- 0 -->
      <g transform="translate(33.1875 212.259219) scale(0.1 -0.1)">
       <use xlink:href="#DejaVuSans-30"/>
      </g>
     </g>
    </g>
    <g id="ytick_4">
     <g id="line2d_19">
      <path d="M 46.55 142.430909 
L 709.2 142.430909 
" clip-path="url(#pdf1d82d446)" style="fill: none; stroke: #b0b0b0; stroke-width: 0.8; stroke-linecap: square"/>
     </g>
     <g id="line2d_20">
      <g>
       <use xlink:href="#mce7dfa0ba8" x="46.55" y="142.430909" style="stroke: #000000; stroke-width: 0.8"/>
      </g>
     </g>
     <g id="text_11">
      <!-- 2 -->
      <g transform="translate(33.1875 146.230128) scale(0.1 -0.1)">
       <use xlink:href="#DejaVuSans-32"/>
      </g>
     </g>
    </g>
    <g id="ytick_5">
     <g id="line2d_21">
      <path d="M 46.55 76.401818 
L 709.2 76.401818 
" clip-path="url(#pdf1d82d446)" style="fill: none; stroke: #b0b0b0; stroke-width: 0.8; stroke-linecap: square"/>
     </g>
     <g id="line2d_22">
      <g>
       <use xlink:href="#mce7dfa0ba8" x="46.55" y="76.401818" style="stroke: #000000; stroke-width: 0.8"/>
      </g>
     </g>
     <g id="text_12">
      <!-- 4 -->
      <g transform="translate(33.1875 80.201037) scale(0.1 -0.1)">
       <use xlink:href="#DejaVuSans-34"/>
      </g>
     </g>
    </g>
    <g id="text_13">
     <!-- Contracts -->
     <g transform="translate(18.728125 232.573281) rotate(-90) scale(0.1 -0.1)">
      <defs>
       <path id="DejaVuSans-43" d="M 4122 4306 
L 4122 3641 
Q 3803 3938 3442 4084 
Q 3081 4231 2675 4231 
Q 1875 4231 1450 3742 
Q 1025 3253 1025 2328 
Q 1025 1406 1450 917 
Q 1875 428 2675 428 
Q 3081 428 3442 575 
Q 3803 722 4122 1019 
L 4122 359 
Q 3791 134 3420 21 
Q 3050 -91 2638 -91 
Q 1578 -91 968 557 
Q 359 1206 359 2328 
Q 359 3453 968 4101 
Q 1578 4750 2638 4750 
Q 3056 4750 3426 4639 
Q 3797 4528 4122 4306 
z
" transform="scale(0.015625)"/>
       <path id="DejaVuSans-74" d="M 1172 4494 
L 1172 3500 
L 2356 3500 
L 2356 3053 
L 1172 3053 
L 1172 1153 
Q 1172 725 1289 603 
Q 1406 481 1766 481 
L 2356 481 
L 2356 0 
L 1766 0 
Q 1100 0 847 248 
Q 594 497 594 1153 
L 594 3053 
L 172 3053 
L 172 3500 
L 594 3500 
L 594 4494 
L 1172 4494 
z
" transform="scale(0.015625)"/>
      </defs>
      <use xlink:href="#DejaVuSans-43"/>
      <use xlink:href="#DejaVuSans-6f" x="69.824219"/>
      <use xlink:href="#DejaVuSans-6e" x="131.005859"/>
      <use xlink:href="#DejaVuSans-74" x="194.384766"/>
      <use xlink:href="#DejaVuSans-72" x="233.59375"/>
      <use xlink:href="#DejaVuSans-61" x="274.707031"/>
      <use xlink:href="#DejaVuSans-63" x="335.986328"/>
      <use xlink:href="#DejaVuSans-74" x="390.966797"/>
      <use xlink:href="#DejaVuSans-73" x="430.175781"/>
     </g>
    </g>
   </g>
   <g id="line2d_23">
    <path d="M 76.670455 241.474545 
L 76.670455 373.532727 
L 76.780379 373.532727 
L 81.756969 373.532727 
L 81.866701 340.518182 
L 83.08414 340.518182 
L 83.310421 274.489091 
L 90.83237 274.489091 
L 91.052084 241.474545 
L 94.922309 241.474545 
L 95.031942 208.46 
L 97.361532 208.46 
L 97.581332 241.474545 
L 97.805395 241.474545 
L 98.025171 274.489091 
L 98.359195 274.489091 
L 98.688888 340.518182 
L 100.568174 340.518182 
L 100.787927 208.46 
L 102.223112 208.46 
L 102.345148 175.445455 
L 102.454925 175.445455 
L 102.674855 208.46 
L 103.118303 208.46 
L 103.228266 175.445455 
L 103.447661 208.46 
L 107.206443 208.46 
L 107.426236 175.445455 
L 107.536007 175.445455 
L 107.759723 142.430909 
L 108.313593 142.430909 
L 108.533553 109.416364 
L 108.863119 109.416364 
L 108.984329 76.401818 
L 112.186699 76.401818 
L 112.410616 43.387273 
L 114.626162 43.387273 
L 114.846204 76.401818 
L 117.500138 76.401818 
L 117.724001 43.387273 
L 119.490924 43.387273 
L 119.715062 76.401818 
L 119.934842 76.401818 
L 120.044662 208.46 
L 120.154384 142.430909 
L 120.268394 142.430909 
L 120.488247 175.445455 
L 120.598105 175.445455 
L 120.817748 208.46 
L 123.03619 208.46 
L 123.255855 241.474545 
L 124.0292 241.474545 
L 124.138721 208.46 
L 128.781418 208.46 
L 128.905075 175.445455 
L 131.225007 175.445455 
L 131.444901 208.46 
L 131.668698 208.46 
L 131.888268 241.474545 
L 132.771212 241.474545 
L 132.99507 274.489091 
L 133.214652 274.489091 
L 133.434396 208.46 
L 134.650976 208.46 
L 134.76075 175.445455 
L 136.871643 175.445455 
L 136.981324 208.46 
L 137.201054 175.445455 
L 138.746616 175.445455 
L 138.970342 208.46 
L 144.506065 208.46 
L 144.72556 241.474545 
L 151.037848 241.474545 
L 151.257664 208.46 
L 152.146417 208.46 
L 152.146417 175.445455 
L 152.256397 175.445455 
L 155.243462 175.445455 
L 155.353224 208.46 
L 156.130837 208.46 
L 156.350754 175.445455 
L 158.231791 175.445455 
L 158.451649 208.46 
L 167.747654 208.46 
L 167.857427 241.474545 
L 167.972481 241.474545 
L 168.192252 274.489091 
L 168.521677 274.489091 
L 168.746345 340.518182 
L 168.966089 307.503636 
L 169.299507 307.503636 
L 169.51894 208.46 
L 172.620121 208.46 
L 172.839898 175.445455 
L 172.949778 175.445455 
L 173.16941 241.474545 
L 173.612466 241.474545 
L 173.83205 208.46 
L 184.569922 208.46 
L 184.789722 175.445455 
L 185.234877 175.445455 
L 185.454505 208.46 
L 187.22436 208.46 
L 187.44397 241.474545 
L 189.099609 241.474545 
L 189.323278 208.46 
L 190.425878 208.46 
L 190.649728 175.445455 
L 192.97519 175.445455 
L 193.085066 208.46 
L 193.309045 208.46 
L 193.528709 175.445455 
L 198.730568 175.445455 
L 198.950209 208.46 
L 200.387346 208.46 
L 200.61122 175.445455 
L 206.032637 175.445455 
L 206.252238 142.430909 
L 210.012696 142.430909 
L 210.232294 109.416364 
L 210.67621 109.416364 
L 211.229821 274.489091 
L 212.337686 274.489091 
L 212.561798 208.46 
L 212.671816 208.46 
L 213.001249 274.489091 
L 228.834556 274.489091 
L 229.05879 208.46 
L 232.815137 208.46 
L 232.92484 175.445455 
L 236.350707 175.445455 
L 236.789975 307.503636 
L 237.013863 307.503636 
L 237.23373 208.46 
L 238.007941 208.46 
L 238.117602 175.445455 
L 238.560926 175.445455 
L 238.780609 208.46 
L 240.890205 208.46 
L 241.109789 175.445455 
L 241.439153 175.445455 
L 241.662615 274.489091 
L 241.991839 274.489091 
L 242.101713 208.46 
L 252.614903 208.46 
L 252.954426 109.416364 
L 253.28403 109.416364 
L 253.508245 43.387273 
L 259.035639 43.387273 
L 259.255443 142.430909 
L 259.365319 142.430909 
L 259.484058 175.445455 
L 259.59405 175.445455 
L 259.813388 208.46 
L 261.359479 208.46 
L 261.583883 175.445455 
L 261.913423 175.445455 
L 262.023297 208.46 
L 263.901857 208.46 
L 264.011714 175.445455 
L 267.226089 175.445455 
L 267.336008 109.416364 
L 267.669927 175.445455 
L 267.779755 175.445455 
L 267.999354 274.489091 
L 268.442862 274.489091 
L 268.662611 307.503636 
L 269.325615 307.503636 
L 269.54921 340.518182 
L 270.985803 340.518182 
L 271.205294 208.46 
L 271.538598 208.46 
L 271.648527 175.445455 
L 271.868433 208.46 
L 272.759442 208.46 
L 272.874376 241.474545 
L 273.203794 241.474545 
L 273.31364 274.489091 
L 273.537593 274.489091 
L 273.647441 241.474545 
L 273.867064 340.518182 
L 273.976934 340.518182 
L 274.090902 307.503636 
L 274.310532 340.518182 
L 274.420472 340.518182 
L 274.639972 307.503636 
L 278.072505 307.503636 
L 278.072505 208.46 
L 278.182578 208.46 
L 279.62294 208.46 
L 279.842611 175.445455 
L 279.952496 175.445455 
L 280.179917 241.474545 
L 280.289577 241.474545 
L 280.618885 175.445455 
L 280.843669 175.445455 
L 281.173185 241.474545 
L 281.506635 241.474545 
L 281.726303 274.489091 
L 283.93756 274.489091 
L 284.271668 208.46 
L 284.381569 208.46 
L 284.601227 142.430909 
L 284.821054 109.416364 
L 286.814693 109.416364 
L 286.924611 142.430909 
L 287.144358 43.387273 
L 288.251796 43.387273 
L 288.47171 208.46 
L 288.805604 208.46 
L 289.135197 307.503636 
L 289.579714 307.503636 
L 289.799602 340.518182 
L 289.913887 340.518182 
L 290.133785 373.532727 
L 290.797792 373.532727 
L 291.017535 340.518182 
L 291.127152 340.518182 
L 291.242102 373.532727 
L 291.461859 373.532727 
L 291.681579 340.518182 
L 292.016006 340.518182 
L 292.235675 307.503636 
L 293.233483 307.503636 
L 293.453378 208.46 
L 293.783028 208.46 
L 294.006905 43.387273 
L 294.890046 43.387273 
L 295.109827 76.401818 
L 298.210348 76.401818 
L 298.430171 109.416364 
L 298.983816 109.416364 
L 299.09357 142.430909 
L 299.537103 142.430909 
L 299.756705 208.46 
L 304.401455 208.46 
L 304.518214 175.445455 
L 305.181161 175.445455 
L 305.40081 208.46 
L 305.730044 208.46 
L 305.95494 241.474545 
L 307.389863 241.474545 
L 307.609512 208.46 
L 310.487441 208.46 
L 310.597167 142.430909 
L 310.816602 175.445455 
L 310.92644 175.445455 
L 311.036429 142.430909 
L 314.585757 142.430909 
L 314.805588 109.416364 
L 317.0143 109.416364 
L 317.239291 142.430909 
L 317.907198 142.430909 
L 318.126942 109.416364 
L 321.660166 109.416364 
L 321.883226 208.46 
L 323.648324 208.46 
L 323.871494 340.518182 
L 323.981466 274.489091 
L 324.201289 373.532727 
L 326.645088 373.532727 
L 326.754764 340.518182 
L 326.974285 175.445455 
L 328.852386 175.445455 
L 328.962206 208.46 
L 331.729087 208.46 
L 331.952749 175.445455 
L 332.61739 175.445455 
L 332.837425 142.430909 
L 335.274795 142.430909 
L 335.494948 208.46 
L 335.824842 208.46 
L 336.045066 241.474545 
L 337.595041 241.474545 
L 337.819186 274.489091 
L 340.478831 274.489091 
L 340.699045 373.532727 
L 340.80913 373.532727 
L 341.03293 208.46 
L 341.807948 208.46 
L 342.027901 241.474545 
L 343.911382 241.474545 
L 344.241885 373.532727 
L 344.576987 373.532727 
L 344.907235 307.503636 
L 345.352364 208.46 
L 345.796608 208.46 
L 345.906411 175.445455 
L 346.236453 241.474545 
L 346.460679 241.474545 
L 346.68076 208.46 
L 346.790949 208.46 
L 346.901097 175.445455 
L 347.345842 175.445455 
L 347.565856 241.474545 
L 348.009935 241.474545 
L 348.229833 175.445455 
L 348.98711 175.445455 
L 349.119883 208.46 
L 350.888762 208.46 
L 351.224166 142.430909 
L 351.668285 142.430909 
L 351.998242 76.401818 
L 353.326076 76.401818 
L 353.545829 109.416364 
L 353.989745 109.416364 
L 354.2099 43.387273 
L 355.098585 43.387273 
L 355.318864 76.401818 
L 356.537678 76.401818 
L 356.757724 109.416364 
L 357.757656 109.416364 
L 357.977625 43.387273 
L 358.087737 109.416364 
L 358.197409 76.401818 
L 358.311589 109.416364 
L 358.421746 76.401818 
L 358.641743 175.445455 
L 358.975139 175.445455 
L 359.305426 274.489091 
L 359.525437 241.474545 
L 359.749425 241.474545 
L 359.969103 208.46 
L 360.633813 208.46 
L 360.853833 241.474545 
L 361.407968 241.474545 
L 361.517751 208.46 
L 361.961239 208.46 
L 362.180921 175.445455 
L 362.845086 175.445455 
L 363.069166 208.46 
L 363.399233 208.46 
L 363.509142 175.445455 
L 366.389498 175.445455 
L 366.60945 76.401818 
L 366.829598 43.387273 
L 367.938358 43.387273 
L 368.158316 109.416364 
L 368.272811 109.416364 
L 368.49274 142.430909 
L 368.822422 142.430909 
L 368.937094 175.445455 
L 369.487215 175.445455 
L 369.712756 142.430909 
L 371.151254 142.430909 
L 371.371234 175.445455 
L 371.481215 142.430909 
L 372.145642 142.430909 
L 372.370891 175.445455 
L 372.927729 175.445455 
L 373.14767 142.430909 
L 373.477975 142.430909 
L 373.702852 208.46 
L 373.812974 208.46 
L 374.033211 175.445455 
L 374.808269 175.445455 
L 375.032805 142.430909 
L 375.252887 142.430909 
L 375.472837 76.401818 
L 375.586936 142.430909 
L 376.137665 142.430909 
L 376.363556 76.401818 
L 376.583688 109.416364 
L 377.912743 109.416364 
L 378.132709 142.430909 
L 379.461778 142.430909 
L 379.686591 175.445455 
L 380.680906 175.445455 
L 380.791072 142.430909 
L 382.566888 142.430909 
L 382.676978 109.416364 
L 382.786934 142.430909 
L 383.34152 142.430909 
L 383.451379 175.445455 
L 383.565474 175.445455 
L 383.785178 208.46 
L 384.230652 208.46 
L 384.450598 175.445455 
L 384.670981 175.445455 
L 384.78083 274.489091 
L 385.224877 274.489091 
L 385.224877 208.46 
L 385.33486 208.46 
L 386.556412 208.46 
L 386.775943 175.445455 
L 388.768276 175.445455 
L 388.988133 208.46 
L 391.755354 208.46 
L 391.975388 175.445455 
L 392.085563 175.445455 
L 392.305904 208.46 
L 392.530066 241.474545 
L 392.860331 241.474545 
L 393.084512 340.518182 
L 393.749578 340.518182 
L 393.859596 208.46 
L 394.079533 241.474545 
L 394.522791 241.474545 
L 394.742894 274.489091 
L 395.077025 274.489091 
L 395.187108 307.503636 
L 395.406721 208.46 
L 396.954835 208.46 
L 397.619614 43.387273 
L 399.392428 43.387273 
L 399.612359 76.401818 
L 401.274917 76.401818 
L 401.495202 241.474545 
L 403.597676 241.474545 
L 403.821549 274.489091 
L 404.485763 274.489091 
L 404.705468 307.503636 
L 407.917007 307.503636 
L 408.137083 340.518182 
L 409.2463 340.518182 
L 409.466263 373.532727 
L 413.34061 373.532727 
L 413.560604 340.518182 
L 414.88918 340.518182 
L 415.113169 307.503636 
L 415.333247 307.503636 
L 415.553503 373.532727 
L 416.33114 373.532727 
L 416.661087 307.503636 
L 417.215966 307.503636 
L 417.436028 274.489091 
L 418.654118 274.489091 
L 418.874252 208.46 
L 423.084326 208.46 
L 423.304397 241.474545 
L 424.078665 241.474545 
L 424.188638 274.489091 
L 427.290762 274.489091 
L 427.510884 208.46 
L 428.839758 208.46 
L 429.065325 241.474545 
L 429.285548 241.474545 
L 429.505719 208.46 
L 430.834014 208.46 
L 431.057959 175.445455 
L 431.278026 208.46 
L 436.593309 208.46 
L 436.813379 241.474545 
L 438.802622 241.474545 
L 438.916811 208.46 
L 439.136701 241.474545 
L 439.580761 241.474545 
L 439.800735 208.46 
L 441.574155 208.46 
L 441.794134 109.416364 
L 441.904197 109.416364 
L 442.124265 142.430909 
L 442.348262 109.416364 
L 444.117609 109.416364 
L 444.341979 142.430909 
L 446.445064 142.430909 
L 446.665139 208.46 
L 448.658238 208.46 
L 448.992568 43.387273 
L 449.432535 43.387273 
L 449.656692 241.474545 
L 450.875812 241.474545 
L 451.095805 208.46 
L 453.974867 208.46 
L 454.084927 241.474545 
L 454.198982 241.474545 
L 454.419068 208.46 
L 454.749101 208.46 
L 454.973106 175.445455 
L 455.967275 175.445455 
L 456.077416 208.46 
L 458.405435 208.46 
L 458.625588 175.445455 
L 459.290207 175.445455 
L 459.40024 142.430909 
L 460.178804 142.430909 
L 460.398914 208.46 
L 460.618854 241.474545 
L 460.728753 208.46 
L 461.837175 208.46 
L 462.057329 175.445455 
L 462.172347 175.445455 
L 462.392344 208.46 
L 462.946582 208.46 
L 463.056603 241.474545 
L 463.166551 340.518182 
L 463.386541 274.489091 
L 463.610643 274.489091 
L 463.830773 208.46 
L 466.707341 208.46 
L 466.931693 175.445455 
L 467.041739 175.445455 
L 467.261871 142.430909 
L 467.81664 142.430909 
L 468.036798 175.445455 
L 471.693223 175.445455 
L 471.913305 208.46 
L 472.357446 208.46 
L 472.57763 175.445455 
L 474.240597 175.445455 
L 474.460589 208.46 
L 475.789256 208.46 
L 475.899104 175.445455 
L 476.00923 76.401818 
L 477.78252 76.401818 
L 478.082178 142.430909 
L 478.116643 142.430909 
L 478.336616 175.445455 
L 479.111625 175.445455 
L 479.331473 109.416364 
L 479.665324 109.416364 
L 479.775406 142.430909 
L 479.995528 274.489091 
L 480.219417 307.503636 
L 480.329309 307.503636 
L 480.439412 340.518182 
L 480.659619 274.489091 
L 480.994103 208.46 
L 481.104189 208.46 
L 481.324048 241.474545 
L 481.439629 274.489091 
L 481.660088 241.474545 
L 481.879866 241.474545 
L 481.989867 274.489091 
L 482.769124 274.489091 
L 482.989107 208.46 
L 483.099208 241.474545 
L 483.319089 373.532727 
L 483.54344 373.532727 
L 483.762846 307.503636 
L 483.982742 340.518182 
L 484.207821 373.532727 
L 484.427939 373.532727 
L 484.648133 208.46 
L 485.538899 208.46 
L 485.648954 241.474545 
L 485.869009 208.46 
L 486.094316 208.46 
L 486.314293 175.445455 
L 486.644235 175.445455 
L 486.869083 142.430909 
L 487.97407 142.430909 
L 488.199261 175.445455 
L 488.41949 175.445455 
L 488.639229 208.46 
L 488.86441 109.416364 
L 488.974426 76.401818 
L 489.19456 142.430909 
L 489.530039 142.430909 
L 489.530039 208.46 
L 489.639955 208.46 
L 492.076186 208.46 
L 492.3011 142.430909 
L 492.631288 208.46 
L 493.185628 208.46 
L 493.405689 142.430909 
L 493.519794 142.430909 
L 493.739898 175.445455 
L 493.96003 175.445455 
L 494.069918 208.46 
L 494.294193 208.46 
L 494.514156 175.445455 
L 494.734232 241.474545 
L 495.069147 241.474545 
L 495.289314 208.46 
L 496.053402 208.46 
L 496.173943 175.445455 
L 498.831358 175.445455 
L 499.05172 208.46 
L 499.16176 208.46 
L 499.271584 241.474545 
L 500.490177 241.474545 
L 500.600182 208.46 
L 503.482389 208.46 
L 503.592296 241.474545 
L 503.812398 208.46 
L 504.146691 208.46 
L 504.366667 175.445455 
L 504.701239 175.445455 
L 504.92123 142.430909 
L 507.025121 142.430909 
L 507.135291 109.416364 
L 507.245341 142.430909 
L 508.355011 142.430909 
L 508.575043 76.401818 
L 510.12769 76.401818 
L 510.34781 43.387273 
L 510.567861 43.387273 
L 510.792936 76.401818 
L 512.341879 76.401818 
L 512.562054 241.474545 
L 512.786597 274.489091 
L 512.896751 274.489091 
L 513.116887 241.474545 
L 513.226857 241.474545 
L 513.452066 208.46 
L 515.11036 208.46 
L 515.220358 175.445455 
L 516.329521 175.445455 
L 516.549683 208.46 
L 518.4342 208.46 
L 518.544152 175.445455 
L 518.768219 208.46 
L 522.865711 208.46 
L 523.085682 241.474545 
L 523.531079 241.474545 
L 523.751097 274.489091 
L 523.861216 274.489091 
L 524.085573 307.503636 
L 524.305619 208.46 
L 524.749693 208.46 
L 524.969783 241.474545 
L 525.079636 241.474545 
L 525.189717 274.489091 
L 526.633245 274.489091 
L 526.853181 241.474545 
L 526.963182 241.474545 
L 527.073272 208.46 
L 527.183427 241.474545 
L 527.517638 241.474545 
L 527.73752 208.46 
L 527.847576 241.474545 
L 529.621435 241.474545 
L 529.841563 208.46 
L 530.839918 208.46 
L 531.05981 241.474545 
L 535.045801 241.474545 
L 535.155718 208.46 
L 536.04296 208.46 
L 536.373013 142.430909 
L 536.597485 142.430909 
L 536.817383 208.46 
L 537.261502 208.46 
L 537.481562 241.474545 
L 537.81127 241.474545 
L 538.035441 208.46 
L 538.475365 208.46 
L 538.699245 241.474545 
L 540.357623 241.474545 
L 540.467392 274.489091 
L 542.5733 274.489091 
L 542.793294 307.503636 
L 544.1223 307.503636 
L 544.451809 373.532727 
L 546.115691 373.532727 
L 546.335974 340.518182 
L 546.445789 373.532727 
L 547.001713 373.532727 
L 547.111706 208.46 
L 548.112366 208.46 
L 548.332656 241.474545 
L 549.662641 241.474545 
L 549.8889 307.503636 
L 550.438893 307.503636 
L 550.774024 241.474545 
L 554.209156 241.474545 
L 554.429052 208.46 
L 556.917475 208.46 
L 557.027645 274.489091 
L 557.362825 274.489091 
L 557.472663 307.503636 
L 557.692699 274.489091 
L 558.026236 274.489091 
L 558.246227 241.474545 
L 558.470325 241.474545 
L 558.690538 208.46 
L 559.244691 208.46 
L 559.464658 175.445455 
L 567.882654 175.445455 
L 568.102758 208.46 
L 569.540814 208.46 
L 569.764581 241.474545 
L 572.530571 241.474545 
L 572.750738 208.46 
L 572.970585 274.489091 
L 573.080758 274.489091 
L 573.190851 175.445455 
L 573.41098 208.46 
L 573.634717 175.445455 
L 573.744641 274.489091 
L 573.854846 175.445455 
L 574.0749 208.46 
L 574.852726 208.46 
L 575.073021 175.445455 
L 575.737394 175.445455 
L 576.067269 76.401818 
L 577.173373 76.401818 
L 577.393284 208.46 
L 578.611136 208.46 
L 578.721298 175.445455 
L 580.826997 175.445455 
L 580.937167 142.430909 
L 581.15739 175.445455 
L 581.377097 175.445455 
L 581.821398 274.489091 
L 582.155156 274.489091 
L 582.375024 373.532727 
L 583.702346 373.532727 
L 583.812271 340.518182 
L 583.922258 373.532727 
L 584.146206 307.503636 
L 584.25618 307.503636 
L 584.585914 373.532727 
L 586.138092 373.532727 
L 586.468635 307.503636 
L 586.688987 340.518182 
L 586.91482 340.518182 
L 587.134956 307.503636 
L 588.354183 307.503636 
L 588.573937 340.518182 
L 588.683785 340.518182 
L 588.797989 307.503636 
L 589.018056 340.518182 
L 589.238042 307.503636 
L 589.571787 307.503636 
L 589.79206 274.489091 
L 591.121173 274.489091 
L 591.34131 208.46 
L 591.675221 208.46 
L 592.004916 274.489091 
L 592.237583 274.489091 
L 592.457494 208.46 
L 594.503174 208.46 
L 594.723245 241.474545 
L 594.838409 241.474545 
L 595.058516 208.46 
L 595.278256 241.474545 
L 595.612869 241.474545 
L 595.832897 208.46 
L 595.943066 208.46 
L 596.053077 241.474545 
L 596.167468 241.474545 
L 596.387356 208.46 
L 596.832351 208.46 
L 597.05262 241.474545 
L 597.829804 241.474545 
L 598.049952 274.489091 
L 598.714901 274.489091 
L 598.939439 241.474545 
L 599.429399 241.474545 
L 599.64948 307.503636 
L 599.869781 274.489091 
L 600.09545 274.489091 
L 600.315447 208.46 
L 601.97654 208.46 
L 602.201632 43.387273 
L 602.421461 76.401818 
L 602.641696 76.401818 
L 602.866249 208.46 
L 603.861091 208.46 
L 603.971032 241.474545 
L 604.087741 241.474545 
L 604.417683 175.445455 
L 604.63763 175.445455 
L 604.862667 142.430909 
L 607.189428 142.430909 
L 607.299439 208.46 
L 607.415107 208.46 
L 607.63526 175.445455 
L 608.630003 175.445455 
L 609.075236 76.401818 
L 609.185415 175.445455 
L 609.295597 142.430909 
L 609.520582 208.46 
L 609.630754 208.46 
L 609.960991 307.503636 
L 610.517126 307.503636 
L 610.852225 208.46 
L 611.958329 208.46 
L 612.184157 175.445455 
L 612.294209 175.445455 
L 612.704318 76.401818 
L 614.620997 76.401818 
L 614.956502 142.430909 
L 615.066441 142.430909 
L 615.176362 208.46 
L 615.286216 175.445455 
L 616.739619 175.445455 
L 616.849458 208.46 
L 616.959489 175.445455 
L 617.069607 208.46 
L 617.28987 175.445455 
L 617.844726 175.445455 
L 617.954626 142.430909 
L 618.846163 142.430909 
L 618.956306 175.445455 
L 619.17656 142.430909 
L 619.953298 142.430909 
L 620.178206 109.416364 
L 620.732453 109.416364 
L 621.062705 43.387273 
L 623.834623 43.387273 
L 623.834623 208.46 
L 623.944355 208.46 
L 626.37934 208.46 
L 626.603867 241.474545 
L 628.706175 241.474545 
L 628.926168 274.489091 
L 631.24836 274.489091 
L 631.468331 373.532727 
L 631.578235 307.503636 
L 632.022386 307.503636 
L 632.242527 274.489091 
L 632.466757 241.474545 
L 632.576779 241.474545 
L 632.796784 274.489091 
L 632.906839 241.474545 
L 634.124392 241.474545 
L 634.234426 208.46 
L 637.778576 208.46 
L 637.998523 175.445455 
L 638.996986 175.445455 
L 639.217159 208.46 
L 640.210703 208.46 
L 640.434653 175.445455 
L 640.654748 208.46 
L 641.098995 208.46 
L 641.319072 241.474545 
L 642.757968 241.474545 
L 642.868027 274.489091 
L 643.092353 241.474545 
L 643.202229 241.474545 
L 643.422351 208.46 
L 643.75657 208.46 
L 643.976324 175.445455 
L 644.640461 175.445455 
L 644.860528 208.46 
L 647.076605 208.46 
L 647.296707 175.445455 
L 647.740568 175.445455 
L 647.96039 142.430909 
L 649.288289 142.430909 
L 649.398143 109.416364 
L 649.508402 142.430909 
L 649.622193 142.430909 
L 649.842257 241.474545 
L 650.285848 241.474545 
L 650.506015 208.46 
L 654.491449 208.46 
L 654.601536 241.474545 
L 654.821637 175.445455 
L 654.935626 175.445455 
L 655.375717 76.401818 
L 655.485718 76.401818 
L 655.710564 43.387273 
L 657.922115 43.387273 
L 658.142185 208.46 
L 658.586907 208.46 
L 658.806931 175.445455 
L 659.805176 175.445455 
L 660.025136 142.430909 
L 660.135257 142.430909 
L 660.359932 175.445455 
L 660.689756 109.416364 
L 660.799657 142.430909 
L 661.353497 142.430909 
L 661.463528 208.46 
L 661.688319 175.445455 
L 664.899315 175.445455 
L 665.119451 142.430909 
L 665.339618 142.430909 
L 665.449846 175.445455 
L 665.894176 175.445455 
L 666.11437 208.46 
L 667.002547 208.46 
L 667.222669 175.445455 
L 667.666817 175.445455 
L 667.886889 142.430909 
L 670.185981 142.430909 
L 670.324904 340.518182 
L 671.429501 340.518182 
L 671.654324 142.430909 
L 671.764197 142.430909 
L 671.984129 175.445455 
L 672.09421 175.445455 
L 672.318828 208.46 
L 672.428852 208.46 
L 672.648842 307.503636 
L 672.758998 307.503636 
L 672.983076 373.532727 
L 673.202917 373.532727 
L 673.422817 307.503636 
L 673.647582 307.503636 
L 673.867718 340.518182 
L 674.642493 340.518182 
L 674.752466 307.503636 
L 674.868499 307.503636 
L 675.088539 274.489091 
L 675.198595 274.489091 
L 675.418564 241.474545 
L 675.863869 241.474545 
L 676.083861 274.489091 
L 676.529891 274.489091 
L 676.639895 241.474545 
L 676.864754 109.416364 
L 677.084302 142.430909 
L 677.194115 142.430909 
L 677.414087 109.416364 
L 678.304669 109.416364 
L 678.524814 142.430909 
L 679.079545 142.430909 
L 679.079545 142.430909 
" clip-path="url(#pdf1d82d446)" style="fill: none; stroke: #000000; stroke-width: 1.5; stroke-linecap: square"/>
   </g>
   <g id="patch_3">
    <path d="M 46.55 390.04 
L 46.55 26.88 
" style="fill: none; stroke: #000000; stroke-width: 0.8; stroke-linejoin: miter; stroke-linecap: square"/>
   </g>
   <g id="patch_4">
    <path d="M 709.2 390.04 
L 709.2 26.88 
" style="fill: none; stroke: #000000; stroke-width: 0.8; stroke-linejoin: miter; stroke-linecap: square"/>
   </g>
   <g id="patch_5">
    <path d="M 46.55 390.04 
L 709.2 390.04 
" style="fill: none; stroke: #000000; stroke-width: 0.8; stroke-linejoin: miter; stroke-linecap: square"/>
   </g>
   <g id="patch_6">
    <path d="M 46.55 26.88 
L 709.2 26.88 
" style="fill: none; stroke: #000000; stroke-width: 0.8; stroke-linejoin: miter; stroke-linecap: square"/>
   </g>
   <g id="text_14">
    <!-- Inventory Over Time (Paper Trading) -->
    <g transform="translate(268.790313 20.88) scale(0.12 -0.12)">
     <defs>
      <path id="DejaVuSans-49" d="M 628 4666 
L 1259 4666 
L 1259 0 
L 628 0 
L 628 4666 
z
" transform="scale(0.015625)"/>
      <path id="DejaVuSans-76" d="M 191 3500 
L 800 3500 
L 1894 563 
L 2988 3500 
L 3597 3500 
L 2284 0 
L 1503 0 
L 191 3500 
z
" transform="scale(0.015625)"/>
      <path id="DejaVuSans-79" d="M 2059 -325 
Q 1816 -950 1584 -1140 
Q 1353 -1331 966 -1331 
L 506 -1331 
L 506 -850 
L 844 -850 
Q 1081 -850 1212 -737 
Q 1344 -625 1503 -206 
L 1606 56 
L 191 3500 
L 800 3500 
L 1894 763 
L 2988 3500 
L 3597 3500 
L 2059 -325 
z
" transform="scale(0.015625)"/>
      <path id="DejaVuSans-4f" d="M 2522 4238 
Q 1834 4238 1429 3725 
Q 1025 3213 1025 2328 
Q 1025 1447 1429 934 
Q 1834 422 2522 422 
Q 3209 422 3611 934 
Q 4013 1447 4013 2328 
Q 4013 3213 3611 3725 
Q 3209 4238 2522 4238 
z
M 2522 4750 
Q 3503 4750 4090 4092 
Q 4678 3434 4678 2328 
Q 4678 1225 4090 567 
Q 3503 -91 2522 -91 
Q 1538 -91 948 565 
Q 359 1222 359 2328 
Q 359 3434 948 4092 
Q 1538 4750 2522 4750 
z
" transform="scale(0.015625)"/>
      <path id="DejaVuSans-6d" d="M 3328 2828 
Q 3544 3216 3844 3400 
Q 4144 3584 4550 3584 
Q 5097 3584 5394 3201 
Q 5691 2819 5691 2113 
L 5691 0 
L 5113 0 
L 5113 2094 
Q 5113 2597 4934 2840 
Q 4756 3084 4391 3084 
Q 3944 3084 3684 2787 
Q 3425 2491 3425 1978 
L 3425 0 
L 2847 0 
L 2847 2094 
Q 2847 2600 2669 2842 
Q 2491 3084 2119 3084 
Q 1678 3084 1418 2786 
Q 1159 2488 1159 1978 
L 1159 0 
L 581 0 
L 581 3500 
L 1159 3500 
L 1159 2956 
Q 1356 3278 1631 3431 
Q 1906 3584 2284 3584 
Q 2666 3584 2933 3390 
Q 3200 3197 3328 2828 
z
" transform="scale(0.015625)"/>
      <path id="DejaVuSans-28" d="M 1984 4856 
Q 1566 4138 1362 3434 
Q 1159 2731 1159 2009 
Q 1159 1288 1364 580 
Q 1569 -128 1984 -844 
L 1484 -844 
Q 1016 -109 783 600 
Q 550 1309 550 2009 
Q 550 2706 781 3412 
Q 1013 4119 1484 4856 
L 1984 4856 
z
" transform="scale(0.015625)"/>
      <path id="DejaVuSans-50" d="M 1259 4147 
L 1259 2394 
L 2053 2394 
Q 2494 2394 2734 2622 
Q 2975 2850 2975 3272 
Q 2975 3691 2734 3919 
Q 2494 4147 2053 4147 
L 1259 4147 
z
M 628 4666 
L 2053 4666 
Q 2838 4666 3239 4311 
Q 3641 3956 3641 3272 
Q 3641 2581 3239 2228 
Q 2838 1875 2053 1875 
L 1259 1875 
L 1259 0 
L 628 0 
L 628 4666 
z
" transform="scale(0.015625)"/>
      <path id="DejaVuSans-29" d="M 513 4856 
L 1013 4856 
Q 1481 4119 1714 3412 
Q 1947 2706 1947 2009 
Q 1947 1309 1714 600 
Q 1481 -109 1013 -844 
L 513 -844 
Q 928 -128 1133 580 
Q 1338 1288 1338 2009 
Q 1338 2731 1133 3434 
Q 928 4138 513 4856 
z
" transform="scale(0.015625)"/>
     </defs>
     <use xlink:href="#DejaVuSans-49"/>
     <use xlink:href="#DejaVuSans-6e" x="29.492188"/>
     <use xlink:href="#DejaVuSans-76" x="92.871094"/>
     <use xlink:href="#DejaVuSans-65" x="152.050781"/>
     <use xlink:href="#DejaVuSans-6e" x="213.574219"/>
     <use xlink:href="#DejaVuSans-74" x="276.953125"/>
     <use xlink:href="#DejaVuSans-6f" x="316.162109"/>
     <use xlink:href="#DejaVuSans-72" x="377.34375"/>
     <use xlink:href="#DejaVuSans-79" x="418.457031"/>
     <use xlink:href="#DejaVuSans-20" x="477.636719"/>
     <use xlink:href="#DejaVuSans-4f" x="509.423828"/>
     <use xlink:href="#DejaVuSans-76" x="588.134766"/>
     <use xlink:href="#DejaVuSans-65" x="647.314453"/>
     <use xlink:href="#DejaVuSans-72" x="708.837891"/>
     <use xlink:href="#DejaVuSans-20" x="749.951172"/>
     <use xlink:href="#DejaVuSans-54" x="781.738281"/>
     <use xlink:href="#DejaVuSans-69" x="839.697266"/>
     <use xlink:href="#DejaVuSans-6d" x="867.480469"/>
     <use xlink:href="#DejaVuSans-65" x="964.892578"/>
     <use xlink:href="#DejaVuSans-20" x="1026.416016"/>
     <use xlink:href="#DejaVuSans-28" x="1058.203125"/>
     <use xlink:href="#DejaVuSans-50" x="1097.216797"/>
     <use xlink:href="#DejaVuSans-61" x="1153.019531"/>
     <use xlink:href="#DejaVuSans-70" x="1214.298828"/>
     <use xlink:href="#DejaVuSans-65" x="1277.775391"/>
     <use xlink:href="#DejaVuSans-72" x="1339.298828"/>
     <use xlink:href="#DejaVuSans-20" x="1380.412109"/>
     <use xlink:href="#DejaVuSans-54" x="1412.199219"/>
     <use xlink:href="#DejaVuSans-72" x="1458.533203"/>
     <use xlink:href="#DejaVuSans-61" x="1499.646484"/>
     <use xlink:href="#DejaVuSans-64" x="1560.925781"/>
     <use xlink:href="#DejaVuSans-69" x="1624.402344"/>
     <use xlink:href="#DejaVuSans-6e" x="1652.185547"/>
     <use xlink:href="#DejaVuSans-67" x="1715.564453"/>
     <use xlink:href="#DejaVuSans-29" x="1779.041016"/>
    </g>
   </g>
   <g id="legend_1">
    <g id="patch_7">
     <path d="M 622.434375 385.04 
L 702.2 385.04 
Q 704.2 385.04 704.2 383.04 
L 704.2 369.361875 
Q 704.2 367.361875 702.2 367.361875 
L 622.434375 367.361875 
Q 620.434375 367.361875 620.434375 369.361875 
L 620.434375 383.04 
Q 620.434375 385.04 622.434375 385.04 
z
" style="fill: #ffffff; opacity: 0.8; stroke: #cccccc; stroke-linejoin: miter"/>
    </g>
    <g id="line2d_24">
     <path d="M 624.434375 375.460312 
L 634.434375 375.460312 
L 644.434375 375.460312 
" style="fill: none; stroke: #000000; stroke-width: 1.5; stroke-linecap: square"/>
    </g>
    <g id="text_15">
     <!-- Inventory -->
     <g transform="translate(652.434375 378.960312) scale(0.1 -0.1)">
      <use xlink:href="#DejaVuSans-49"/>
      <use xlink:href="#DejaVuSans-6e" x="29.492188"/>
      <use xlink:href="#DejaVuSans-76" x="92.871094"/>
      <use xlink:href="#DejaVuSans-65" x="152.050781"/>
      <use xlink:href="#DejaVuSans-6e" x="213.574219"/>
      <use xlink:href="#DejaVuSans-74" x="276.953125"/>
      <use xlink:href="#DejaVuSans-6f" x="316.162109"/>
      <use xlink:href="#DejaVuSans-72" x="377.34375"/>
      <use xlink:href="#DejaVuSans-79" x="418.457031"/>
     </g>
    </g>
   </g>
  </g>
 </g>
 <defs>
  <clipPath id="pdf1d82d446">
   <rect x="46.55" y="26.88" width="662.65" height="363.16"/>
  </clipPath>
 </defs>
</svg>
