<?xml version="1.0" encoding="utf-8" standalone="no"?>
<!DOCTYPE svg PUBLIC "-//W3C//DTD SVG 1.1//EN"
  "http://www.w3.org/Graphics/SVG/1.1/DTD/svg11.dtd">
<svg xmlns:xlink="http://www.w3.org/1999/xlink" width="792pt" height="345.6pt" viewBox="0 0 792 345.6" xmlns="http://www.w3.org/2000/svg" version="1.1">
 <metadata>
  <rdf:RDF xmlns:dc="http://purl.org/dc/elements/1.1/" xmlns:cc="http://creativecommons.org/ns#" xmlns:rdf="http://www.w3.org/1999/02/22-rdf-syntax-ns#">
   <cc:Work>
    <dc:type rdf:resource="http://purl.org/dc/dcmitype/StillImage"/>
    <dc:date>2026-04-10T16:29:35.813811</dc:date>
    <dc:format>image/svg+xml</dc:format>
    <dc:creator>
     <cc:Agent>
      <dc:title>Matplotlib v3.9.2, https://matplotlib.org/</dc:title>
     </cc:Agent>
    </dc:creator>
   </cc:Work>
  </rdf:RDF>
 </metadata>
 <defs>
  <style type="text/css">*{stroke-linejoin: round; stroke-linecap: butt}</style>
 </defs>
 <g id="figure_1">
  <g id="patch_1">
   <path d="M 0 345.6 
L 792 345.6 
L 792 0 
L 0 0 
z
" style="fill: #ffffff"/>
  </g>
  <g id="axes_1">
   <g id="patch_2">
    <path d="M 46.55 303.64 
L 781.2 303.64 
L 781.2 26.88 
L 46.55 26.88 
z
" style="fill: #ffffff"/>
   </g>
   <g id="patch_3">
    <path d="M 79.943182 303.64 
L 91.739425 303.64 
L 91.739425 26.88 
L 79.943182 26.88 
z
" clip-path="url(#p5435b1f509)" style="fill: #ffd1dc; opacity: 0.22; stroke: #ffd1dc; stroke-linejoin: miter"/>
   </g>
   <g id="patch_4">
    <path d="M 91.739425 303.64 
L 151.155442 303.64 
L 151.155442 26.88 
L 91.739425 26.88 
z
" clip-path="url(#p5435b1f509)" style="fill: #aec6cf; opacity: 0.22; stroke: #aec6cf; stroke-linejoin: miter"/>
   </g>
   <g id="patch_5">
    <path d="M 151.155442 303.64 
L 269.967857 303.64 
L 269.967857 26.88 
L 151.155442 26.88 
z
" clip-path="url(#p5435b1f509)" style="fill: #77dd77; opacity: 0.22; stroke: #77dd77; stroke-linejoin: miter"/>
   </g>
   <g id="patch_6">
    <path d="M 269.967857 303.64 
L 371.0671 303.64 
L 371.0671 26.88 
L 269.967857 26.88 
z
" clip-path="url(#p5435b1f509)" style="fill: #fdfd96; opacity: 0.22; stroke: #fdfd96; stroke-linejoin: miter"/>
   </g>
   <g id="patch_7">
    <path d="M 371.0671 303.64 
L 469.479973 303.64 
L 469.479973 26.88 
L 371.0671 26.88 
z
" clip-path="url(#p5435b1f509)" style="fill: #ffd1dc; opacity: 0.22; stroke: #ffd1dc; stroke-linejoin: miter"/>
   </g>
   <g id="patch_8">
    <path d="M 469.479973 303.64 
L 596.197576 303.64 
L 596.197576 26.88 
L 469.479973 26.88 
z
" clip-path="url(#p5435b1f509)" style="fill: #aec6cf; opacity: 0.22; stroke: #aec6cf; stroke-linejoin: miter"/>
   </g>
   <g id="patch_9">
    <path d="M 596.197576 303.64 
L 648.321665 303.64 
L 648.321665 26.88 
L 596.197576 26.88 
z
" clip-path="url(#p5435b1f509)" style="fill: #77dd77; opacity: 0.22; stroke: #77dd77; stroke-linejoin: miter"/>
   </g>
   <g id="patch_10">
    <path d="M 648.321665 303.64 
L 747.806818 303.64 
L 747.806818 26.88 
L 648.321665 26.88 
z
" clip-path="url(#p5435b1f509)" style="fill: #fdfd96; opacity: 0.22; stroke: #fdfd96; stroke-linejoin: miter"/>
   </g>
   <g id="matplotlib.axis_1">
    <g id="xtick_1">
     <g id="line2d_1">
      <path d="M 79.943182 303.64 
L 79.943182 26.88 
" clip-path="url(#p5435b1f509)" style="fill: none; stroke: #b0b0b0; stroke-opacity: 0.25; stroke-width: 0.8; stroke-linecap: square"/>
     </g>
     <g id="line2d_2">
      <defs>
       <path id="m251470e9fa" d="M 0 0 
L 0 3.5 
" style="stroke: #000000; stroke-width: 0.8"/>
      </defs>
      <g>
       <use xlink:href="#m251470e9fa" x="79.943182" y="303.64" style="stroke: #000000; stroke-width: 0.8"/>
      </g>
     </g>
     <g id="text_1">
      <!-- 0 -->
      <g transform="translate(76.761932 318.238437) scale(0.1 -0.1)">
       <defs>
        <path id="DejaVuSans-30" d="M 2034 4250 
Q 1547 4250 1301 3770 
Q 1056 3291 1056 2328 
Q 1056 1369 1301 889 
Q 1547 409 2034 409 
Q 2525 409 2770 889 
Q 3016 1369 3016 2328 
Q 3016 3291 2770 3770 
Q 2525 4250 2034 4250 
z
M 2034 4750 
Q 2819 4750 3233 4129 
Q 3647 3509 3647 2328 
Q 3647 1150 3233 529 
Q 2819 -91 2034 -91 
Q 1250 -91 836 529 
Q 422 1150 422 2328 
Q 422 3509 836 4129 
Q 1250 4750 2034 4750 
z
" transform="scale(0.015625)"/>
       </defs>
       <use xlink:href="#DejaVuSans-30"/>
      </g>
     </g>
    </g>
    <g id="xtick_2">
     <g id="line2d_3">
      <path d="M 183.473379 303.64 
L 183.473379 26.88 
" clip-path="url(#p5435b1f509)" style="fill: none; stroke: #b0b0b0; stroke-opacity: 0.25; stroke-width: 0.8; stroke-linecap: square"/>
     </g>
     <g id="line2d_4">
      <g>
       <use xlink:href="#m251470e9fa" x="183.473379" y="303.64" style="stroke: #000000; stroke-width: 0.8"/>
      </g>
     </g>
     <g id="text_2">
      <!-- 10000 -->
      <g transform="translate(167.567129 318.238437) scale(0.1 -0.1)">
       <defs>
        <path id="DejaVuSans-31" d="M 794 531 
L 1825 531 
L 1825 4091 
L 703 3866 
L 703 4441 
L 1819 4666 
L 2450 4666 
L 2450 531 
L 3481 531 
L 3481 0 
L 794 0 
L 794 531 
z
" transform="scale(0.015625)"/>
       </defs>
       <use xlink:href="#DejaVuSans-31"/>
       <use xlink:href="#DejaVuSans-30" x="63.623047"/>
       <use xlink:href="#DejaVuSans-30" x="127.246094"/>
       <use xlink:href="#DejaVuSans-30" x="190.869141"/>
       <use xlink:href="#DejaVuSans-30" x="254.492188"/>
      </g>
     </g>
    </g>
    <g id="xtick_3">
     <g id="line2d_5">
      <path d="M 287.003576 303.64 
L 287.003576 26.88 
" clip-path="url(#p5435b1f509)" style="fill: none; stroke: #b0b0b0; stroke-opacity: 0.25; stroke-width: 0.8; stroke-linecap: square"/>
     </g>
     <g id="line2d_6">
      <g>
       <use xlink:href="#m251470e9fa" x="287.003576" y="303.64" style="stroke: #000000; stroke-width: 0.8"/>
      </g>
     </g>
     <g id="text_3">
      <!-- 20000 -->
      <g transform="translate(271.097326 318.238437) scale(0.1 -0.1)">
       <defs>
        <path id="DejaVuSans-32" d="M 1228 531 
L 3431 531 
L 3431 0 
L 469 0 
L 469 531 
Q 828 903 1448 1529 
Q 2069 2156 2228 2338 
Q 2531 2678 2651 2914 
Q 2772 3150 2772 3378 
Q 2772 3750 2511 3984 
Q 2250 4219 1831 4219 
Q 1534 4219 1204 4116 
Q 875 4013 500 3803 
L 500 4441 
Q 881 4594 1212 4672 
Q 1544 4750 1819 4750 
Q 2544 4750 2975 4387 
Q 3406 4025 3406 3419 
Q 3406 3131 3298 2873 
Q 3191 2616 2906 2266 
Q 2828 2175 2409 1742 
Q 1991 1309 1228 531 
z
" transform="scale(0.015625)"/>
       </defs>
       <use xlink:href="#DejaVuSans-32"/>
       <use xlink:href="#DejaVuSans-30" x="63.623047"/>
       <use xlink:href="#DejaVuSans-30" x="127.246094"/>
       <use xlink:href="#DejaVuSans-30" x="190.869141"/>
       <use xlink:href="#DejaVuSans-30" x="254.492188"/>
      </g>
     </g>
    </g>
    <g id="xtick_4">
     <g id="line2d_7">
      <path d="M 390.533774 303.64 
L 390.533774 26.88 
" clip-path="url(#p5435b1f509)" style="fill: none; stroke: #b0b0b0; stroke-opacity: 0.25; stroke-width: 0.8; stroke-linecap: square"/>
     </g>
     <g id="line2d_8">
      <g>
       <use xlink:href="#m251470e9fa" x="390.533774" y="303.64" style="stroke: #000000; stroke-width: 0.8"/>
      </g>
     </g>
     <g id="text_4">
      <!-- 30000 -->
      <g transform="translate(374.627524 318.238437) scale(0.1 -0.1)">
       <defs>
        <path id="DejaVuSans-33" d="M 2597 2516 
Q 3050 2419 3304 2112 
Q 3559 1806 3559 1356 
Q 3559 666 3084 287 
Q 2609 -91 1734 -91 
Q 1441 -91 1130 -33 
Q 819 25 488 141 
L 488 750 
Q 750 597 1062 519 
Q 1375 441 1716 441 
Q 2309 441 2620 675 
Q 2931 909 2931 1356 
Q 2931 1769 2642 2001 
Q 2353 2234 1838 2234 
L 1294 2234 
L 1294 2753 
L 1863 2753 
Q 2328 2753 2575 2939 
Q 2822 3125 2822 3475 
Q 2822 3834 2567 4026 
Q 2313 4219 1838 4219 
Q 1578 4219 1281 4162 
Q 984 4106 628 3988 
L 628 4550 
Q 988 4650 1302 4700 
Q 1616 4750 1894 4750 
Q 2613 4750 3031 4423 
Q 3450 4097 3450 3541 
Q 3450 3153 3228 2886 
Q 3006 2619 2597 2516 
z
" transform="scale(0.015625)"/>
       </defs>
       <use xlink:href="#DejaVuSans-33"/>
       <use xlink:href="#DejaVuSans-30" x="63.623047"/>
       <use xlink:href="#DejaVuSans-30" x="127.246094"/>
       <use xlink:href="#DejaVuSans-30" x="190.869141"/>
       <use xlink:href="#DejaVuSans-30" x="254.492188"/>
      </g>
     </g>
    </g>
    <g id="xtick_5">
     <g id="line2d_9">
      <path d="M 494.063971 303.64 
L 494.063971 26.88 
" clip-path="url(#p5435b1f509)" style="fill: none; stroke: #b0b0b0; stroke-opacity: 0.25; stroke-width: 0.8; stroke-linecap: square"/>
     </g>
     <g id="line2d_10">
      <g>
       <use xlink:href="#m251470e9fa" x="494.063971" y="303.64" style="stroke: #000000; stroke-width: 0.8"/>
      </g>
     </g>
     <g id="text_5">
      <!-- 40000 -->
      <g transform="translate(478.157721 318.238437) scale(0.1 -0.1)">
       <defs>
        <path id="DejaVuSans-34" d="M 2419 4116 
L 825 1625 
L 2419 1625 
L 2419 4116 
z
M 2253 4666 
L 3047 4666 
L 3047 1625 
L 3713 1625 
L 3713 1100 
L 3047 1100 
L 3047 0 
L 2419 0 
L 2419 1100 
L 313 1100 
L 313 1709 
L 2253 4666 
z
" transform="scale(0.015625)"/>
       </defs>
       <use xlink:href="#DejaVuSans-34"/>
       <use xlink:href="#DejaVuSans-30" x="63.623047"/>
       <use xlink:href="#DejaVuSans-30" x="127.246094"/>
       <use xlink:href="#DejaVuSans-30" x="190.869141"/>
       <use xlink:href="#DejaVuSans-30" x="254.492188"/>
      </g>
     </g>
    </g>
    <g id="xtick_6">
     <g id="line2d_11">
      <path d="M 597.594168 303.64 
L 597.594168 26.88 
" clip-path="url(#p5435b1f509)" style="fill: none; stroke: #b0b0b0; stroke-opacity: 0.25; stroke-width: 0.8; stroke-linecap: square"/>
     </g>
     <g id="line2d_12">
      <g>
       <use xlink:href="#m251470e9fa" x="597.594168" y="303.64" style="stroke: #000000; stroke-width: 0.8"/>
      </g>
     </g>
     <g id="text_6">
      <!-- 50000 -->
      <g transform="translate(581.687918 318.238437) scale(0.1 -0.1)">
       <defs>
        <path id="DejaVuSans-35" d="M 691 4666 
L 3169 4666 
L 3169 4134 
L 1269 4134 
L 1269 2991 
Q 1406 3038 1543 3061 
Q 1681 3084 1819 3084 
Q 2600 3084 3056 2656 
Q 3513 2228 3513 1497 
Q 3513 744 3044 326 
Q 2575 -91 1722 -91 
Q 1428 -91 1123 -41 
Q 819 9 494 109 
L 494 744 
Q 775 591 1075 516 
Q 1375 441 1709 441 
Q 2250 441 2565 725 
Q 2881 1009 2881 1497 
Q 2881 1984 2565 2268 
Q 2250 2553 1709 2553 
Q 1456 2553 1204 2497 
Q 953 2441 691 2322 
L 691 4666 
z
" transform="scale(0.015625)"/>
       </defs>
       <use xlink:href="#DejaVuSans-35"/>
       <use xlink:href="#DejaVuSans-30" x="63.623047"/>
       <use xlink:href="#DejaVuSans-30" x="127.246094"/>
       <use xlink:href="#DejaVuSans-30" x="190.869141"/>
       <use xlink:href="#DejaVuSans-30" x="254.492188"/>
      </g>
     </g>
    </g>
    <g id="xtick_7">
     <g id="line2d_13">
      <path d="M 701.124365 303.64 
L 701.124365 26.88 
" clip-path="url(#p5435b1f509)" style="fill: none; stroke: #b0b0b0; stroke-opacity: 0.25; stroke-width: 0.8; stroke-linecap: square"/>
     </g>
     <g id="line2d_14">
      <g>
       <use xlink:href="#m251470e9fa" x="701.124365" y="303.64" style="stroke: #000000; stroke-width: 0.8"/>
      </g>
     </g>
     <g id="text_7">
      <!-- 60000 -->
      <g transform="translate(685.218115 318.238437) scale(0.1 -0.1)">
       <defs>
        <path id="DejaVuSans-36" d="M 2113 2584 
Q 1688 2584 1439 2293 
Q 1191 2003 1191 1497 
Q 1191 994 1439 701 
Q 1688 409 2113 409 
Q 2538 409 2786 701 
Q 3034 994 3034 1497 
Q 3034 2003 2786 2293 
Q 2538 2584 2113 2584 
z
M 3366 4563 
L 3366 3988 
Q 3128 4100 2886 4159 
Q 2644 4219 2406 4219 
Q 1781 4219 1451 3797 
Q 1122 3375 1075 2522 
Q 1259 2794 1537 2939 
Q 1816 3084 2150 3084 
Q 2853 3084 3261 2657 
Q 3669 2231 3669 1497 
Q 3669 778 3244 343 
Q 2819 -91 2113 -91 
Q 1303 -91 875 529 
Q 447 1150 447 2328 
Q 447 3434 972 4092 
Q 1497 4750 2381 4750 
Q 2619 4750 2861 4703 
Q 3103 4656 3366 4563 
z
" transform="scale(0.015625)"/>
       </defs>
       <use xlink:href="#DejaVuSans-36"/>
       <use xlink:href="#DejaVuSans-30" x="63.623047"/>
       <use xlink:href="#DejaVuSans-30" x="127.246094"/>
       <use xlink:href="#DejaVuSans-30" x="190.869141"/>
       <use xlink:href="#DejaVuSans-30" x="254.492188"/>
      </g>
     </g>
    </g>
    <g id="text_8">
     <!-- Elapsed Seconds -->
     <g transform="translate(371.636719 331.916562) scale(0.1 -0.1)">
      <defs>
       <path id="DejaVuSans-45" d="M 628 4666 
L 3578 4666 
L 3578 4134 
L 1259 4134 
L 1259 2753 
L 3481 2753 
L 3481 2222 
L 1259 2222 
L 1259 531 
L 3634 531 
L 3634 0 
L 628 0 
L 628 4666 
z
" transform="scale(0.015625)"/>
       <path id="DejaVuSans-6c" d="M 603 4863 
L 1178 4863 
L 1178 0 
L 603 0 
L 603 4863 
z
" transform="scale(0.015625)"/>
       <path id="DejaVuSans-61" d="M 2194 1759 
Q 1497 1759 1228 1600 
Q 959 1441 959 1056 
Q 959 750 1161 570 
Q 1363 391 1709 391 
Q 2188 391 2477 730 
Q 2766 1069 2766 1631 
L 2766 1759 
L 2194 1759 
z
M 3341 1997 
L 3341 0 
L 2766 0 
L 2766 531 
Q 2569 213 2275 61 
Q 1981 -91 1556 -91 
Q 1019 -91 701 211 
Q 384 513 384 1019 
Q 384 1609 779 1909 
Q 1175 2209 1959 2209 
L 2766 2209 
L 2766 2266 
Q 2766 2663 2505 2880 
Q 2244 3097 1772 3097 
Q 1472 3097 1187 3025 
Q 903 2953 641 2809 
L 641 3341 
Q 956 3463 1253 3523 
Q 1550 3584 1831 3584 
Q 2591 3584 2966 3190 
Q 3341 2797 3341 1997 
z
" transform="scale(0.015625)"/>
       <path id="DejaVuSans-70" d="M 1159 525 
L 1159 -1331 
L 581 -1331 
L 581 3500 
L 1159 3500 
L 1159 2969 
Q 1341 3281 1617 3432 
Q 1894 3584 2278 3584 
Q 2916 3584 3314 3078 
Q 3713 2572 3713 1747 
Q 3713 922 3314 415 
Q 2916 -91 2278 -91 
Q 1894 -91 1617 61 
Q 1341 213 1159 525 
z
M 3116 1747 
Q 3116 2381 2855 2742 
Q 2594 3103 2138 3103 
Q 1681 3103 1420 2742 
Q 1159 2381 1159 1747 
Q 1159 1113 1420 752 
Q 1681 391 2138 391 
Q 2594 391 2855 752 
Q 3116 1113 3116 1747 
z
" transform="scale(0.015625)"/>
       <path id="DejaVuSans-73" d="M 2834 3397 
L 2834 2853 
Q 2591 2978 2328 3040 
Q 2066 3103 1784 3103 
Q 1356 3103 1142 2972 
Q 928 2841 928 2578 
Q 928 2378 1081 2264 
Q 1234 2150 1697 2047 
L 1894 2003 
Q 2506 1872 2764 1633 
Q 3022 1394 3022 966 
Q 3022 478 2636 193 
Q 2250 -91 1575 -91 
Q 1294 -91 989 -36 
Q 684 19 347 128 
L 347 722 
Q 666 556 975 473 
Q 1284 391 1588 391 
Q 1994 391 2212 530 
Q 2431 669 2431 922 
Q 2431 1156 2273 1281 
Q 2116 1406 1581 1522 
L 1381 1569 
Q 847 1681 609 1914 
Q 372 2147 372 2553 
Q 372 3047 722 3315 
Q 1072 3584 1716 3584 
Q 2034 3584 2315 3537 
Q 2597 3491 2834 3397 
z
" transform="scale(0.015625)"/>
       <path id="DejaVuSans-65" d="M 3597 1894 
L 3597 1613 
L 953 1613 
Q 991 1019 1311 708 
Q 1631 397 2203 397 
Q 2534 397 2845 478 
Q 3156 559 3463 722 
L 3463 178 
Q 3153 47 2828 -22 
Q 2503 -91 2169 -91 
Q 1331 -91 842 396 
Q 353 884 353 1716 
Q 353 2575 817 3079 
Q 1281 3584 2069 3584 
Q 2775 3584 3186 3129 
Q 3597 2675 3597 1894 
z
M 3022 2063 
Q 3016 2534 2758 2815 
Q 2500 3097 2075 3097 
Q 1594 3097 1305 2825 
Q 1016 2553 972 2059 
L 3022 2063 
z
" transform="scale(0.015625)"/>
       <path id="DejaVuSans-64" d="M 2906 2969 
L 2906 4863 
L 3481 4863 
L 3481 0 
L 2906 0 
L 2906 525 
Q 2725 213 2448 61 
Q 2172 -91 1784 -91 
Q 1150 -91 751 415 
Q 353 922 353 1747 
Q 353 2572 751 3078 
Q 1150 3584 1784 3584 
Q 2172 3584 2448 3432 
Q 2725 3281 2906 2969 
z
M 947 1747 
Q 947 1113 1208 752 
Q 1469 391 1925 391 
Q 2381 391 2643 752 
Q 2906 1113 2906 1747 
Q 2906 2381 2643 2742 
Q 2381 3103 1925 3103 
Q 1469 3103 1208 2742 
Q 947 2381 947 1747 
z
" transform="scale(0.015625)"/>
       <path id="DejaVuSans-20" transform="scale(0.015625)"/>
       <path id="DejaVuSans-53" d="M 3425 4513 
L 3425 3897 
Q 3066 4069 2747 4153 
Q 2428 4238 2131 4238 
Q 1616 4238 1336 4038 
Q 1056 3838 1056 3469 
Q 1056 3159 1242 3001 
Q 1428 2844 1947 2747 
L 2328 2669 
Q 3034 2534 3370 2195 
Q 3706 1856 3706 1288 
Q 3706 609 3251 259 
Q 2797 -91 1919 -91 
Q 1588 -91 1214 -16 
Q 841 59 441 206 
L 441 856 
Q 825 641 1194 531 
Q 1563 422 1919 422 
Q 2459 422 2753 634 
Q 3047 847 3047 1241 
Q 3047 1584 2836 1778 
Q 2625 1972 2144 2069 
L 1759 2144 
Q 1053 2284 737 2584 
Q 422 2884 422 3419 
Q 422 4038 858 4394 
Q 1294 4750 2059 4750 
Q 2388 4750 2728 4690 
Q 3069 4631 3425 4513 
z
" transform="scale(0.015625)"/>
       <path id="DejaVuSans-63" d="M 3122 3366 
L 3122 2828 
Q 2878 2963 2633 3030 
Q 2388 3097 2138 3097 
Q 1578 3097 1268 2742 
Q 959 2388 959 1747 
Q 959 1106 1268 751 
Q 1578 397 2138 397 
Q 2388 397 2633 464 
Q 2878 531 3122 666 
L 3122 134 
Q 2881 22 2623 -34 
Q 2366 -91 2075 -91 
Q 1284 -91 818 406 
Q 353 903 353 1747 
Q 353 2603 823 3093 
Q 1294 3584 2113 3584 
Q 2378 3584 2631 3529 
Q 2884 3475 3122 3366 
z
" transform="scale(0.015625)"/>
       <path id="DejaVuSans-6f" d="M 1959 3097 
Q 1497 3097 1228 2736 
Q 959 2375 959 1747 
Q 959 1119 1226 758 
Q 1494 397 1959 397 
Q 2419 397 2687 759 
Q 2956 1122 2956 1747 
Q 2956 2369 2687 2733 
Q 2419 3097 1959 3097 
z
M 1959 3584 
Q 2709 3584 3137 3096 
Q 3566 2609 3566 1747 
Q 3566 888 3137 398 
Q 2709 -91 1959 -91 
Q 1206 -91 779 398 
Q 353 888 353 1747 
Q 353 2609 779 3096 
Q 1206 3584 1959 3584 
z
" transform="scale(0.015625)"/>
       <path id="DejaVuSans-6e" d="M 3513 2113 
L 3513 0 
L 2938 0 
L 2938 2094 
Q 2938 2591 2744 2837 
Q 2550 3084 2163 3084 
Q 1697 3084 1428 2787 
Q 1159 2491 1159 1978 
L 1159 0 
L 581 0 
L 581 3500 
L 1159 3500 
L 1159 2956 
Q 1366 3272 1645 3428 
Q 1925 3584 2291 3584 
Q 2894 3584 3203 3211 
Q 3513 2838 3513 2113 
z
" transform="scale(0.015625)"/>
      </defs>
      <use xlink:href="#DejaVuSans-45"/>
      <use xlink:href="#DejaVuSans-6c" x="63.183594"/>
      <use xlink:href="#DejaVuSans-61" x="90.966797"/>
      <use xlink:href="#DejaVuSans-70" x="152.246094"/>
      <use xlink:href="#DejaVuSans-73" x="215.722656"/>
      <use xlink:href="#DejaVuSans-65" x="267.822266"/>
      <use xlink:href="#DejaVuSans-64" x="329.345703"/>
      <use xlink:href="#DejaVuSans-20" x="392.822266"/>
      <use xlink:href="#DejaVuSans-53" x="424.609375"/>
      <use xlink:href="#DejaVuSans-65" x="488.085938"/>
      <use xlink:href="#DejaVuSans-63" x="549.609375"/>
      <use xlink:href="#DejaVuSans-6f" x="604.589844"/>
      <use xlink:href="#DejaVuSans-6e" x="665.771484"/>
      <use xlink:href="#DejaVuSans-64" x="729.150391"/>
      <use xlink:href="#DejaVuSans-73" x="792.626953"/>
     </g>
    </g>
   </g>
   <g id="matplotlib.axis_2">
    <g id="ytick_1">
     <g id="line2d_15">
      <path d="M 46.55 265.9 
L 781.2 265.9 
" clip-path="url(#p5435b1f509)" style="fill: none; stroke: #b0b0b0; stroke-opacity: 0.25; stroke-width: 0.8; stroke-linecap: square"/>
     </g>
     <g id="line2d_16">
      <defs>
       <path id="m151878fafa" d="M 0 0 
L -3.5 0 
" style="stroke: #000000; stroke-width: 0.8"/>
      </defs>
      <g>
       <use xlink:href="#m151878fafa" x="46.55" y="265.9" style="stroke: #000000; stroke-width: 0.8"/>
      </g>
     </g>
     <g id="text_9">
      <!-- −4 -->
      <g transform="translate(24.807813 269.699219) scale(0.1 -0.1)">
       <defs>
        <path id="DejaVuSans-2212" d="M 678 2272 
L 4684 2272 
L 4684 1741 
L 678 1741 
L 678 2272 
z
" transform="scale(0.015625)"/>
       </defs>
       <use xlink:href="#DejaVuSans-2212"/>
       <use xlink:href="#DejaVuSans-34" x="83.789062"/>
      </g>
     </g>
    </g>
    <g id="ytick_2">
     <g id="line2d_17">
      <path d="M 46.55 215.58 
L 781.2 215.58 
" clip-path="url(#p5435b1f509)" style="fill: none; stroke: #b0b0b0; stroke-opacity: 0.25; stroke-width: 0.8; stroke-linecap: square"/>
     </g>
     <g id="line2d_18">
      <g>
       <use xlink:href="#m151878fafa" x="46.55" y="215.58" style="stroke: #000000; stroke-width: 0.8"/>
      </g>
     </g>
     <g id="text_10">
      <!-- −2 -->
      <g transform="translate(24.807813 219.379219) scale(0.1 -0.1)">
       <use xlink:href="#DejaVuSans-2212"/>
       <use xlink:href="#DejaVuSans-32" x="83.789062"/>
      </g>
     </g>
    </g>
    <g id="ytick_3">
     <g id="line2d_19">
      <path d="M 46.55 165.26 
L 781.2 165.26 
" clip-path="url(#p5435b1f509)" style="fill: none; stroke: #b0b0b0; stroke-opacity: 0.25; stroke-width: 0.8; stroke-linecap: square"/>
     </g>
     <g id="line2d_20">
      <g>
       <use xlink:href="#m151878fafa" x="46.55" y="165.26" style="stroke: #000000; stroke-width: 0.8"/>
      </g>
     </g>
     <g id="text_11">
      <!-- 0 -->
      <g transform="translate(33.1875 169.059219) scale(0.1 -0.1)">
       <use xlink:href="#DejaVuSans-30"/>
      </g>
     </g>
    </g>
    <g id="ytick_4">
     <g id="line2d_21">
      <path d="M 46.55 114.94 
L 781.2 114.94 
" clip-path="url(#p5435b1f509)" style="fill: none; stroke: #b0b0b0; stroke-opacity: 0.25; stroke-width: 0.8; stroke-linecap: square"/>
     </g>
     <g id="line2d_22">
      <g>
       <use xlink:href="#m151878fafa" x="46.55" y="114.94" style="stroke: #000000; stroke-width: 0.8"/>
      </g>
     </g>
     <g id="text_12">
      <!-- 2 -->
      <g transform="translate(33.1875 118.739219) scale(0.1 -0.1)">
       <use xlink:href="#DejaVuSans-32"/>
      </g>
     </g>
    </g>
    <g id="ytick_5">
     <g id="line2d_23">
      <path d="M 46.55 64.62 
L 781.2 64.62 
" clip-path="url(#p5435b1f509)" style="fill: none; stroke: #b0b0b0; stroke-opacity: 0.25; stroke-width: 0.8; stroke-linecap: square"/>
     </g>
     <g id="line2d_24">
      <g>
       <use xlink:href="#m151878fafa" x="46.55" y="64.62" style="stroke: #000000; stroke-width: 0.8"/>
      </g>
     </g>
     <g id="text_13">
      <!-- 4 -->
      <g transform="translate(33.1875 68.419219) scale(0.1 -0.1)">
       <use xlink:href="#DejaVuSans-34"/>
      </g>
     </g>
    </g>
    <g id="text_14">
     <!-- Inventory -->
     <g transform="translate(18.728125 189.142812) rotate(-90) scale(0.1 -0.1)">
      <defs>
       <path id="DejaVuSans-49" d="M 628 4666 
L 1259 4666 
L 1259 0 
L 628 0 
L 628 4666 
z
" transform="scale(0.015625)"/>
       <path id="DejaVuSans-76" d="M 191 3500 
L 800 3500 
L 1894 563 
L 2988 3500 
L 3597 3500 
L 2284 0 
L 1503 0 
L 191 3500 
z
" transform="scale(0.015625)"/>
       <path id="DejaVuSans-74" d="M 1172 4494 
L 1172 3500 
L 2356 3500 
L 2356 3053 
L 1172 3053 
L 1172 1153 
Q 1172 725 1289 603 
Q 1406 481 1766 481 
L 2356 481 
L 2356 0 
L 1766 0 
Q 1100 0 847 248 
Q 594 497 594 1153 
L 594 3053 
L 172 3053 
L 172 3500 
L 594 3500 
L 594 4494 
L 1172 4494 
z
" transform="scale(0.015625)"/>
       <path id="DejaVuSans-72" d="M 2631 2963 
Q 2534 3019 2420 3045 
Q 2306 3072 2169 3072 
Q 1681 3072 1420 2755 
Q 1159 2438 1159 1844 
L 1159 0 
L 581 0 
L 581 3500 
L 1159 3500 
L 1159 2956 
Q 1341 3275 1631 3429 
Q 1922 3584 2338 3584 
Q 2397 3584 2469 3576 
Q 2541 3569 2628 3553 
L 2631 2963 
z
" transform="scale(0.015625)"/>
       <path id="DejaVuSans-79" d="M 2059 -325 
Q 1816 -950 1584 -1140 
Q 1353 -1331 966 -1331 
L 506 -1331 
L 506 -850 
L 844 -850 
Q 1081 -850 1212 -737 
Q 1344 -625 1503 -206 
L 1606 56 
L 191 3500 
L 800 3500 
L 1894 763 
L 2988 3500 
L 3597 3500 
L 2059 -325 
z
" transform="scale(0.015625)"/>
      </defs>
      <use xlink:href="#DejaVuSans-49"/>
      <use xlink:href="#DejaVuSans-6e" x="29.492188"/>
      <use xlink:href="#DejaVuSans-76" x="92.871094"/>
      <use xlink:href="#DejaVuSans-65" x="152.050781"/>
      <use xlink:href="#DejaVuSans-6e" x="213.574219"/>
      <use xlink:href="#DejaVuSans-74" x="276.953125"/>
      <use xlink:href="#DejaVuSans-6f" x="316.162109"/>
      <use xlink:href="#DejaVuSans-72" x="377.34375"/>
      <use xlink:href="#DejaVuSans-79" x="418.457031"/>
     </g>
    </g>
   </g>
   <g id="line2d_25">
    <path d="M 79.943182 190.42 
L 79.943182 291.06 
L 80.046897 291.06 
L 84.742354 291.06 
L 84.953129 265.9 
L 85.994552 265.9 
L 86.311797 215.58 
L 93.305078 215.58 
L 93.51238 190.42 
L 97.163973 190.42 
L 97.375018 165.26 
L 99.465402 165.26 
L 99.672786 190.42 
L 99.884191 190.42 
L 100.091552 215.58 
L 100.406707 215.58 
L 100.717775 265.9 
L 102.490899 265.9 
L 102.698238 165.26 
L 104.052348 165.26 
L 104.271065 140.1 
L 104.478572 165.26 
L 104.896968 165.26 
L 105.000719 140.1 
L 105.207721 165.26 
L 108.754166 165.26 
L 108.961543 140.1 
L 109.065113 140.1 
L 109.27619 114.94 
L 109.798772 114.94 
L 110.006306 89.78 
L 110.317255 89.78 
L 110.535364 64.62 
L 113.453083 64.62 
L 113.664351 39.46 
L 115.754739 39.46 
L 115.96235 64.62 
L 118.466361 64.62 
L 118.677578 39.46 
L 120.344686 39.46 
L 120.556162 64.62 
L 120.763526 64.62 
L 120.867143 165.26 
L 121.078236 114.94 
L 121.285669 140.1 
L 121.389322 140.1 
L 121.596556 165.26 
L 123.689677 165.26 
L 123.896933 190.42 
L 124.626591 190.42 
L 124.837351 165.26 
L 129.110352 165.26 
L 129.330571 140.1 
L 131.4159 140.1 
L 131.623372 165.26 
L 131.834527 165.26 
L 132.041693 190.42 
L 132.87476 190.42 
L 133.085971 215.58 
L 133.293149 215.58 
L 133.50048 165.26 
L 134.648333 165.26 
L 134.859455 140.1 
L 136.743554 140.1 
L 136.847038 165.26 
L 137.054356 140.1 
L 138.512608 140.1 
L 138.723695 165.26 
L 143.9467 165.26 
L 144.153796 190.42 
L 150.109497 190.42 
L 150.316896 165.26 
L 151.155442 165.26 
L 151.155442 140.1 
L 151.25921 140.1 
L 154.077532 140.1 
L 154.288832 165.26 
L 154.914779 165.26 
L 155.122272 140.1 
L 156.897048 140.1 
L 157.104487 165.26 
L 165.875352 165.26 
L 166.191183 215.58 
L 166.60565 215.58 
L 166.817626 265.9 
L 167.024956 240.74 
L 167.33954 240.74 
L 167.546576 165.26 
L 170.472569 165.26 
L 170.679931 140.1 
L 170.783603 140.1 
L 171.098217 190.42 
L 171.408856 190.42 
L 171.616035 165.26 
L 181.747315 165.26 
L 181.954699 140.1 
L 182.374706 140.1 
L 182.581927 165.26 
L 184.251802 165.26 
L 184.459006 190.42 
L 186.021117 190.42 
L 186.23215 165.26 
L 187.272464 165.26 
L 187.483668 140.1 
L 189.677763 140.1 
L 189.889042 165.26 
L 189.992758 165.26 
L 190.200013 140.1 
L 195.108014 140.1 
L 195.315247 165.26 
L 196.671199 165.26 
L 196.882427 140.1 
L 201.997583 140.1 
L 202.204779 114.94 
L 205.752805 114.94 
L 205.959998 89.78 
L 206.378837 89.78 
L 207.004758 215.58 
L 207.946455 215.58 
L 208.157906 165.26 
L 208.261709 165.26 
L 208.572533 215.58 
L 223.511403 215.58 
L 223.826518 165.26 
L 227.267117 165.26 
L 227.474174 140.1 
L 230.60296 140.1 
L 231.124887 240.74 
L 231.228653 240.74 
L 231.4361 165.26 
L 232.166575 165.26 
L 232.377597 140.1 
L 232.688321 140.1 
L 232.895594 165.26 
L 234.886017 165.26 
L 235.093197 140.1 
L 235.403955 140.1 
L 235.614793 215.58 
L 235.925419 215.58 
L 236.136751 165.26 
L 245.948377 165.26 
L 246.26872 89.78 
L 246.579705 89.78 
L 246.894898 39.46 
L 252.0064 39.46 
L 252.213787 114.94 
L 252.317456 114.94 
L 252.636771 165.26 
L 254.198964 165.26 
L 254.410692 140.1 
L 254.721616 140.1 
L 254.932706 165.26 
L 256.597721 165.26 
L 256.808786 140.1 
L 259.734164 140.1 
L 259.837874 89.78 
L 260.15293 140.1 
L 260.256553 140.1 
L 260.463747 215.58 
L 260.882201 215.58 
L 261.089536 240.74 
L 261.715086 240.74 
L 261.92605 265.9 
L 263.281489 265.9 
L 263.488581 165.26 
L 263.803056 165.26 
L 263.906775 140.1 
L 264.114258 165.26 
L 264.954934 165.26 
L 265.063375 190.42 
L 265.374183 190.42 
L 265.585506 215.58 
L 265.689126 215.58 
L 265.792769 190.42 
L 265.999985 265.9 
L 266.103648 265.9 
L 266.211178 240.74 
L 266.418401 265.9 
L 266.522131 265.9 
L 266.72923 240.74 
L 269.860102 240.74 
L 270.071712 165.26 
L 271.430707 165.26 
L 271.637968 140.1 
L 271.741646 140.1 
L 271.95622 190.42 
L 272.059685 190.42 
L 272.37039 140.1 
L 272.582476 140.1 
L 272.893377 190.42 
L 273.20799 190.42 
L 273.415249 215.58 
L 275.50159 215.58 
L 275.816824 165.26 
L 275.920516 165.26 
L 276.127766 114.94 
L 276.335175 89.78 
L 278.216191 89.78 
L 278.3199 114.94 
L 278.527233 39.46 
L 279.572112 39.46 
L 279.779602 165.26 
L 280.094634 165.26 
L 280.514141 240.74 
L 280.825014 240.74 
L 281.03248 265.9 
L 281.140309 265.9 
L 281.347785 291.06 
L 281.974281 291.06 
L 282.181611 265.9 
L 282.285036 265.9 
L 282.49727 291.06 
L 282.600835 291.06 
L 282.808142 265.9 
L 283.123678 265.9 
L 283.330937 240.74 
L 284.272379 240.74 
L 284.479851 165.26 
L 284.790879 165.26 
L 285.002109 39.46 
L 285.835361 39.46 
L 286.042726 64.62 
L 288.968096 64.62 
L 289.175501 89.78 
L 289.69787 89.78 
L 289.90925 114.94 
L 290.219901 114.94 
L 290.427098 165.26 
L 294.809462 165.26 
L 295.023176 140.1 
L 295.545121 140.1 
L 295.752363 165.26 
L 296.062998 165.26 
L 296.27519 190.42 
L 297.629052 190.42 
L 297.836293 165.26 
L 300.551645 165.26 
L 300.655173 114.94 
L 300.862211 140.1 
L 300.965845 140.1 
L 301.180406 114.94 
L 304.418444 114.94 
L 304.625857 89.78 
L 306.709797 89.78 
L 306.922077 114.94 
L 307.552254 114.94 
L 307.759585 89.78 
L 311.093214 89.78 
L 311.303672 165.26 
L 312.969059 165.26 
L 313.179622 265.9 
L 313.283381 215.58 
L 313.490786 291.06 
L 315.796533 291.06 
L 315.900014 265.9 
L 316.107133 140.1 
L 317.879139 140.1 
L 318.090612 165.26 
L 320.593332 165.26 
L 320.80436 140.1 
L 321.431454 140.1 
L 321.63906 114.94 
L 323.93874 114.94 
L 324.146457 165.26 
L 324.457715 165.26 
L 324.665498 190.42 
L 326.127913 190.42 
L 326.339397 215.58 
L 328.848796 215.58 
L 329.05657 291.06 
L 329.160436 291.06 
L 329.371593 165.26 
L 330.10283 165.26 
L 330.310357 190.42 
L 332.087439 190.42 
L 332.399272 291.06 
L 332.715444 291.06 
L 333.135622 215.58 
L 333.23922 215.58 
L 333.447019 165.26 
L 333.866167 165.26 
L 333.969767 140.1 
L 334.281165 190.42 
L 334.492724 190.42 
L 334.700373 165.26 
L 334.804337 165.26 
L 335.016248 140.1 
L 335.327884 140.1 
L 335.535469 190.42 
L 335.954461 190.42 
L 336.270507 140.1 
L 336.876435 140.1 
L 337.001708 165.26 
L 338.670661 165.26 
L 338.987118 114.94 
L 339.406148 114.94 
L 339.717466 64.62 
L 340.970289 64.62 
L 341.177628 89.78 
L 341.596467 89.78 
L 341.804185 39.46 
L 342.642668 39.46 
L 342.850503 64.62 
L 344.000465 64.62 
L 344.20808 89.78 
L 345.151526 89.78 
L 345.359068 39.46 
L 345.46296 89.78 
L 345.566436 64.62 
L 345.674166 89.78 
L 345.7781 64.62 
L 345.985669 140.1 
L 346.300232 140.1 
L 346.611861 215.58 
L 346.819443 190.42 
L 347.030778 190.42 
L 347.238046 165.26 
L 347.865206 165.26 
L 348.072796 190.42 
L 348.595628 190.42 
L 348.806519 165.26 
L 349.117645 165.26 
L 349.324917 140.1 
L 349.951562 140.1 
L 350.162983 165.26 
L 350.474405 165.26 
L 350.686158 140.1 
L 353.295747 140.1 
L 353.503274 64.62 
L 353.710985 39.46 
L 354.75711 39.46 
L 354.964643 89.78 
L 355.07267 89.78 
L 355.280175 114.94 
L 355.591233 114.94 
L 355.699427 140.1 
L 356.218471 140.1 
L 356.431271 114.94 
L 357.788507 114.94 
L 357.996061 140.1 
L 358.207356 114.94 
L 358.726722 114.94 
L 358.939246 140.1 
L 359.464628 140.1 
L 359.672144 114.94 
L 359.98379 114.94 
L 360.195964 165.26 
L 360.299864 165.26 
L 360.50766 140.1 
L 361.238934 140.1 
L 361.450786 114.94 
L 361.658435 114.94 
L 361.86596 64.62 
L 361.973614 114.94 
L 362.493232 114.94 
L 362.706362 64.62 
L 362.914058 89.78 
L 364.168034 89.78 
L 364.375574 114.94 
L 365.629563 114.94 
L 365.841676 140.1 
L 366.779822 140.1 
L 366.991958 114.94 
L 368.559262 114.94 
L 368.663134 89.78 
L 368.874772 114.94 
L 369.290135 114.94 
L 369.605102 165.26 
L 370.129039 165.26 
L 370.33656 140.1 
L 370.544494 140.1 
L 370.755812 215.58 
L 371.0671 215.58 
L 371.0671 165.26 
L 371.17087 165.26 
L 372.323415 165.26 
L 372.530544 140.1 
L 374.410328 140.1 
L 374.617766 165.26 
L 377.228664 165.26 
L 377.436269 140.1 
L 377.540219 140.1 
L 377.855729 190.42 
L 378.27122 190.42 
L 378.482737 265.9 
L 379.110233 265.9 
L 379.214035 165.26 
L 379.421548 190.42 
L 379.839767 190.42 
L 380.047435 215.58 
L 380.362691 215.58 
L 380.466556 240.74 
L 380.673762 165.26 
L 382.134422 165.26 
L 382.761647 39.46 
L 384.434313 39.46 
L 384.64182 64.62 
L 386.210459 64.62 
L 386.418299 190.42 
L 388.402003 190.42 
L 388.61323 215.58 
L 389.239921 215.58 
L 389.447215 240.74 
L 392.477331 240.74 
L 392.684975 265.9 
L 393.731532 265.9 
L 393.939069 291.06 
L 397.594551 291.06 
L 397.802117 265.9 
L 399.055641 265.9 
L 399.266976 240.74 
L 399.474622 240.74 
L 399.789919 291.06 
L 400.416143 291.06 
L 400.727451 240.74 
L 401.250984 240.74 
L 401.458615 215.58 
L 402.607893 215.58 
L 402.815592 165.26 
L 406.787835 165.26 
L 406.995475 190.42 
L 407.726004 190.42 
L 407.937598 215.58 
L 410.756646 215.58 
L 410.964333 165.26 
L 412.218138 165.26 
L 412.430963 190.42 
L 412.638746 190.42 
L 412.846478 165.26 
L 414.099737 165.26 
L 414.311031 140.1 
L 414.518666 165.26 
L 419.533684 165.26 
L 419.741323 190.42 
L 421.618191 190.42 
L 421.72593 165.26 
L 421.933398 190.42 
L 422.352372 190.42 
L 422.55992 165.26 
L 424.233158 165.26 
L 424.440711 89.78 
L 424.544556 89.78 
L 424.752192 114.94 
L 424.963535 89.78 
L 426.63293 89.78 
L 426.844626 114.94 
L 428.828905 114.94 
L 429.036548 165.26 
L 430.917055 165.26 
L 431.232499 39.46 
L 431.647611 39.46 
L 431.859106 190.42 
L 433.009357 190.42 
L 433.216922 165.26 
L 435.933343 165.26 
L 436.144798 190.42 
L 436.352451 165.26 
L 436.66384 165.26 
L 436.875191 140.1 
L 437.813199 140.1 
L 438.02587 165.26 
L 440.113625 165.26 
L 440.321341 140.1 
L 440.948415 140.1 
L 441.16026 114.94 
L 441.786815 114.94 
L 441.99449 165.26 
L 442.202006 190.42 
L 442.413392 165.26 
L 443.351503 165.26 
L 443.55922 140.1 
L 443.667741 140.1 
L 443.87531 165.26 
L 444.398238 165.26 
L 444.502045 190.42 
L 444.605781 265.9 
L 444.921145 215.58 
L 445.024786 215.58 
L 445.23248 165.26 
L 447.946549 165.26 
L 448.158227 140.1 
L 448.262057 140.1 
L 448.469753 114.94 
L 448.993183 114.94 
L 449.200904 140.1 
L 452.650774 140.1 
L 452.858424 165.26 
L 453.277475 165.26 
L 453.48522 140.1 
L 455.054244 140.1 
L 455.261809 165.26 
L 456.515419 165.26 
L 456.619061 140.1 
L 456.83181 64.62 
L 458.396082 64.62 
L 458.815095 140.1 
L 459.650104 140.1 
L 459.964992 89.78 
L 460.172525 89.78 
L 460.276388 114.94 
L 460.484075 215.58 
L 460.695316 240.74 
L 460.799 240.74 
L 460.902883 265.9 
L 461.110651 215.58 
L 461.42624 165.26 
L 461.530107 165.26 
L 461.846598 215.58 
L 462.054602 190.42 
L 462.261965 190.42 
L 462.473996 215.58 
L 463.100988 215.58 
L 463.308544 165.26 
L 463.412426 190.42 
L 463.619885 291.06 
L 463.831562 291.06 
L 464.038573 240.74 
L 464.354613 291.06 
L 464.666095 291.06 
L 464.87385 165.26 
L 465.714296 165.26 
L 465.818134 190.42 
L 466.025757 165.26 
L 466.238337 165.26 
L 466.445887 140.1 
L 466.757191 140.1 
L 466.969337 114.94 
L 468.011902 114.94 
L 468.224371 140.1 
L 468.43216 140.1 
L 468.639485 165.26 
L 468.851946 89.78 
L 468.955747 64.62 
L 469.163445 114.94 
L 469.479973 114.94 
L 469.479973 165.26 
L 469.583679 165.26 
L 471.882286 165.26 
L 472.094495 114.94 
L 472.406029 165.26 
L 472.929054 165.26 
L 473.244343 114.94 
L 473.452013 140.1 
L 473.65971 140.1 
L 473.871095 165.26 
L 473.974996 165.26 
L 474.182533 140.1 
L 474.390176 190.42 
L 474.706172 190.42 
L 474.913902 165.26 
L 475.634825 165.26 
L 475.748557 140.1 
L 478.255853 140.1 
L 478.463766 165.26 
L 478.56759 165.26 
L 478.779085 190.42 
L 479.820964 190.42 
L 480.033118 165.26 
L 482.644143 165.26 
L 482.747841 190.42 
L 482.95551 165.26 
L 483.270918 165.26 
L 483.478467 140.1 
L 483.794139 140.1 
L 484.001702 114.94 
L 485.986742 114.94 
L 486.09069 89.78 
L 486.302424 114.94 
L 487.241506 114.94 
L 487.449108 64.62 
L 488.914045 64.62 
L 489.12173 39.46 
L 489.32935 39.46 
L 489.541711 64.62 
L 491.003152 64.62 
L 491.210889 190.42 
L 491.422748 215.58 
L 491.52668 215.58 
L 491.73438 190.42 
L 491.838138 190.42 
L 492.050624 165.26 
L 493.615239 165.26 
L 493.82691 140.1 
L 494.765529 140.1 
L 494.973254 165.26 
L 496.751313 165.26 
L 496.855053 140.1 
L 497.066463 165.26 
L 500.932484 165.26 
L 501.140028 190.42 
L 501.560265 190.42 
L 501.767854 215.58 
L 501.871752 215.58 
L 502.083435 240.74 
L 502.291051 165.26 
L 502.710039 165.26 
L 502.917696 190.42 
L 503.021342 190.42 
L 503.233013 215.58 
L 504.487187 215.58 
L 504.694698 190.42 
L 504.798485 190.42 
L 504.902357 165.26 
L 505.113989 190.42 
L 505.32162 190.42 
L 505.52908 165.26 
L 505.741133 190.42 
L 507.306572 190.42 
L 507.514264 165.26 
L 508.456222 165.26 
L 508.663692 190.42 
L 512.42451 190.42 
L 512.63531 165.26 
L 513.365339 165.26 
L 513.676747 114.94 
L 513.888539 114.94 
L 514.096014 165.26 
L 514.515044 165.26 
L 514.722673 190.42 
L 515.033756 190.42 
L 515.245263 165.26 
L 515.660336 165.26 
L 515.871569 190.42 
L 517.436263 190.42 
L 517.647334 215.58 
L 519.526775 215.58 
L 519.734341 240.74 
L 520.98827 240.74 
L 521.299165 291.06 
L 522.869053 291.06 
L 523.076892 265.9 
L 523.28994 291.06 
L 523.705023 291.06 
L 523.917628 165.26 
L 524.752934 165.26 
L 524.960779 190.42 
L 526.215632 190.42 
L 526.532847 240.74 
L 526.948033 240.74 
L 527.264232 190.42 
L 530.505311 190.42 
L 530.712785 165.26 
L 533.060635 165.26 
L 533.273004 215.58 
L 533.480827 215.58 
L 533.584459 240.74 
L 533.792066 215.58 
L 534.10676 215.58 
L 534.314324 190.42 
L 534.525763 190.42 
L 534.733536 165.26 
L 535.256384 165.26 
L 535.463925 140.1 
L 543.406381 140.1 
L 543.614052 165.26 
L 544.970871 165.26 
L 545.181996 190.42 
L 547.791733 190.42 
L 547.999463 165.26 
L 548.206891 215.58 
L 548.31084 215.58 
L 548.414714 140.1 
L 548.622407 165.26 
L 548.833505 140.1 
L 548.93722 215.58 
L 549.041199 140.1 
L 549.248822 165.26 
L 549.982708 165.26 
L 550.190558 140.1 
L 550.8174 140.1 
L 551.23562 64.62 
L 552.17226 64.62 
L 552.379748 165.26 
L 553.528802 165.26 
L 553.740983 140.1 
L 555.619488 140.1 
L 555.723434 114.94 
L 555.931216 140.1 
L 556.138512 140.1 
L 556.557714 215.58 
L 556.872617 215.58 
L 557.080065 291.06 
L 558.332405 291.06 
L 558.436121 265.9 
L 558.539894 291.06 
L 558.854953 240.74 
L 559.16606 291.06 
L 560.630554 291.06 
L 560.942424 240.74 
L 561.150328 265.9 
L 561.363404 265.9 
L 561.571104 240.74 
L 562.721456 240.74 
L 562.928796 265.9 
L 563.032438 265.9 
L 563.140191 240.74 
L 563.347826 265.9 
L 563.555385 240.74 
L 563.870276 240.74 
L 564.078106 215.58 
L 565.332137 215.58 
L 565.539838 165.26 
L 565.854886 165.26 
L 566.165956 215.58 
L 566.38548 215.58 
L 566.592967 165.26 
L 568.523085 165.26 
L 568.730724 190.42 
L 568.839382 190.42 
L 569.047056 165.26 
L 569.254382 190.42 
L 569.570093 190.42 
L 569.777691 165.26 
L 569.881636 165.26 
L 570.093362 190.42 
L 570.300828 165.26 
L 570.720685 165.26 
L 570.928511 190.42 
L 571.661791 190.42 
L 571.869502 215.58 
L 572.496888 215.58 
L 572.708742 190.42 
L 573.171024 190.42 
L 573.378672 240.74 
L 573.586528 215.58 
L 573.799449 215.58 
L 574.007018 165.26 
L 575.574274 165.26 
L 575.786651 39.46 
L 575.994062 64.62 
L 576.201855 64.62 
L 576.413723 165.26 
L 577.352366 165.26 
L 577.566212 190.42 
L 577.877515 140.1 
L 578.085038 140.1 
L 578.297362 114.94 
L 580.492682 114.94 
L 580.705612 165.26 
L 580.913329 140.1 
L 581.851878 140.1 
L 582.271959 64.62 
L 582.375914 140.1 
L 582.479871 114.94 
L 582.692147 165.26 
L 582.796096 165.26 
L 583.217258 240.74 
L 583.632396 240.74 
L 584.052356 165.26 
L 584.992183 165.26 
L 585.205254 140.1 
L 585.309089 140.1 
L 585.729541 64.62 
L 587.504435 64.62 
L 587.820987 114.94 
L 587.924716 114.94 
L 588.028427 165.26 
L 588.240551 140.1 
L 589.503375 140.1 
L 589.607008 165.26 
L 589.710824 140.1 
L 589.814721 165.26 
L 590.022541 140.1 
L 590.546053 140.1 
L 590.759201 114.94 
L 591.490917 114.94 
L 591.594839 140.1 
L 591.802651 114.94 
L 592.53551 114.94 
L 592.747713 89.78 
L 593.27065 89.78 
L 593.582246 39.46 
L 596.093627 39.46 
L 596.301108 165.26 
L 598.598539 165.26 
L 598.810382 190.42 
L 600.793929 190.42 
L 601.001495 215.58 
L 603.192504 215.58 
L 603.400048 291.06 
L 603.611596 240.74 
L 603.922805 240.74 
L 604.238205 190.42 
L 604.445879 190.42 
L 604.653456 215.58 
L 604.865367 190.42 
L 605.906067 190.42 
L 606.117266 165.26 
L 609.353823 165.26 
L 609.561344 140.1 
L 610.503404 140.1 
L 610.711138 165.26 
L 611.648556 165.26 
L 611.859855 140.1 
L 612.067517 165.26 
L 612.486668 165.26 
L 612.694313 190.42 
L 614.051924 190.42 
L 614.155766 215.58 
L 614.36742 190.42 
L 614.471089 190.42 
L 614.678776 165.26 
L 614.994114 165.26 
L 615.201454 140.1 
L 615.828074 140.1 
L 616.035709 165.26 
L 618.126598 165.26 
L 618.334266 140.1 
L 618.753053 140.1 
L 618.960457 114.94 
L 620.213342 114.94 
L 620.316991 89.78 
L 620.839645 190.42 
L 621.154548 190.42 
L 621.362278 165.26 
L 625.122571 165.26 
L 625.226439 190.42 
L 625.645509 114.94 
L 625.749343 114.94 
L 625.956886 64.62 
L 626.060673 64.62 
L 626.272817 39.46 
L 628.359435 39.46 
L 628.567073 165.26 
L 628.986673 165.26 
L 629.194267 140.1 
L 630.136121 140.1 
L 630.343655 114.94 
L 630.447555 114.94 
L 630.659538 140.1 
L 630.97073 89.78 
L 631.18216 114.94 
L 631.596976 114.94 
L 631.700791 165.26 
L 631.912884 140.1 
L 634.942488 140.1 
L 635.150188 114.94 
L 635.357918 114.94 
L 635.569509 140.1 
L 635.881148 140.1 
L 636.088903 165.26 
L 636.926907 165.26 
L 637.134594 140.1 
L 637.553651 140.1 
L 637.761291 114.94 
L 639.930506 114.94 
L 640.06158 265.9 
L 641.103778 265.9 
L 641.3159 114.94 
L 641.419567 114.94 
L 641.627075 140.1 
L 641.730937 140.1 
L 641.942866 165.26 
L 642.046675 165.26 
L 642.254237 240.74 
L 642.358171 240.74 
L 642.56959 291.06 
L 642.777012 291.06 
L 642.98449 240.74 
L 643.196557 240.74 
L 643.404258 265.9 
L 644.135265 265.9 
L 644.45224 215.58 
L 644.659953 215.58 
L 644.867495 190.42 
L 645.287645 190.42 
L 645.495209 215.58 
L 645.916043 215.58 
L 646.019832 190.42 
L 646.231989 89.78 
L 646.439134 114.94 
L 646.542744 114.94 
L 646.750289 89.78 
L 647.590562 89.78 
L 647.798271 114.94 
L 648.217999 114.94 
L 648.425527 165.26 
L 653.021098 165.26 
L 653.228576 190.42 
L 653.751044 190.42 
L 653.963117 165.26 
L 655.10941 165.26 
L 655.316524 140.1 
L 658.134886 140.1 
L 658.449461 190.42 
L 658.657023 190.42 
L 658.868307 240.74 
L 659.386889 240.74 
L 659.598498 165.26 
L 662.312457 165.26 
L 662.628406 64.62 
L 664.923353 64.62 
L 665.134804 165.26 
L 666.388785 165.26 
L 666.700059 114.94 
L 667.534082 114.94 
L 667.745393 165.26 
L 670.355747 165.26 
L 670.563108 140.1 
L 670.982278 140.1 
L 671.189978 165.26 
L 671.609165 165.26 
L 671.816705 190.42 
L 673.489832 190.42 
L 673.697346 215.58 
L 676.205319 215.58 
L 676.416311 165.26 
L 676.623916 165.26 
L 676.935412 215.58 
L 678.402689 215.58 
L 678.610237 165.26 
L 679.444211 165.26 
L 679.55191 140.1 
L 690.307953 140.1 
L 690.515437 165.26 
L 692.477308 165.26 
L 692.684984 140.1 
L 692.896322 165.26 
L 698.222024 165.26 
L 698.429775 140.1 
L 699.791117 140.1 
L 699.998681 114.94 
L 700.675705 114.94 
L 701.095913 39.46 
L 705.168014 39.46 
L 705.379523 165.26 
L 706.421452 165.26 
L 706.633135 140.1 
L 708.927928 140.1 
L 709.139757 165.26 
L 711.123157 165.26 
L 711.330711 190.42 
L 713.940604 190.42 
L 714.1517 165.26 
L 714.359436 165.26 
L 714.567063 215.58 
L 714.670927 215.58 
L 714.882256 291.06 
L 716.659493 291.06 
L 716.866834 140.1 
L 717.07478 114.94 
L 718.328049 114.94 
L 718.539192 140.1 
L 718.64301 140.1 
L 718.850481 114.94 
L 719.478147 114.94 
L 719.685816 89.78 
L 719.793617 89.78 
L 720.104759 165.26 
L 720.312403 140.1 
L 721.883188 140.1 
L 722.091109 64.62 
L 723.972878 64.62 
L 724.18482 89.78 
L 725.440122 89.78 
L 725.64775 165.26 
L 729.721223 165.26 
L 730.036584 114.94 
L 730.347984 114.94 
L 730.560368 89.78 
L 730.664254 89.78 
L 730.871725 64.62 
L 731.813937 64.62 
L 732.021362 114.94 
L 733.067896 114.94 
L 733.275491 89.78 
L 733.590848 89.78 
L 733.798233 64.62 
L 734.006029 165.26 
L 734.947791 165.26 
L 735.470872 64.62 
L 736.305438 64.62 
L 736.51286 39.46 
L 737.139869 39.46 
L 737.243775 64.62 
L 737.45535 39.46 
L 738.393697 39.46 
L 738.710671 140.1 
L 739.022126 39.46 
L 739.648563 39.46 
L 739.860241 89.78 
L 743.206191 89.78 
L 743.413839 64.62 
L 744.356762 64.62 
L 744.564406 39.46 
L 747.806818 39.46 
L 747.806818 39.46 
" clip-path="url(#p5435b1f509)" style="fill: none; stroke: #205781; stroke-width: 1.8; stroke-linecap: square"/>
   </g>
   <g id="patch_11">
    <path d="M 46.55 303.64 
L 46.55 26.88 
" style="fill: none; stroke: #000000; stroke-width: 0.8; stroke-linejoin: miter; stroke-linecap: square"/>
   </g>
   <g id="patch_12">
    <path d="M 781.2 303.64 
L 781.2 26.88 
" style="fill: none; stroke: #000000; stroke-width: 0.8; stroke-linejoin: miter; stroke-linecap: square"/>
   </g>
   <g id="patch_13">
    <path d="M 46.55 303.64 
L 781.2 303.64 
" style="fill: none; stroke: #000000; stroke-width: 0.8; stroke-linejoin: miter; stroke-linecap: square"/>
   </g>
   <g id="patch_14">
    <path d="M 46.55 26.88 
L 781.2 26.88 
" style="fill: none; stroke: #000000; stroke-width: 0.8; stroke-linejoin: miter; stroke-linecap: square"/>
   </g>
   <g id="text_15">
    <!-- Inventory Over Time -->
    <g transform="translate(352.28875 20.88) scale(0.12 -0.12)">
     <defs>
      <path id="DejaVuSans-4f" d="M 2522 4238 
Q 1834 4238 1429 3725 
Q 1025 3213 1025 2328 
Q 1025 1447 1429 934 
Q 1834 422 2522 422 
Q 3209 422 3611 934 
Q 4013 1447 4013 2328 
Q 4013 3213 3611 3725 
Q 3209 4238 2522 4238 
z
M 2522 4750 
Q 3503 4750 4090 4092 
Q 4678 3434 4678 2328 
Q 4678 1225 4090 567 
Q 3503 -91 2522 -91 
Q 1538 -91 948 565 
Q 359 1222 359 2328 
Q 359 3434 948 4092 
Q 1538 4750 2522 4750 
z
" transform="scale(0.015625)"/>
      <path id="DejaVuSans-54" d="M -19 4666 
L 3928 4666 
L 3928 4134 
L 2272 4134 
L 2272 0 
L 1638 0 
L 1638 4134 
L -19 4134 
L -19 4666 
z
" transform="scale(0.015625)"/>
      <path id="DejaVuSans-69" d="M 603 3500 
L 1178 3500 
L 1178 0 
L 603 0 
L 603 3500 
z
M 603 4863 
L 1178 4863 
L 1178 4134 
L 603 4134 
L 603 4863 
z
" transform="scale(0.015625)"/>
      <path id="DejaVuSans-6d" d="M 3328 2828 
Q 3544 3216 3844 3400 
Q 4144 3584 4550 3584 
Q 5097 3584 5394 3201 
Q 5691 2819 5691 2113 
L 5691 0 
L 5113 0 
L 5113 2094 
Q 5113 2597 4934 2840 
Q 4756 3084 4391 3084 
Q 3944 3084 3684 2787 
Q 3425 2491 3425 1978 
L 3425 0 
L 2847 0 
L 2847 2094 
Q 2847 2600 2669 2842 
Q 2491 3084 2119 3084 
Q 1678 3084 1418 2786 
Q 1159 2488 1159 1978 
L 1159 0 
L 581 0 
L 581 3500 
L 1159 3500 
L 1159 2956 
Q 1356 3278 1631 3431 
Q 1906 3584 2284 3584 
Q 2666 3584 2933 3390 
Q 3200 3197 3328 2828 
z
" transform="scale(0.015625)"/>
     </defs>
     <use xlink:href="#DejaVuSans-49"/>
     <use xlink:href="#DejaVuSans-6e" x="29.492188"/>
     <use xlink:href="#DejaVuSans-76" x="92.871094"/>
     <use xlink:href="#DejaVuSans-65" x="152.050781"/>
     <use xlink:href="#DejaVuSans-6e" x="213.574219"/>
     <use xlink:href="#DejaVuSans-74" x="276.953125"/>
     <use xlink:href="#DejaVuSans-6f" x="316.162109"/>
     <use xlink:href="#DejaVuSans-72" x="377.34375"/>
     <use xlink:href="#DejaVuSans-79" x="418.457031"/>
     <use xlink:href="#DejaVuSans-20" x="477.636719"/>
     <use xlink:href="#DejaVuSans-4f" x="509.423828"/>
     <use xlink:href="#DejaVuSans-76" x="588.134766"/>
     <use xlink:href="#DejaVuSans-65" x="647.314453"/>
     <use xlink:href="#DejaVuSans-72" x="708.837891"/>
     <use xlink:href="#DejaVuSans-20" x="749.951172"/>
     <use xlink:href="#DejaVuSans-54" x="781.738281"/>
     <use xlink:href="#DejaVuSans-69" x="839.697266"/>
     <use xlink:href="#DejaVuSans-6d" x="867.480469"/>
     <use xlink:href="#DejaVuSans-65" x="964.892578"/>
    </g>
   </g>
  </g>
 </g>
 <defs>
  <clipPath id="p5435b1f509">
   <rect x="46.55" y="26.88" width="734.65" height="276.76"/>
  </clipPath>
 </defs>
</svg>
