<?xml version="1.0" encoding="utf-8" standalone="no"?>
<!DOCTYPE svg PUBLIC "-//W3C//DTD SVG 1.1//EN"
  "http://www.w3.org/Graphics/SVG/1.1/DTD/svg11.dtd">
<svg xmlns:xlink="http://www.w3.org/1999/xlink" width="720pt" height="432pt" viewBox="0 0 720 432" xmlns="http://www.w3.org/2000/svg" version="1.1">
 <metadata>
  <rdf:RDF xmlns:dc="http://purl.org/dc/elements/1.1/" xmlns:cc="http://creativecommons.org/ns#" xmlns:rdf="http://www.w3.org/1999/02/22-rdf-syntax-ns#">
   <cc:Work>
    <dc:type rdf:resource="http://purl.org/dc/dcmitype/StillImage"/>
    <dc:date>2026-04-08T14:32:39.357484</dc:date>
    <dc:format>image/svg+xml</dc:format>
    <dc:creator>
     <cc:Agent>
      <dc:title>Matplotlib v3.9.2, https://matplotlib.org/</dc:title>
     </cc:Agent>
    </dc:creator>
   </cc:Work>
  </rdf:RDF>
 </metadata>
 <defs>
  <style type="text/css">*{stroke-linejoin: round; stroke-linecap: butt}</style>
 </defs>
 <g id="figure_1">
  <g id="patch_1">
   <path d="M 0 432 
L 720 432 
L 720 0 
L 0 0 
z
" style="fill: #ffffff"/>
  </g>
  <g id="axes_1">
   <g id="patch_2">
    <path d="M 46.55 390.04 
L 709.2 390.04 
L 709.2 26.88 
L 46.55 26.88 
z
" style="fill: #ffffff"/>
   </g>
   <g id="matplotlib.axis_1">
    <g id="xtick_1">
     <g id="line2d_1">
      <path d="M 76.670455 390.04 
L 76.670455 26.88 
" clip-path="url(#p98b9add768)" style="fill: none; stroke: #b0b0b0; stroke-width: 0.8; stroke-linecap: square"/>
     </g>
     <g id="line2d_2">
      <defs>
       <path id="md67edc59bc" d="M 0 0 
L 0 3.5 
" style="stroke: #000000; stroke-width: 0.8"/>
      </defs>
      <g>
       <use xlink:href="#md67edc59bc" x="76.670455" y="390.04" style="stroke: #000000; stroke-width: 0.8"/>
      </g>
     </g>
     <g id="text_1">
      <!-- 0 -->
      <g transform="translate(73.489205 404.638438) scale(0.1 -0.1)">
       <defs>
        <path id="DejaVuSans-30" d="M 2034 4250 
Q 1547 4250 1301 3770 
Q 1056 3291 1056 2328 
Q 1056 1369 1301 889 
Q 1547 409 2034 409 
Q 2525 409 2770 889 
Q 3016 1369 3016 2328 
Q 3016 3291 2770 3770 
Q 2525 4250 2034 4250 
z
M 2034 4750 
Q 2819 4750 3233 4129 
Q 3647 3509 3647 2328 
Q 3647 1150 3233 529 
Q 2819 -91 2034 -91 
Q 1250 -91 836 529 
Q 422 1150 422 2328 
Q 422 3509 836 4129 
Q 1250 4750 2034 4750 
z
" transform="scale(0.015625)"/>
       </defs>
       <use xlink:href="#DejaVuSans-30"/>
      </g>
     </g>
    </g>
    <g id="xtick_2">
     <g id="line2d_3">
      <path d="M 197.478205 390.04 
L 197.478205 26.88 
" clip-path="url(#p98b9add768)" style="fill: none; stroke: #b0b0b0; stroke-width: 0.8; stroke-linecap: square"/>
     </g>
     <g id="line2d_4">
      <g>
       <use xlink:href="#md67edc59bc" x="197.478205" y="390.04" style="stroke: #000000; stroke-width: 0.8"/>
      </g>
     </g>
     <g id="text_2">
      <!-- 10000 -->
      <g transform="translate(181.571955 404.638438) scale(0.1 -0.1)">
       <defs>
        <path id="DejaVuSans-31" d="M 794 531 
L 1825 531 
L 1825 4091 
L 703 3866 
L 703 4441 
L 1819 4666 
L 2450 4666 
L 2450 531 
L 3481 531 
L 3481 0 
L 794 0 
L 794 531 
z
" transform="scale(0.015625)"/>
       </defs>
       <use xlink:href="#DejaVuSans-31"/>
       <use xlink:href="#DejaVuSans-30" x="63.623047"/>
       <use xlink:href="#DejaVuSans-30" x="127.246094"/>
       <use xlink:href="#DejaVuSans-30" x="190.869141"/>
       <use xlink:href="#DejaVuSans-30" x="254.492188"/>
      </g>
     </g>
    </g>
    <g id="xtick_3">
     <g id="line2d_5">
      <path d="M 318.285956 390.04 
L 318.285956 26.88 
" clip-path="url(#p98b9add768)" style="fill: none; stroke: #b0b0b0; stroke-width: 0.8; stroke-linecap: square"/>
     </g>
     <g id="line2d_6">
      <g>
       <use xlink:href="#md67edc59bc" x="318.285956" y="390.04" style="stroke: #000000; stroke-width: 0.8"/>
      </g>
     </g>
     <g id="text_3">
      <!-- 20000 -->
      <g transform="translate(302.379706 404.638438) scale(0.1 -0.1)">
       <defs>
        <path id="DejaVuSans-32" d="M 1228 531 
L 3431 531 
L 3431 0 
L 469 0 
L 469 531 
Q 828 903 1448 1529 
Q 2069 2156 2228 2338 
Q 2531 2678 2651 2914 
Q 2772 3150 2772 3378 
Q 2772 3750 2511 3984 
Q 2250 4219 1831 4219 
Q 1534 4219 1204 4116 
Q 875 4013 500 3803 
L 500 4441 
Q 881 4594 1212 4672 
Q 1544 4750 1819 4750 
Q 2544 4750 2975 4387 
Q 3406 4025 3406 3419 
Q 3406 3131 3298 2873 
Q 3191 2616 2906 2266 
Q 2828 2175 2409 1742 
Q 1991 1309 1228 531 
z
" transform="scale(0.015625)"/>
       </defs>
       <use xlink:href="#DejaVuSans-32"/>
       <use xlink:href="#DejaVuSans-30" x="63.623047"/>
       <use xlink:href="#DejaVuSans-30" x="127.246094"/>
       <use xlink:href="#DejaVuSans-30" x="190.869141"/>
       <use xlink:href="#DejaVuSans-30" x="254.492188"/>
      </g>
     </g>
    </g>
    <g id="xtick_4">
     <g id="line2d_7">
      <path d="M 439.093706 390.04 
L 439.093706 26.88 
" clip-path="url(#p98b9add768)" style="fill: none; stroke: #b0b0b0; stroke-width: 0.8; stroke-linecap: square"/>
     </g>
     <g id="line2d_8">
      <g>
       <use xlink:href="#md67edc59bc" x="439.093706" y="390.04" style="stroke: #000000; stroke-width: 0.8"/>
      </g>
     </g>
     <g id="text_4">
      <!-- 30000 -->
      <g transform="translate(423.187456 404.638438) scale(0.1 -0.1)">
       <defs>
        <path id="DejaVuSans-33" d="M 2597 2516 
Q 3050 2419 3304 2112 
Q 3559 1806 3559 1356 
Q 3559 666 3084 287 
Q 2609 -91 1734 -91 
Q 1441 -91 1130 -33 
Q 819 25 488 141 
L 488 750 
Q 750 597 1062 519 
Q 1375 441 1716 441 
Q 2309 441 2620 675 
Q 2931 909 2931 1356 
Q 2931 1769 2642 2001 
Q 2353 2234 1838 2234 
L 1294 2234 
L 1294 2753 
L 1863 2753 
Q 2328 2753 2575 2939 
Q 2822 3125 2822 3475 
Q 2822 3834 2567 4026 
Q 2313 4219 1838 4219 
Q 1578 4219 1281 4162 
Q 984 4106 628 3988 
L 628 4550 
Q 988 4650 1302 4700 
Q 1616 4750 1894 4750 
Q 2613 4750 3031 4423 
Q 3450 4097 3450 3541 
Q 3450 3153 3228 2886 
Q 3006 2619 2597 2516 
z
" transform="scale(0.015625)"/>
       </defs>
       <use xlink:href="#DejaVuSans-33"/>
       <use xlink:href="#DejaVuSans-30" x="63.623047"/>
       <use xlink:href="#DejaVuSans-30" x="127.246094"/>
       <use xlink:href="#DejaVuSans-30" x="190.869141"/>
       <use xlink:href="#DejaVuSans-30" x="254.492188"/>
      </g>
     </g>
    </g>
    <g id="xtick_5">
     <g id="line2d_9">
      <path d="M 559.901456 390.04 
L 559.901456 26.88 
" clip-path="url(#p98b9add768)" style="fill: none; stroke: #b0b0b0; stroke-width: 0.8; stroke-linecap: square"/>
     </g>
     <g id="line2d_10">
      <g>
       <use xlink:href="#md67edc59bc" x="559.901456" y="390.04" style="stroke: #000000; stroke-width: 0.8"/>
      </g>
     </g>
     <g id="text_5">
      <!-- 40000 -->
      <g transform="translate(543.995206 404.638438) scale(0.1 -0.1)">
       <defs>
        <path id="DejaVuSans-34" d="M 2419 4116 
L 825 1625 
L 2419 1625 
L 2419 4116 
z
M 2253 4666 
L 3047 4666 
L 3047 1625 
L 3713 1625 
L 3713 1100 
L 3047 1100 
L 3047 0 
L 2419 0 
L 2419 1100 
L 313 1100 
L 313 1709 
L 2253 4666 
z
" transform="scale(0.015625)"/>
       </defs>
       <use xlink:href="#DejaVuSans-34"/>
       <use xlink:href="#DejaVuSans-30" x="63.623047"/>
       <use xlink:href="#DejaVuSans-30" x="127.246094"/>
       <use xlink:href="#DejaVuSans-30" x="190.869141"/>
       <use xlink:href="#DejaVuSans-30" x="254.492188"/>
      </g>
     </g>
    </g>
    <g id="xtick_6">
     <g id="line2d_11">
      <path d="M 680.709207 390.04 
L 680.709207 26.88 
" clip-path="url(#p98b9add768)" style="fill: none; stroke: #b0b0b0; stroke-width: 0.8; stroke-linecap: square"/>
     </g>
     <g id="line2d_12">
      <g>
       <use xlink:href="#md67edc59bc" x="680.709207" y="390.04" style="stroke: #000000; stroke-width: 0.8"/>
      </g>
     </g>
     <g id="text_6">
      <!-- 50000 -->
      <g transform="translate(664.802957 404.638438) scale(0.1 -0.1)">
       <defs>
        <path id="DejaVuSans-35" d="M 691 4666 
L 3169 4666 
L 3169 4134 
L 1269 4134 
L 1269 2991 
Q 1406 3038 1543 3061 
Q 1681 3084 1819 3084 
Q 2600 3084 3056 2656 
Q 3513 2228 3513 1497 
Q 3513 744 3044 326 
Q 2575 -91 1722 -91 
Q 1428 -91 1123 -41 
Q 819 9 494 109 
L 494 744 
Q 775 591 1075 516 
Q 1375 441 1709 441 
Q 2250 441 2565 725 
Q 2881 1009 2881 1497 
Q 2881 1984 2565 2268 
Q 2250 2553 1709 2553 
Q 1456 2553 1204 2497 
Q 953 2441 691 2322 
L 691 4666 
z
" transform="scale(0.015625)"/>
       </defs>
       <use xlink:href="#DejaVuSans-35"/>
       <use xlink:href="#DejaVuSans-30" x="63.623047"/>
       <use xlink:href="#DejaVuSans-30" x="127.246094"/>
       <use xlink:href="#DejaVuSans-30" x="190.869141"/>
       <use xlink:href="#DejaVuSans-30" x="254.492188"/>
      </g>
     </g>
    </g>
    <g id="text_7">
     <!-- Elapsed Trading Seconds -->
     <g transform="translate(315.705469 418.316562) scale(0.1 -0.1)">
      <defs>
       <path id="DejaVuSans-45" d="M 628 4666 
L 3578 4666 
L 3578 4134 
L 1259 4134 
L 1259 2753 
L 3481 2753 
L 3481 2222 
L 1259 2222 
L 1259 531 
L 3634 531 
L 3634 0 
L 628 0 
L 628 4666 
z
" transform="scale(0.015625)"/>
       <path id="DejaVuSans-6c" d="M 603 4863 
L 1178 4863 
L 1178 0 
L 603 0 
L 603 4863 
z
" transform="scale(0.015625)"/>
       <path id="DejaVuSans-61" d="M 2194 1759 
Q 1497 1759 1228 1600 
Q 959 1441 959 1056 
Q 959 750 1161 570 
Q 1363 391 1709 391 
Q 2188 391 2477 730 
Q 2766 1069 2766 1631 
L 2766 1759 
L 2194 1759 
z
M 3341 1997 
L 3341 0 
L 2766 0 
L 2766 531 
Q 2569 213 2275 61 
Q 1981 -91 1556 -91 
Q 1019 -91 701 211 
Q 384 513 384 1019 
Q 384 1609 779 1909 
Q 1175 2209 1959 2209 
L 2766 2209 
L 2766 2266 
Q 2766 2663 2505 2880 
Q 2244 3097 1772 3097 
Q 1472 3097 1187 3025 
Q 903 2953 641 2809 
L 641 3341 
Q 956 3463 1253 3523 
Q 1550 3584 1831 3584 
Q 2591 3584 2966 3190 
Q 3341 2797 3341 1997 
z
" transform="scale(0.015625)"/>
       <path id="DejaVuSans-70" d="M 1159 525 
L 1159 -1331 
L 581 -1331 
L 581 3500 
L 1159 3500 
L 1159 2969 
Q 1341 3281 1617 3432 
Q 1894 3584 2278 3584 
Q 2916 3584 3314 3078 
Q 3713 2572 3713 1747 
Q 3713 922 3314 415 
Q 2916 -91 2278 -91 
Q 1894 -91 1617 61 
Q 1341 213 1159 525 
z
M 3116 1747 
Q 3116 2381 2855 2742 
Q 2594 3103 2138 3103 
Q 1681 3103 1420 2742 
Q 1159 2381 1159 1747 
Q 1159 1113 1420 752 
Q 1681 391 2138 391 
Q 2594 391 2855 752 
Q 3116 1113 3116 1747 
z
" transform="scale(0.015625)"/>
       <path id="DejaVuSans-73" d="M 2834 3397 
L 2834 2853 
Q 2591 2978 2328 3040 
Q 2066 3103 1784 3103 
Q 1356 3103 1142 2972 
Q 928 2841 928 2578 
Q 928 2378 1081 2264 
Q 1234 2150 1697 2047 
L 1894 2003 
Q 2506 1872 2764 1633 
Q 3022 1394 3022 966 
Q 3022 478 2636 193 
Q 2250 -91 1575 -91 
Q 1294 -91 989 -36 
Q 684 19 347 128 
L 347 722 
Q 666 556 975 473 
Q 1284 391 1588 391 
Q 1994 391 2212 530 
Q 2431 669 2431 922 
Q 2431 1156 2273 1281 
Q 2116 1406 1581 1522 
L 1381 1569 
Q 847 1681 609 1914 
Q 372 2147 372 2553 
Q 372 3047 722 3315 
Q 1072 3584 1716 3584 
Q 2034 3584 2315 3537 
Q 2597 3491 2834 3397 
z
" transform="scale(0.015625)"/>
       <path id="DejaVuSans-65" d="M 3597 1894 
L 3597 1613 
L 953 1613 
Q 991 1019 1311 708 
Q 1631 397 2203 397 
Q 2534 397 2845 478 
Q 3156 559 3463 722 
L 3463 178 
Q 3153 47 2828 -22 
Q 2503 -91 2169 -91 
Q 1331 -91 842 396 
Q 353 884 353 1716 
Q 353 2575 817 3079 
Q 1281 3584 2069 3584 
Q 2775 3584 3186 3129 
Q 3597 2675 3597 1894 
z
M 3022 2063 
Q 3016 2534 2758 2815 
Q 2500 3097 2075 3097 
Q 1594 3097 1305 2825 
Q 1016 2553 972 2059 
L 3022 2063 
z
" transform="scale(0.015625)"/>
       <path id="DejaVuSans-64" d="M 2906 2969 
L 2906 4863 
L 3481 4863 
L 3481 0 
L 2906 0 
L 2906 525 
Q 2725 213 2448 61 
Q 2172 -91 1784 -91 
Q 1150 -91 751 415 
Q 353 922 353 1747 
Q 353 2572 751 3078 
Q 1150 3584 1784 3584 
Q 2172 3584 2448 3432 
Q 2725 3281 2906 2969 
z
M 947 1747 
Q 947 1113 1208 752 
Q 1469 391 1925 391 
Q 2381 391 2643 752 
Q 2906 1113 2906 1747 
Q 2906 2381 2643 2742 
Q 2381 3103 1925 3103 
Q 1469 3103 1208 2742 
Q 947 2381 947 1747 
z
" transform="scale(0.015625)"/>
       <path id="DejaVuSans-20" transform="scale(0.015625)"/>
       <path id="DejaVuSans-54" d="M -19 4666 
L 3928 4666 
L 3928 4134 
L 2272 4134 
L 2272 0 
L 1638 0 
L 1638 4134 
L -19 4134 
L -19 4666 
z
" transform="scale(0.015625)"/>
       <path id="DejaVuSans-72" d="M 2631 2963 
Q 2534 3019 2420 3045 
Q 2306 3072 2169 3072 
Q 1681 3072 1420 2755 
Q 1159 2438 1159 1844 
L 1159 0 
L 581 0 
L 581 3500 
L 1159 3500 
L 1159 2956 
Q 1341 3275 1631 3429 
Q 1922 3584 2338 3584 
Q 2397 3584 2469 3576 
Q 2541 3569 2628 3553 
L 2631 2963 
z
" transform="scale(0.015625)"/>
       <path id="DejaVuSans-69" d="M 603 3500 
L 1178 3500 
L 1178 0 
L 603 0 
L 603 3500 
z
M 603 4863 
L 1178 4863 
L 1178 4134 
L 603 4134 
L 603 4863 
z
" transform="scale(0.015625)"/>
       <path id="DejaVuSans-6e" d="M 3513 2113 
L 3513 0 
L 2938 0 
L 2938 2094 
Q 2938 2591 2744 2837 
Q 2550 3084 2163 3084 
Q 1697 3084 1428 2787 
Q 1159 2491 1159 1978 
L 1159 0 
L 581 0 
L 581 3500 
L 1159 3500 
L 1159 2956 
Q 1366 3272 1645 3428 
Q 1925 3584 2291 3584 
Q 2894 3584 3203 3211 
Q 3513 2838 3513 2113 
z
" transform="scale(0.015625)"/>
       <path id="DejaVuSans-67" d="M 2906 1791 
Q 2906 2416 2648 2759 
Q 2391 3103 1925 3103 
Q 1463 3103 1205 2759 
Q 947 2416 947 1791 
Q 947 1169 1205 825 
Q 1463 481 1925 481 
Q 2391 481 2648 825 
Q 2906 1169 2906 1791 
z
M 3481 434 
Q 3481 -459 3084 -895 
Q 2688 -1331 1869 -1331 
Q 1566 -1331 1297 -1286 
Q 1028 -1241 775 -1147 
L 775 -588 
Q 1028 -725 1275 -790 
Q 1522 -856 1778 -856 
Q 2344 -856 2625 -561 
Q 2906 -266 2906 331 
L 2906 616 
Q 2728 306 2450 153 
Q 2172 0 1784 0 
Q 1141 0 747 490 
Q 353 981 353 1791 
Q 353 2603 747 3093 
Q 1141 3584 1784 3584 
Q 2172 3584 2450 3431 
Q 2728 3278 2906 2969 
L 2906 3500 
L 3481 3500 
L 3481 434 
z
" transform="scale(0.015625)"/>
       <path id="DejaVuSans-53" d="M 3425 4513 
L 3425 3897 
Q 3066 4069 2747 4153 
Q 2428 4238 2131 4238 
Q 1616 4238 1336 4038 
Q 1056 3838 1056 3469 
Q 1056 3159 1242 3001 
Q 1428 2844 1947 2747 
L 2328 2669 
Q 3034 2534 3370 2195 
Q 3706 1856 3706 1288 
Q 3706 609 3251 259 
Q 2797 -91 1919 -91 
Q 1588 -91 1214 -16 
Q 841 59 441 206 
L 441 856 
Q 825 641 1194 531 
Q 1563 422 1919 422 
Q 2459 422 2753 634 
Q 3047 847 3047 1241 
Q 3047 1584 2836 1778 
Q 2625 1972 2144 2069 
L 1759 2144 
Q 1053 2284 737 2584 
Q 422 2884 422 3419 
Q 422 4038 858 4394 
Q 1294 4750 2059 4750 
Q 2388 4750 2728 4690 
Q 3069 4631 3425 4513 
z
" transform="scale(0.015625)"/>
       <path id="DejaVuSans-63" d="M 3122 3366 
L 3122 2828 
Q 2878 2963 2633 3030 
Q 2388 3097 2138 3097 
Q 1578 3097 1268 2742 
Q 959 2388 959 1747 
Q 959 1106 1268 751 
Q 1578 397 2138 397 
Q 2388 397 2633 464 
Q 2878 531 3122 666 
L 3122 134 
Q 2881 22 2623 -34 
Q 2366 -91 2075 -91 
Q 1284 -91 818 406 
Q 353 903 353 1747 
Q 353 2603 823 3093 
Q 1294 3584 2113 3584 
Q 2378 3584 2631 3529 
Q 2884 3475 3122 3366 
z
" transform="scale(0.015625)"/>
       <path id="DejaVuSans-6f" d="M 1959 3097 
Q 1497 3097 1228 2736 
Q 959 2375 959 1747 
Q 959 1119 1226 758 
Q 1494 397 1959 397 
Q 2419 397 2687 759 
Q 2956 1122 2956 1747 
Q 2956 2369 2687 2733 
Q 2419 3097 1959 3097 
z
M 1959 3584 
Q 2709 3584 3137 3096 
Q 3566 2609 3566 1747 
Q 3566 888 3137 398 
Q 2709 -91 1959 -91 
Q 1206 -91 779 398 
Q 353 888 353 1747 
Q 353 2609 779 3096 
Q 1206 3584 1959 3584 
z
" transform="scale(0.015625)"/>
      </defs>
      <use xlink:href="#DejaVuSans-45"/>
      <use xlink:href="#DejaVuSans-6c" x="63.183594"/>
      <use xlink:href="#DejaVuSans-61" x="90.966797"/>
      <use xlink:href="#DejaVuSans-70" x="152.246094"/>
      <use xlink:href="#DejaVuSans-73" x="215.722656"/>
      <use xlink:href="#DejaVuSans-65" x="267.822266"/>
      <use xlink:href="#DejaVuSans-64" x="329.345703"/>
      <use xlink:href="#DejaVuSans-20" x="392.822266"/>
      <use xlink:href="#DejaVuSans-54" x="424.609375"/>
      <use xlink:href="#DejaVuSans-72" x="470.943359"/>
      <use xlink:href="#DejaVuSans-61" x="512.056641"/>
      <use xlink:href="#DejaVuSans-64" x="573.335938"/>
      <use xlink:href="#DejaVuSans-69" x="636.8125"/>
      <use xlink:href="#DejaVuSans-6e" x="664.595703"/>
      <use xlink:href="#DejaVuSans-67" x="727.974609"/>
      <use xlink:href="#DejaVuSans-20" x="791.451172"/>
      <use xlink:href="#DejaVuSans-53" x="823.238281"/>
      <use xlink:href="#DejaVuSans-65" x="886.714844"/>
      <use xlink:href="#DejaVuSans-63" x="948.238281"/>
      <use xlink:href="#DejaVuSans-6f" x="1003.21875"/>
      <use xlink:href="#DejaVuSans-6e" x="1064.400391"/>
      <use xlink:href="#DejaVuSans-64" x="1127.779297"/>
      <use xlink:href="#DejaVuSans-73" x="1191.255859"/>
     </g>
    </g>
   </g>
   <g id="matplotlib.axis_2">
    <g id="ytick_1">
     <g id="line2d_13">
      <path d="M 46.55 340.518182 
L 709.2 340.518182 
" clip-path="url(#p98b9add768)" style="fill: none; stroke: #b0b0b0; stroke-width: 0.8; stroke-linecap: square"/>
     </g>
     <g id="line2d_14">
      <defs>
       <path id="m1f4a6a1ba6" d="M 0 0 
L -3.5 0 
" style="stroke: #000000; stroke-width: 0.8"/>
      </defs>
      <g>
       <use xlink:href="#m1f4a6a1ba6" x="46.55" y="340.518182" style="stroke: #000000; stroke-width: 0.8"/>
      </g>
     </g>
     <g id="text_8">
      <!-- −4 -->
      <g transform="translate(24.807813 344.317401) scale(0.1 -0.1)">
       <defs>
        <path id="DejaVuSans-2212" d="M 678 2272 
L 4684 2272 
L 4684 1741 
L 678 1741 
L 678 2272 
z
" transform="scale(0.015625)"/>
       </defs>
       <use xlink:href="#DejaVuSans-2212"/>
       <use xlink:href="#DejaVuSans-34" x="83.789062"/>
      </g>
     </g>
    </g>
    <g id="ytick_2">
     <g id="line2d_15">
      <path d="M 46.55 274.489091 
L 709.2 274.489091 
" clip-path="url(#p98b9add768)" style="fill: none; stroke: #b0b0b0; stroke-width: 0.8; stroke-linecap: square"/>
     </g>
     <g id="line2d_16">
      <g>
       <use xlink:href="#m1f4a6a1ba6" x="46.55" y="274.489091" style="stroke: #000000; stroke-width: 0.8"/>
      </g>
     </g>
     <g id="text_9">
      <!-- −2 -->
      <g transform="translate(24.807813 278.28831) scale(0.1 -0.1)">
       <use xlink:href="#DejaVuSans-2212"/>
       <use xlink:href="#DejaVuSans-32" x="83.789062"/>
      </g>
     </g>
    </g>
    <g id="ytick_3">
     <g id="line2d_17">
      <path d="M 46.55 208.46 
L 709.2 208.46 
" clip-path="url(#p98b9add768)" style="fill: none; stroke: #b0b0b0; stroke-width: 0.8; stroke-linecap: square"/>
     </g>
     <g id="line2d_18">
      <g>
       <use xlink:href="#m1f4a6a1ba6" x="46.55" y="208.46" style="stroke: #000000; stroke-width: 0.8"/>
      </g>
     </g>
     <g id="text_10">
      <!-- 0 -->
      <g transform="translate(33.1875 212.259219) scale(0.1 -0.1)">
       <use xlink:href="#DejaVuSans-30"/>
      </g>
     </g>
    </g>
    <g id="ytick_4">
     <g id="line2d_19">
      <path d="M 46.55 142.430909 
L 709.2 142.430909 
" clip-path="url(#p98b9add768)" style="fill: none; stroke: #b0b0b0; stroke-width: 0.8; stroke-linecap: square"/>
     </g>
     <g id="line2d_20">
      <g>
       <use xlink:href="#m1f4a6a1ba6" x="46.55" y="142.430909" style="stroke: #000000; stroke-width: 0.8"/>
      </g>
     </g>
     <g id="text_11">
      <!-- 2 -->
      <g transform="translate(33.1875 146.230128) scale(0.1 -0.1)">
       <use xlink:href="#DejaVuSans-32"/>
      </g>
     </g>
    </g>
    <g id="ytick_5">
     <g id="line2d_21">
      <path d="M 46.55 76.401818 
L 709.2 76.401818 
" clip-path="url(#p98b9add768)" style="fill: none; stroke: #b0b0b0; stroke-width: 0.8; stroke-linecap: square"/>
     </g>
     <g id="line2d_22">
      <g>
       <use xlink:href="#m1f4a6a1ba6" x="46.55" y="76.401818" style="stroke: #000000; stroke-width: 0.8"/>
      </g>
     </g>
     <g id="text_12">
      <!-- 4 -->
      <g transform="translate(33.1875 80.201037) scale(0.1 -0.1)">
       <use xlink:href="#DejaVuSans-34"/>
      </g>
     </g>
    </g>
    <g id="text_13">
     <!-- Contracts -->
     <g transform="translate(18.728125 232.573281) rotate(-90) scale(0.1 -0.1)">
      <defs>
       <path id="DejaVuSans-43" d="M 4122 4306 
L 4122 3641 
Q 3803 3938 3442 4084 
Q 3081 4231 2675 4231 
Q 1875 4231 1450 3742 
Q 1025 3253 1025 2328 
Q 1025 1406 1450 917 
Q 1875 428 2675 428 
Q 3081 428 3442 575 
Q 3803 722 4122 1019 
L 4122 359 
Q 3791 134 3420 21 
Q 3050 -91 2638 -91 
Q 1578 -91 968 557 
Q 359 1206 359 2328 
Q 359 3453 968 4101 
Q 1578 4750 2638 4750 
Q 3056 4750 3426 4639 
Q 3797 4528 4122 4306 
z
" transform="scale(0.015625)"/>
       <path id="DejaVuSans-74" d="M 1172 4494 
L 1172 3500 
L 2356 3500 
L 2356 3053 
L 1172 3053 
L 1172 1153 
Q 1172 725 1289 603 
Q 1406 481 1766 481 
L 2356 481 
L 2356 0 
L 1766 0 
Q 1100 0 847 248 
Q 594 497 594 1153 
L 594 3053 
L 172 3053 
L 172 3500 
L 594 3500 
L 594 4494 
L 1172 4494 
z
" transform="scale(0.015625)"/>
      </defs>
      <use xlink:href="#DejaVuSans-43"/>
      <use xlink:href="#DejaVuSans-6f" x="69.824219"/>
      <use xlink:href="#DejaVuSans-6e" x="131.005859"/>
      <use xlink:href="#DejaVuSans-74" x="194.384766"/>
      <use xlink:href="#DejaVuSans-72" x="233.59375"/>
      <use xlink:href="#DejaVuSans-61" x="274.707031"/>
      <use xlink:href="#DejaVuSans-63" x="335.986328"/>
      <use xlink:href="#DejaVuSans-74" x="390.966797"/>
      <use xlink:href="#DejaVuSans-73" x="430.175781"/>
     </g>
    </g>
   </g>
   <g id="line2d_23">
    <path d="M 76.670455 241.474545 
L 76.670455 373.532727 
L 82.270533 373.532727 
L 82.391344 340.518182 
L 83.731703 340.518182 
L 83.980831 274.489091 
L 92.262241 274.489091 
L 92.383223 241.474545 
L 96.765124 241.474545 
L 96.885826 208.46 
L 99.450625 208.46 
L 99.571563 241.474545 
L 99.939303 241.474545 
L 100.060251 274.489091 
L 100.549018 274.489091 
L 100.669997 307.503636 
L 100.791086 307.503636 
L 100.911999 340.518182 
L 102.981029 340.518182 
L 103.102099 208.46 
L 104.803059 208.46 
L 104.937417 175.445455 
L 105.058277 175.445455 
L 105.179345 208.46 
L 105.788634 208.46 
L 105.909699 175.445455 
L 106.030598 208.46 
L 110.289536 208.46 
L 110.410588 175.445455 
L 110.652376 175.445455 
L 110.777874 142.430909 
L 111.508471 142.430909 
L 111.629634 109.416364 
L 112.11348 109.416364 
L 112.246929 76.401818 
L 115.772629 76.401818 
L 115.898241 43.387273 
L 118.458394 43.387273 
L 118.579469 76.401818 
L 121.622544 76.401818 
L 121.748185 43.387273 
L 123.814331 43.387273 
L 123.939952 76.401818 
L 124.303069 76.401818 
L 124.423977 208.46 
L 124.544778 142.430909 
L 124.670299 142.430909 
L 124.791432 175.445455 
L 125.0333 175.445455 
L 125.154216 208.46 
L 127.717548 208.46 
L 127.83851 241.474545 
L 128.810818 241.474545 
L 128.931397 208.46 
L 134.042849 208.46 
L 134.178991 175.445455 
L 136.733156 175.445455 
L 136.854192 208.46 
L 137.221645 208.46 
L 137.342426 241.474545 
L 138.435476 241.474545 
L 138.561037 274.489091 
L 138.923688 274.489091 
L 139.044771 208.46 
L 140.505031 208.46 
L 140.625889 175.445455 
L 142.94991 175.445455 
L 143.070665 208.46 
L 143.191693 175.445455 
L 145.014192 175.445455 
L 145.13949 208.46 
L 151.355148 208.46 
L 151.475847 241.474545 
L 158.546419 241.474545 
L 158.667431 208.46 
L 159.766915 208.46 
L 159.766915 175.445455 
L 163.176656 175.445455 
L 163.2975 208.46 
L 164.153626 208.46 
L 164.274585 175.445455 
L 166.466704 175.445455 
L 166.587714 208.46 
L 176.943346 208.46 
L 177.064202 241.474545 
L 177.190872 241.474545 
L 177.311884 274.489091 
L 177.795518 274.489091 
L 178.04287 340.518182 
L 178.163778 307.503636 
L 178.651883 307.503636 
L 178.772816 208.46 
L 182.307765 208.46 
L 182.428612 175.445455 
L 182.670706 175.445455 
L 182.912514 241.474545 
L 183.400304 241.474545 
L 183.521096 208.46 
L 195.464089 208.46 
L 195.585042 175.445455 
L 196.196181 175.445455 
L 196.317157 208.46 
L 198.386534 208.46 
L 198.507351 241.474545 
L 200.45112 241.474545 
L 200.576444 208.46 
L 201.911297 208.46 
L 202.03681 175.445455 
L 204.718002 175.445455 
L 204.838972 208.46 
L 205.085565 208.46 
L 205.206541 175.445455 
L 211.054477 175.445455 
L 211.175455 208.46 
L 212.878533 208.46 
L 213.004035 175.445455 
L 219.093806 175.445455 
L 219.214634 142.430909 
L 223.475715 142.430909 
L 223.596582 109.416364 
L 224.206222 109.416364 
L 224.327229 142.430909 
L 224.448306 142.430909 
L 224.694732 274.489091 
L 226.03545 274.489091 
L 226.161043 208.46 
L 226.403316 208.46 
L 226.645247 274.489091 
L 244.197942 274.489091 
L 244.444816 208.46 
L 248.580426 208.46 
L 248.701204 175.445455 
L 252.472968 175.445455 
L 252.593974 208.46 
L 252.71494 208.46 
L 252.835671 307.503636 
L 253.203079 307.503636 
L 253.324101 208.46 
L 254.297525 208.46 
L 254.418258 175.445455 
L 254.906343 175.445455 
L 255.027361 208.46 
L 257.470799 208.46 
L 257.591558 175.445455 
L 258.075173 175.445455 
L 258.200463 274.489091 
L 258.683662 274.489091 
L 258.804629 208.46 
L 270.379292 208.46 
L 270.500049 175.445455 
L 270.632215 109.416364 
L 271.115979 109.416364 
L 271.362832 43.387273 
L 277.448304 43.387273 
L 277.569242 142.430909 
L 277.81127 142.430909 
L 277.941998 175.445455 
L 278.063095 175.445455 
L 278.183874 208.46 
L 280.006772 208.46 
L 280.133015 175.445455 
L 280.616646 175.445455 
L 280.737613 208.46 
L 282.805844 208.46 
L 282.926793 175.445455 
L 286.46571 175.445455 
L 286.586727 109.416364 
L 286.71226 142.430909 
L 286.833288 142.430909 
L 286.95436 175.445455 
L 287.075277 175.445455 
L 287.317048 274.489091 
L 287.805335 274.489091 
L 287.926294 307.503636 
L 288.777216 307.503636 
L 288.902761 340.518182 
L 290.605027 340.518182 
L 290.725945 208.46 
L 291.213636 208.46 
L 291.334664 175.445455 
L 291.45578 208.46 
L 292.557743 208.46 
L 292.563308 241.474545 
L 293.046959 241.474545 
L 293.167896 274.489091 
L 293.41446 274.489091 
L 293.535399 241.474545 
L 293.777197 340.518182 
L 293.89816 340.518182 
L 294.023635 307.503636 
L 294.144448 340.518182 
L 294.38648 340.518182 
L 294.507308 307.503636 
L 298.407244 307.503636 
L 298.407244 208.46 
L 300.11422 208.46 
L 300.235181 175.445455 
L 300.47705 175.445455 
L 300.606799 241.474545 
L 300.848165 241.474545 
L 301.090066 175.445455 
L 301.458201 175.445455 
L 301.579159 208.46 
L 301.699996 208.46 
L 301.820987 241.474545 
L 302.188104 241.474545 
L 302.3089 274.489091 
L 304.86447 274.489091 
L 305.111311 208.46 
L 305.353308 208.46 
L 305.474209 142.430909 
L 305.595145 142.430909 
L 305.716287 109.416364 
L 308.032095 109.416364 
L 308.153111 142.430909 
L 308.274128 43.387273 
L 309.614297 43.387273 
L 309.735382 208.46 
L 310.22402 208.46 
L 310.345023 241.474545 
L 310.465951 307.503636 
L 311.076289 307.503636 
L 311.197293 340.518182 
L 311.444202 340.518182 
L 311.565307 373.532727 
L 312.417351 373.532727 
L 312.538223 340.518182 
L 312.779965 340.518182 
L 312.906521 373.532727 
L 313.148466 373.532727 
L 313.269366 340.518182 
L 313.758564 340.518182 
L 313.879691 307.503636 
L 315.098964 307.503636 
L 315.220004 208.46 
L 315.703994 208.46 
L 315.950475 43.387273 
L 316.922783 43.387273 
L 317.043816 76.401818 
L 320.578323 76.401818 
L 320.699464 109.416364 
L 321.429884 109.416364 
L 321.55072 142.430909 
L 322.039034 142.430909 
L 322.160101 208.46 
L 327.394521 208.46 
L 327.523068 175.445455 
L 328.252949 175.445455 
L 328.373905 208.46 
L 328.857251 208.46 
L 328.983878 241.474545 
L 330.684655 241.474545 
L 330.805501 208.46 
L 334.094983 208.46 
L 334.215787 142.430909 
L 334.336595 175.445455 
L 334.578306 175.445455 
L 334.6994 142.430909 
L 338.607089 142.430909 
L 338.728155 109.416364 
L 341.280833 109.416364 
L 341.407622 142.430909 
L 342.263883 142.430909 
L 342.385067 109.416364 
L 346.395772 109.416364 
L 346.520603 208.46 
L 348.584666 208.46 
L 348.830369 340.518182 
L 348.951444 274.489091 
L 349.072433 373.532727 
L 351.884002 373.532727 
L 352.004751 340.518182 
L 352.246436 175.445455 
L 354.314161 175.445455 
L 354.43507 208.46 
L 357.48131 208.46 
L 357.606603 175.445455 
L 358.459302 175.445455 
L 358.5804 142.430909 
L 361.385014 142.430909 
L 361.506105 208.46 
L 361.990597 208.46 
L 362.111957 241.474545 
L 363.939526 241.474545 
L 364.065023 274.489091 
L 367.11448 274.489091 
L 367.235626 373.532727 
L 367.478128 373.532727 
L 367.724525 208.46 
L 368.577793 208.46 
L 368.698834 241.474545 
L 370.893602 241.474545 
L 371.136314 340.518182 
L 371.257475 373.532727 
L 371.626411 373.532727 
L 371.747629 340.518182 
L 371.868738 340.518182 
L 372.11671 274.489091 
L 372.237598 274.489091 
L 372.358855 208.46 
L 372.969172 208.46 
L 373.090061 175.445455 
L 373.332257 241.474545 
L 373.700291 241.474545 
L 373.821465 208.46 
L 374.063908 208.46 
L 374.185177 175.445455 
L 374.674826 175.445455 
L 374.795877 241.474545 
L 375.405969 241.474545 
L 375.64807 175.445455 
L 376.481805 175.445455 
L 376.506624 208.46 
L 378.575459 208.46 
L 378.702251 175.445455 
L 378.823454 175.445455 
L 378.944728 142.430909 
L 379.433688 142.430909 
L 379.554588 109.416364 
L 379.675932 109.416364 
L 379.79696 76.401818 
L 381.25886 76.401818 
L 381.379898 109.416364 
L 381.989537 109.416364 
L 382.110597 43.387273 
L 383.210332 43.387273 
L 383.331689 76.401818 
L 384.794724 76.401818 
L 384.91586 109.416364 
L 386.137878 109.416364 
L 386.259051 43.387273 
L 386.380056 43.387273 
L 386.501286 109.416364 
L 386.622031 76.401818 
L 386.747739 109.416364 
L 386.869018 76.401818 
L 386.989944 175.445455 
L 387.478285 175.445455 
L 387.599525 208.46 
L 387.72077 274.489091 
L 387.84192 274.489091 
L 387.963023 241.474545 
L 388.330748 241.474545 
L 388.451755 208.46 
L 389.304429 208.46 
L 389.425521 241.474545 
L 390.156747 241.474545 
L 390.277614 208.46 
L 390.76588 208.46 
L 390.886596 175.445455 
L 391.738965 175.445455 
L 391.864415 208.46 
L 392.349062 208.46 
L 392.470067 175.445455 
L 395.641241 175.445455 
L 395.762428 76.401818 
L 395.883401 76.401818 
L 396.004477 43.387273 
L 397.346483 43.387273 
L 397.4674 109.416364 
L 397.714705 109.416364 
L 397.835823 142.430909 
L 398.319808 142.430909 
L 398.446058 175.445455 
L 399.051722 175.445455 
L 399.17903 142.430909 
L 400.883772 142.430909 
L 401.004959 175.445455 
L 401.125964 175.445455 
L 401.247048 142.430909 
L 401.97856 142.430909 
L 402.105163 175.445455 
L 402.839611 175.445455 
L 402.960759 142.430909 
L 403.445413 142.430909 
L 403.572088 208.46 
L 403.814235 208.46 
L 403.935496 175.445455 
L 404.910021 175.445455 
L 405.03622 142.430909 
L 405.39953 142.430909 
L 405.641688 76.401818 
L 405.767307 142.430909 
L 406.373641 142.430909 
L 406.62234 76.401818 
L 406.743573 109.416364 
L 408.327942 109.416364 
L 408.448992 142.430909 
L 410.033376 142.430909 
L 410.159818 175.445455 
L 411.375595 175.445455 
L 411.496883 142.430909 
L 413.451996 142.430909 
L 413.573202 109.416364 
L 413.69426 142.430909 
L 414.30484 142.430909 
L 414.425791 175.445455 
L 414.551405 175.445455 
L 414.672369 208.46 
L 415.283743 208.46 
L 415.404664 175.445455 
L 415.768531 175.445455 
L 415.889471 274.489091 
L 416.378352 274.489091 
L 416.378352 208.46 
L 417.844326 208.46 
L 417.965062 175.445455 
L 420.279513 175.445455 
L 420.400518 208.46 
L 423.568184 208.46 
L 423.689322 175.445455 
L 423.931733 175.445455 
L 424.052953 208.46 
L 424.174321 208.46 
L 424.299897 241.474545 
L 424.784726 241.474545 
L 425.031542 340.518182 
L 425.763756 340.518182 
L 425.884882 208.46 
L 426.005926 241.474545 
L 426.615038 241.474545 
L 426.736072 274.489091 
L 427.225231 274.489091 
L 427.346428 307.503636 
L 427.4673 208.46 
L 429.292635 208.46 
L 430.024535 43.387273 
L 431.976342 43.387273 
L 432.097297 76.401818 
L 434.048898 76.401818 
L 434.170235 241.474545 
L 436.606177 241.474545 
L 436.731478 274.489091 
L 437.58393 274.489091 
L 437.704739 307.503636 
L 441.361613 307.503636 
L 441.482725 340.518182 
L 442.825119 340.518182 
L 442.946158 373.532727 
L 447.332815 373.532727 
L 447.453817 340.518182 
L 449.037738 340.518182 
L 449.163137 307.503636 
L 449.52664 307.503636 
L 449.769135 373.532727 
L 450.625286 373.532727 
L 450.867243 307.503636 
L 451.599449 307.503636 
L 451.720475 274.489091 
L 453.182806 274.489091 
L 453.303957 208.46 
L 458.060314 208.46 
L 458.181345 241.474545 
L 459.155048 241.474545 
L 459.276123 274.489091 
L 462.691456 274.489091 
L 462.812696 208.46 
L 464.396848 208.46 
L 464.524218 241.474545 
L 464.887648 241.474545 
L 465.00877 208.46 
L 466.592456 208.46 
L 466.718024 175.445455 
L 466.839012 175.445455 
L 466.960238 208.46 
L 472.933243 208.46 
L 473.054426 241.474545 
L 475.365622 241.474545 
L 475.49134 208.46 
L 475.612481 241.474545 
L 476.222326 241.474545 
L 476.343311 208.46 
L 478.416985 208.46 
L 478.659175 109.416364 
L 478.78035 109.416364 
L 478.901634 142.430909 
L 479.022637 142.430909 
L 479.148212 109.416364 
L 481.217241 109.416364 
L 481.342966 142.430909 
L 483.779689 142.430909 
L 483.90072 208.46 
L 486.216318 208.46 
L 486.584405 43.387273 
L 487.068793 43.387273 
L 487.315583 241.474545 
L 488.657792 241.474545 
L 488.778851 208.46 
L 492.069746 208.46 
L 492.190918 241.474545 
L 492.316489 241.474545 
L 492.437587 208.46 
L 492.922152 208.46 
L 493.047519 175.445455 
L 494.26332 175.445455 
L 494.384581 208.46 
L 496.947651 208.46 
L 497.068716 175.445455 
L 497.921754 175.445455 
L 498.042897 142.430909 
L 498.900069 142.430909 
L 499.021203 208.46 
L 499.142403 208.46 
L 499.263301 241.474545 
L 499.38455 241.474545 
L 499.505545 208.46 
L 500.725879 208.46 
L 500.847021 175.445455 
L 501.094892 175.445455 
L 501.215999 208.46 
L 501.947298 208.46 
L 502.068428 241.474545 
L 502.189477 340.518182 
L 502.431678 274.489091 
L 502.678406 274.489091 
L 502.799614 208.46 
L 506.087766 208.46 
L 506.213617 175.445455 
L 506.455927 175.445455 
L 506.577149 142.430909 
L 507.309066 142.430909 
L 507.430273 175.445455 
L 511.577052 175.445455 
L 511.698259 208.46 
L 512.308339 208.46 
L 512.429439 175.445455 
L 514.381623 175.445455 
L 514.502559 208.46 
L 516.086645 208.46 
L 516.207583 175.445455 
L 516.328828 76.401818 
L 518.281161 76.401818 
L 518.402366 109.416364 
L 518.523411 109.416364 
L 518.770101 175.445455 
L 519.744459 175.445455 
L 519.986504 109.416364 
L 520.354064 109.416364 
L 520.47526 142.430909 
L 520.596417 274.489091 
L 520.717606 274.489091 
L 520.84331 307.503636 
L 521.085088 307.503636 
L 521.206307 340.518182 
L 521.32753 274.489091 
L 521.448748 274.489091 
L 521.695781 208.46 
L 521.938205 208.46 
L 522.059066 241.474545 
L 522.180262 241.474545 
L 522.307513 274.489091 
L 522.429006 241.474545 
L 522.792199 241.474545 
L 522.913306 274.489091 
L 523.771241 274.489091 
L 523.892497 208.46 
L 524.013435 208.46 
L 524.134653 241.474545 
L 524.255697 373.532727 
L 524.623736 373.532727 
L 524.865295 307.503636 
L 524.986137 340.518182 
L 525.107393 340.518182 
L 525.234077 373.532727 
L 525.597539 373.532727 
L 525.71861 208.46 
L 526.820669 208.46 
L 526.941835 241.474545 
L 527.06299 208.46 
L 527.432164 208.46 
L 527.553329 175.445455 
L 528.037607 175.445455 
L 528.163946 142.430909 
L 529.501709 142.430909 
L 529.628353 175.445455 
L 529.992101 175.445455 
L 530.11315 208.46 
L 530.234026 208.46 
L 530.360834 109.416364 
L 530.481943 109.416364 
L 530.603066 76.401818 
L 530.724296 142.430909 
L 531.214778 142.430909 
L 531.214778 208.46 
L 534.017999 208.46 
L 534.265622 142.430909 
L 534.508009 208.46 
L 535.239457 208.46 
L 535.481736 142.430909 
L 535.607362 142.430909 
L 535.728453 175.445455 
L 536.092047 175.445455 
L 536.21303 208.46 
L 536.459949 208.46 
L 536.580922 175.445455 
L 536.702121 175.445455 
L 536.823237 241.474545 
L 537.313147 241.474545 
L 537.434372 208.46 
L 538.396778 208.46 
L 538.408172 175.445455 
L 541.455213 175.445455 
L 541.576524 208.46 
L 541.818975 208.46 
L 541.939887 241.474545 
L 543.281516 241.474545 
L 543.402627 208.46 
L 546.57584 208.46 
L 546.696843 241.474545 
L 546.817984 208.46 
L 547.307213 208.46 
L 547.428329 175.445455 
L 547.917752 175.445455 
L 548.03877 142.430909 
L 550.476266 142.430909 
L 550.597561 109.416364 
L 550.718722 142.430909 
L 551.94043 142.430909 
L 552.06149 76.401818 
L 553.89209 76.401818 
L 554.013252 43.387273 
L 554.376702 43.387273 
L 554.503648 76.401818 
L 556.329836 76.401818 
L 556.572241 241.474545 
L 556.698306 274.489091 
L 556.940732 274.489091 
L 557.061954 241.474545 
L 557.304167 241.474545 
L 557.430875 208.46 
L 559.377839 208.46 
L 559.498943 175.445455 
L 560.720093 175.445455 
L 560.841211 208.46 
L 563.037273 208.46 
L 563.158326 175.445455 
L 563.284011 208.46 
L 567.916216 208.46 
L 568.03719 241.474545 
L 568.648764 241.474545 
L 568.769887 274.489091 
L 569.012233 274.489091 
L 569.138257 307.503636 
L 569.259242 307.503636 
L 569.380326 208.46 
L 569.990416 208.46 
L 570.111509 241.474545 
L 570.353672 241.474545 
L 570.474867 274.489091 
L 572.064142 274.489091 
L 572.18527 241.474545 
L 572.427392 241.474545 
L 572.548598 208.46 
L 572.669874 241.474545 
L 573.03783 241.474545 
L 573.158693 208.46 
L 573.279912 208.46 
L 573.401079 241.474545 
L 575.354038 241.474545 
L 575.475189 208.46 
L 576.695546 208.46 
L 576.816725 241.474545 
L 581.326079 241.474545 
L 581.447094 208.46 
L 582.423918 208.46 
L 582.666155 142.430909 
L 583.034431 142.430909 
L 583.155538 208.46 
L 583.765491 208.46 
L 583.886626 241.474545 
L 584.370767 241.474545 
L 584.496322 208.46 
L 585.101913 208.46 
L 585.227189 241.474545 
L 587.174215 241.474545 
L 587.295067 274.489091 
L 589.6136 274.489091 
L 589.734729 307.503636 
L 591.318995 307.503636 
L 591.560933 373.532727 
L 593.513651 373.532727 
L 593.634959 340.518182 
L 593.756175 340.518182 
L 593.877078 373.532727 
L 594.489131 373.532727 
L 594.610229 208.46 
L 595.711922 208.46 
L 595.833282 241.474545 
L 597.418722 241.474545 
L 597.667826 307.503636 
L 598.273349 307.503636 
L 598.521388 241.474545 
L 602.42428 241.474545 
L 602.545367 208.46 
L 605.406047 208.46 
L 605.527341 274.489091 
L 605.896362 274.489091 
L 606.01729 307.503636 
L 606.138486 274.489091 
L 606.626755 274.489091 
L 606.747757 241.474545 
L 607.115682 241.474545 
L 607.236884 208.46 
L 607.968232 208.46 
L 608.089286 175.445455 
L 617.478335 175.445455 
L 617.599504 208.46 
L 619.303913 208.46 
L 619.429142 241.474545 
L 622.595533 241.474545 
L 622.716674 208.46 
L 622.83793 208.46 
L 623.079974 274.489091 
L 623.20127 274.489091 
L 623.32248 175.445455 
L 623.443599 208.46 
L 623.564833 208.46 
L 623.689968 175.445455 
L 623.81116 175.445455 
L 623.932183 274.489091 
L 624.053515 175.445455 
L 624.174626 208.46 
L 625.152146 208.46 
L 625.273397 175.445455 
L 626.126136 175.445455 
L 626.247311 142.430909 
L 626.368198 76.401818 
L 627.7071 76.401818 
L 627.828415 208.46 
L 629.290028 208.46 
L 629.411313 175.445455 
L 631.729616 175.445455 
L 631.850909 142.430909 
L 631.972224 175.445455 
L 632.335257 175.445455 
L 632.703318 274.489091 
L 633.191873 274.489091 
L 633.433941 373.532727 
L 634.895276 373.532727 
L 635.016301 340.518182 
L 635.137392 373.532727 
L 635.383951 307.503636 
L 635.505029 307.503636 
L 635.626373 340.518182 
L 635.747327 340.518182 
L 635.868055 373.532727 
L 637.57695 373.532727 
L 637.698175 340.518182 
L 637.819601 340.518182 
L 637.940866 307.503636 
L 638.061955 340.518182 
L 638.432101 340.518182 
L 638.553265 307.503636 
L 640.01679 307.503636 
L 640.137533 340.518182 
L 640.379671 340.518182 
L 640.505405 307.503636 
L 640.626494 340.518182 
L 640.747691 340.518182 
L 640.869038 307.503636 
L 641.357331 307.503636 
L 641.478653 274.489091 
L 643.063153 274.489091 
L 643.184226 208.46 
L 643.67314 208.46 
L 643.915068 274.489091 
L 644.292282 274.489091 
L 644.413109 208.46 
L 646.786619 208.46 
L 646.907864 241.474545 
L 647.155702 241.474545 
L 647.276938 208.46 
L 647.398033 208.46 
L 647.518822 241.474545 
L 648.008357 241.474545 
L 648.129552 208.46 
L 648.371892 208.46 
L 648.49301 241.474545 
L 648.618951 241.474545 
L 648.73992 208.46 
L 649.350965 208.46 
L 649.472256 241.474545 
L 650.449126 241.474545 
L 650.570452 274.489091 
L 651.423588 274.489091 
L 651.549652 241.474545 
L 652.210226 241.474545 
L 652.452527 307.503636 
L 652.573874 274.489091 
L 652.943525 274.489091 
L 653.06445 208.46 
L 655.014541 208.46 
L 655.14121 43.387273 
L 655.262359 43.387273 
L 655.383383 76.401818 
L 655.746855 76.401818 
L 655.873268 208.46 
L 657.089368 208.46 
L 657.210408 241.474545 
L 657.338901 241.474545 
L 657.460021 208.46 
L 657.581108 208.46 
L 657.702156 175.445455 
L 657.944311 175.445455 
L 658.070783 142.430909 
L 660.753753 142.430909 
L 660.874872 208.46 
L 661.002218 208.46 
L 661.123416 175.445455 
L 662.339777 175.445455 
L 662.708585 76.401818 
L 662.829963 76.401818 
L 662.951267 175.445455 
L 663.072573 142.430909 
L 663.199101 208.46 
L 663.44157 208.46 
L 663.56276 241.474545 
L 663.683784 241.474545 
L 663.805149 307.503636 
L 664.417435 307.503636 
L 664.538829 274.489091 
L 664.66533 208.46 
L 666.00415 208.46 
L 666.131738 175.445455 
L 666.373943 175.445455 
L 666.494971 142.430909 
L 666.616031 76.401818 
L 668.935657 76.401818 
L 669.183816 142.430909 
L 669.426076 142.430909 
L 669.547095 208.46 
L 669.66804 175.445455 
L 671.268188 175.445455 
L 671.389116 208.46 
L 671.510257 175.445455 
L 671.631493 208.46 
L 671.752623 175.445455 
L 672.484873 175.445455 
L 672.605869 142.430909 
L 673.58742 142.430909 
L 673.708684 175.445455 
L 673.829927 142.430909 
L 674.806339 142.430909 
L 674.932685 109.416364 
L 675.664162 109.416364 
L 675.906587 43.387273 
L 679.079545 43.387273 
L 679.079545 43.387273 
" clip-path="url(#p98b9add768)" style="fill: none; stroke: #000000; stroke-width: 1.5; stroke-linecap: square"/>
   </g>
   <g id="patch_3">
    <path d="M 46.55 390.04 
L 46.55 26.88 
" style="fill: none; stroke: #000000; stroke-width: 0.8; stroke-linejoin: miter; stroke-linecap: square"/>
   </g>
   <g id="patch_4">
    <path d="M 709.2 390.04 
L 709.2 26.88 
" style="fill: none; stroke: #000000; stroke-width: 0.8; stroke-linejoin: miter; stroke-linecap: square"/>
   </g>
   <g id="patch_5">
    <path d="M 46.55 390.04 
L 709.2 390.04 
" style="fill: none; stroke: #000000; stroke-width: 0.8; stroke-linejoin: miter; stroke-linecap: square"/>
   </g>
   <g id="patch_6">
    <path d="M 46.55 26.88 
L 709.2 26.88 
" style="fill: none; stroke: #000000; stroke-width: 0.8; stroke-linejoin: miter; stroke-linecap: square"/>
   </g>
   <g id="text_14">
    <!-- Inventory Over Time (Paper Trading) -->
    <g transform="translate(268.790313 20.88) scale(0.12 -0.12)">
     <defs>
      <path id="DejaVuSans-49" d="M 628 4666 
L 1259 4666 
L 1259 0 
L 628 0 
L 628 4666 
z
" transform="scale(0.015625)"/>
      <path id="DejaVuSans-76" d="M 191 3500 
L 800 3500 
L 1894 563 
L 2988 3500 
L 3597 3500 
L 2284 0 
L 1503 0 
L 191 3500 
z
" transform="scale(0.015625)"/>
      <path id="DejaVuSans-79" d="M 2059 -325 
Q 1816 -950 1584 -1140 
Q 1353 -1331 966 -1331 
L 506 -1331 
L 506 -850 
L 844 -850 
Q 1081 -850 1212 -737 
Q 1344 -625 1503 -206 
L 1606 56 
L 191 3500 
L 800 3500 
L 1894 763 
L 2988 3500 
L 3597 3500 
L 2059 -325 
z
" transform="scale(0.015625)"/>
      <path id="DejaVuSans-4f" d="M 2522 4238 
Q 1834 4238 1429 3725 
Q 1025 3213 1025 2328 
Q 1025 1447 1429 934 
Q 1834 422 2522 422 
Q 3209 422 3611 934 
Q 4013 1447 4013 2328 
Q 4013 3213 3611 3725 
Q 3209 4238 2522 4238 
z
M 2522 4750 
Q 3503 4750 4090 4092 
Q 4678 3434 4678 2328 
Q 4678 1225 4090 567 
Q 3503 -91 2522 -91 
Q 1538 -91 948 565 
Q 359 1222 359 2328 
Q 359 3434 948 4092 
Q 1538 4750 2522 4750 
z
" transform="scale(0.015625)"/>
      <path id="DejaVuSans-6d" d="M 3328 2828 
Q 3544 3216 3844 3400 
Q 4144 3584 4550 3584 
Q 5097 3584 5394 3201 
Q 5691 2819 5691 2113 
L 5691 0 
L 5113 0 
L 5113 2094 
Q 5113 2597 4934 2840 
Q 4756 3084 4391 3084 
Q 3944 3084 3684 2787 
Q 3425 2491 3425 1978 
L 3425 0 
L 2847 0 
L 2847 2094 
Q 2847 2600 2669 2842 
Q 2491 3084 2119 3084 
Q 1678 3084 1418 2786 
Q 1159 2488 1159 1978 
L 1159 0 
L 581 0 
L 581 3500 
L 1159 3500 
L 1159 2956 
Q 1356 3278 1631 3431 
Q 1906 3584 2284 3584 
Q 2666 3584 2933 3390 
Q 3200 3197 3328 2828 
z
" transform="scale(0.015625)"/>
      <path id="DejaVuSans-28" d="M 1984 4856 
Q 1566 4138 1362 3434 
Q 1159 2731 1159 2009 
Q 1159 1288 1364 580 
Q 1569 -128 1984 -844 
L 1484 -844 
Q 1016 -109 783 600 
Q 550 1309 550 2009 
Q 550 2706 781 3412 
Q 1013 4119 1484 4856 
L 1984 4856 
z
" transform="scale(0.015625)"/>
      <path id="DejaVuSans-50" d="M 1259 4147 
L 1259 2394 
L 2053 2394 
Q 2494 2394 2734 2622 
Q 2975 2850 2975 3272 
Q 2975 3691 2734 3919 
Q 2494 4147 2053 4147 
L 1259 4147 
z
M 628 4666 
L 2053 4666 
Q 2838 4666 3239 4311 
Q 3641 3956 3641 3272 
Q 3641 2581 3239 2228 
Q 2838 1875 2053 1875 
L 1259 1875 
L 1259 0 
L 628 0 
L 628 4666 
z
" transform="scale(0.015625)"/>
      <path id="DejaVuSans-29" d="M 513 4856 
L 1013 4856 
Q 1481 4119 1714 3412 
Q 1947 2706 1947 2009 
Q 1947 1309 1714 600 
Q 1481 -109 1013 -844 
L 513 -844 
Q 928 -128 1133 580 
Q 1338 1288 1338 2009 
Q 1338 2731 1133 3434 
Q 928 4138 513 4856 
z
" transform="scale(0.015625)"/>
     </defs>
     <use xlink:href="#DejaVuSans-49"/>
     <use xlink:href="#DejaVuSans-6e" x="29.492188"/>
     <use xlink:href="#DejaVuSans-76" x="92.871094"/>
     <use xlink:href="#DejaVuSans-65" x="152.050781"/>
     <use xlink:href="#DejaVuSans-6e" x="213.574219"/>
     <use xlink:href="#DejaVuSans-74" x="276.953125"/>
     <use xlink:href="#DejaVuSans-6f" x="316.162109"/>
     <use xlink:href="#DejaVuSans-72" x="377.34375"/>
     <use xlink:href="#DejaVuSans-79" x="418.457031"/>
     <use xlink:href="#DejaVuSans-20" x="477.636719"/>
     <use xlink:href="#DejaVuSans-4f" x="509.423828"/>
     <use xlink:href="#DejaVuSans-76" x="588.134766"/>
     <use xlink:href="#DejaVuSans-65" x="647.314453"/>
     <use xlink:href="#DejaVuSans-72" x="708.837891"/>
     <use xlink:href="#DejaVuSans-20" x="749.951172"/>
     <use xlink:href="#DejaVuSans-54" x="781.738281"/>
     <use xlink:href="#DejaVuSans-69" x="839.697266"/>
     <use xlink:href="#DejaVuSans-6d" x="867.480469"/>
     <use xlink:href="#DejaVuSans-65" x="964.892578"/>
     <use xlink:href="#DejaVuSans-20" x="1026.416016"/>
     <use xlink:href="#DejaVuSans-28" x="1058.203125"/>
     <use xlink:href="#DejaVuSans-50" x="1097.216797"/>
     <use xlink:href="#DejaVuSans-61" x="1153.019531"/>
     <use xlink:href="#DejaVuSans-70" x="1214.298828"/>
     <use xlink:href="#DejaVuSans-65" x="1277.775391"/>
     <use xlink:href="#DejaVuSans-72" x="1339.298828"/>
     <use xlink:href="#DejaVuSans-20" x="1380.412109"/>
     <use xlink:href="#DejaVuSans-54" x="1412.199219"/>
     <use xlink:href="#DejaVuSans-72" x="1458.533203"/>
     <use xlink:href="#DejaVuSans-61" x="1499.646484"/>
     <use xlink:href="#DejaVuSans-64" x="1560.925781"/>
     <use xlink:href="#DejaVuSans-69" x="1624.402344"/>
     <use xlink:href="#DejaVuSans-6e" x="1652.185547"/>
     <use xlink:href="#DejaVuSans-67" x="1715.564453"/>
     <use xlink:href="#DejaVuSans-29" x="1779.041016"/>
    </g>
   </g>
   <g id="legend_1">
    <g id="patch_7">
     <path d="M 337.992188 49.558125 
L 417.757813 49.558125 
Q 419.757813 49.558125 419.757813 47.558125 
L 419.757813 33.88 
Q 419.757813 31.88 417.757813 31.88 
L 337.992188 31.88 
Q 335.992188 31.88 335.992188 33.88 
L 335.992188 47.558125 
Q 335.992188 49.558125 337.992188 49.558125 
z
" style="fill: #ffffff; opacity: 0.8; stroke: #cccccc; stroke-linejoin: miter"/>
    </g>
    <g id="line2d_24">
     <path d="M 339.992188 39.978438 
L 349.992188 39.978438 
L 359.992188 39.978438 
" style="fill: none; stroke: #000000; stroke-width: 1.5; stroke-linecap: square"/>
    </g>
    <g id="text_15">
     <!-- Inventory -->
     <g transform="translate(367.992188 43.478438) scale(0.1 -0.1)">
      <use xlink:href="#DejaVuSans-49"/>
      <use xlink:href="#DejaVuSans-6e" x="29.492188"/>
      <use xlink:href="#DejaVuSans-76" x="92.871094"/>
      <use xlink:href="#DejaVuSans-65" x="152.050781"/>
      <use xlink:href="#DejaVuSans-6e" x="213.574219"/>
      <use xlink:href="#DejaVuSans-74" x="276.953125"/>
      <use xlink:href="#DejaVuSans-6f" x="316.162109"/>
      <use xlink:href="#DejaVuSans-72" x="377.34375"/>
      <use xlink:href="#DejaVuSans-79" x="418.457031"/>
     </g>
    </g>
   </g>
  </g>
 </g>
 <defs>
  <clipPath id="p98b9add768">
   <rect x="46.55" y="26.88" width="662.65" height="363.16"/>
  </clipPath>
 </defs>
</svg>
