<?xml version="1.0" encoding="utf-8" standalone="no"?>
<!DOCTYPE svg PUBLIC "-//W3C//DTD SVG 1.1//EN"
  "http://www.w3.org/Graphics/SVG/1.1/DTD/svg11.dtd">
<svg xmlns:xlink="http://www.w3.org/1999/xlink" width="720pt" height="432pt" viewBox="0 0 720 432" xmlns="http://www.w3.org/2000/svg" version="1.1">
 <metadata>
  <rdf:RDF xmlns:dc="http://purl.org/dc/elements/1.1/" xmlns:cc="http://creativecommons.org/ns#" xmlns:rdf="http://www.w3.org/1999/02/22-rdf-syntax-ns#">
   <cc:Work>
    <dc:type rdf:resource="http://purl.org/dc/dcmitype/StillImage"/>
    <dc:date>2026-04-03T14:31:25.578226</dc:date>
    <dc:format>image/svg+xml</dc:format>
    <dc:creator>
     <cc:Agent>
      <dc:title>Matplotlib v3.9.2, https://matplotlib.org/</dc:title>
     </cc:Agent>
    </dc:creator>
   </cc:Work>
  </rdf:RDF>
 </metadata>
 <defs>
  <style type="text/css">*{stroke-linejoin: round; stroke-linecap: butt}</style>
 </defs>
 <g id="figure_1">
  <g id="patch_1">
   <path d="M 0 432 
L 720 432 
L 720 0 
L 0 0 
z
" style="fill: #ffffff"/>
  </g>
  <g id="axes_1">
   <g id="patch_2">
    <path d="M 57.35 390.04 
L 709.2 390.04 
L 709.2 26.88 
L 57.35 26.88 
z
" style="fill: #ffffff"/>
   </g>
   <g id="matplotlib.axis_1">
    <g id="xtick_1">
     <g id="line2d_1">
      <path d="M 86.979545 390.04 
L 86.979545 26.88 
" clip-path="url(#pbfe01efaee)" style="fill: none; stroke: #b0b0b0; stroke-width: 0.8; stroke-linecap: square"/>
     </g>
     <g id="line2d_2">
      <defs>
       <path id="mc546e43486" d="M 0 0 
L 0 3.5 
" style="stroke: #000000; stroke-width: 0.8"/>
      </defs>
      <g>
       <use xlink:href="#mc546e43486" x="86.979545" y="390.04" style="stroke: #000000; stroke-width: 0.8"/>
      </g>
     </g>
     <g id="text_1">
      <!-- 0 -->
      <g transform="translate(83.798295 404.638438) scale(0.1 -0.1)">
       <defs>
        <path id="DejaVuSans-30" d="M 2034 4250 
Q 1547 4250 1301 3770 
Q 1056 3291 1056 2328 
Q 1056 1369 1301 889 
Q 1547 409 2034 409 
Q 2525 409 2770 889 
Q 3016 1369 3016 2328 
Q 3016 3291 2770 3770 
Q 2525 4250 2034 4250 
z
M 2034 4750 
Q 2819 4750 3233 4129 
Q 3647 3509 3647 2328 
Q 3647 1150 3233 529 
Q 2819 -91 2034 -91 
Q 1250 -91 836 529 
Q 422 1150 422 2328 
Q 422 3509 836 4129 
Q 1250 4750 2034 4750 
z
" transform="scale(0.015625)"/>
       </defs>
       <use xlink:href="#DejaVuSans-30"/>
      </g>
     </g>
    </g>
    <g id="xtick_2">
     <g id="line2d_3">
      <path d="M 167.694134 390.04 
L 167.694134 26.88 
" clip-path="url(#pbfe01efaee)" style="fill: none; stroke: #b0b0b0; stroke-width: 0.8; stroke-linecap: square"/>
     </g>
     <g id="line2d_4">
      <g>
       <use xlink:href="#mc546e43486" x="167.694134" y="390.04" style="stroke: #000000; stroke-width: 0.8"/>
      </g>
     </g>
     <g id="text_2">
      <!-- 2500 -->
      <g transform="translate(154.969134 404.638438) scale(0.1 -0.1)">
       <defs>
        <path id="DejaVuSans-32" d="M 1228 531 
L 3431 531 
L 3431 0 
L 469 0 
L 469 531 
Q 828 903 1448 1529 
Q 2069 2156 2228 2338 
Q 2531 2678 2651 2914 
Q 2772 3150 2772 3378 
Q 2772 3750 2511 3984 
Q 2250 4219 1831 4219 
Q 1534 4219 1204 4116 
Q 875 4013 500 3803 
L 500 4441 
Q 881 4594 1212 4672 
Q 1544 4750 1819 4750 
Q 2544 4750 2975 4387 
Q 3406 4025 3406 3419 
Q 3406 3131 3298 2873 
Q 3191 2616 2906 2266 
Q 2828 2175 2409 1742 
Q 1991 1309 1228 531 
z
" transform="scale(0.015625)"/>
        <path id="DejaVuSans-35" d="M 691 4666 
L 3169 4666 
L 3169 4134 
L 1269 4134 
L 1269 2991 
Q 1406 3038 1543 3061 
Q 1681 3084 1819 3084 
Q 2600 3084 3056 2656 
Q 3513 2228 3513 1497 
Q 3513 744 3044 326 
Q 2575 -91 1722 -91 
Q 1428 -91 1123 -41 
Q 819 9 494 109 
L 494 744 
Q 775 591 1075 516 
Q 1375 441 1709 441 
Q 2250 441 2565 725 
Q 2881 1009 2881 1497 
Q 2881 1984 2565 2268 
Q 2250 2553 1709 2553 
Q 1456 2553 1204 2497 
Q 953 2441 691 2322 
L 691 4666 
z
" transform="scale(0.015625)"/>
       </defs>
       <use xlink:href="#DejaVuSans-32"/>
       <use xlink:href="#DejaVuSans-35" x="63.623047"/>
       <use xlink:href="#DejaVuSans-30" x="127.246094"/>
       <use xlink:href="#DejaVuSans-30" x="190.869141"/>
      </g>
     </g>
    </g>
    <g id="xtick_3">
     <g id="line2d_5">
      <path d="M 248.408722 390.04 
L 248.408722 26.88 
" clip-path="url(#pbfe01efaee)" style="fill: none; stroke: #b0b0b0; stroke-width: 0.8; stroke-linecap: square"/>
     </g>
     <g id="line2d_6">
      <g>
       <use xlink:href="#mc546e43486" x="248.408722" y="390.04" style="stroke: #000000; stroke-width: 0.8"/>
      </g>
     </g>
     <g id="text_3">
      <!-- 5000 -->
      <g transform="translate(235.683722 404.638438) scale(0.1 -0.1)">
       <use xlink:href="#DejaVuSans-35"/>
       <use xlink:href="#DejaVuSans-30" x="63.623047"/>
       <use xlink:href="#DejaVuSans-30" x="127.246094"/>
       <use xlink:href="#DejaVuSans-30" x="190.869141"/>
      </g>
     </g>
    </g>
    <g id="xtick_4">
     <g id="line2d_7">
      <path d="M 329.12331 390.04 
L 329.12331 26.88 
" clip-path="url(#pbfe01efaee)" style="fill: none; stroke: #b0b0b0; stroke-width: 0.8; stroke-linecap: square"/>
     </g>
     <g id="line2d_8">
      <g>
       <use xlink:href="#mc546e43486" x="329.12331" y="390.04" style="stroke: #000000; stroke-width: 0.8"/>
      </g>
     </g>
     <g id="text_4">
      <!-- 7500 -->
      <g transform="translate(316.39831 404.638438) scale(0.1 -0.1)">
       <defs>
        <path id="DejaVuSans-37" d="M 525 4666 
L 3525 4666 
L 3525 4397 
L 1831 0 
L 1172 0 
L 2766 4134 
L 525 4134 
L 525 4666 
z
" transform="scale(0.015625)"/>
       </defs>
       <use xlink:href="#DejaVuSans-37"/>
       <use xlink:href="#DejaVuSans-35" x="63.623047"/>
       <use xlink:href="#DejaVuSans-30" x="127.246094"/>
       <use xlink:href="#DejaVuSans-30" x="190.869141"/>
      </g>
     </g>
    </g>
    <g id="xtick_5">
     <g id="line2d_9">
      <path d="M 409.837899 390.04 
L 409.837899 26.88 
" clip-path="url(#pbfe01efaee)" style="fill: none; stroke: #b0b0b0; stroke-width: 0.8; stroke-linecap: square"/>
     </g>
     <g id="line2d_10">
      <g>
       <use xlink:href="#mc546e43486" x="409.837899" y="390.04" style="stroke: #000000; stroke-width: 0.8"/>
      </g>
     </g>
     <g id="text_5">
      <!-- 10000 -->
      <g transform="translate(393.931649 404.638438) scale(0.1 -0.1)">
       <defs>
        <path id="DejaVuSans-31" d="M 794 531 
L 1825 531 
L 1825 4091 
L 703 3866 
L 703 4441 
L 1819 4666 
L 2450 4666 
L 2450 531 
L 3481 531 
L 3481 0 
L 794 0 
L 794 531 
z
" transform="scale(0.015625)"/>
       </defs>
       <use xlink:href="#DejaVuSans-31"/>
       <use xlink:href="#DejaVuSans-30" x="63.623047"/>
       <use xlink:href="#DejaVuSans-30" x="127.246094"/>
       <use xlink:href="#DejaVuSans-30" x="190.869141"/>
       <use xlink:href="#DejaVuSans-30" x="254.492188"/>
      </g>
     </g>
    </g>
    <g id="xtick_6">
     <g id="line2d_11">
      <path d="M 490.552487 390.04 
L 490.552487 26.88 
" clip-path="url(#pbfe01efaee)" style="fill: none; stroke: #b0b0b0; stroke-width: 0.8; stroke-linecap: square"/>
     </g>
     <g id="line2d_12">
      <g>
       <use xlink:href="#mc546e43486" x="490.552487" y="390.04" style="stroke: #000000; stroke-width: 0.8"/>
      </g>
     </g>
     <g id="text_6">
      <!-- 12500 -->
      <g transform="translate(474.646237 404.638438) scale(0.1 -0.1)">
       <use xlink:href="#DejaVuSans-31"/>
       <use xlink:href="#DejaVuSans-32" x="63.623047"/>
       <use xlink:href="#DejaVuSans-35" x="127.246094"/>
       <use xlink:href="#DejaVuSans-30" x="190.869141"/>
       <use xlink:href="#DejaVuSans-30" x="254.492188"/>
      </g>
     </g>
    </g>
    <g id="xtick_7">
     <g id="line2d_13">
      <path d="M 571.267075 390.04 
L 571.267075 26.88 
" clip-path="url(#pbfe01efaee)" style="fill: none; stroke: #b0b0b0; stroke-width: 0.8; stroke-linecap: square"/>
     </g>
     <g id="line2d_14">
      <g>
       <use xlink:href="#mc546e43486" x="571.267075" y="390.04" style="stroke: #000000; stroke-width: 0.8"/>
      </g>
     </g>
     <g id="text_7">
      <!-- 15000 -->
      <g transform="translate(555.360825 404.638438) scale(0.1 -0.1)">
       <use xlink:href="#DejaVuSans-31"/>
       <use xlink:href="#DejaVuSans-35" x="63.623047"/>
       <use xlink:href="#DejaVuSans-30" x="127.246094"/>
       <use xlink:href="#DejaVuSans-30" x="190.869141"/>
       <use xlink:href="#DejaVuSans-30" x="254.492188"/>
      </g>
     </g>
    </g>
    <g id="xtick_8">
     <g id="line2d_15">
      <path d="M 651.981664 390.04 
L 651.981664 26.88 
" clip-path="url(#pbfe01efaee)" style="fill: none; stroke: #b0b0b0; stroke-width: 0.8; stroke-linecap: square"/>
     </g>
     <g id="line2d_16">
      <g>
       <use xlink:href="#mc546e43486" x="651.981664" y="390.04" style="stroke: #000000; stroke-width: 0.8"/>
      </g>
     </g>
     <g id="text_8">
      <!-- 17500 -->
      <g transform="translate(636.075414 404.638438) scale(0.1 -0.1)">
       <use xlink:href="#DejaVuSans-31"/>
       <use xlink:href="#DejaVuSans-37" x="63.623047"/>
       <use xlink:href="#DejaVuSans-35" x="127.246094"/>
       <use xlink:href="#DejaVuSans-30" x="190.869141"/>
       <use xlink:href="#DejaVuSans-30" x="254.492188"/>
      </g>
     </g>
    </g>
    <g id="text_9">
     <!-- Elapsed Trading Seconds -->
     <g transform="translate(321.105469 418.316562) scale(0.1 -0.1)">
      <defs>
       <path id="DejaVuSans-45" d="M 628 4666 
L 3578 4666 
L 3578 4134 
L 1259 4134 
L 1259 2753 
L 3481 2753 
L 3481 2222 
L 1259 2222 
L 1259 531 
L 3634 531 
L 3634 0 
L 628 0 
L 628 4666 
z
" transform="scale(0.015625)"/>
       <path id="DejaVuSans-6c" d="M 603 4863 
L 1178 4863 
L 1178 0 
L 603 0 
L 603 4863 
z
" transform="scale(0.015625)"/>
       <path id="DejaVuSans-61" d="M 2194 1759 
Q 1497 1759 1228 1600 
Q 959 1441 959 1056 
Q 959 750 1161 570 
Q 1363 391 1709 391 
Q 2188 391 2477 730 
Q 2766 1069 2766 1631 
L 2766 1759 
L 2194 1759 
z
M 3341 1997 
L 3341 0 
L 2766 0 
L 2766 531 
Q 2569 213 2275 61 
Q 1981 -91 1556 -91 
Q 1019 -91 701 211 
Q 384 513 384 1019 
Q 384 1609 779 1909 
Q 1175 2209 1959 2209 
L 2766 2209 
L 2766 2266 
Q 2766 2663 2505 2880 
Q 2244 3097 1772 3097 
Q 1472 3097 1187 3025 
Q 903 2953 641 2809 
L 641 3341 
Q 956 3463 1253 3523 
Q 1550 3584 1831 3584 
Q 2591 3584 2966 3190 
Q 3341 2797 3341 1997 
z
" transform="scale(0.015625)"/>
       <path id="DejaVuSans-70" d="M 1159 525 
L 1159 -1331 
L 581 -1331 
L 581 3500 
L 1159 3500 
L 1159 2969 
Q 1341 3281 1617 3432 
Q 1894 3584 2278 3584 
Q 2916 3584 3314 3078 
Q 3713 2572 3713 1747 
Q 3713 922 3314 415 
Q 2916 -91 2278 -91 
Q 1894 -91 1617 61 
Q 1341 213 1159 525 
z
M 3116 1747 
Q 3116 2381 2855 2742 
Q 2594 3103 2138 3103 
Q 1681 3103 1420 2742 
Q 1159 2381 1159 1747 
Q 1159 1113 1420 752 
Q 1681 391 2138 391 
Q 2594 391 2855 752 
Q 3116 1113 3116 1747 
z
" transform="scale(0.015625)"/>
       <path id="DejaVuSans-73" d="M 2834 3397 
L 2834 2853 
Q 2591 2978 2328 3040 
Q 2066 3103 1784 3103 
Q 1356 3103 1142 2972 
Q 928 2841 928 2578 
Q 928 2378 1081 2264 
Q 1234 2150 1697 2047 
L 1894 2003 
Q 2506 1872 2764 1633 
Q 3022 1394 3022 966 
Q 3022 478 2636 193 
Q 2250 -91 1575 -91 
Q 1294 -91 989 -36 
Q 684 19 347 128 
L 347 722 
Q 666 556 975 473 
Q 1284 391 1588 391 
Q 1994 391 2212 530 
Q 2431 669 2431 922 
Q 2431 1156 2273 1281 
Q 2116 1406 1581 1522 
L 1381 1569 
Q 847 1681 609 1914 
Q 372 2147 372 2553 
Q 372 3047 722 3315 
Q 1072 3584 1716 3584 
Q 2034 3584 2315 3537 
Q 2597 3491 2834 3397 
z
" transform="scale(0.015625)"/>
       <path id="DejaVuSans-65" d="M 3597 1894 
L 3597 1613 
L 953 1613 
Q 991 1019 1311 708 
Q 1631 397 2203 397 
Q 2534 397 2845 478 
Q 3156 559 3463 722 
L 3463 178 
Q 3153 47 2828 -22 
Q 2503 -91 2169 -91 
Q 1331 -91 842 396 
Q 353 884 353 1716 
Q 353 2575 817 3079 
Q 1281 3584 2069 3584 
Q 2775 3584 3186 3129 
Q 3597 2675 3597 1894 
z
M 3022 2063 
Q 3016 2534 2758 2815 
Q 2500 3097 2075 3097 
Q 1594 3097 1305 2825 
Q 1016 2553 972 2059 
L 3022 2063 
z
" transform="scale(0.015625)"/>
       <path id="DejaVuSans-64" d="M 2906 2969 
L 2906 4863 
L 3481 4863 
L 3481 0 
L 2906 0 
L 2906 525 
Q 2725 213 2448 61 
Q 2172 -91 1784 -91 
Q 1150 -91 751 415 
Q 353 922 353 1747 
Q 353 2572 751 3078 
Q 1150 3584 1784 3584 
Q 2172 3584 2448 3432 
Q 2725 3281 2906 2969 
z
M 947 1747 
Q 947 1113 1208 752 
Q 1469 391 1925 391 
Q 2381 391 2643 752 
Q 2906 1113 2906 1747 
Q 2906 2381 2643 2742 
Q 2381 3103 1925 3103 
Q 1469 3103 1208 2742 
Q 947 2381 947 1747 
z
" transform="scale(0.015625)"/>
       <path id="DejaVuSans-20" transform="scale(0.015625)"/>
       <path id="DejaVuSans-54" d="M -19 4666 
L 3928 4666 
L 3928 4134 
L 2272 4134 
L 2272 0 
L 1638 0 
L 1638 4134 
L -19 4134 
L -19 4666 
z
" transform="scale(0.015625)"/>
       <path id="DejaVuSans-72" d="M 2631 2963 
Q 2534 3019 2420 3045 
Q 2306 3072 2169 3072 
Q 1681 3072 1420 2755 
Q 1159 2438 1159 1844 
L 1159 0 
L 581 0 
L 581 3500 
L 1159 3500 
L 1159 2956 
Q 1341 3275 1631 3429 
Q 1922 3584 2338 3584 
Q 2397 3584 2469 3576 
Q 2541 3569 2628 3553 
L 2631 2963 
z
" transform="scale(0.015625)"/>
       <path id="DejaVuSans-69" d="M 603 3500 
L 1178 3500 
L 1178 0 
L 603 0 
L 603 3500 
z
M 603 4863 
L 1178 4863 
L 1178 4134 
L 603 4134 
L 603 4863 
z
" transform="scale(0.015625)"/>
       <path id="DejaVuSans-6e" d="M 3513 2113 
L 3513 0 
L 2938 0 
L 2938 2094 
Q 2938 2591 2744 2837 
Q 2550 3084 2163 3084 
Q 1697 3084 1428 2787 
Q 1159 2491 1159 1978 
L 1159 0 
L 581 0 
L 581 3500 
L 1159 3500 
L 1159 2956 
Q 1366 3272 1645 3428 
Q 1925 3584 2291 3584 
Q 2894 3584 3203 3211 
Q 3513 2838 3513 2113 
z
" transform="scale(0.015625)"/>
       <path id="DejaVuSans-67" d="M 2906 1791 
Q 2906 2416 2648 2759 
Q 2391 3103 1925 3103 
Q 1463 3103 1205 2759 
Q 947 2416 947 1791 
Q 947 1169 1205 825 
Q 1463 481 1925 481 
Q 2391 481 2648 825 
Q 2906 1169 2906 1791 
z
M 3481 434 
Q 3481 -459 3084 -895 
Q 2688 -1331 1869 -1331 
Q 1566 -1331 1297 -1286 
Q 1028 -1241 775 -1147 
L 775 -588 
Q 1028 -725 1275 -790 
Q 1522 -856 1778 -856 
Q 2344 -856 2625 -561 
Q 2906 -266 2906 331 
L 2906 616 
Q 2728 306 2450 153 
Q 2172 0 1784 0 
Q 1141 0 747 490 
Q 353 981 353 1791 
Q 353 2603 747 3093 
Q 1141 3584 1784 3584 
Q 2172 3584 2450 3431 
Q 2728 3278 2906 2969 
L 2906 3500 
L 3481 3500 
L 3481 434 
z
" transform="scale(0.015625)"/>
       <path id="DejaVuSans-53" d="M 3425 4513 
L 3425 3897 
Q 3066 4069 2747 4153 
Q 2428 4238 2131 4238 
Q 1616 4238 1336 4038 
Q 1056 3838 1056 3469 
Q 1056 3159 1242 3001 
Q 1428 2844 1947 2747 
L 2328 2669 
Q 3034 2534 3370 2195 
Q 3706 1856 3706 1288 
Q 3706 609 3251 259 
Q 2797 -91 1919 -91 
Q 1588 -91 1214 -16 
Q 841 59 441 206 
L 441 856 
Q 825 641 1194 531 
Q 1563 422 1919 422 
Q 2459 422 2753 634 
Q 3047 847 3047 1241 
Q 3047 1584 2836 1778 
Q 2625 1972 2144 2069 
L 1759 2144 
Q 1053 2284 737 2584 
Q 422 2884 422 3419 
Q 422 4038 858 4394 
Q 1294 4750 2059 4750 
Q 2388 4750 2728 4690 
Q 3069 4631 3425 4513 
z
" transform="scale(0.015625)"/>
       <path id="DejaVuSans-63" d="M 3122 3366 
L 3122 2828 
Q 2878 2963 2633 3030 
Q 2388 3097 2138 3097 
Q 1578 3097 1268 2742 
Q 959 2388 959 1747 
Q 959 1106 1268 751 
Q 1578 397 2138 397 
Q 2388 397 2633 464 
Q 2878 531 3122 666 
L 3122 134 
Q 2881 22 2623 -34 
Q 2366 -91 2075 -91 
Q 1284 -91 818 406 
Q 353 903 353 1747 
Q 353 2603 823 3093 
Q 1294 3584 2113 3584 
Q 2378 3584 2631 3529 
Q 2884 3475 3122 3366 
z
" transform="scale(0.015625)"/>
       <path id="DejaVuSans-6f" d="M 1959 3097 
Q 1497 3097 1228 2736 
Q 959 2375 959 1747 
Q 959 1119 1226 758 
Q 1494 397 1959 397 
Q 2419 397 2687 759 
Q 2956 1122 2956 1747 
Q 2956 2369 2687 2733 
Q 2419 3097 1959 3097 
z
M 1959 3584 
Q 2709 3584 3137 3096 
Q 3566 2609 3566 1747 
Q 3566 888 3137 398 
Q 2709 -91 1959 -91 
Q 1206 -91 779 398 
Q 353 888 353 1747 
Q 353 2609 779 3096 
Q 1206 3584 1959 3584 
z
" transform="scale(0.015625)"/>
      </defs>
      <use xlink:href="#DejaVuSans-45"/>
      <use xlink:href="#DejaVuSans-6c" x="63.183594"/>
      <use xlink:href="#DejaVuSans-61" x="90.966797"/>
      <use xlink:href="#DejaVuSans-70" x="152.246094"/>
      <use xlink:href="#DejaVuSans-73" x="215.722656"/>
      <use xlink:href="#DejaVuSans-65" x="267.822266"/>
      <use xlink:href="#DejaVuSans-64" x="329.345703"/>
      <use xlink:href="#DejaVuSans-20" x="392.822266"/>
      <use xlink:href="#DejaVuSans-54" x="424.609375"/>
      <use xlink:href="#DejaVuSans-72" x="470.943359"/>
      <use xlink:href="#DejaVuSans-61" x="512.056641"/>
      <use xlink:href="#DejaVuSans-64" x="573.335938"/>
      <use xlink:href="#DejaVuSans-69" x="636.8125"/>
      <use xlink:href="#DejaVuSans-6e" x="664.595703"/>
      <use xlink:href="#DejaVuSans-67" x="727.974609"/>
      <use xlink:href="#DejaVuSans-20" x="791.451172"/>
      <use xlink:href="#DejaVuSans-53" x="823.238281"/>
      <use xlink:href="#DejaVuSans-65" x="886.714844"/>
      <use xlink:href="#DejaVuSans-63" x="948.238281"/>
      <use xlink:href="#DejaVuSans-6f" x="1003.21875"/>
      <use xlink:href="#DejaVuSans-6e" x="1064.400391"/>
      <use xlink:href="#DejaVuSans-64" x="1127.779297"/>
      <use xlink:href="#DejaVuSans-73" x="1191.255859"/>
     </g>
    </g>
   </g>
   <g id="matplotlib.axis_2">
    <g id="ytick_1">
     <g id="line2d_17">
      <path d="M 57.35 368.041743 
L 709.2 368.041743 
" clip-path="url(#pbfe01efaee)" style="fill: none; stroke: #b0b0b0; stroke-width: 0.8; stroke-linecap: square"/>
     </g>
     <g id="line2d_18">
      <defs>
       <path id="mef76774dc3" d="M 0 0 
L -3.5 0 
" style="stroke: #000000; stroke-width: 0.8"/>
      </defs>
      <g>
       <use xlink:href="#mef76774dc3" x="57.35" y="368.041743" style="stroke: #000000; stroke-width: 0.8"/>
      </g>
     </g>
     <g id="text_10">
      <!-- 1830 -->
      <g transform="translate(24.9 371.840961) scale(0.1 -0.1)">
       <defs>
        <path id="DejaVuSans-38" d="M 2034 2216 
Q 1584 2216 1326 1975 
Q 1069 1734 1069 1313 
Q 1069 891 1326 650 
Q 1584 409 2034 409 
Q 2484 409 2743 651 
Q 3003 894 3003 1313 
Q 3003 1734 2745 1975 
Q 2488 2216 2034 2216 
z
M 1403 2484 
Q 997 2584 770 2862 
Q 544 3141 544 3541 
Q 544 4100 942 4425 
Q 1341 4750 2034 4750 
Q 2731 4750 3128 4425 
Q 3525 4100 3525 3541 
Q 3525 3141 3298 2862 
Q 3072 2584 2669 2484 
Q 3125 2378 3379 2068 
Q 3634 1759 3634 1313 
Q 3634 634 3220 271 
Q 2806 -91 2034 -91 
Q 1263 -91 848 271 
Q 434 634 434 1313 
Q 434 1759 690 2068 
Q 947 2378 1403 2484 
z
M 1172 3481 
Q 1172 3119 1398 2916 
Q 1625 2713 2034 2713 
Q 2441 2713 2670 2916 
Q 2900 3119 2900 3481 
Q 2900 3844 2670 4047 
Q 2441 4250 2034 4250 
Q 1625 4250 1398 4047 
Q 1172 3844 1172 3481 
z
" transform="scale(0.015625)"/>
        <path id="DejaVuSans-33" d="M 2597 2516 
Q 3050 2419 3304 2112 
Q 3559 1806 3559 1356 
Q 3559 666 3084 287 
Q 2609 -91 1734 -91 
Q 1441 -91 1130 -33 
Q 819 25 488 141 
L 488 750 
Q 750 597 1062 519 
Q 1375 441 1716 441 
Q 2309 441 2620 675 
Q 2931 909 2931 1356 
Q 2931 1769 2642 2001 
Q 2353 2234 1838 2234 
L 1294 2234 
L 1294 2753 
L 1863 2753 
Q 2328 2753 2575 2939 
Q 2822 3125 2822 3475 
Q 2822 3834 2567 4026 
Q 2313 4219 1838 4219 
Q 1578 4219 1281 4162 
Q 984 4106 628 3988 
L 628 4550 
Q 988 4650 1302 4700 
Q 1616 4750 1894 4750 
Q 2613 4750 3031 4423 
Q 3450 4097 3450 3541 
Q 3450 3153 3228 2886 
Q 3006 2619 2597 2516 
z
" transform="scale(0.015625)"/>
       </defs>
       <use xlink:href="#DejaVuSans-31"/>
       <use xlink:href="#DejaVuSans-38" x="63.623047"/>
       <use xlink:href="#DejaVuSans-33" x="127.246094"/>
       <use xlink:href="#DejaVuSans-30" x="190.869141"/>
      </g>
     </g>
    </g>
    <g id="ytick_2">
     <g id="line2d_19">
      <path d="M 57.35 299.404434 
L 709.2 299.404434 
" clip-path="url(#pbfe01efaee)" style="fill: none; stroke: #b0b0b0; stroke-width: 0.8; stroke-linecap: square"/>
     </g>
     <g id="line2d_20">
      <g>
       <use xlink:href="#mef76774dc3" x="57.35" y="299.404434" style="stroke: #000000; stroke-width: 0.8"/>
      </g>
     </g>
     <g id="text_11">
      <!-- 1840 -->
      <g transform="translate(24.9 303.203653) scale(0.1 -0.1)">
       <defs>
        <path id="DejaVuSans-34" d="M 2419 4116 
L 825 1625 
L 2419 1625 
L 2419 4116 
z
M 2253 4666 
L 3047 4666 
L 3047 1625 
L 3713 1625 
L 3713 1100 
L 3047 1100 
L 3047 0 
L 2419 0 
L 2419 1100 
L 313 1100 
L 313 1709 
L 2253 4666 
z
" transform="scale(0.015625)"/>
       </defs>
       <use xlink:href="#DejaVuSans-31"/>
       <use xlink:href="#DejaVuSans-38" x="63.623047"/>
       <use xlink:href="#DejaVuSans-34" x="127.246094"/>
       <use xlink:href="#DejaVuSans-30" x="190.869141"/>
      </g>
     </g>
    </g>
    <g id="ytick_3">
     <g id="line2d_21">
      <path d="M 57.35 230.767125 
L 709.2 230.767125 
" clip-path="url(#pbfe01efaee)" style="fill: none; stroke: #b0b0b0; stroke-width: 0.8; stroke-linecap: square"/>
     </g>
     <g id="line2d_22">
      <g>
       <use xlink:href="#mef76774dc3" x="57.35" y="230.767125" style="stroke: #000000; stroke-width: 0.8"/>
      </g>
     </g>
     <g id="text_12">
      <!-- 1850 -->
      <g transform="translate(24.9 234.566344) scale(0.1 -0.1)">
       <use xlink:href="#DejaVuSans-31"/>
       <use xlink:href="#DejaVuSans-38" x="63.623047"/>
       <use xlink:href="#DejaVuSans-35" x="127.246094"/>
       <use xlink:href="#DejaVuSans-30" x="190.869141"/>
      </g>
     </g>
    </g>
    <g id="ytick_4">
     <g id="line2d_23">
      <path d="M 57.35 162.129817 
L 709.2 162.129817 
" clip-path="url(#pbfe01efaee)" style="fill: none; stroke: #b0b0b0; stroke-width: 0.8; stroke-linecap: square"/>
     </g>
     <g id="line2d_24">
      <g>
       <use xlink:href="#mef76774dc3" x="57.35" y="162.129817" style="stroke: #000000; stroke-width: 0.8"/>
      </g>
     </g>
     <g id="text_13">
      <!-- 1860 -->
      <g transform="translate(24.9 165.929035) scale(0.1 -0.1)">
       <defs>
        <path id="DejaVuSans-36" d="M 2113 2584 
Q 1688 2584 1439 2293 
Q 1191 2003 1191 1497 
Q 1191 994 1439 701 
Q 1688 409 2113 409 
Q 2538 409 2786 701 
Q 3034 994 3034 1497 
Q 3034 2003 2786 2293 
Q 2538 2584 2113 2584 
z
M 3366 4563 
L 3366 3988 
Q 3128 4100 2886 4159 
Q 2644 4219 2406 4219 
Q 1781 4219 1451 3797 
Q 1122 3375 1075 2522 
Q 1259 2794 1537 2939 
Q 1816 3084 2150 3084 
Q 2853 3084 3261 2657 
Q 3669 2231 3669 1497 
Q 3669 778 3244 343 
Q 2819 -91 2113 -91 
Q 1303 -91 875 529 
Q 447 1150 447 2328 
Q 447 3434 972 4092 
Q 1497 4750 2381 4750 
Q 2619 4750 2861 4703 
Q 3103 4656 3366 4563 
z
" transform="scale(0.015625)"/>
       </defs>
       <use xlink:href="#DejaVuSans-31"/>
       <use xlink:href="#DejaVuSans-38" x="63.623047"/>
       <use xlink:href="#DejaVuSans-36" x="127.246094"/>
       <use xlink:href="#DejaVuSans-30" x="190.869141"/>
      </g>
     </g>
    </g>
    <g id="ytick_5">
     <g id="line2d_25">
      <path d="M 57.35 93.492508 
L 709.2 93.492508 
" clip-path="url(#pbfe01efaee)" style="fill: none; stroke: #b0b0b0; stroke-width: 0.8; stroke-linecap: square"/>
     </g>
     <g id="line2d_26">
      <g>
       <use xlink:href="#mef76774dc3" x="57.35" y="93.492508" style="stroke: #000000; stroke-width: 0.8"/>
      </g>
     </g>
     <g id="text_14">
      <!-- 1870 -->
      <g transform="translate(24.9 97.291727) scale(0.1 -0.1)">
       <use xlink:href="#DejaVuSans-31"/>
       <use xlink:href="#DejaVuSans-38" x="63.623047"/>
       <use xlink:href="#DejaVuSans-37" x="127.246094"/>
       <use xlink:href="#DejaVuSans-30" x="190.869141"/>
      </g>
     </g>
    </g>
    <g id="text_15">
     <!-- Price -->
     <g transform="translate(18.820312 220.657656) rotate(-90) scale(0.1 -0.1)">
      <defs>
       <path id="DejaVuSans-50" d="M 1259 4147 
L 1259 2394 
L 2053 2394 
Q 2494 2394 2734 2622 
Q 2975 2850 2975 3272 
Q 2975 3691 2734 3919 
Q 2494 4147 2053 4147 
L 1259 4147 
z
M 628 4666 
L 2053 4666 
Q 2838 4666 3239 4311 
Q 3641 3956 3641 3272 
Q 3641 2581 3239 2228 
Q 2838 1875 2053 1875 
L 1259 1875 
L 1259 0 
L 628 0 
L 628 4666 
z
" transform="scale(0.015625)"/>
      </defs>
      <use xlink:href="#DejaVuSans-50"/>
      <use xlink:href="#DejaVuSans-72" x="58.552734"/>
      <use xlink:href="#DejaVuSans-69" x="99.666016"/>
      <use xlink:href="#DejaVuSans-63" x="127.449219"/>
      <use xlink:href="#DejaVuSans-65" x="182.429688"/>
     </g>
    </g>
   </g>
   <g id="line2d_27">
    <path d="M 86.979545 94.178881 
L 86.979545 93.492508 
L 87.30298 90.747016 
L 87.626356 90.060643 
L 87.949256 91.433389 
L 88.272529 87.31515 
L 88.596313 89.37427 
L 88.93577 88.001523 
L 89.259102 87.31515 
L 89.5824 88.001523 
L 89.906236 85.256031 
L 90.229791 91.433389 
L 90.553503 88.001523 
L 90.888897 90.747016 
L 91.212518 84.569658 
L 91.536073 82.510539 
L 91.859537 88.001523 
L 92.182978 88.687896 
L 92.506247 90.747016 
L 93.165826 90.747016 
L 93.488909 91.433389 
L 93.812268 89.37427 
L 94.135638 89.37427 
L 94.797119 83.196912 
L 95.119652 85.942404 
L 95.443043 86.628777 
L 95.766432 81.137792 
L 96.089707 82.510539 
L 96.413526 77.705927 
L 96.749162 77.705927 
L 97.072613 75.646808 
L 97.396248 75.646808 
L 97.719356 79.765046 
L 98.042896 79.765046 
L 98.365795 80.451419 
L 98.70173 77.019554 
L 99.025049 76.333181 
L 99.671831 79.765046 
L 99.994545 81.137792 
L 100.317855 81.137792 
L 100.652801 91.433389 
L 100.97639 83.196912 
L 101.945739 69.46945 
L 102.268606 69.46945 
L 102.603039 72.901315 
L 103.249598 68.096704 
L 103.573374 68.783077 
L 103.89672 70.155823 
L 104.219525 72.901315 
L 104.557506 72.901315 
L 104.880707 72.214942 
L 105.204154 70.155823 
L 105.527502 66.723958 
L 105.850711 71.528569 
L 106.193298 70.842196 
L 106.516505 78.3923 
L 106.840038 74.960435 
L 107.162842 78.3923 
L 107.48529 74.274062 
L 107.80845 74.274062 
L 108.144272 73.587689 
L 108.467508 76.333181 
L 108.790895 76.333181 
L 109.113789 77.705927 
L 109.436849 79.765046 
L 109.760588 78.3923 
L 110.096282 76.333181 
L 110.419773 73.587689 
L 110.74258 76.333181 
L 111.065859 75.646808 
L 111.389311 73.587689 
L 111.712511 75.646808 
L 112.051244 76.333181 
L 112.697747 74.960435 
L 113.021316 71.528569 
L 113.021316 46.132765 
L 113.667941 53.682869 
L 113.99179 52.996496 
L 114.638254 52.996496 
L 114.987966 48.878257 
L 115.311251 48.878257 
L 115.634632 46.819138 
L 115.958071 52.310123 
L 116.280749 50.251004 
L 116.603039 49.564631 
L 116.938762 50.937377 
L 117.261012 53.682869 
L 117.584607 50.937377 
L 117.907487 54.369242 
L 118.231309 55.741988 
L 118.554634 52.996496 
L 118.891892 52.996496 
L 119.215367 47.505511 
L 119.538864 48.878257 
L 119.862003 44.760019 
L 120.185375 46.132765 
L 120.508616 50.251004 
L 120.846468 50.937377 
L 121.169326 50.251004 
L 121.49212 50.937377 
L 121.814769 50.937377 
L 122.137863 46.819138 
L 122.460539 47.505511 
L 122.796337 48.878257 
L 123.119758 43.387273 
L 123.442961 45.446392 
L 123.766065 45.446392 
L 123.766065 246.553706 
L 124.089258 267.144899 
L 124.412754 249.299199 
L 124.736253 247.240079 
L 125.05879 248.612826 
L 125.381643 248.612826 
L 125.728236 249.985572 
L 126.05137 248.612826 
L 126.374793 246.553706 
L 127.020484 251.358318 
L 127.343255 250.671945 
L 127.677988 253.417437 
L 128.001843 252.731064 
L 128.324836 254.10381 
L 128.971872 258.908422 
L 129.295017 258.908422 
L 129.629587 261.653914 
L 129.953041 261.653914 
L 130.599594 255.476556 
L 130.92274 255.476556 
L 131.245987 256.849303 
L 131.582618 252.044691 
L 131.90577 254.10381 
L 132.229126 251.358318 
L 132.552437 251.358318 
L 132.875164 252.044691 
L 133.197968 252.044691 
L 133.533736 255.476556 
L 133.857179 254.10381 
L 134.180053 249.985572 
L 134.502617 252.044691 
L 134.826254 251.358318 
L 135.148782 249.985572 
L 135.484182 251.358318 
L 136.130179 251.358318 
L 136.452912 249.299199 
L 136.776478 249.299199 
L 137.099033 249.985572 
L 137.758109 252.731064 
L 138.081458 254.790183 
L 138.404584 252.731064 
L 138.728113 254.10381 
L 139.051338 250.671945 
L 139.390472 252.731064 
L 139.713662 252.731064 
L 140.036741 255.476556 
L 140.359439 256.849303 
L 140.682488 251.358318 
L 141.005065 256.16293 
L 141.340632 255.476556 
L 141.663646 252.044691 
L 142.310508 256.16293 
L 142.633757 248.612826 
L 142.984145 249.299199 
L 143.630683 242.435468 
L 144.277045 238.317229 
L 144.600219 243.808214 
L 145.258681 242.435468 
L 145.581597 246.553706 
L 145.904996 247.240079 
L 146.2286 248.612826 
L 146.552033 246.553706 
L 146.89035 248.612826 
L 147.21383 245.867333 
L 147.536242 245.867333 
L 147.859483 246.553706 
L 148.182689 239.003602 
L 148.506209 236.25811 
L 149.165474 241.062722 
L 149.488706 235.571737 
L 149.812127 236.25811 
L 150.135477 234.198991 
L 150.45856 234.885364 
L 150.794936 231.453498 
L 151.118251 232.139871 
L 151.765001 239.003602 
L 152.088384 233.512618 
L 152.411614 234.885364 
L 152.746909 234.885364 
L 153.070037 239.003602 
L 153.392878 236.944483 
L 153.716076 238.317229 
L 154.362397 242.435468 
L 154.69859 240.376349 
L 155.021288 241.749095 
L 155.344613 241.749095 
L 155.66745 243.121841 
L 155.991039 241.062722 
L 156.314441 241.749095 
L 156.649389 241.062722 
L 156.971429 245.18096 
L 157.294477 246.553706 
L 157.941063 247.926452 
L 158.264117 245.18096 
L 158.921804 251.358318 
L 159.244625 251.358318 
L 159.568147 250.671945 
L 159.891434 250.671945 
L 160.2147 251.358318 
L 160.548372 249.985572 
L 160.871593 243.121841 
L 161.517761 241.749095 
L 161.841312 242.435468 
L 162.163848 237.630856 
L 162.522918 240.376349 
L 162.845916 241.062722 
L 163.169472 232.826245 
L 163.493024 234.198991 
L 163.815668 232.826245 
L 164.138817 228.708006 
L 164.474281 227.33526 
L 164.797792 229.394379 
L 165.121339 234.198991 
L 165.444441 230.767125 
L 166.089614 230.767125 
L 166.424958 232.826245 
L 166.747921 230.767125 
L 167.394902 230.767125 
L 167.718206 229.394379 
L 168.041474 226.648887 
L 169.345892 239.003602 
L 169.991224 239.003602 
L 170.325337 235.571737 
L 171.294435 235.571737 
L 171.617574 237.630856 
L 171.940966 241.749095 
L 172.277919 244.494587 
L 172.601125 244.494587 
L 172.924029 243.121841 
L 173.247118 240.376349 
L 173.570381 241.062722 
L 173.894064 241.062722 
L 174.22951 239.689975 
L 174.552583 241.062722 
L 174.875615 239.689975 
L 175.198895 239.003602 
L 175.521263 236.944483 
L 175.844918 236.944483 
L 176.180058 239.003602 
L 176.503326 239.003602 
L 176.826441 241.062722 
L 177.14995 234.198991 
L 177.473145 244.494587 
L 177.796128 242.435468 
L 178.131522 243.808214 
L 178.454372 244.494587 
L 178.777023 243.808214 
L 179.100539 241.749095 
L 179.423728 242.435468 
L 179.747402 247.240079 
L 180.084041 247.926452 
L 180.731235 254.790183 
L 181.377874 253.417437 
L 181.700926 252.044691 
L 182.057566 263.713033 
L 182.381098 265.08578 
L 182.704394 261.653914 
L 183.027699 264.399407 
L 183.351023 263.02666 
L 183.67436 263.02666 
L 184.009882 260.967541 
L 184.332166 260.967541 
L 184.655824 258.222049 
L 184.978007 257.535676 
L 185.3008 258.222049 
L 185.623996 256.849303 
L 185.959987 257.535676 
L 186.283599 253.417437 
L 186.607087 255.476556 
L 186.930215 255.476556 
L 187.253473 253.417437 
L 187.577018 256.849303 
L 187.913561 252.731064 
L 188.559076 255.476556 
L 188.882751 257.535676 
L 189.205258 252.731064 
L 189.528648 258.222049 
L 190.510283 247.240079 
L 190.834051 249.985572 
L 191.156713 256.849303 
L 191.47999 249.299199 
L 191.815689 248.612826 
L 192.138826 252.731064 
L 192.462547 260.281168 
L 192.784985 256.16293 
L 193.10823 256.16293 
L 193.431241 258.222049 
L 193.781428 258.222049 
L 194.104693 256.849303 
L 194.427977 256.849303 
L 194.751087 254.790183 
L 195.074465 254.790183 
L 195.398033 256.16293 
L 195.736468 254.790183 
L 196.059843 258.222049 
L 196.382852 256.16293 
L 196.705764 257.535676 
L 197.029302 260.281168 
L 197.352564 260.281168 
L 197.687868 259.594795 
L 198.011623 260.281168 
L 198.981261 250.671945 
L 199.305125 254.10381 
L 199.641282 255.476556 
L 199.964923 255.476556 
L 200.287624 259.594795 
L 200.610985 259.594795 
L 200.934153 256.849303 
L 201.257768 260.281168 
L 201.596787 260.967541 
L 201.919441 258.908422 
L 202.24266 258.222049 
L 202.565882 258.222049 
L 202.888641 258.908422 
L 203.211968 255.476556 
L 203.546542 258.908422 
L 203.869214 265.08578 
L 204.19242 267.831272 
L 204.516193 265.772153 
L 204.839303 266.458526 
L 205.162521 265.08578 
L 205.497464 264.399407 
L 205.820805 262.340287 
L 206.143774 264.399407 
L 206.467418 263.02666 
L 206.790696 260.967541 
L 207.11387 262.340287 
L 207.449645 257.535676 
L 207.772549 258.222049 
L 208.095203 265.772153 
L 208.418645 267.144899 
L 208.741676 270.576764 
L 209.064742 271.94951 
L 209.400047 274.00863 
L 210.046523 264.399407 
L 210.369775 265.08578 
L 210.693224 261.653914 
L 211.016121 256.849303 
L 212.001048 254.790183 
L 212.32471 256.16293 
L 212.6482 259.594795 
L 212.971416 260.967541 
L 213.630903 256.16293 
L 213.9542 247.926452 
L 214.277566 249.299199 
L 214.600693 247.926452 
L 215.582714 241.062722 
L 215.905866 244.494587 
L 216.229105 243.121841 
L 216.552254 243.808214 
L 216.875366 245.18096 
L 217.211764 244.494587 
L 217.535438 241.062722 
L 217.858393 244.494587 
L 218.50487 247.240079 
L 218.828347 245.867333 
L 219.166837 245.18096 
L 219.489492 245.18096 
L 219.812724 249.985572 
L 220.136459 249.985572 
L 220.459784 247.926452 
L 220.782824 247.926452 
L 221.117341 245.18096 
L 221.129109 247.240079 
L 221.452313 247.240079 
L 221.775807 241.749095 
L 222.098989 241.749095 
L 222.4219 243.808214 
L 222.745505 239.689975 
L 223.079252 239.003602 
L 223.402752 241.062722 
L 223.72602 240.376349 
L 224.049079 245.18096 
L 224.372175 245.867333 
L 224.695432 243.121841 
L 225.03183 248.612826 
L 225.355101 243.121841 
L 225.678482 244.494587 
L 226.001498 247.926452 
L 226.324512 243.121841 
L 226.981766 241.749095 
L 227.305161 241.749095 
L 227.628317 245.867333 
L 227.951176 246.553706 
L 228.27365 243.808214 
L 228.597216 243.121841 
L 229.255377 239.003602 
L 229.57848 238.317229 
L 230.224746 239.689975 
L 230.547484 238.317229 
L 230.881976 239.003602 
L 231.528051 247.240079 
L 231.850793 245.18096 
L 232.174183 247.926452 
L 233.155383 241.062722 
L 233.47901 243.808214 
L 233.802536 243.808214 
L 234.449309 239.003602 
L 235.107686 243.121841 
L 235.431016 239.689975 
L 235.754427 238.317229 
L 236.07788 237.630856 
L 236.40053 237.630856 
L 236.739034 235.571737 
L 237.06223 237.630856 
L 237.385643 241.062722 
L 237.708817 241.749095 
L 238.032211 240.376349 
L 238.35508 240.376349 
L 239.013636 237.630856 
L 239.336643 239.689975 
L 239.660075 238.317229 
L 239.98326 238.317229 
L 240.307098 240.376349 
L 240.670937 244.494587 
L 240.993848 246.553706 
L 241.317554 245.867333 
L 241.640753 245.867333 
L 241.964009 246.553706 
L 242.286794 245.18096 
L 242.621724 248.612826 
L 242.945246 249.985572 
L 243.268693 253.417437 
L 243.592168 254.790183 
L 243.915464 251.358318 
L 244.238696 251.358318 
L 244.576367 252.731064 
L 244.898898 251.358318 
L 245.222491 251.358318 
L 245.545869 252.731064 
L 245.869378 251.358318 
L 246.192695 250.671945 
L 246.526982 247.240079 
L 246.850141 247.926452 
L 247.173807 247.240079 
L 247.496936 239.003602 
L 247.820403 240.376349 
L 248.143937 241.062722 
L 248.479034 239.689975 
L 248.80242 240.376349 
L 249.125207 247.926452 
L 249.448469 245.18096 
L 249.771145 246.553706 
L 250.094492 245.18096 
L 250.429784 249.985572 
L 250.753212 250.671945 
L 251.400038 254.790183 
L 251.723639 252.731064 
L 252.381942 246.553706 
L 252.705043 249.299199 
L 253.027985 249.985572 
L 253.351125 249.985572 
L 253.67472 251.358318 
L 253.997685 254.10381 
L 254.334727 251.358318 
L 254.658071 254.10381 
L 254.980985 249.299199 
L 255.949763 258.908422 
L 256.285595 257.535676 
L 256.608959 254.790183 
L 256.93126 256.16293 
L 257.254266 256.849303 
L 258.235642 249.985572 
L 258.559092 256.16293 
L 258.88208 254.10381 
L 259.205018 247.926452 
L 259.528491 249.985572 
L 260.208056 247.240079 
L 260.854444 245.867333 
L 261.499879 249.985572 
L 261.823303 248.612826 
L 262.161572 248.612826 
L 262.484798 246.553706 
L 262.806865 246.553706 
L 263.130582 247.240079 
L 263.453189 245.18096 
L 263.776706 246.553706 
L 264.111194 243.808214 
L 264.433909 234.198991 
L 264.757356 247.240079 
L 265.08043 239.003602 
L 265.403025 245.18096 
L 265.726168 244.494587 
L 266.060697 241.749095 
L 266.384293 241.749095 
L 266.707776 244.494587 
L 267.030207 242.435468 
L 267.353142 243.808214 
L 267.676421 243.808214 
L 268.012373 245.18096 
L 268.335415 241.749095 
L 268.658543 246.553706 
L 268.981654 243.808214 
L 269.304778 243.808214 
L 269.627979 240.376349 
L 269.962839 243.808214 
L 270.286254 240.376349 
L 270.609559 240.376349 
L 270.932868 237.630856 
L 271.256276 242.435468 
L 271.579674 237.630856 
L 271.917059 240.376349 
L 272.563529 234.885364 
L 272.886178 237.630856 
L 273.209793 238.317229 
L 273.532898 242.435468 
L 273.868203 243.808214 
L 274.190651 244.494587 
L 274.513619 245.867333 
L 274.837036 245.18096 
L 275.159746 246.553706 
L 275.482716 251.358318 
L 275.81856 253.417437 
L 276.141734 252.731064 
L 276.46486 252.731064 
L 276.787891 253.417437 
L 277.111414 252.044691 
L 277.434645 253.417437 
L 277.770485 253.417437 
L 278.094104 256.849303 
L 278.417516 256.16293 
L 279.744301 261.653914 
L 280.066859 263.713033 
L 280.390427 263.713033 
L 280.713066 260.281168 
L 281.036468 259.594795 
L 281.35987 260.281168 
L 281.696623 258.908422 
L 282.0198 258.222049 
L 282.66621 265.08578 
L 282.989545 258.908422 
L 283.313103 261.653914 
L 283.973922 261.653914 
L 284.29617 259.594795 
L 284.619512 263.713033 
L 285.266519 266.458526 
L 285.60488 264.399407 
L 285.928288 260.281168 
L 286.251093 252.731064 
L 286.574166 256.16293 
L 286.896734 250.671945 
L 287.219994 249.985572 
L 287.559642 248.612826 
L 287.883008 250.671945 
L 288.206093 250.671945 
L 288.528795 251.358318 
L 289.174983 251.358318 
L 289.512291 253.417437 
L 289.835592 249.985572 
L 290.158999 250.671945 
L 290.48247 252.731064 
L 290.805787 252.044691 
L 291.129346 252.044691 
L 291.465135 250.671945 
L 291.78823 252.044691 
L 292.111577 252.044691 
L 292.43437 250.671945 
L 292.75764 251.358318 
L 293.417267 256.16293 
L 293.740405 260.281168 
L 294.063129 258.908422 
L 294.386862 254.10381 
L 294.709601 256.849303 
L 295.032251 254.790183 
L 295.367641 254.790183 
L 295.690827 256.849303 
L 296.013805 256.849303 
L 296.337331 256.16293 
L 296.66094 257.535676 
L 296.983367 255.476556 
L 297.645073 255.476556 
L 297.968524 256.16293 
L 298.614633 256.16293 
L 298.937977 258.908422 
L 299.271729 259.594795 
L 299.284958 260.281168 
L 299.608336 261.653914 
L 299.931343 259.594795 
L 300.253844 259.594795 
L 300.577146 260.967541 
L 300.899822 260.967541 
L 301.23703 260.281168 
L 301.560126 260.281168 
L 301.883299 259.594795 
L 302.530476 259.594795 
L 302.852873 261.653914 
L 303.513359 258.222049 
L 304.159365 258.222049 
L 304.482463 256.16293 
L 304.805724 252.731064 
L 305.14571 254.10381 
L 305.469224 256.16293 
L 305.792816 252.731064 
L 306.439587 260.967541 
L 306.763325 259.594795 
L 307.099849 260.967541 
L 307.422988 260.281168 
L 307.746162 255.476556 
L 308.069677 258.222049 
L 308.716653 258.222049 
L 309.054589 259.594795 
L 309.054589 106.533597 
L 309.378188 103.788104 
L 309.701253 105.160851 
L 310.024738 107.21997 
L 310.670516 108.592716 
L 311.017295 107.21997 
L 311.340867 112.024581 
L 311.663982 112.710954 
L 311.987593 117.515566 
L 312.310587 116.829193 
L 312.634279 118.888312 
L 312.970579 119.574685 
L 313.293223 119.574685 
L 313.616199 114.770074 
L 314.262109 117.515566 
L 314.585495 120.947431 
L 314.921503 123.006551 
L 315.244693 123.006551 
L 315.568077 121.633805 
L 315.890898 120.947431 
L 316.213636 121.633805 
L 316.537254 123.006551 
L 317.197666 123.006551 
L 317.520676 123.692924 
L 317.843926 123.692924 
L 318.16711 114.770074 
L 318.490067 118.888312 
L 318.826049 126.438416 
L 319.149183 129.870282 
L 319.472366 126.438416 
L 319.795249 129.870282 
L 320.118681 131.243028 
L 320.441922 131.243028 
L 320.77806 135.361266 
L 321.101324 142.91137 
L 321.425127 138.793132 
L 321.748012 140.852251 
L 322.394637 139.479505 
L 322.730494 133.98852 
L 323.377113 132.615774 
L 324.346156 132.615774 
L 325.007803 136.047639 
L 325.331085 136.047639 
L 325.654452 139.479505 
L 325.977853 139.479505 
L 326.300329 138.106759 
L 326.959756 131.929401 
L 327.283153 128.497535 
L 327.606652 126.438416 
L 327.929481 127.124789 
L 328.270906 130.556655 
L 328.59461 130.556655 
L 328.917735 127.811162 
L 329.241229 127.811162 
L 329.564723 127.124789 
L 329.887819 128.497535 
L 330.225027 131.929401 
L 330.548018 127.811162 
L 330.870899 127.811162 
L 331.19383 133.98852 
L 331.516719 131.929401 
L 331.840287 133.302147 
L 332.17842 131.243028 
L 332.5022 131.243028 
L 332.82474 133.302147 
L 333.148072 138.106759 
L 333.471517 134.674893 
L 333.794917 136.047639 
L 334.133498 136.047639 
L 334.456908 135.361266 
L 334.780035 130.556655 
L 335.102843 131.929401 
L 335.749498 133.302147 
L 336.085829 134.674893 
L 336.408402 133.302147 
L 337.0556 136.047639 
L 337.702672 133.302147 
L 338.038811 126.438416 
L 338.362179 127.811162 
L 338.685602 127.811162 
L 339.008927 130.556655 
L 339.332007 129.183909 
L 339.655382 128.497535 
L 340.317046 124.379297 
L 340.964648 127.811162 
L 341.287099 126.438416 
L 341.610615 131.243028 
L 341.947257 130.556655 
L 342.270487 127.811162 
L 342.593923 127.811162 
L 342.916944 127.124789 
L 343.239286 127.811162 
L 343.562052 125.752043 
L 343.901849 127.124789 
L 344.22539 130.556655 
L 344.548443 127.811162 
L 344.871981 127.811162 
L 345.195135 125.06567 
L 346.17865 120.947431 
L 346.501279 123.692924 
L 346.824763 121.633805 
L 347.471254 126.438416 
L 347.789868 126.438416 
L 347.810775 125.752043 
L 348.133928 125.06567 
L 348.456834 123.692924 
L 349.10339 125.06567 
L 349.426639 127.124789 
L 349.764205 127.811162 
L 350.087003 131.243028 
L 350.410592 131.243028 
L 351.056832 124.379297 
L 351.379193 126.438416 
L 351.714696 127.124789 
L 352.037969 127.124789 
L 352.360945 130.556655 
L 352.683488 126.438416 
L 353.007074 127.811162 
L 353.665805 127.811162 
L 353.988549 128.497535 
L 354.311599 125.06567 
L 354.634825 124.379297 
L 354.958548 122.320178 
L 355.281535 121.633805 
L 355.620061 123.692924 
L 355.943465 121.633805 
L 356.2667 121.633805 
L 356.589987 123.006551 
L 357.235977 127.811162 
L 357.897024 120.947431 
L 358.220151 121.633805 
L 358.543581 119.574685 
L 358.866979 120.947431 
L 359.190119 125.752043 
L 359.524609 125.752043 
L 359.847803 128.497535 
L 360.170251 129.183909 
L 360.493749 129.183909 
L 360.81739 127.811162 
L 361.140016 129.870282 
L 361.475917 131.243028 
L 361.79837 133.98852 
L 362.445254 132.615774 
L 362.768279 131.243028 
L 363.091312 130.556655 
L 363.42617 130.556655 
L 363.749082 128.497535 
L 364.395806 131.243028 
L 364.719219 136.047639 
L 365.04249 133.98852 
L 365.382561 134.674893 
L 365.705455 133.98852 
L 366.028559 134.674893 
L 366.351559 133.98852 
L 366.675144 136.047639 
L 367.342949 153.89334 
L 367.666415 144.97049 
L 367.989101 146.343236 
L 368.312027 143.597743 
L 368.635185 147.029609 
L 368.958949 145.656863 
L 369.294943 145.656863 
L 369.617907 148.402355 
L 369.941601 149.775101 
L 370.264902 134.674893 
L 370.588205 150.461474 
L 370.911133 150.461474 
L 371.246025 147.029609 
L 371.569362 145.656863 
L 371.891914 146.343236 
L 372.214749 150.461474 
L 372.537566 157.325205 
L 372.860835 153.89334 
L 373.199456 153.206967 
L 373.846545 158.697951 
L 374.168849 151.83422 
L 374.492466 151.147847 
L 374.81487 151.147847 
L 375.150016 151.83422 
L 375.796378 150.461474 
L 376.119295 145.656863 
L 376.442342 148.402355 
L 376.766028 147.715982 
L 377.101052 148.402355 
L 377.424023 147.029609 
L 377.74745 148.402355 
L 378.070919 149.088728 
L 378.394393 151.147847 
L 378.716976 148.402355 
L 379.053809 148.402355 
L 379.376596 151.147847 
L 379.699823 151.83422 
L 380.023105 151.147847 
L 380.669899 146.343236 
L 381.330885 146.343236 
L 381.653989 148.402355 
L 381.977605 147.715982 
L 382.30112 146.343236 
L 382.96274 151.147847 
L 383.286043 148.402355 
L 383.609014 152.520593 
L 383.932415 148.402355 
L 384.255065 148.402355 
L 384.578771 146.343236 
L 384.914907 148.402355 
L 385.238295 146.343236 
L 385.561161 147.029609 
L 385.884312 144.97049 
L 386.207672 138.106759 
L 386.530944 137.420386 
L 386.865117 140.165878 
L 386.878767 138.106759 
L 387.20213 137.420386 
L 387.524775 137.420386 
L 387.848095 140.852251 
L 388.171081 140.852251 
L 388.494189 138.793132 
L 388.830764 138.106759 
L 389.153664 142.224997 
L 389.477112 144.284116 
L 389.799991 144.284116 
L 390.12312 143.597743 
L 390.446578 144.97049 
L 390.785773 144.284116 
L 391.108802 146.343236 
L 391.432 147.029609 
L 392.07861 147.029609 
L 392.736927 142.91137 
L 393.059948 143.597743 
L 393.383319 144.97049 
L 393.707129 144.97049 
L 394.030611 148.402355 
L 394.352906 153.206967 
L 394.689108 153.89334 
L 395.012613 153.89334 
L 395.335879 155.266086 
L 395.659066 155.266086 
L 395.982434 155.952459 
L 396.641456 155.952459 
L 396.964586 151.147847 
L 397.287359 154.579713 
L 397.610905 160.070697 
L 397.934231 159.384324 
L 398.257687 160.75707 
L 398.592901 160.75707 
L 398.915838 160.070697 
L 399.238815 158.697951 
L 399.562388 160.070697 
L 399.885756 159.384324 
L 400.551439 153.206967 
L 400.874565 158.697951 
L 401.198281 160.75707 
L 401.520795 160.75707 
L 401.844332 160.070697 
L 402.167639 161.443444 
L 402.827237 155.266086 
L 403.149866 155.952459 
L 403.473093 157.325205 
L 403.796878 155.952459 
L 404.119529 155.952459 
L 404.455179 153.206967 
L 404.778427 153.89334 
L 405.101903 155.266086 
L 405.424983 155.266086 
L 405.748661 154.579713 
L 406.071692 151.147847 
L 406.411694 151.147847 
L 406.735002 153.89334 
L 407.057911 153.89334 
L 407.381186 155.266086 
L 408.027658 151.83422 
L 408.362434 151.83422 
L 408.686219 155.266086 
L 409.656104 149.775101 
L 409.978757 148.402355 
L 410.313787 147.715982 
L 410.636699 147.715982 
L 410.959916 144.97049 
L 411.283271 143.597743 
L 411.60688 144.97049 
L 411.930423 144.97049 
L 412.265405 143.597743 
L 412.588287 137.420386 
L 412.911571 139.479505 
L 413.234083 139.479505 
L 413.557277 133.98852 
L 413.880148 138.793132 
L 414.214716 139.479505 
L 414.538199 136.734012 
L 414.860955 135.361266 
L 415.18388 136.047639 
L 415.507283 138.106759 
L 415.830583 138.793132 
L 416.168397 138.106759 
L 416.49112 139.479505 
L 416.814547 138.793132 
L 417.137503 138.793132 
L 417.46017 139.479505 
L 417.783004 139.479505 
L 418.117934 142.224997 
L 418.441111 140.852251 
L 418.763967 140.165878 
L 419.08769 142.91137 
L 419.410401 142.91137 
L 419.733194 141.538624 
L 420.068197 142.91137 
L 420.391579 141.538624 
L 421.038333 141.538624 
L 421.361585 140.852251 
L 421.685323 135.361266 
L 422.020756 142.91137 
L 422.343963 142.224997 
L 422.667477 142.91137 
L 423.637115 142.91137 
L 423.97457 139.479505 
L 424.297688 137.420386 
L 424.620689 136.734012 
L 425.266847 139.479505 
L 425.941756 145.656863 
L 426.265051 146.343236 
L 426.588383 144.284116 
L 426.911952 149.775101 
L 427.234982 149.088728 
L 427.557769 150.461474 
L 427.893222 150.461474 
L 428.216175 151.147847 
L 428.539652 149.088728 
L 428.863287 149.088728 
L 429.186235 142.91137 
L 429.509527 148.402355 
L 429.845107 148.402355 
L 430.168546 150.461474 
L 430.491854 149.775101 
L 430.81487 150.461474 
L 431.138048 147.715982 
L 431.461019 149.775101 
L 431.80226 146.343236 
L 432.125436 147.029609 
L 432.448628 142.91137 
L 432.772108 146.343236 
L 433.095387 147.715982 
L 433.419068 144.97049 
L 433.754461 146.343236 
L 434.400214 149.775101 
L 434.72346 146.343236 
L 435.046795 148.402355 
L 435.370288 148.402355 
L 435.705377 146.343236 
L 436.028652 147.029609 
L 436.352087 146.343236 
L 436.998868 146.343236 
L 437.322131 149.775101 
L 437.980468 149.775101 
L 438.303683 147.029609 
L 438.626881 147.029609 
L 438.949938 143.597743 
L 439.272583 146.343236 
L 439.60967 143.597743 
L 439.932994 142.91137 
L 440.256242 144.284116 
L 440.579345 144.97049 
L 440.902516 142.91137 
L 441.88394 144.97049 
L 442.853329 144.97049 
L 443.176587 146.343236 
L 443.512282 145.656863 
L 443.835803 145.656863 
L 444.481897 144.284116 
L 444.805402 145.656863 
L 445.128229 144.284116 
L 445.473465 140.165878 
L 445.796902 144.284116 
L 446.120445 136.047639 
L 446.443757 133.98852 
L 446.7667 136.734012 
L 447.089924 137.420386 
L 447.427609 136.734012 
L 447.750944 138.106759 
L 448.074425 138.793132 
L 448.397383 140.852251 
L 448.719991 141.538624 
L 449.043164 138.106759 
L 449.378785 138.106759 
L 449.702406 139.479505 
L 450.025978 142.224997 
L 450.349546 141.538624 
L 450.671845 142.224997 
L 450.995229 138.793132 
L 451.330632 141.538624 
L 451.65394 142.91137 
L 452.623301 144.97049 
L 452.946213 147.029609 
L 453.281298 142.224997 
L 453.60421 145.656863 
L 453.927684 145.656863 
L 454.574386 142.91137 
L 454.897881 144.97049 
L 455.232931 146.343236 
L 455.556235 145.656863 
L 455.879729 145.656863 
L 456.203304 144.97049 
L 456.525836 144.97049 
L 456.84899 147.029609 
L 457.187089 148.402355 
L 457.833597 144.284116 
L 458.156601 145.656863 
L 458.479802 146.343236 
L 458.803326 150.461474 
L 459.138995 149.775101 
L 459.461852 153.206967 
L 459.785158 151.83422 
L 460.108169 155.266086 
L 460.431112 154.579713 
L 460.753853 150.461474 
L 461.089721 149.775101 
L 461.413539 150.461474 
L 461.736837 151.83422 
L 462.06021 148.402355 
L 462.706096 147.029609 
L 463.043395 148.402355 
L 463.366528 149.088728 
L 463.689619 148.402355 
L 464.659194 148.402355 
L 465.00384 151.147847 
L 465.327023 148.402355 
L 465.650118 149.088728 
L 465.973777 152.520593 
L 466.621469 152.520593 
L 467.282224 149.088728 
L 467.928441 168.993548 
L 468.251665 161.443444 
L 468.574689 164.875309 
L 468.911113 170.366294 
L 469.234664 166.934428 
L 469.557907 168.307174 
L 469.880556 165.561682 
L 470.202953 166.934428 
L 470.526236 167.620801 
L 470.861567 172.425413 
L 471.184634 171.73904 
L 471.508142 172.425413 
L 471.831578 168.993548 
L 472.154274 166.934428 
L 472.477605 167.620801 
L 472.815055 166.248055 
L 473.138047 166.248055 
L 473.783622 167.620801 
L 474.106916 171.052667 
L 474.430366 169.679921 
L 474.76576 169.679921 
L 475.089522 171.73904 
L 475.412789 168.993548 
L 475.736309 167.620801 
L 476.059218 171.73904 
L 476.382944 169.679921 
L 476.718722 174.484532 
L 477.041665 173.798159 
L 478.010478 179.289144 
L 478.33418 171.73904 
L 478.669629 184.093755 
L 478.992976 179.975517 
L 479.316166 179.975517 
L 479.639183 182.034636 
L 479.962297 179.289144 
L 480.285454 181.348263 
L 480.945698 177.230025 
L 481.268444 177.230025 
L 481.591835 171.73904 
L 481.915414 179.289144 
L 482.23773 177.916398 
L 482.573986 175.857278 
L 482.897348 177.230025 
L 483.543663 174.484532 
L 483.867048 176.543651 
L 484.19035 176.543651 
L 484.540601 175.857278 
L 484.864027 175.857278 
L 485.187113 177.916398 
L 485.510733 178.602771 
L 485.833423 176.543651 
L 486.15705 180.66189 
L 486.492697 183.407382 
L 486.81646 184.093755 
L 487.140171 183.407382 
L 487.463692 184.093755 
L 487.786731 183.407382 
L 488.109471 184.093755 
L 488.447651 186.839248 
L 488.771005 187.525621 
L 489.09386 191.643859 
L 489.41625 188.898367 
L 489.738935 184.780129 
L 490.06193 187.525621 
L 490.39832 180.66189 
L 490.721597 182.721009 
L 491.044893 182.721009 
L 491.368319 180.66189 
L 491.691819 182.034636 
L 492.015163 182.721009 
L 492.673972 182.721009 
L 492.997135 183.407382 
L 493.320839 182.034636 
L 493.644048 182.721009 
L 493.967629 186.152875 
L 494.302759 185.466502 
L 494.626129 186.152875 
L 494.949635 183.407382 
L 495.27326 183.407382 
L 495.596268 184.780129 
L 495.918907 184.093755 
L 496.258678 185.466502 
L 496.905399 185.466502 
L 497.228209 188.211994 
L 497.874506 182.721009 
L 498.210728 184.093755 
L 498.533266 182.721009 
L 498.85613 182.721009 
L 499.179179 183.407382 
L 499.502336 182.034636 
L 500.160776 186.839248 
L 500.483623 187.525621 
L 500.806672 186.839248 
L 501.129979 188.211994 
L 501.453358 185.466502 
L 501.776212 186.152875 
L 502.111286 187.525621 
L 502.757554 187.525621 
L 503.080753 186.152875 
L 503.404001 186.152875 
L 503.727309 183.407382 
L 504.399229 183.407382 
L 504.722589 185.466502 
L 505.046346 184.093755 
L 505.370012 184.093755 
L 506.028474 188.211994 
L 506.351849 191.643859 
L 506.674659 188.211994 
L 506.997592 187.525621 
L 507.321269 188.898367 
L 507.644407 189.58474 
L 507.979482 186.839248 
L 508.625315 184.093755 
L 508.948494 184.780129 
L 509.271328 181.348263 
L 509.594396 182.721009 
L 509.929784 186.152875 
L 510.253006 184.780129 
L 510.576569 182.034636 
L 510.899749 180.66189 
L 511.223231 182.034636 
L 511.546502 182.034636 
L 511.881524 179.975517 
L 512.205208 180.66189 
L 512.52896 182.034636 
L 513.175266 178.602771 
L 513.498979 181.348263 
L 513.836032 179.975517 
L 514.159384 181.348263 
L 514.482575 181.348263 
L 514.805619 182.034636 
L 515.128453 182.034636 
L 515.451332 182.721009 
L 515.786059 182.721009 
L 516.431991 179.975517 
L 516.754833 182.721009 
L 517.077441 183.407382 
L 517.400803 176.543651 
L 517.734763 176.543651 
L 518.058437 178.602771 
L 518.381552 177.230025 
L 518.704717 178.602771 
L 519.0274 177.230025 
L 519.350821 179.289144 
L 520.010038 175.857278 
L 520.333371 176.543651 
L 520.656726 175.857278 
L 521.302959 175.857278 
L 521.638892 175.170905 
L 521.961867 175.857278 
L 522.285166 173.798159 
L 522.930943 173.798159 
L 523.253913 173.111786 
L 523.615594 173.111786 
L 523.937679 173.798159 
L 524.261068 173.111786 
L 524.584022 174.484532 
L 524.90745 176.543651 
L 525.231014 177.230025 
L 525.566749 175.857278 
L 525.889886 175.857278 
L 526.213014 177.230025 
L 526.536419 176.543651 
L 526.859685 178.602771 
L 527.183033 175.857278 
L 527.518392 175.857278 
L 527.518392 204.684948 
L 528.165226 211.548679 
L 528.488249 210.175933 
L 528.812003 206.744067 
L 529.50098 212.921425 
L 529.823621 211.548679 
L 530.146932 211.548679 
L 530.470517 212.921425 
L 530.793625 214.980544 
L 531.11731 214.294171 
L 531.452685 219.098783 
L 532.098347 221.844275 
L 532.421352 222.530648 
L 532.743961 220.471529 
L 533.067463 223.903394 
L 533.403987 223.903394 
L 533.727251 221.157902 
L 534.050419 221.157902 
L 534.696256 226.648887 
L 535.356025 237.630856 
L 535.678941 236.944483 
L 536.325772 234.198991 
L 536.649258 230.767125 
L 536.972286 232.139871 
L 537.30764 232.139871 
L 537.630798 228.021633 
L 537.954337 229.394379 
L 538.277466 225.962514 
L 538.600306 225.962514 
L 538.923627 227.33526 
L 539.259264 226.648887 
L 539.582871 227.33526 
L 539.905919 227.33526 
L 540.229238 226.648887 
L 540.552675 226.648887 
L 540.875918 228.021633 
L 541.856983 230.080752 
L 542.179156 230.080752 
L 542.502116 230.767125 
L 543.162481 230.767125 
L 543.485823 230.080752 
L 543.808601 230.767125 
L 544.132027 228.708006 
L 544.455059 228.021633 
L 544.77863 228.021633 
L 545.43823 229.394379 
L 545.761766 227.33526 
L 546.085068 227.33526 
L 546.408431 226.648887 
L 546.731211 231.453498 
L 547.054136 233.512618 
L 547.377414 233.512618 
L 547.701107 231.453498 
L 548.02442 231.453498 
L 548.347355 232.139871 
L 548.682569 228.021633 
L 549.329413 226.648887 
L 549.652195 226.648887 
L 549.975593 231.453498 
L 550.299085 232.826245 
L 550.634768 230.767125 
L 551.281944 230.767125 
L 551.605217 230.080752 
L 551.928059 233.512618 
L 552.250623 234.198991 
L 552.588099 237.630856 
L 552.911488 235.571737 
L 553.234539 236.25811 
L 553.557546 241.749095 
L 553.880839 243.121841 
L 554.203862 243.121841 
L 554.861959 249.299199 
L 555.508152 252.044691 
L 555.830298 254.790183 
L 556.153784 251.358318 
L 556.811238 259.594795 
L 557.134627 258.222049 
L 557.457908 260.281168 
L 557.780561 258.222049 
L 558.103707 263.02666 
L 558.438865 264.399407 
L 559.08589 257.535676 
L 559.40938 259.594795 
L 559.732627 258.222049 
L 560.056031 258.222049 
L 560.393992 258.908422 
L 561.040535 265.08578 
L 561.364081 265.08578 
L 561.687363 267.144899 
L 562.01002 274.695003 
L 562.345434 265.772153 
L 562.668848 266.458526 
L 562.991525 265.08578 
L 563.314425 263.02666 
L 563.637847 258.222049 
L 563.960805 257.535676 
L 564.296368 260.967541 
L 564.943766 265.08578 
L 565.26602 264.399407 
L 565.589006 267.831272 
L 565.911883 267.144899 
L 566.263877 267.144899 
L 566.587429 265.772153 
L 566.910434 262.340287 
L 567.557234 263.713033 
L 567.880777 260.281168 
L 568.21657 260.967541 
L 568.53965 265.08578 
L 568.862916 263.713033 
L 569.185611 261.653914 
L 569.509036 260.967541 
L 569.832527 263.713033 
L 570.167928 273.322257 
L 570.490655 275.381376 
L 570.814017 282.245107 
L 571.137673 283.617853 
L 571.46022 284.304226 
L 571.783115 286.363345 
L 572.440612 293.913449 
L 572.763192 295.972569 
L 573.08619 293.227076 
L 573.732583 299.404434 
L 574.068337 296.658942 
L 574.392033 295.972569 
L 574.715682 303.522672 
L 575.038716 295.286195 
L 575.360891 290.481584 
L 575.684262 291.167957 
L 576.022017 296.658942 
L 576.345834 296.658942 
L 576.66882 299.404434 
L 576.992101 293.913449 
L 577.315376 295.972569 
L 577.638635 292.540703 
L 577.973991 287.736091 
L 578.297394 286.363345 
L 578.620877 287.736091 
L 578.943431 291.167957 
L 579.266724 282.93148 
L 579.59008 280.185988 
L 579.925755 284.304226 
L 580.248758 283.617853 
L 580.572011 282.245107 
L 580.895439 280.185988 
L 581.21868 280.185988 
L 581.541913 281.558734 
L 581.878415 280.872361 
L 582.202042 280.872361 
L 582.52426 282.245107 
L 582.847594 280.872361 
L 583.170846 280.872361 
L 583.494113 282.93148 
L 583.832597 282.245107 
L 584.155472 285.676972 
L 584.478809 287.049718 
L 585.125226 291.85433 
L 585.448175 290.481584 
L 586.1227 282.93148 
L 586.445543 289.795211 
L 587.091988 291.167957 
L 587.75368 286.363345 
L 588.076323 285.676972 
L 588.398871 282.93148 
L 588.721758 283.617853 
L 589.044606 282.245107 
L 589.368013 284.990599 
L 589.706689 285.676972 
L 590.030353 287.049718 
L 590.353157 287.736091 
L 590.67621 289.108838 
L 591.322267 287.736091 
L 591.659304 289.108838 
L 591.982447 288.422465 
L 592.306043 287.049718 
L 592.628702 287.736091 
L 593.274517 284.304226 
L 593.611086 282.93148 
L 593.933167 284.304226 
L 594.256447 284.304226 
L 594.579344 285.676972 
L 594.901963 283.617853 
L 595.224709 287.736091 
L 595.563158 295.972569 
L 595.886197 299.404434 
L 596.209208 319.995627 
L 596.855572 309.70003 
L 597.179213 313.131896 
L 597.515166 315.191015 
L 598.160548 324.800238 
L 598.484291 330.291223 
L 598.807096 328.918477 
L 599.130196 323.427492 
L 599.792459 318.62288 
L 600.43965 323.427492 
L 600.763162 316.563761 
L 601.086352 319.309253 
L 601.422848 315.877388 
L 601.746313 317.936507 
L 602.069677 317.936507 
L 602.392902 314.504642 
L 602.715776 317.250134 
L 603.037914 315.877388 
L 603.373992 319.995627 
L 604.02047 319.995627 
L 604.343326 317.936507 
L 604.665837 313.818269 
L 604.988558 312.445523 
L 605.326927 319.309253 
L 605.341771 311.072776 
L 605.664827 309.70003 
L 605.988244 306.268165 
L 606.311389 315.877388 
L 606.63463 309.70003 
L 606.957729 308.327284 
L 607.294343 312.445523 
L 607.939768 306.954538 
L 608.263021 306.954538 
L 608.586707 310.386403 
L 608.909456 309.70003 
L 609.244959 309.70003 
L 609.568488 306.268165 
L 609.891895 311.072776 
L 610.215558 307.640911 
L 610.538619 307.640911 
L 610.862166 309.013657 
L 611.197799 305.581792 
L 611.520467 307.640911 
L 611.843676 311.072776 
L 612.167399 311.759149 
L 612.489959 314.504642 
L 612.813709 311.072776 
L 613.152219 311.072776 
L 613.476044 308.327284 
L 613.799333 309.013657 
L 614.122007 306.954538 
L 614.445177 309.70003 
L 614.768932 315.877388 
L 615.104801 311.072776 
L 615.427648 312.445523 
L 615.750888 307.640911 
L 616.074255 306.954538 
L 616.397865 310.386403 
L 616.721197 306.268165 
L 617.055857 305.581792 
L 617.378654 306.268165 
L 617.70231 304.895419 
L 618.025768 304.895419 
L 618.348653 304.209046 
L 619.007476 296.658942 
L 619.330832 295.286195 
L 619.653828 297.345315 
L 619.977609 297.345315 
L 620.30089 304.209046 
L 620.623146 306.954538 
L 620.958812 313.131896 
L 621.60526 317.936507 
L 621.928118 323.427492 
L 622.251023 326.172984 
L 622.573485 340.586819 
L 622.911262 335.782208 
L 623.234531 343.332311 
L 623.557749 337.154954 
L 623.880957 337.154954 
L 624.204485 339.900446 
L 624.865346 331.663969 
L 624.877146 328.918477 
L 625.200778 323.427492 
L 625.523557 327.54573 
L 625.846142 326.859357 
L 626.169933 322.741119 
L 626.492906 322.054746 
L 627.151573 328.918477 
L 627.474994 326.859357 
L 627.798792 328.232104 
L 628.122256 330.291223 
L 628.445871 329.60485 
L 629.103836 337.154954 
L 629.749384 328.918477 
L 630.071848 330.291223 
L 630.395248 335.095834 
L 630.732631 336.468581 
L 631.055519 322.741119 
L 631.378108 335.782208 
L 631.701772 337.154954 
L 632.34842 322.054746 
L 632.68342 325.486611 
L 633.006048 325.486611 
L 633.328929 324.113865 
L 633.652218 324.113865 
L 633.975421 322.054746 
L 634.298522 322.741119 
L 634.632989 325.486611 
L 634.956295 324.113865 
L 635.27996 323.427492 
L 635.602064 323.427492 
L 635.925518 329.60485 
L 636.248393 326.859357 
L 636.90773 333.723088 
L 637.552964 326.859357 
L 637.875759 328.232104 
L 638.198995 337.841327 
L 638.533965 335.782208 
L 638.857342 344.705058 
L 639.180747 344.018685 
L 639.503391 351.568789 
L 640.149904 357.746146 
L 640.48721 350.196042 
L 640.810754 347.45055 
L 641.134403 347.45055 
L 641.457057 346.077804 
L 641.779743 358.432519 
L 642.102391 351.568789 
L 642.760079 358.432519 
L 643.406659 357.059773 
L 643.73015 351.568789 
L 644.053363 354.314281 
L 644.410352 352.255162 
L 644.732527 352.941535 
L 645.055579 348.136923 
L 645.378669 348.136923 
L 645.701932 347.45055 
L 646.02571 348.136923 
L 646.363358 353.627908 
L 646.686882 356.3734 
L 647.010266 361.178012 
L 647.333525 361.864385 
L 647.65674 357.746146 
L 647.980158 373.532727 
L 648.315645 358.432519 
L 648.639091 359.118892 
L 648.962657 361.178012 
L 649.285807 361.864385 
L 650.267284 350.196042 
L 650.590347 358.432519 
L 650.913695 355.000654 
L 651.236885 359.805266 
L 651.883458 349.509669 
L 652.218191 348.823296 
L 652.541566 353.627908 
L 652.865243 352.941535 
L 653.187232 348.136923 
L 653.834234 346.764177 
L 654.169753 337.841327 
L 654.492124 339.900446 
L 654.814763 337.841327 
L 655.138224 340.586819 
L 655.461164 340.586819 
L 656.12173 346.764177 
L 656.768298 341.273192 
L 657.091502 330.977596 
L 658.072075 335.095834 
L 659.042205 340.586819 
L 659.688132 340.586819 
L 660.022491 344.705058 
L 660.345557 346.077804 
L 660.669004 349.509669 
L 660.992689 350.882415 
L 661.316039 361.178012 
L 661.63858 362.550758 
L 662.296359 354.314281 
L 662.620057 352.941535 
L 663.588307 346.077804 
L 663.952552 339.900446 
L 664.275853 343.332311 
L 664.922378 330.291223 
L 665.245108 344.018685 
L 665.568314 314.504642 
L 665.904117 312.445523 
L 666.872933 346.764177 
L 667.196668 318.62288 
L 667.51994 322.054746 
L 667.855273 338.5277 
L 668.178145 333.723088 
L 668.501495 334.409461 
L 668.824976 330.977596 
L 669.147887 332.350342 
L 669.470815 335.782208 
L 669.806559 340.586819 
L 670.129721 335.782208 
L 670.452195 336.468581 
L 670.775738 330.977596 
L 671.09888 330.291223 
L 671.422603 327.54573 
L 671.763437 328.918477 
L 672.732611 330.977596 
L 673.055817 333.723088 
L 673.379054 331.663969 
L 673.714497 333.036715 
L 674.037329 331.663969 
L 674.682721 324.113865 
L 675.006228 323.427492 
L 675.328462 322.054746 
L 675.665352 317.250134 
L 676.310673 325.486611 
L 676.63343 319.995627 
L 676.956703 328.918477 
L 677.280376 329.60485 
L 677.617712 328.918477 
L 677.940886 327.54573 
L 678.26446 330.291223 
L 678.587567 326.859357 
L 678.911057 328.918477 
L 679.23442 328.232104 
L 679.570455 326.859357 
L 679.570455 326.859357 
" clip-path="url(#pbfe01efaee)" style="fill: none; stroke: #000000; stroke-width: 1.5; stroke-linecap: square"/>
   </g>
   <g id="patch_3">
    <path d="M 57.35 390.04 
L 57.35 26.88 
" style="fill: none; stroke: #000000; stroke-width: 0.8; stroke-linejoin: miter; stroke-linecap: square"/>
   </g>
   <g id="patch_4">
    <path d="M 709.2 390.04 
L 709.2 26.88 
" style="fill: none; stroke: #000000; stroke-width: 0.8; stroke-linejoin: miter; stroke-linecap: square"/>
   </g>
   <g id="patch_5">
    <path d="M 57.35 390.04 
L 709.2 390.04 
" style="fill: none; stroke: #000000; stroke-width: 0.8; stroke-linejoin: miter; stroke-linecap: square"/>
   </g>
   <g id="patch_6">
    <path d="M 57.35 26.88 
L 709.2 26.88 
" style="fill: none; stroke: #000000; stroke-width: 0.8; stroke-linejoin: miter; stroke-linecap: square"/>
   </g>
   <g id="text_16">
    <!-- Price Over Time (Paper Trading) -->
    <g transform="translate(288.2125 20.88) scale(0.12 -0.12)">
     <defs>
      <path id="DejaVuSans-4f" d="M 2522 4238 
Q 1834 4238 1429 3725 
Q 1025 3213 1025 2328 
Q 1025 1447 1429 934 
Q 1834 422 2522 422 
Q 3209 422 3611 934 
Q 4013 1447 4013 2328 
Q 4013 3213 3611 3725 
Q 3209 4238 2522 4238 
z
M 2522 4750 
Q 3503 4750 4090 4092 
Q 4678 3434 4678 2328 
Q 4678 1225 4090 567 
Q 3503 -91 2522 -91 
Q 1538 -91 948 565 
Q 359 1222 359 2328 
Q 359 3434 948 4092 
Q 1538 4750 2522 4750 
z
" transform="scale(0.015625)"/>
      <path id="DejaVuSans-76" d="M 191 3500 
L 800 3500 
L 1894 563 
L 2988 3500 
L 3597 3500 
L 2284 0 
L 1503 0 
L 191 3500 
z
" transform="scale(0.015625)"/>
      <path id="DejaVuSans-6d" d="M 3328 2828 
Q 3544 3216 3844 3400 
Q 4144 3584 4550 3584 
Q 5097 3584 5394 3201 
Q 5691 2819 5691 2113 
L 5691 0 
L 5113 0 
L 5113 2094 
Q 5113 2597 4934 2840 
Q 4756 3084 4391 3084 
Q 3944 3084 3684 2787 
Q 3425 2491 3425 1978 
L 3425 0 
L 2847 0 
L 2847 2094 
Q 2847 2600 2669 2842 
Q 2491 3084 2119 3084 
Q 1678 3084 1418 2786 
Q 1159 2488 1159 1978 
L 1159 0 
L 581 0 
L 581 3500 
L 1159 3500 
L 1159 2956 
Q 1356 3278 1631 3431 
Q 1906 3584 2284 3584 
Q 2666 3584 2933 3390 
Q 3200 3197 3328 2828 
z
" transform="scale(0.015625)"/>
      <path id="DejaVuSans-28" d="M 1984 4856 
Q 1566 4138 1362 3434 
Q 1159 2731 1159 2009 
Q 1159 1288 1364 580 
Q 1569 -128 1984 -844 
L 1484 -844 
Q 1016 -109 783 600 
Q 550 1309 550 2009 
Q 550 2706 781 3412 
Q 1013 4119 1484 4856 
L 1984 4856 
z
" transform="scale(0.015625)"/>
      <path id="DejaVuSans-29" d="M 513 4856 
L 1013 4856 
Q 1481 4119 1714 3412 
Q 1947 2706 1947 2009 
Q 1947 1309 1714 600 
Q 1481 -109 1013 -844 
L 513 -844 
Q 928 -128 1133 580 
Q 1338 1288 1338 2009 
Q 1338 2731 1133 3434 
Q 928 4138 513 4856 
z
" transform="scale(0.015625)"/>
     </defs>
     <use xlink:href="#DejaVuSans-50"/>
     <use xlink:href="#DejaVuSans-72" x="58.552734"/>
     <use xlink:href="#DejaVuSans-69" x="99.666016"/>
     <use xlink:href="#DejaVuSans-63" x="127.449219"/>
     <use xlink:href="#DejaVuSans-65" x="182.429688"/>
     <use xlink:href="#DejaVuSans-20" x="243.953125"/>
     <use xlink:href="#DejaVuSans-4f" x="275.740234"/>
     <use xlink:href="#DejaVuSans-76" x="354.451172"/>
     <use xlink:href="#DejaVuSans-65" x="413.630859"/>
     <use xlink:href="#DejaVuSans-72" x="475.154297"/>
     <use xlink:href="#DejaVuSans-20" x="516.267578"/>
     <use xlink:href="#DejaVuSans-54" x="548.054688"/>
     <use xlink:href="#DejaVuSans-69" x="606.013672"/>
     <use xlink:href="#DejaVuSans-6d" x="633.796875"/>
     <use xlink:href="#DejaVuSans-65" x="731.208984"/>
     <use xlink:href="#DejaVuSans-20" x="792.732422"/>
     <use xlink:href="#DejaVuSans-28" x="824.519531"/>
     <use xlink:href="#DejaVuSans-50" x="863.533203"/>
     <use xlink:href="#DejaVuSans-61" x="919.335938"/>
     <use xlink:href="#DejaVuSans-70" x="980.615234"/>
     <use xlink:href="#DejaVuSans-65" x="1044.091797"/>
     <use xlink:href="#DejaVuSans-72" x="1105.615234"/>
     <use xlink:href="#DejaVuSans-20" x="1146.728516"/>
     <use xlink:href="#DejaVuSans-54" x="1178.515625"/>
     <use xlink:href="#DejaVuSans-72" x="1224.849609"/>
     <use xlink:href="#DejaVuSans-61" x="1265.962891"/>
     <use xlink:href="#DejaVuSans-64" x="1327.242188"/>
     <use xlink:href="#DejaVuSans-69" x="1390.71875"/>
     <use xlink:href="#DejaVuSans-6e" x="1418.501953"/>
     <use xlink:href="#DejaVuSans-67" x="1481.880859"/>
     <use xlink:href="#DejaVuSans-29" x="1545.357422"/>
    </g>
   </g>
   <g id="legend_1">
    <g id="patch_7">
     <path d="M 645.804688 49.558125 
L 702.2 49.558125 
Q 704.2 49.558125 704.2 47.558125 
L 704.2 33.88 
Q 704.2 31.88 702.2 31.88 
L 645.804688 31.88 
Q 643.804688 31.88 643.804688 33.88 
L 643.804688 47.558125 
Q 643.804688 49.558125 645.804688 49.558125 
z
" style="fill: #ffffff; opacity: 0.8; stroke: #cccccc; stroke-linejoin: miter"/>
    </g>
    <g id="line2d_28">
     <path d="M 647.804688 39.978438 
L 657.804688 39.978438 
L 667.804688 39.978438 
" style="fill: none; stroke: #000000; stroke-width: 1.5; stroke-linecap: square"/>
    </g>
    <g id="text_17">
     <!-- Price -->
     <g transform="translate(675.804688 43.478438) scale(0.1 -0.1)">
      <use xlink:href="#DejaVuSans-50"/>
      <use xlink:href="#DejaVuSans-72" x="58.552734"/>
      <use xlink:href="#DejaVuSans-69" x="99.666016"/>
      <use xlink:href="#DejaVuSans-63" x="127.449219"/>
      <use xlink:href="#DejaVuSans-65" x="182.429688"/>
     </g>
    </g>
   </g>
  </g>
 </g>
 <defs>
  <clipPath id="pbfe01efaee">
   <rect x="57.35" y="26.88" width="651.85" height="363.16"/>
  </clipPath>
 </defs>
</svg>
