<?xml version="1.0" encoding="utf-8" standalone="no"?>
<!DOCTYPE svg PUBLIC "-//W3C//DTD SVG 1.1//EN"
  "http://www.w3.org/Graphics/SVG/1.1/DTD/svg11.dtd">
<svg xmlns:xlink="http://www.w3.org/1999/xlink" width="720pt" height="432pt" viewBox="0 0 720 432" xmlns="http://www.w3.org/2000/svg" version="1.1">
 <metadata>
  <rdf:RDF xmlns:dc="http://purl.org/dc/elements/1.1/" xmlns:cc="http://creativecommons.org/ns#" xmlns:rdf="http://www.w3.org/1999/02/22-rdf-syntax-ns#">
   <cc:Work>
    <dc:type rdf:resource="http://purl.org/dc/dcmitype/StillImage"/>
    <dc:date>2026-04-06T14:28:44.033184</dc:date>
    <dc:format>image/svg+xml</dc:format>
    <dc:creator>
     <cc:Agent>
      <dc:title>Matplotlib v3.9.2, https://matplotlib.org/</dc:title>
     </cc:Agent>
    </dc:creator>
   </cc:Work>
  </rdf:RDF>
 </metadata>
 <defs>
  <style type="text/css">*{stroke-linejoin: round; stroke-linecap: butt}</style>
 </defs>
 <g id="figure_1">
  <g id="patch_1">
   <path d="M 0 432 
L 720 432 
L 720 0 
L 0 0 
z
" style="fill: #ffffff"/>
  </g>
  <g id="axes_1">
   <g id="patch_2">
    <path d="M 57.35 390.04 
L 709.2 390.04 
L 709.2 26.88 
L 57.35 26.88 
z
" style="fill: #ffffff"/>
   </g>
   <g id="matplotlib.axis_1">
    <g id="xtick_1">
     <g id="line2d_1">
      <path d="M 86.979545 390.04 
L 86.979545 26.88 
" clip-path="url(#p2b697ec0bc)" style="fill: none; stroke: #b0b0b0; stroke-width: 0.8; stroke-linecap: square"/>
     </g>
     <g id="line2d_2">
      <defs>
       <path id="m5c7f7458c9" d="M 0 0 
L 0 3.5 
" style="stroke: #000000; stroke-width: 0.8"/>
      </defs>
      <g>
       <use xlink:href="#m5c7f7458c9" x="86.979545" y="390.04" style="stroke: #000000; stroke-width: 0.8"/>
      </g>
     </g>
     <g id="text_1">
      <!-- 0 -->
      <g transform="translate(83.798295 404.638438) scale(0.1 -0.1)">
       <defs>
        <path id="DejaVuSans-30" d="M 2034 4250 
Q 1547 4250 1301 3770 
Q 1056 3291 1056 2328 
Q 1056 1369 1301 889 
Q 1547 409 2034 409 
Q 2525 409 2770 889 
Q 3016 1369 3016 2328 
Q 3016 3291 2770 3770 
Q 2525 4250 2034 4250 
z
M 2034 4750 
Q 2819 4750 3233 4129 
Q 3647 3509 3647 2328 
Q 3647 1150 3233 529 
Q 2819 -91 2034 -91 
Q 1250 -91 836 529 
Q 422 1150 422 2328 
Q 422 3509 836 4129 
Q 1250 4750 2034 4750 
z
" transform="scale(0.015625)"/>
       </defs>
       <use xlink:href="#DejaVuSans-30"/>
      </g>
     </g>
    </g>
    <g id="xtick_2">
     <g id="line2d_3">
      <path d="M 192.500715 390.04 
L 192.500715 26.88 
" clip-path="url(#p2b697ec0bc)" style="fill: none; stroke: #b0b0b0; stroke-width: 0.8; stroke-linecap: square"/>
     </g>
     <g id="line2d_4">
      <g>
       <use xlink:href="#m5c7f7458c9" x="192.500715" y="390.04" style="stroke: #000000; stroke-width: 0.8"/>
      </g>
     </g>
     <g id="text_2">
      <!-- 5000 -->
      <g transform="translate(179.775715 404.638438) scale(0.1 -0.1)">
       <defs>
        <path id="DejaVuSans-35" d="M 691 4666 
L 3169 4666 
L 3169 4134 
L 1269 4134 
L 1269 2991 
Q 1406 3038 1543 3061 
Q 1681 3084 1819 3084 
Q 2600 3084 3056 2656 
Q 3513 2228 3513 1497 
Q 3513 744 3044 326 
Q 2575 -91 1722 -91 
Q 1428 -91 1123 -41 
Q 819 9 494 109 
L 494 744 
Q 775 591 1075 516 
Q 1375 441 1709 441 
Q 2250 441 2565 725 
Q 2881 1009 2881 1497 
Q 2881 1984 2565 2268 
Q 2250 2553 1709 2553 
Q 1456 2553 1204 2497 
Q 953 2441 691 2322 
L 691 4666 
z
" transform="scale(0.015625)"/>
       </defs>
       <use xlink:href="#DejaVuSans-35"/>
       <use xlink:href="#DejaVuSans-30" x="63.623047"/>
       <use xlink:href="#DejaVuSans-30" x="127.246094"/>
       <use xlink:href="#DejaVuSans-30" x="190.869141"/>
      </g>
     </g>
    </g>
    <g id="xtick_3">
     <g id="line2d_5">
      <path d="M 298.021884 390.04 
L 298.021884 26.88 
" clip-path="url(#p2b697ec0bc)" style="fill: none; stroke: #b0b0b0; stroke-width: 0.8; stroke-linecap: square"/>
     </g>
     <g id="line2d_6">
      <g>
       <use xlink:href="#m5c7f7458c9" x="298.021884" y="390.04" style="stroke: #000000; stroke-width: 0.8"/>
      </g>
     </g>
     <g id="text_3">
      <!-- 10000 -->
      <g transform="translate(282.115634 404.638438) scale(0.1 -0.1)">
       <defs>
        <path id="DejaVuSans-31" d="M 794 531 
L 1825 531 
L 1825 4091 
L 703 3866 
L 703 4441 
L 1819 4666 
L 2450 4666 
L 2450 531 
L 3481 531 
L 3481 0 
L 794 0 
L 794 531 
z
" transform="scale(0.015625)"/>
       </defs>
       <use xlink:href="#DejaVuSans-31"/>
       <use xlink:href="#DejaVuSans-30" x="63.623047"/>
       <use xlink:href="#DejaVuSans-30" x="127.246094"/>
       <use xlink:href="#DejaVuSans-30" x="190.869141"/>
       <use xlink:href="#DejaVuSans-30" x="254.492188"/>
      </g>
     </g>
    </g>
    <g id="xtick_4">
     <g id="line2d_7">
      <path d="M 403.543054 390.04 
L 403.543054 26.88 
" clip-path="url(#p2b697ec0bc)" style="fill: none; stroke: #b0b0b0; stroke-width: 0.8; stroke-linecap: square"/>
     </g>
     <g id="line2d_8">
      <g>
       <use xlink:href="#m5c7f7458c9" x="403.543054" y="390.04" style="stroke: #000000; stroke-width: 0.8"/>
      </g>
     </g>
     <g id="text_4">
      <!-- 15000 -->
      <g transform="translate(387.636804 404.638438) scale(0.1 -0.1)">
       <use xlink:href="#DejaVuSans-31"/>
       <use xlink:href="#DejaVuSans-35" x="63.623047"/>
       <use xlink:href="#DejaVuSans-30" x="127.246094"/>
       <use xlink:href="#DejaVuSans-30" x="190.869141"/>
       <use xlink:href="#DejaVuSans-30" x="254.492188"/>
      </g>
     </g>
    </g>
    <g id="xtick_5">
     <g id="line2d_9">
      <path d="M 509.064224 390.04 
L 509.064224 26.88 
" clip-path="url(#p2b697ec0bc)" style="fill: none; stroke: #b0b0b0; stroke-width: 0.8; stroke-linecap: square"/>
     </g>
     <g id="line2d_10">
      <g>
       <use xlink:href="#m5c7f7458c9" x="509.064224" y="390.04" style="stroke: #000000; stroke-width: 0.8"/>
      </g>
     </g>
     <g id="text_5">
      <!-- 20000 -->
      <g transform="translate(493.157974 404.638438) scale(0.1 -0.1)">
       <defs>
        <path id="DejaVuSans-32" d="M 1228 531 
L 3431 531 
L 3431 0 
L 469 0 
L 469 531 
Q 828 903 1448 1529 
Q 2069 2156 2228 2338 
Q 2531 2678 2651 2914 
Q 2772 3150 2772 3378 
Q 2772 3750 2511 3984 
Q 2250 4219 1831 4219 
Q 1534 4219 1204 4116 
Q 875 4013 500 3803 
L 500 4441 
Q 881 4594 1212 4672 
Q 1544 4750 1819 4750 
Q 2544 4750 2975 4387 
Q 3406 4025 3406 3419 
Q 3406 3131 3298 2873 
Q 3191 2616 2906 2266 
Q 2828 2175 2409 1742 
Q 1991 1309 1228 531 
z
" transform="scale(0.015625)"/>
       </defs>
       <use xlink:href="#DejaVuSans-32"/>
       <use xlink:href="#DejaVuSans-30" x="63.623047"/>
       <use xlink:href="#DejaVuSans-30" x="127.246094"/>
       <use xlink:href="#DejaVuSans-30" x="190.869141"/>
       <use xlink:href="#DejaVuSans-30" x="254.492188"/>
      </g>
     </g>
    </g>
    <g id="xtick_6">
     <g id="line2d_11">
      <path d="M 614.585393 390.04 
L 614.585393 26.88 
" clip-path="url(#p2b697ec0bc)" style="fill: none; stroke: #b0b0b0; stroke-width: 0.8; stroke-linecap: square"/>
     </g>
     <g id="line2d_12">
      <g>
       <use xlink:href="#m5c7f7458c9" x="614.585393" y="390.04" style="stroke: #000000; stroke-width: 0.8"/>
      </g>
     </g>
     <g id="text_6">
      <!-- 25000 -->
      <g transform="translate(598.679143 404.638438) scale(0.1 -0.1)">
       <use xlink:href="#DejaVuSans-32"/>
       <use xlink:href="#DejaVuSans-35" x="63.623047"/>
       <use xlink:href="#DejaVuSans-30" x="127.246094"/>
       <use xlink:href="#DejaVuSans-30" x="190.869141"/>
       <use xlink:href="#DejaVuSans-30" x="254.492188"/>
      </g>
     </g>
    </g>
    <g id="text_7">
     <!-- Elapsed Trading Seconds -->
     <g transform="translate(321.105469 418.316562) scale(0.1 -0.1)">
      <defs>
       <path id="DejaVuSans-45" d="M 628 4666 
L 3578 4666 
L 3578 4134 
L 1259 4134 
L 1259 2753 
L 3481 2753 
L 3481 2222 
L 1259 2222 
L 1259 531 
L 3634 531 
L 3634 0 
L 628 0 
L 628 4666 
z
" transform="scale(0.015625)"/>
       <path id="DejaVuSans-6c" d="M 603 4863 
L 1178 4863 
L 1178 0 
L 603 0 
L 603 4863 
z
" transform="scale(0.015625)"/>
       <path id="DejaVuSans-61" d="M 2194 1759 
Q 1497 1759 1228 1600 
Q 959 1441 959 1056 
Q 959 750 1161 570 
Q 1363 391 1709 391 
Q 2188 391 2477 730 
Q 2766 1069 2766 1631 
L 2766 1759 
L 2194 1759 
z
M 3341 1997 
L 3341 0 
L 2766 0 
L 2766 531 
Q 2569 213 2275 61 
Q 1981 -91 1556 -91 
Q 1019 -91 701 211 
Q 384 513 384 1019 
Q 384 1609 779 1909 
Q 1175 2209 1959 2209 
L 2766 2209 
L 2766 2266 
Q 2766 2663 2505 2880 
Q 2244 3097 1772 3097 
Q 1472 3097 1187 3025 
Q 903 2953 641 2809 
L 641 3341 
Q 956 3463 1253 3523 
Q 1550 3584 1831 3584 
Q 2591 3584 2966 3190 
Q 3341 2797 3341 1997 
z
" transform="scale(0.015625)"/>
       <path id="DejaVuSans-70" d="M 1159 525 
L 1159 -1331 
L 581 -1331 
L 581 3500 
L 1159 3500 
L 1159 2969 
Q 1341 3281 1617 3432 
Q 1894 3584 2278 3584 
Q 2916 3584 3314 3078 
Q 3713 2572 3713 1747 
Q 3713 922 3314 415 
Q 2916 -91 2278 -91 
Q 1894 -91 1617 61 
Q 1341 213 1159 525 
z
M 3116 1747 
Q 3116 2381 2855 2742 
Q 2594 3103 2138 3103 
Q 1681 3103 1420 2742 
Q 1159 2381 1159 1747 
Q 1159 1113 1420 752 
Q 1681 391 2138 391 
Q 2594 391 2855 752 
Q 3116 1113 3116 1747 
z
" transform="scale(0.015625)"/>
       <path id="DejaVuSans-73" d="M 2834 3397 
L 2834 2853 
Q 2591 2978 2328 3040 
Q 2066 3103 1784 3103 
Q 1356 3103 1142 2972 
Q 928 2841 928 2578 
Q 928 2378 1081 2264 
Q 1234 2150 1697 2047 
L 1894 2003 
Q 2506 1872 2764 1633 
Q 3022 1394 3022 966 
Q 3022 478 2636 193 
Q 2250 -91 1575 -91 
Q 1294 -91 989 -36 
Q 684 19 347 128 
L 347 722 
Q 666 556 975 473 
Q 1284 391 1588 391 
Q 1994 391 2212 530 
Q 2431 669 2431 922 
Q 2431 1156 2273 1281 
Q 2116 1406 1581 1522 
L 1381 1569 
Q 847 1681 609 1914 
Q 372 2147 372 2553 
Q 372 3047 722 3315 
Q 1072 3584 1716 3584 
Q 2034 3584 2315 3537 
Q 2597 3491 2834 3397 
z
" transform="scale(0.015625)"/>
       <path id="DejaVuSans-65" d="M 3597 1894 
L 3597 1613 
L 953 1613 
Q 991 1019 1311 708 
Q 1631 397 2203 397 
Q 2534 397 2845 478 
Q 3156 559 3463 722 
L 3463 178 
Q 3153 47 2828 -22 
Q 2503 -91 2169 -91 
Q 1331 -91 842 396 
Q 353 884 353 1716 
Q 353 2575 817 3079 
Q 1281 3584 2069 3584 
Q 2775 3584 3186 3129 
Q 3597 2675 3597 1894 
z
M 3022 2063 
Q 3016 2534 2758 2815 
Q 2500 3097 2075 3097 
Q 1594 3097 1305 2825 
Q 1016 2553 972 2059 
L 3022 2063 
z
" transform="scale(0.015625)"/>
       <path id="DejaVuSans-64" d="M 2906 2969 
L 2906 4863 
L 3481 4863 
L 3481 0 
L 2906 0 
L 2906 525 
Q 2725 213 2448 61 
Q 2172 -91 1784 -91 
Q 1150 -91 751 415 
Q 353 922 353 1747 
Q 353 2572 751 3078 
Q 1150 3584 1784 3584 
Q 2172 3584 2448 3432 
Q 2725 3281 2906 2969 
z
M 947 1747 
Q 947 1113 1208 752 
Q 1469 391 1925 391 
Q 2381 391 2643 752 
Q 2906 1113 2906 1747 
Q 2906 2381 2643 2742 
Q 2381 3103 1925 3103 
Q 1469 3103 1208 2742 
Q 947 2381 947 1747 
z
" transform="scale(0.015625)"/>
       <path id="DejaVuSans-20" transform="scale(0.015625)"/>
       <path id="DejaVuSans-54" d="M -19 4666 
L 3928 4666 
L 3928 4134 
L 2272 4134 
L 2272 0 
L 1638 0 
L 1638 4134 
L -19 4134 
L -19 4666 
z
" transform="scale(0.015625)"/>
       <path id="DejaVuSans-72" d="M 2631 2963 
Q 2534 3019 2420 3045 
Q 2306 3072 2169 3072 
Q 1681 3072 1420 2755 
Q 1159 2438 1159 1844 
L 1159 0 
L 581 0 
L 581 3500 
L 1159 3500 
L 1159 2956 
Q 1341 3275 1631 3429 
Q 1922 3584 2338 3584 
Q 2397 3584 2469 3576 
Q 2541 3569 2628 3553 
L 2631 2963 
z
" transform="scale(0.015625)"/>
       <path id="DejaVuSans-69" d="M 603 3500 
L 1178 3500 
L 1178 0 
L 603 0 
L 603 3500 
z
M 603 4863 
L 1178 4863 
L 1178 4134 
L 603 4134 
L 603 4863 
z
" transform="scale(0.015625)"/>
       <path id="DejaVuSans-6e" d="M 3513 2113 
L 3513 0 
L 2938 0 
L 2938 2094 
Q 2938 2591 2744 2837 
Q 2550 3084 2163 3084 
Q 1697 3084 1428 2787 
Q 1159 2491 1159 1978 
L 1159 0 
L 581 0 
L 581 3500 
L 1159 3500 
L 1159 2956 
Q 1366 3272 1645 3428 
Q 1925 3584 2291 3584 
Q 2894 3584 3203 3211 
Q 3513 2838 3513 2113 
z
" transform="scale(0.015625)"/>
       <path id="DejaVuSans-67" d="M 2906 1791 
Q 2906 2416 2648 2759 
Q 2391 3103 1925 3103 
Q 1463 3103 1205 2759 
Q 947 2416 947 1791 
Q 947 1169 1205 825 
Q 1463 481 1925 481 
Q 2391 481 2648 825 
Q 2906 1169 2906 1791 
z
M 3481 434 
Q 3481 -459 3084 -895 
Q 2688 -1331 1869 -1331 
Q 1566 -1331 1297 -1286 
Q 1028 -1241 775 -1147 
L 775 -588 
Q 1028 -725 1275 -790 
Q 1522 -856 1778 -856 
Q 2344 -856 2625 -561 
Q 2906 -266 2906 331 
L 2906 616 
Q 2728 306 2450 153 
Q 2172 0 1784 0 
Q 1141 0 747 490 
Q 353 981 353 1791 
Q 353 2603 747 3093 
Q 1141 3584 1784 3584 
Q 2172 3584 2450 3431 
Q 2728 3278 2906 2969 
L 2906 3500 
L 3481 3500 
L 3481 434 
z
" transform="scale(0.015625)"/>
       <path id="DejaVuSans-53" d="M 3425 4513 
L 3425 3897 
Q 3066 4069 2747 4153 
Q 2428 4238 2131 4238 
Q 1616 4238 1336 4038 
Q 1056 3838 1056 3469 
Q 1056 3159 1242 3001 
Q 1428 2844 1947 2747 
L 2328 2669 
Q 3034 2534 3370 2195 
Q 3706 1856 3706 1288 
Q 3706 609 3251 259 
Q 2797 -91 1919 -91 
Q 1588 -91 1214 -16 
Q 841 59 441 206 
L 441 856 
Q 825 641 1194 531 
Q 1563 422 1919 422 
Q 2459 422 2753 634 
Q 3047 847 3047 1241 
Q 3047 1584 2836 1778 
Q 2625 1972 2144 2069 
L 1759 2144 
Q 1053 2284 737 2584 
Q 422 2884 422 3419 
Q 422 4038 858 4394 
Q 1294 4750 2059 4750 
Q 2388 4750 2728 4690 
Q 3069 4631 3425 4513 
z
" transform="scale(0.015625)"/>
       <path id="DejaVuSans-63" d="M 3122 3366 
L 3122 2828 
Q 2878 2963 2633 3030 
Q 2388 3097 2138 3097 
Q 1578 3097 1268 2742 
Q 959 2388 959 1747 
Q 959 1106 1268 751 
Q 1578 397 2138 397 
Q 2388 397 2633 464 
Q 2878 531 3122 666 
L 3122 134 
Q 2881 22 2623 -34 
Q 2366 -91 2075 -91 
Q 1284 -91 818 406 
Q 353 903 353 1747 
Q 353 2603 823 3093 
Q 1294 3584 2113 3584 
Q 2378 3584 2631 3529 
Q 2884 3475 3122 3366 
z
" transform="scale(0.015625)"/>
       <path id="DejaVuSans-6f" d="M 1959 3097 
Q 1497 3097 1228 2736 
Q 959 2375 959 1747 
Q 959 1119 1226 758 
Q 1494 397 1959 397 
Q 2419 397 2687 759 
Q 2956 1122 2956 1747 
Q 2956 2369 2687 2733 
Q 2419 3097 1959 3097 
z
M 1959 3584 
Q 2709 3584 3137 3096 
Q 3566 2609 3566 1747 
Q 3566 888 3137 398 
Q 2709 -91 1959 -91 
Q 1206 -91 779 398 
Q 353 888 353 1747 
Q 353 2609 779 3096 
Q 1206 3584 1959 3584 
z
" transform="scale(0.015625)"/>
      </defs>
      <use xlink:href="#DejaVuSans-45"/>
      <use xlink:href="#DejaVuSans-6c" x="63.183594"/>
      <use xlink:href="#DejaVuSans-61" x="90.966797"/>
      <use xlink:href="#DejaVuSans-70" x="152.246094"/>
      <use xlink:href="#DejaVuSans-73" x="215.722656"/>
      <use xlink:href="#DejaVuSans-65" x="267.822266"/>
      <use xlink:href="#DejaVuSans-64" x="329.345703"/>
      <use xlink:href="#DejaVuSans-20" x="392.822266"/>
      <use xlink:href="#DejaVuSans-54" x="424.609375"/>
      <use xlink:href="#DejaVuSans-72" x="470.943359"/>
      <use xlink:href="#DejaVuSans-61" x="512.056641"/>
      <use xlink:href="#DejaVuSans-64" x="573.335938"/>
      <use xlink:href="#DejaVuSans-69" x="636.8125"/>
      <use xlink:href="#DejaVuSans-6e" x="664.595703"/>
      <use xlink:href="#DejaVuSans-67" x="727.974609"/>
      <use xlink:href="#DejaVuSans-20" x="791.451172"/>
      <use xlink:href="#DejaVuSans-53" x="823.238281"/>
      <use xlink:href="#DejaVuSans-65" x="886.714844"/>
      <use xlink:href="#DejaVuSans-63" x="948.238281"/>
      <use xlink:href="#DejaVuSans-6f" x="1003.21875"/>
      <use xlink:href="#DejaVuSans-6e" x="1064.400391"/>
      <use xlink:href="#DejaVuSans-64" x="1127.779297"/>
      <use xlink:href="#DejaVuSans-73" x="1191.255859"/>
     </g>
    </g>
   </g>
   <g id="matplotlib.axis_2">
    <g id="ytick_1">
     <g id="line2d_13">
      <path d="M 57.35 368.041743 
L 709.2 368.041743 
" clip-path="url(#p2b697ec0bc)" style="fill: none; stroke: #b0b0b0; stroke-width: 0.8; stroke-linecap: square"/>
     </g>
     <g id="line2d_14">
      <defs>
       <path id="m310a45bf36" d="M 0 0 
L -3.5 0 
" style="stroke: #000000; stroke-width: 0.8"/>
      </defs>
      <g>
       <use xlink:href="#m310a45bf36" x="57.35" y="368.041743" style="stroke: #000000; stroke-width: 0.8"/>
      </g>
     </g>
     <g id="text_8">
      <!-- 1830 -->
      <g transform="translate(24.9 371.840961) scale(0.1 -0.1)">
       <defs>
        <path id="DejaVuSans-38" d="M 2034 2216 
Q 1584 2216 1326 1975 
Q 1069 1734 1069 1313 
Q 1069 891 1326 650 
Q 1584 409 2034 409 
Q 2484 409 2743 651 
Q 3003 894 3003 1313 
Q 3003 1734 2745 1975 
Q 2488 2216 2034 2216 
z
M 1403 2484 
Q 997 2584 770 2862 
Q 544 3141 544 3541 
Q 544 4100 942 4425 
Q 1341 4750 2034 4750 
Q 2731 4750 3128 4425 
Q 3525 4100 3525 3541 
Q 3525 3141 3298 2862 
Q 3072 2584 2669 2484 
Q 3125 2378 3379 2068 
Q 3634 1759 3634 1313 
Q 3634 634 3220 271 
Q 2806 -91 2034 -91 
Q 1263 -91 848 271 
Q 434 634 434 1313 
Q 434 1759 690 2068 
Q 947 2378 1403 2484 
z
M 1172 3481 
Q 1172 3119 1398 2916 
Q 1625 2713 2034 2713 
Q 2441 2713 2670 2916 
Q 2900 3119 2900 3481 
Q 2900 3844 2670 4047 
Q 2441 4250 2034 4250 
Q 1625 4250 1398 4047 
Q 1172 3844 1172 3481 
z
" transform="scale(0.015625)"/>
        <path id="DejaVuSans-33" d="M 2597 2516 
Q 3050 2419 3304 2112 
Q 3559 1806 3559 1356 
Q 3559 666 3084 287 
Q 2609 -91 1734 -91 
Q 1441 -91 1130 -33 
Q 819 25 488 141 
L 488 750 
Q 750 597 1062 519 
Q 1375 441 1716 441 
Q 2309 441 2620 675 
Q 2931 909 2931 1356 
Q 2931 1769 2642 2001 
Q 2353 2234 1838 2234 
L 1294 2234 
L 1294 2753 
L 1863 2753 
Q 2328 2753 2575 2939 
Q 2822 3125 2822 3475 
Q 2822 3834 2567 4026 
Q 2313 4219 1838 4219 
Q 1578 4219 1281 4162 
Q 984 4106 628 3988 
L 628 4550 
Q 988 4650 1302 4700 
Q 1616 4750 1894 4750 
Q 2613 4750 3031 4423 
Q 3450 4097 3450 3541 
Q 3450 3153 3228 2886 
Q 3006 2619 2597 2516 
z
" transform="scale(0.015625)"/>
       </defs>
       <use xlink:href="#DejaVuSans-31"/>
       <use xlink:href="#DejaVuSans-38" x="63.623047"/>
       <use xlink:href="#DejaVuSans-33" x="127.246094"/>
       <use xlink:href="#DejaVuSans-30" x="190.869141"/>
      </g>
     </g>
    </g>
    <g id="ytick_2">
     <g id="line2d_15">
      <path d="M 57.35 299.404434 
L 709.2 299.404434 
" clip-path="url(#p2b697ec0bc)" style="fill: none; stroke: #b0b0b0; stroke-width: 0.8; stroke-linecap: square"/>
     </g>
     <g id="line2d_16">
      <g>
       <use xlink:href="#m310a45bf36" x="57.35" y="299.404434" style="stroke: #000000; stroke-width: 0.8"/>
      </g>
     </g>
     <g id="text_9">
      <!-- 1840 -->
      <g transform="translate(24.9 303.203653) scale(0.1 -0.1)">
       <defs>
        <path id="DejaVuSans-34" d="M 2419 4116 
L 825 1625 
L 2419 1625 
L 2419 4116 
z
M 2253 4666 
L 3047 4666 
L 3047 1625 
L 3713 1625 
L 3713 1100 
L 3047 1100 
L 3047 0 
L 2419 0 
L 2419 1100 
L 313 1100 
L 313 1709 
L 2253 4666 
z
" transform="scale(0.015625)"/>
       </defs>
       <use xlink:href="#DejaVuSans-31"/>
       <use xlink:href="#DejaVuSans-38" x="63.623047"/>
       <use xlink:href="#DejaVuSans-34" x="127.246094"/>
       <use xlink:href="#DejaVuSans-30" x="190.869141"/>
      </g>
     </g>
    </g>
    <g id="ytick_3">
     <g id="line2d_17">
      <path d="M 57.35 230.767125 
L 709.2 230.767125 
" clip-path="url(#p2b697ec0bc)" style="fill: none; stroke: #b0b0b0; stroke-width: 0.8; stroke-linecap: square"/>
     </g>
     <g id="line2d_18">
      <g>
       <use xlink:href="#m310a45bf36" x="57.35" y="230.767125" style="stroke: #000000; stroke-width: 0.8"/>
      </g>
     </g>
     <g id="text_10">
      <!-- 1850 -->
      <g transform="translate(24.9 234.566344) scale(0.1 -0.1)">
       <use xlink:href="#DejaVuSans-31"/>
       <use xlink:href="#DejaVuSans-38" x="63.623047"/>
       <use xlink:href="#DejaVuSans-35" x="127.246094"/>
       <use xlink:href="#DejaVuSans-30" x="190.869141"/>
      </g>
     </g>
    </g>
    <g id="ytick_4">
     <g id="line2d_19">
      <path d="M 57.35 162.129817 
L 709.2 162.129817 
" clip-path="url(#p2b697ec0bc)" style="fill: none; stroke: #b0b0b0; stroke-width: 0.8; stroke-linecap: square"/>
     </g>
     <g id="line2d_20">
      <g>
       <use xlink:href="#m310a45bf36" x="57.35" y="162.129817" style="stroke: #000000; stroke-width: 0.8"/>
      </g>
     </g>
     <g id="text_11">
      <!-- 1860 -->
      <g transform="translate(24.9 165.929035) scale(0.1 -0.1)">
       <defs>
        <path id="DejaVuSans-36" d="M 2113 2584 
Q 1688 2584 1439 2293 
Q 1191 2003 1191 1497 
Q 1191 994 1439 701 
Q 1688 409 2113 409 
Q 2538 409 2786 701 
Q 3034 994 3034 1497 
Q 3034 2003 2786 2293 
Q 2538 2584 2113 2584 
z
M 3366 4563 
L 3366 3988 
Q 3128 4100 2886 4159 
Q 2644 4219 2406 4219 
Q 1781 4219 1451 3797 
Q 1122 3375 1075 2522 
Q 1259 2794 1537 2939 
Q 1816 3084 2150 3084 
Q 2853 3084 3261 2657 
Q 3669 2231 3669 1497 
Q 3669 778 3244 343 
Q 2819 -91 2113 -91 
Q 1303 -91 875 529 
Q 447 1150 447 2328 
Q 447 3434 972 4092 
Q 1497 4750 2381 4750 
Q 2619 4750 2861 4703 
Q 3103 4656 3366 4563 
z
" transform="scale(0.015625)"/>
       </defs>
       <use xlink:href="#DejaVuSans-31"/>
       <use xlink:href="#DejaVuSans-38" x="63.623047"/>
       <use xlink:href="#DejaVuSans-36" x="127.246094"/>
       <use xlink:href="#DejaVuSans-30" x="190.869141"/>
      </g>
     </g>
    </g>
    <g id="ytick_5">
     <g id="line2d_21">
      <path d="M 57.35 93.492508 
L 709.2 93.492508 
" clip-path="url(#p2b697ec0bc)" style="fill: none; stroke: #b0b0b0; stroke-width: 0.8; stroke-linecap: square"/>
     </g>
     <g id="line2d_22">
      <g>
       <use xlink:href="#m310a45bf36" x="57.35" y="93.492508" style="stroke: #000000; stroke-width: 0.8"/>
      </g>
     </g>
     <g id="text_12">
      <!-- 1870 -->
      <g transform="translate(24.9 97.291727) scale(0.1 -0.1)">
       <defs>
        <path id="DejaVuSans-37" d="M 525 4666 
L 3525 4666 
L 3525 4397 
L 1831 0 
L 1172 0 
L 2766 4134 
L 525 4134 
L 525 4666 
z
" transform="scale(0.015625)"/>
       </defs>
       <use xlink:href="#DejaVuSans-31"/>
       <use xlink:href="#DejaVuSans-38" x="63.623047"/>
       <use xlink:href="#DejaVuSans-37" x="127.246094"/>
       <use xlink:href="#DejaVuSans-30" x="190.869141"/>
      </g>
     </g>
    </g>
    <g id="text_13">
     <!-- Price -->
     <g transform="translate(18.820312 220.657656) rotate(-90) scale(0.1 -0.1)">
      <defs>
       <path id="DejaVuSans-50" d="M 1259 4147 
L 1259 2394 
L 2053 2394 
Q 2494 2394 2734 2622 
Q 2975 2850 2975 3272 
Q 2975 3691 2734 3919 
Q 2494 4147 2053 4147 
L 1259 4147 
z
M 628 4666 
L 2053 4666 
Q 2838 4666 3239 4311 
Q 3641 3956 3641 3272 
Q 3641 2581 3239 2228 
Q 2838 1875 2053 1875 
L 1259 1875 
L 1259 0 
L 628 0 
L 628 4666 
z
" transform="scale(0.015625)"/>
      </defs>
      <use xlink:href="#DejaVuSans-50"/>
      <use xlink:href="#DejaVuSans-72" x="58.552734"/>
      <use xlink:href="#DejaVuSans-69" x="99.666016"/>
      <use xlink:href="#DejaVuSans-63" x="127.449219"/>
      <use xlink:href="#DejaVuSans-65" x="182.429688"/>
     </g>
    </g>
   </g>
   <g id="line2d_23">
    <path d="M 86.979545 94.178881 
L 86.979545 93.492508 
L 87.190965 90.747016 
L 87.402345 90.060643 
L 87.613415 91.433389 
L 87.824728 87.31515 
L 88.036375 89.37427 
L 88.46962 87.31515 
L 88.68095 88.001523 
L 88.892631 85.256031 
L 89.104128 91.433389 
L 89.315729 88.001523 
L 89.534966 90.747016 
L 89.746506 84.569658 
L 89.958004 82.510539 
L 90.169442 88.001523 
L 90.380865 88.687896 
L 90.592176 90.747016 
L 91.023323 90.747016 
L 91.234512 91.433389 
L 91.445881 89.37427 
L 91.657258 89.37427 
L 92.089647 83.196912 
L 92.300477 85.942404 
L 92.511867 86.628777 
L 92.723256 81.137792 
L 92.934571 82.510539 
L 93.146241 77.705927 
L 93.365636 77.705927 
L 93.577066 75.646808 
L 93.788616 75.646808 
L 93.999822 79.765046 
L 94.21131 79.765046 
L 94.422378 80.451419 
L 94.641969 77.019554 
L 94.853312 76.333181 
L 95.276093 79.765046 
L 95.487041 81.137792 
L 95.698378 81.137792 
L 95.917322 91.433389 
L 96.340247 78.3923 
L 96.762475 69.46945 
L 96.973523 69.46945 
L 97.192131 72.901315 
L 97.614766 68.096704 
L 97.826409 68.783077 
L 98.03777 70.155823 
L 98.248777 72.901315 
L 98.469704 72.901315 
L 98.680971 72.214942 
L 98.892398 70.155823 
L 99.103761 66.723958 
L 99.315032 71.528569 
L 99.538971 70.842196 
L 99.75024 78.3923 
L 99.961724 74.960435 
L 100.172731 78.3923 
L 100.383505 74.274062 
L 100.594745 74.274062 
L 100.814261 73.587689 
L 101.02555 76.333181 
L 101.236938 76.333181 
L 101.659178 79.765046 
L 102.090228 76.333181 
L 102.301684 73.587689 
L 102.512693 76.333181 
L 102.72401 75.646808 
L 102.935441 73.587689 
L 103.146706 75.646808 
L 103.368125 76.333181 
L 103.790724 74.960435 
L 104.002231 71.528569 
L 104.002231 46.132765 
L 104.42491 53.682869 
L 104.636599 52.996496 
L 105.059172 52.996496 
L 105.287768 48.878257 
L 105.49909 48.878257 
L 105.710473 46.819138 
L 105.921895 52.310123 
L 106.13282 50.251004 
L 106.34349 49.564631 
L 106.562942 50.937377 
L 106.773587 53.682869 
L 106.98511 50.937377 
L 107.196167 54.369242 
L 107.407839 55.741988 
L 107.619186 52.996496 
L 107.839641 52.996496 
L 108.051087 47.505511 
L 108.262547 48.878257 
L 108.473773 44.760019 
L 108.685151 46.132765 
L 108.896443 50.251004 
L 109.117286 50.937377 
L 109.328328 50.251004 
L 109.539329 50.937377 
L 109.750234 50.937377 
L 109.961431 46.819138 
L 110.172353 47.505511 
L 110.391855 48.878257 
L 110.603265 43.387273 
L 110.814532 45.446392 
L 111.025735 45.446392 
L 111.025735 246.553706 
L 111.236996 267.144899 
L 111.448455 249.299199 
L 111.659916 247.240079 
L 111.870748 248.612826 
L 112.081787 248.612826 
L 112.308344 249.985572 
L 112.730978 246.553706 
L 113.153046 251.358318 
L 113.364031 250.671945 
L 113.582836 253.417437 
L 113.79453 252.731064 
L 114.21726 256.16293 
L 114.428607 258.908422 
L 114.639837 258.908422 
L 114.858535 261.653914 
L 115.069966 261.653914 
L 115.492598 255.476556 
L 115.703828 255.476556 
L 115.915125 256.849303 
L 116.13517 252.044691 
L 116.346404 254.10381 
L 116.557771 251.358318 
L 116.76911 251.358318 
L 116.980066 252.044691 
L 117.191073 252.044691 
L 117.410554 255.476556 
L 117.621978 254.10381 
L 117.833031 249.985572 
L 118.043881 252.044691 
L 118.255432 251.358318 
L 118.466259 249.985572 
L 118.685499 251.358318 
L 119.107767 251.358318 
L 119.318727 249.299199 
L 119.530232 249.299199 
L 119.741076 249.985572 
L 120.171893 252.731064 
L 120.383256 254.790183 
L 120.594474 252.731064 
L 120.805955 254.10381 
L 121.017237 250.671945 
L 121.238918 252.731064 
L 121.450177 252.731064 
L 121.872301 256.849303 
L 122.083468 251.358318 
L 122.294327 256.16293 
L 122.513676 255.476556 
L 122.72482 252.044691 
L 123.147654 256.16293 
L 123.358951 248.612826 
L 123.587988 249.299199 
L 124.01061 242.435468 
L 124.433117 238.317229 
L 124.644365 243.808214 
L 125.074781 242.435468 
L 125.285861 246.553706 
L 125.497257 247.240079 
L 125.708786 248.612826 
L 125.920205 246.553706 
L 126.141352 248.612826 
L 126.352801 245.867333 
L 126.563551 245.867333 
L 126.774844 246.553706 
L 126.986113 239.003602 
L 127.197588 236.25811 
L 127.628529 241.062722 
L 127.839815 235.571737 
L 128.051225 236.25811 
L 128.262589 234.198991 
L 128.473778 234.885364 
L 128.693657 231.453498 
L 128.904998 232.139871 
L 129.327758 239.003602 
L 129.539143 233.512618 
L 129.750428 234.885364 
L 129.9696 234.885364 
L 130.180818 239.003602 
L 130.391849 236.944483 
L 130.814446 240.376349 
L 131.025594 242.435468 
L 131.245352 240.376349 
L 131.45629 241.749095 
L 131.667637 241.749095 
L 131.878666 243.121841 
L 132.090186 241.062722 
L 132.301584 241.749095 
L 132.520528 241.062722 
L 132.731036 245.18096 
L 133.153703 247.240079 
L 133.364855 247.926452 
L 133.576025 245.18096 
L 134.005934 251.358318 
L 134.216953 251.358318 
L 134.428429 250.671945 
L 134.639751 250.671945 
L 134.85106 251.358318 
L 135.069171 249.985572 
L 135.28045 243.121841 
L 135.70283 241.749095 
L 135.914325 242.435468 
L 136.125156 237.630856 
L 136.359869 240.376349 
L 136.571003 241.062722 
L 136.782501 232.826245 
L 136.993997 234.198991 
L 137.2049 232.826245 
L 137.416132 228.708006 
L 137.635414 227.33526 
L 137.846883 229.394379 
L 138.058375 234.198991 
L 138.269577 230.767125 
L 138.691306 230.767125 
L 138.91051 232.826245 
L 139.121621 230.767125 
L 139.544532 230.767125 
L 139.755866 229.394379 
L 139.967176 226.648887 
L 140.819833 239.003602 
L 141.241666 239.003602 
L 141.460065 235.571737 
L 142.093534 235.571737 
L 142.30476 237.630856 
L 142.736407 244.494587 
L 142.947676 244.494587 
L 143.158748 243.121841 
L 143.369941 240.376349 
L 143.581248 241.062722 
L 143.792829 241.062722 
L 144.0121 239.689975 
L 144.223283 241.062722 
L 144.856478 236.944483 
L 145.068041 236.944483 
L 145.287112 239.003602 
L 145.498422 239.003602 
L 145.709632 241.062722 
L 145.9211 234.198991 
L 146.132362 244.494587 
L 146.343486 242.435468 
L 146.773759 244.494587 
L 146.984666 243.808214 
L 147.196138 241.749095 
L 147.407396 242.435468 
L 147.618972 247.240079 
L 147.839022 247.926452 
L 148.262073 254.790183 
L 148.684761 253.417437 
L 148.895929 252.044691 
L 149.129054 263.713033 
L 149.340536 265.08578 
L 149.551865 261.653914 
L 149.763199 264.399407 
L 149.974546 263.02666 
L 150.185901 263.02666 
L 150.405221 260.967541 
L 150.615888 260.967541 
L 150.827453 258.222049 
L 151.038054 257.535676 
L 151.249054 258.222049 
L 151.460316 256.849303 
L 151.679943 257.535676 
L 151.891478 253.417437 
L 152.102932 255.476556 
L 152.314151 255.476556 
L 152.525455 253.417437 
L 152.736946 256.849303 
L 152.956933 252.731064 
L 153.590462 257.535676 
L 153.801274 252.731064 
L 154.012665 258.222049 
L 154.654329 247.240079 
L 154.865965 249.985572 
L 155.076879 256.849303 
L 155.288195 249.299199 
L 155.507631 248.612826 
L 155.718856 252.731064 
L 155.930462 260.281168 
L 156.14123 256.16293 
L 156.352525 256.16293 
L 156.563667 258.222049 
L 156.792573 258.222049 
L 157.003881 256.849303 
L 157.215202 256.849303 
L 157.426409 254.790183 
L 157.637791 254.790183 
L 157.849297 256.16293 
L 158.070521 254.790183 
L 158.281901 258.222049 
L 158.493042 256.16293 
L 158.70412 257.535676 
L 158.915606 260.281168 
L 159.126912 260.281168 
L 159.34609 259.594795 
L 159.557718 260.281168 
L 160.19154 250.671945 
L 160.40324 254.10381 
L 160.622975 255.476556 
L 160.834529 255.476556 
L 161.045469 259.594795 
L 161.256839 259.594795 
L 161.468084 256.849303 
L 161.679621 260.281168 
L 161.901227 260.967541 
L 162.112136 258.908422 
L 162.323414 258.222049 
L 162.534694 258.222049 
L 162.745671 258.908422 
L 162.95702 255.476556 
L 163.175721 258.908422 
L 163.386641 265.08578 
L 163.59791 267.831272 
L 163.809551 265.772153 
L 164.020757 266.458526 
L 164.232035 265.08578 
L 164.450977 264.399407 
L 164.662335 262.340287 
L 164.873449 264.399407 
L 165.296322 260.967541 
L 165.507571 262.340287 
L 165.727056 257.535676 
L 165.938128 258.222049 
L 166.149037 265.772153 
L 166.360461 267.144899 
L 166.571616 270.576764 
L 167.001972 274.00863 
L 167.424553 264.399407 
L 167.635853 265.08578 
L 168.279661 256.16293 
L 168.702165 254.790183 
L 168.913733 256.16293 
L 169.125188 259.594795 
L 169.336464 260.967541 
L 169.76755 256.16293 
L 169.978879 247.926452 
L 170.190253 249.299199 
L 170.612502 245.867333 
L 171.043387 241.062722 
L 171.254621 244.494587 
L 171.465913 243.121841 
L 171.677145 243.808214 
L 171.888353 245.18096 
L 172.108246 244.494587 
L 172.319822 241.062722 
L 172.530927 244.494587 
L 172.953508 247.240079 
L 173.164955 245.867333 
L 173.386216 245.18096 
L 173.597125 245.18096 
L 173.808412 249.985572 
L 174.020027 249.985572 
L 174.231374 247.926452 
L 174.442536 247.926452 
L 174.661199 245.18096 
L 174.668891 247.240079 
L 174.880159 247.240079 
L 175.091617 241.749095 
L 175.302871 241.749095 
L 175.513948 243.808214 
L 175.725478 239.689975 
L 175.943638 239.003602 
L 176.1551 241.062722 
L 176.36641 240.376349 
L 176.577583 245.18096 
L 176.788781 245.867333 
L 177.000084 243.121841 
L 177.219977 248.612826 
L 177.431289 243.121841 
L 177.642673 244.494587 
L 177.853818 247.926452 
L 178.064962 243.121841 
L 178.494588 241.749095 
L 178.705982 241.749095 
L 178.917218 245.867333 
L 179.128261 246.553706 
L 179.339052 243.808214 
L 179.550558 243.121841 
L 179.980776 239.003602 
L 180.191978 238.317229 
L 180.614422 239.689975 
L 180.825386 238.317229 
L 181.044033 239.003602 
L 181.466352 247.240079 
L 181.677318 245.18096 
L 181.888708 247.926452 
L 182.530087 241.062722 
L 182.741633 243.808214 
L 182.953111 243.808214 
L 183.375886 239.003602 
L 183.806246 243.121841 
L 184.017597 239.689975 
L 184.440432 237.630856 
L 184.651338 237.630856 
L 184.872607 235.571737 
L 185.08387 237.630856 
L 185.295275 241.062722 
L 185.506524 241.749095 
L 185.717916 240.376349 
L 185.928966 240.376349 
L 186.359443 237.630856 
L 186.570583 239.689975 
L 186.782 238.317229 
L 186.993256 238.317229 
L 187.204938 240.376349 
L 187.653845 246.553706 
L 187.865442 245.867333 
L 188.076707 245.867333 
L 188.288009 246.553706 
L 188.499003 245.18096 
L 188.717937 248.612826 
L 188.929412 249.985572 
L 189.14084 253.417437 
L 189.352285 254.790183 
L 189.563613 251.358318 
L 189.7749 251.358318 
L 189.995625 252.731064 
L 190.206454 251.358318 
L 190.417976 251.358318 
L 190.629358 252.731064 
L 191.052168 250.671945 
L 191.270681 247.240079 
L 191.48192 247.926452 
L 191.69349 247.240079 
L 191.904709 239.003602 
L 192.327633 241.062722 
L 192.546676 239.689975 
L 192.758063 240.376349 
L 192.969059 247.926452 
L 193.180365 245.18096 
L 193.391288 246.553706 
L 193.60265 245.18096 
L 193.82182 249.985572 
L 194.033234 250.671945 
L 194.456044 254.790183 
L 194.667572 252.731064 
L 195.097884 246.553706 
L 195.309085 249.299199 
L 195.520182 249.985572 
L 195.731408 249.985572 
L 195.942932 251.358318 
L 196.154044 254.10381 
L 196.374358 251.358318 
L 196.585717 254.10381 
L 196.796796 249.299199 
L 197.430056 258.908422 
L 197.649579 257.535676 
L 197.860952 254.790183 
L 198.282769 256.849303 
L 198.924263 249.985572 
L 199.135692 256.16293 
L 199.346819 254.10381 
L 199.557914 247.926452 
L 199.769358 249.985572 
L 200.213568 247.240079 
L 200.636091 245.867333 
L 201.057992 249.985572 
L 201.269404 248.612826 
L 201.49052 248.612826 
L 201.701803 246.553706 
L 201.912328 246.553706 
L 202.123931 247.240079 
L 202.334809 245.18096 
L 202.546282 246.553706 
L 202.764926 243.808214 
L 202.975875 234.198991 
L 203.187302 247.240079 
L 203.398485 239.003602 
L 203.609355 245.18096 
L 203.820584 244.494587 
L 204.039255 241.749095 
L 204.25078 241.749095 
L 204.46223 244.494587 
L 204.672994 242.435468 
L 204.884086 243.808214 
L 205.095403 243.808214 
L 205.315005 245.18096 
L 205.526167 241.749095 
L 205.737385 246.553706 
L 205.948593 243.808214 
L 206.159809 243.808214 
L 206.371075 240.376349 
L 206.589963 243.808214 
L 206.801368 240.376349 
L 207.012703 240.376349 
L 207.22404 237.630856 
L 207.435441 242.435468 
L 207.646837 237.630856 
L 207.867374 240.376349 
L 208.289952 234.885364 
L 208.500857 237.630856 
L 208.712394 238.317229 
L 208.923598 242.435468 
L 209.564664 245.867333 
L 209.776072 245.18096 
L 209.987017 246.553706 
L 210.198132 251.358318 
L 210.417663 253.417437 
L 210.628912 252.731064 
L 210.840129 252.731064 
L 211.051284 253.417437 
L 211.262761 252.044691 
L 211.474047 253.417437 
L 211.693575 253.417437 
L 211.905114 256.849303 
L 212.116519 256.16293 
L 213.194642 263.713033 
L 213.406149 263.713033 
L 213.617047 260.281168 
L 213.828445 259.594795 
L 214.039843 260.281168 
L 214.471218 258.222049 
L 214.893756 265.08578 
L 215.10511 258.908422 
L 215.31661 261.653914 
L 215.748566 261.653914 
L 215.95921 259.594795 
L 216.170568 263.713033 
L 216.593496 266.458526 
L 216.814672 264.399407 
L 217.026074 260.281168 
L 217.237081 252.731064 
L 217.448264 256.16293 
L 217.659116 250.671945 
L 217.870421 249.985572 
L 218.092438 248.612826 
L 218.303813 250.671945 
L 218.515003 250.671945 
L 218.725943 251.358318 
L 219.148336 251.358318 
L 219.368823 253.417437 
L 219.580155 249.985572 
L 219.791556 250.671945 
L 220.002999 252.731064 
L 220.214341 252.044691 
L 220.425842 252.044691 
L 220.645336 250.671945 
L 220.856533 252.044691 
L 221.067895 252.044691 
L 221.278895 250.671945 
L 221.490206 251.358318 
L 221.921383 256.16293 
L 222.132609 260.281168 
L 222.343563 258.908422 
L 222.555177 254.10381 
L 222.766141 256.849303 
L 222.977048 254.790183 
L 223.196282 254.790183 
L 223.407538 256.849303 
L 223.618658 256.849303 
L 223.830137 256.16293 
L 224.041671 257.535676 
L 224.252431 255.476556 
L 224.684967 255.476556 
L 224.896397 256.16293 
L 225.318738 256.16293 
L 225.530098 258.908422 
L 225.748261 259.594795 
L 225.756909 260.281168 
L 225.968291 261.653914 
L 226.17943 259.594795 
L 226.390239 259.594795 
L 226.601571 260.967541 
L 226.812494 260.967541 
L 227.032917 260.281168 
L 227.244114 260.281168 
L 227.455362 259.594795 
L 227.878401 259.594795 
L 228.089142 261.653914 
L 228.520881 258.222049 
L 228.943155 258.222049 
L 229.154354 256.16293 
L 229.365659 252.731064 
L 229.587897 254.10381 
L 229.799368 256.16293 
L 230.01089 252.731064 
L 230.433664 260.967541 
L 230.645281 259.594795 
L 230.865257 260.967541 
L 231.076482 260.281168 
L 231.287731 255.476556 
L 231.499203 258.222049 
L 231.922111 258.222049 
L 232.143008 259.594795 
L 232.143008 106.533597 
L 232.354535 103.788104 
L 233.199289 108.592716 
L 233.425967 107.21997 
L 233.637477 112.024581 
L 233.848686 112.710954 
L 234.060221 117.515566 
L 234.271352 116.829193 
L 234.482939 118.888312 
L 234.702768 119.574685 
L 234.91367 119.574685 
L 235.12479 114.770074 
L 235.547 117.515566 
L 235.978026 123.006551 
L 236.189284 123.006551 
L 236.611688 120.947431 
L 236.822652 121.633805 
L 237.034191 123.006551 
L 237.465881 123.006551 
L 237.677023 123.692924 
L 237.888322 123.692924 
L 238.099577 114.770074 
L 238.310684 118.888312 
L 238.530305 126.438416 
L 238.741527 129.870282 
L 238.952781 126.438416 
L 239.16384 129.870282 
L 239.375257 131.243028 
L 239.58655 131.243028 
L 239.806272 135.361266 
L 240.01758 142.91137 
L 240.22924 138.793132 
L 240.4403 140.852251 
L 240.862978 139.479505 
L 241.082517 133.98852 
L 241.505191 132.615774 
L 242.138624 132.615774 
L 242.571122 136.047639 
L 242.782441 136.047639 
L 242.993816 139.479505 
L 243.205213 139.479505 
L 243.416005 138.106759 
L 243.847052 131.929401 
L 244.269908 126.438416 
L 244.480931 127.124789 
L 244.70411 130.556655 
L 244.915705 130.556655 
L 245.126921 127.811162 
L 245.33838 127.811162 
L 245.549837 127.124789 
L 245.761035 128.497535 
L 245.981457 131.929401 
L 246.192586 127.811162 
L 246.403644 127.811162 
L 246.614734 133.98852 
L 246.825796 131.929401 
L 247.037302 133.302147 
L 247.258329 131.243028 
L 247.469974 131.243028 
L 247.680808 133.302147 
L 247.892159 138.106759 
L 248.103585 134.674893 
L 248.314982 136.047639 
L 248.536301 136.047639 
L 248.747705 135.361266 
L 248.958922 130.556655 
L 249.381082 132.615774 
L 249.59263 133.302147 
L 249.812479 134.674893 
L 250.023335 133.302147 
L 250.446388 136.047639 
L 250.869358 133.302147 
L 251.089082 126.438416 
L 251.300457 127.811162 
L 251.511869 127.811162 
L 251.723216 130.556655 
L 252.578292 124.379297 
L 253.001609 127.811162 
L 253.212385 126.438416 
L 253.423858 131.243028 
L 253.64391 130.556655 
L 253.855195 127.811162 
L 254.066615 127.811162 
L 254.277764 127.124789 
L 254.488468 127.811162 
L 254.69945 125.752043 
L 254.921565 127.124789 
L 255.133053 130.556655 
L 255.344223 127.811162 
L 255.55571 127.811162 
L 255.978463 123.692924 
L 256.409838 120.947431 
L 256.620731 123.692924 
L 256.832182 121.633805 
L 257.254773 126.438416 
L 257.463041 126.438416 
L 257.476707 125.752043 
L 257.687942 125.06567 
L 257.899016 123.692924 
L 258.321649 125.06567 
L 258.532946 127.124789 
L 258.753603 127.811162 
L 258.964605 131.243028 
L 259.176126 131.243028 
L 259.598552 124.379297 
L 259.809269 126.438416 
L 260.028577 127.124789 
L 260.23989 127.124789 
L 260.451009 130.556655 
L 260.661846 126.438416 
L 260.873364 127.811162 
L 261.303955 127.811162 
L 261.514923 128.497535 
L 261.726091 125.06567 
L 261.937373 124.379297 
L 262.148981 122.320178 
L 262.360108 121.633805 
L 262.581391 123.692924 
L 262.79279 121.633805 
L 263.004079 121.633805 
L 263.426674 125.06567 
L 263.637665 127.811162 
L 264.06977 120.947431 
L 264.280988 121.633805 
L 264.492404 119.574685 
L 264.703799 120.947431 
L 264.915026 125.752043 
L 265.133671 125.752043 
L 265.344933 128.497535 
L 265.555707 129.183909 
L 265.767167 129.183909 
L 265.978722 127.811162 
L 266.619958 133.98852 
L 267.042805 132.615774 
L 267.465113 130.556655 
L 267.683999 130.556655 
L 267.895076 128.497535 
L 268.31782 131.243028 
L 268.529224 136.047639 
L 268.740537 133.98852 
L 268.96283 134.674893 
L 269.173896 133.98852 
L 269.385099 134.674893 
L 269.596233 133.98852 
L 269.807751 136.047639 
L 270.244274 153.89334 
L 270.455713 144.97049 
L 270.666643 146.343236 
L 270.87773 143.597743 
L 271.088968 147.029609 
L 271.300602 145.656863 
L 271.520231 145.656863 
L 271.942931 149.775101 
L 272.154262 134.674893 
L 272.365595 150.461474 
L 272.576684 150.461474 
L 272.795592 147.029609 
L 273.006947 145.656863 
L 273.21779 146.343236 
L 273.428816 150.461474 
L 273.639831 157.325205 
L 273.851143 153.89334 
L 274.072488 153.206967 
L 274.49547 158.697951 
L 274.70615 151.83422 
L 274.917688 151.147847 
L 275.128433 151.147847 
L 275.347508 151.83422 
L 275.770015 150.461474 
L 275.981095 145.656863 
L 276.19226 148.402355 
L 276.403844 147.715982 
L 276.622839 148.402355 
L 276.833955 147.029609 
L 277.468255 151.147847 
L 277.679117 148.402355 
L 277.899294 148.402355 
L 278.11029 151.147847 
L 278.321573 151.83422 
L 278.532893 151.147847 
L 278.955682 146.343236 
L 279.387748 146.343236 
L 279.59895 148.402355 
L 279.810488 147.715982 
L 280.021959 146.343236 
L 280.454439 151.147847 
L 280.665773 148.402355 
L 280.876889 152.520593 
L 281.088285 148.402355 
L 281.299192 148.402355 
L 281.510788 146.343236 
L 281.73051 148.402355 
L 281.941898 146.343236 
L 282.152945 147.029609 
L 282.364179 144.97049 
L 282.57555 138.106759 
L 282.786862 137.420386 
L 283.0053 140.165878 
L 283.014223 138.106759 
L 283.225595 137.420386 
L 283.436498 137.420386 
L 283.647842 140.852251 
L 283.858968 140.852251 
L 284.070174 138.793132 
L 284.290182 138.106759 
L 284.712679 144.284116 
L 284.923736 144.284116 
L 285.134955 143.597743 
L 285.346389 144.97049 
L 285.56811 144.284116 
L 285.779264 146.343236 
L 285.990528 147.029609 
L 286.413197 147.029609 
L 286.843518 142.91137 
L 287.054666 143.597743 
L 287.266044 144.97049 
L 287.477708 144.97049 
L 288.119597 153.89334 
L 288.331062 153.89334 
L 288.542371 155.266086 
L 288.753628 155.266086 
L 288.965004 155.952459 
L 289.395786 155.952459 
L 289.607006 151.147847 
L 289.817992 154.579713 
L 290.029484 160.070697 
L 290.240832 159.384324 
L 290.452265 160.75707 
L 290.671384 160.75707 
L 290.882477 160.070697 
L 291.093598 158.697951 
L 291.305107 160.070697 
L 291.516482 159.384324 
L 291.951618 153.206967 
L 292.162835 158.697951 
L 292.374439 160.75707 
L 292.585256 160.75707 
L 292.796741 160.070697 
L 293.008077 161.443444 
L 293.439236 155.266086 
L 293.650128 155.952459 
L 293.861412 157.325205 
L 294.073059 155.952459 
L 294.283966 155.952459 
L 294.50337 153.206967 
L 294.714667 153.89334 
L 294.926113 155.266086 
L 295.1373 155.266086 
L 295.348878 154.579713 
L 295.560034 151.147847 
L 295.782282 151.147847 
L 295.993618 153.89334 
L 296.204694 153.89334 
L 296.416009 155.266086 
L 296.838587 151.83422 
L 297.05742 151.83422 
L 297.269068 155.266086 
L 297.903051 149.775101 
L 298.113959 148.402355 
L 298.332958 147.715982 
L 298.544035 147.715982 
L 298.966679 143.597743 
L 299.178212 144.97049 
L 299.389702 144.97049 
L 299.608669 143.597743 
L 299.819727 137.420386 
L 300.031047 139.479505 
L 300.241863 139.479505 
L 300.453125 133.98852 
L 300.664175 138.793132 
L 300.882872 139.479505 
L 301.305298 135.361266 
L 301.516384 136.047639 
L 301.727782 138.106759 
L 301.939114 138.793132 
L 302.159932 138.106759 
L 302.370886 139.479505 
L 302.5823 138.793132 
L 302.793406 138.793132 
L 303.004324 139.479505 
L 303.21535 139.479505 
L 303.434283 142.224997 
L 303.856574 140.165878 
L 304.068182 142.91137 
L 304.279128 142.91137 
L 304.490127 141.538624 
L 304.709108 142.91137 
L 304.920493 141.538624 
L 305.343256 141.538624 
L 305.554555 140.852251 
L 305.766173 135.361266 
L 305.985434 142.91137 
L 306.196705 142.224997 
L 306.408176 142.91137 
L 307.041997 142.91137 
L 307.473794 137.420386 
L 307.684929 136.734012 
L 308.107302 139.479505 
L 308.548469 145.656863 
L 308.759797 146.343236 
L 308.971149 144.284116 
L 309.182655 149.775101 
L 309.39381 149.088728 
L 309.604806 150.461474 
L 309.824081 150.461474 
L 310.035185 151.147847 
L 310.246631 149.088728 
L 310.458182 149.088728 
L 310.669283 142.91137 
L 310.880608 148.402355 
L 311.099967 148.402355 
L 311.311389 150.461474 
L 311.522725 149.775101 
L 311.73387 150.461474 
L 311.945121 147.715982 
L 312.156237 149.775101 
L 312.379296 146.343236 
L 312.590546 147.029609 
L 312.801806 142.91137 
L 313.013255 146.343236 
L 313.224573 147.715982 
L 313.436153 144.97049 
L 313.655388 146.343236 
L 314.077497 149.775101 
L 314.288792 146.343236 
L 314.500146 148.402355 
L 314.711603 148.402355 
L 314.93064 146.343236 
L 315.141955 147.029609 
L 315.353374 146.343236 
L 315.776155 146.343236 
L 315.987462 149.775101 
L 316.417796 149.775101 
L 316.629071 147.029609 
L 316.840336 147.029609 
L 317.051508 143.597743 
L 317.262411 146.343236 
L 317.482754 143.597743 
L 317.694101 142.91137 
L 318.1166 144.97049 
L 318.327847 142.91137 
L 318.969372 144.97049 
L 319.603032 144.97049 
L 319.814335 146.343236 
L 320.033769 145.656863 
L 320.245244 145.656863 
L 320.667575 144.284116 
L 320.87904 145.656863 
L 321.090062 144.284116 
L 321.315732 140.165878 
L 321.527153 144.284116 
L 321.738643 136.047639 
L 321.949982 133.98852 
L 322.161079 136.734012 
L 322.372361 137.420386 
L 322.593095 136.734012 
L 323.437884 141.538624 
L 323.649132 138.106759 
L 323.868516 138.106759 
L 324.080058 139.479505 
L 324.291566 142.224997 
L 324.503073 141.538624 
L 324.71375 142.224997 
L 324.925135 138.793132 
L 325.355714 142.91137 
L 325.989355 144.97049 
L 326.200432 147.029609 
L 326.419467 142.224997 
L 326.630544 145.656863 
L 326.841989 145.656863 
L 327.264718 142.91137 
L 327.695188 146.343236 
L 327.906522 145.656863 
L 328.117979 145.656863 
L 328.32949 144.97049 
L 328.540319 144.97049 
L 328.972559 148.402355 
L 329.395161 144.284116 
L 329.817565 146.343236 
L 330.029042 150.461474 
L 330.248458 149.775101 
L 330.4595 153.206967 
L 330.670835 151.83422 
L 330.881977 155.266086 
L 331.093075 154.579713 
L 331.304041 150.461474 
L 331.523587 149.775101 
L 331.735257 150.461474 
L 331.946586 151.83422 
L 332.157965 148.402355 
L 332.58016 147.029609 
L 333.011864 149.088728 
L 333.223058 148.402355 
L 333.856839 148.402355 
L 334.082123 151.147847 
L 334.293378 148.402355 
L 334.504575 149.088728 
L 334.71614 152.520593 
L 335.139516 152.520593 
L 335.571431 149.088728 
L 335.993843 168.993548 
L 336.205124 161.443444 
L 336.416275 164.875309 
L 336.636185 170.366294 
L 336.847679 166.934428 
L 337.058973 168.307174 
L 337.269879 165.561682 
L 337.691939 167.620801 
L 337.911135 172.425413 
L 338.122314 171.73904 
L 338.333781 172.425413 
L 338.756137 166.934428 
L 338.967488 167.620801 
L 339.188069 166.248055 
L 339.399198 166.248055 
L 339.82119 167.620801 
L 340.032517 171.052667 
L 340.243946 169.679921 
L 340.463183 169.679921 
L 340.674816 171.73904 
L 341.0976 167.620801 
L 341.308676 171.73904 
L 341.520285 169.679921 
L 341.739773 174.484532 
L 341.95087 173.798159 
L 342.584153 179.289144 
L 342.795747 171.73904 
L 343.015019 184.093755 
L 343.226381 179.975517 
L 343.43764 179.975517 
L 343.648786 182.034636 
L 343.859996 179.289144 
L 344.071233 181.348263 
L 344.502814 177.230025 
L 344.713783 177.230025 
L 344.925173 171.73904 
L 345.136687 179.289144 
L 345.567175 175.857278 
L 345.778546 177.230025 
L 346.201022 174.484532 
L 346.412408 176.543651 
L 346.623741 176.543651 
L 346.852689 175.857278 
L 347.064102 175.857278 
L 347.275294 177.916398 
L 347.486833 178.602771 
L 347.697766 176.543651 
L 348.128713 183.407382 
L 348.340346 184.093755 
L 348.551946 183.407382 
L 348.763422 184.093755 
L 348.974582 183.407382 
L 349.185547 184.093755 
L 349.406604 186.839248 
L 349.617971 187.525621 
L 349.82901 191.643859 
L 350.250676 184.780129 
L 350.461808 187.525621 
L 350.681695 180.66189 
L 350.893011 182.721009 
L 351.104339 182.721009 
L 351.315753 180.66189 
L 351.738575 182.721009 
L 352.169217 182.721009 
L 352.380459 183.407382 
L 352.592054 182.034636 
L 352.803326 182.721009 
L 353.01484 186.152875 
L 353.233904 185.466502 
L 353.445281 186.152875 
L 353.656746 183.407382 
L 353.86829 183.407382 
L 354.07943 184.780129 
L 354.290329 184.093755 
L 354.512427 185.466502 
L 354.935167 185.466502 
L 355.146178 188.211994 
L 355.568643 182.721009 
L 355.78842 184.093755 
L 355.999253 182.721009 
L 356.210299 182.721009 
L 356.421466 183.407382 
L 356.632704 182.034636 
L 357.27414 187.525621 
L 357.485307 186.839248 
L 357.696643 188.211994 
L 357.908025 185.466502 
L 358.119065 186.152875 
L 358.338092 187.525621 
L 358.760538 187.525621 
L 358.971802 186.152875 
L 359.1831 186.152875 
L 359.394436 183.407382 
L 359.833649 183.407382 
L 360.045019 185.466502 
L 360.256649 184.093755 
L 360.468218 184.093755 
L 360.898635 188.211994 
L 361.110015 191.643859 
L 361.321026 188.211994 
L 361.532117 187.525621 
L 361.954919 189.58474 
L 362.384962 185.466502 
L 362.596108 184.093755 
L 362.80736 184.780129 
L 363.018386 181.348263 
L 363.229566 182.721009 
L 363.448798 186.152875 
L 363.660078 184.780129 
L 364.082834 180.66189 
L 364.294284 182.034636 
L 364.505596 182.034636 
L 364.724589 179.975517 
L 364.936171 180.66189 
L 365.147798 182.034636 
L 365.570268 178.602771 
L 365.781869 181.348263 
L 366.00219 179.975517 
L 366.213555 181.348263 
L 366.424814 181.348263 
L 366.635978 182.034636 
L 366.847005 182.034636 
L 367.05806 182.721009 
L 367.27686 182.721009 
L 367.699086 179.975517 
L 367.910118 182.721009 
L 368.120996 183.407382 
L 368.332368 176.543651 
L 368.550667 176.543651 
L 368.762243 178.602771 
L 368.973453 177.230025 
L 369.184695 178.602771 
L 369.395623 177.230025 
L 369.607033 179.289144 
L 370.037943 175.857278 
L 370.249295 176.543651 
L 370.460662 175.857278 
L 370.883084 175.857278 
L 371.102673 175.170905 
L 371.313792 175.857278 
L 371.525123 173.798159 
L 371.947246 173.798159 
L 372.158361 173.111786 
L 372.394781 173.111786 
L 372.605318 173.798159 
L 372.816707 173.111786 
L 373.45073 177.230025 
L 373.67019 175.857278 
L 373.881414 175.857278 
L 374.092633 177.230025 
L 374.304032 176.543651 
L 374.515341 178.602771 
L 374.726704 175.857278 
L 374.945917 175.857278 
L 374.945917 204.684948 
L 375.368732 211.548679 
L 375.579882 210.175933 
L 375.79151 206.744067 
L 376.241872 212.921425 
L 376.452773 211.548679 
L 376.664111 211.548679 
L 377.086834 214.980544 
L 377.298417 214.294171 
L 377.517641 219.098783 
L 378.150828 222.530648 
L 378.361707 220.471529 
L 378.57317 223.903394 
L 378.793145 223.903394 
L 379.004453 221.157902 
L 379.215697 221.157902 
L 379.637861 226.648887 
L 380.069132 237.630856 
L 380.280211 236.944483 
L 380.703024 234.198991 
L 380.914477 230.767125 
L 381.12563 232.139871 
L 381.344841 232.139871 
L 381.556079 228.021633 
L 381.767566 229.394379 
L 381.978785 225.962514 
L 382.189816 225.962514 
L 382.40116 227.33526 
L 382.620555 226.648887 
L 382.832087 227.33526 
L 383.254597 226.648887 
L 383.466018 226.648887 
L 383.677311 228.021633 
L 384.318603 230.080752 
L 384.529197 230.080752 
L 384.740306 230.767125 
L 385.171966 230.767125 
L 385.383324 230.080752 
L 385.594314 230.767125 
L 385.805727 228.708006 
L 386.016883 228.021633 
L 386.228391 228.021633 
L 386.659551 229.394379 
L 386.871037 227.33526 
L 387.082369 227.33526 
L 387.293741 226.648887 
L 387.504732 231.453498 
L 387.715818 233.512618 
L 387.927135 233.512618 
L 388.138722 231.453498 
L 388.350062 231.453498 
L 388.561155 232.139871 
L 388.780273 228.021633 
L 389.203095 226.648887 
L 389.414088 226.648887 
L 389.625483 231.453498 
L 389.836939 232.826245 
L 390.056365 230.767125 
L 390.479403 230.767125 
L 390.690716 230.080752 
L 390.901748 233.512618 
L 391.112598 234.198991 
L 391.333195 237.630856 
L 391.544585 235.571737 
L 391.755753 236.25811 
L 391.966893 241.749095 
L 392.178219 243.121841 
L 392.389369 243.121841 
L 392.819546 249.299199 
L 393.241942 252.044691 
L 393.452519 254.790183 
L 393.663972 251.358318 
L 394.093728 259.594795 
L 394.305118 258.222049 
L 394.516436 260.281168 
L 394.727344 258.222049 
L 394.938575 263.02666 
L 395.157657 264.399407 
L 395.580597 257.535676 
L 395.792052 259.594795 
L 396.003348 258.222049 
L 396.214748 258.222049 
L 396.435662 258.908422 
L 396.858287 265.08578 
L 397.069779 265.08578 
L 397.281098 267.144899 
L 397.492009 274.695003 
L 397.711258 265.772153 
L 397.922663 266.458526 
L 398.344657 263.02666 
L 398.556068 258.222049 
L 398.767175 257.535676 
L 399.198102 263.02666 
L 399.409706 265.08578 
L 399.620353 264.399407 
L 399.831479 267.831272 
L 400.042534 267.144899 
L 400.272621 267.144899 
L 400.484117 265.772153 
L 400.695255 262.340287 
L 401.118047 263.713033 
L 401.329537 260.281168 
L 401.549035 260.967541 
L 401.760222 265.08578 
L 402.393879 260.967541 
L 402.605335 263.713033 
L 402.824576 273.322257 
L 403.035533 275.381376 
L 403.246904 282.245107 
L 403.880373 286.363345 
L 404.310158 293.913449 
L 404.521019 295.972569 
L 404.732152 293.227076 
L 405.154679 299.404434 
L 405.37415 296.658942 
L 405.585741 295.972569 
L 405.7973 303.522672 
L 406.219052 290.481584 
L 406.43043 291.167957 
L 406.65121 296.658942 
L 406.862879 296.658942 
L 407.074004 299.404434 
L 407.285323 293.913449 
L 407.496637 295.972569 
L 408.138552 286.363345 
L 408.350003 287.736091 
L 408.560846 291.167957 
L 408.772172 282.93148 
L 408.98354 280.185988 
L 409.202961 284.304226 
L 409.414097 283.617853 
L 410.048105 280.185988 
L 410.259392 281.558734 
L 410.479353 280.872361 
L 410.690898 280.872361 
L 410.901521 282.245107 
L 411.112874 280.872361 
L 411.324174 280.872361 
L 411.535483 282.93148 
L 411.75674 282.245107 
L 411.967793 285.676972 
L 412.390203 289.108838 
L 412.601691 291.85433 
L 412.812792 290.481584 
L 413.253708 282.93148 
L 413.46474 289.795211 
L 413.887301 291.167957 
L 414.319829 286.363345 
L 414.53073 285.676972 
L 414.741569 282.93148 
L 414.952631 283.617853 
L 415.163666 282.245107 
L 415.375067 284.990599 
L 415.596449 285.676972 
L 416.230194 289.108838 
L 416.652501 287.736091 
L 416.872812 289.108838 
L 417.08404 288.422465 
L 417.295564 287.049718 
L 417.506477 287.736091 
L 417.928626 284.304226 
L 418.14863 282.93148 
L 418.359165 284.304226 
L 418.570483 284.304226 
L 418.78155 285.676972 
L 418.992436 283.617853 
L 419.203405 287.736091 
L 419.424638 295.972569 
L 419.635798 299.404434 
L 419.846941 319.995627 
L 420.269449 309.70003 
L 421.12247 324.800238 
L 421.334091 330.291223 
L 421.545098 328.918477 
L 421.756299 323.427492 
L 422.189199 318.62288 
L 422.612248 323.427492 
L 422.823717 316.563761 
L 423.034976 319.309253 
L 423.254933 315.877388 
L 423.466372 317.936507 
L 423.677745 317.936507 
L 423.889027 314.504642 
L 424.10008 317.250134 
L 424.310651 315.877388 
L 424.530334 319.995627 
L 424.952917 319.995627 
L 425.163958 317.936507 
L 425.374773 313.818269 
L 425.585725 312.445523 
L 425.806907 319.309253 
L 425.81661 311.072776 
L 426.027781 309.70003 
L 426.239189 306.268165 
L 426.450419 315.877388 
L 426.661711 309.70003 
L 426.87291 308.327284 
L 427.092945 312.445523 
L 427.514838 306.954538 
L 427.726139 306.954538 
L 427.937722 310.386403 
L 428.148693 309.70003 
L 428.368001 309.70003 
L 428.579482 306.268165 
L 428.790882 311.072776 
L 429.002451 307.640911 
L 429.213626 307.640911 
L 429.425118 309.013657 
L 429.644511 305.581792 
L 429.855429 307.640911 
L 430.0667 311.072776 
L 430.278308 311.759149 
L 430.489155 314.504642 
L 430.70078 311.072776 
L 430.922054 311.072776 
L 431.133728 308.327284 
L 431.345051 309.013657 
L 431.555974 306.954538 
L 431.767219 309.70003 
L 431.978848 315.877388 
L 432.198395 311.072776 
L 432.40943 312.445523 
L 432.620722 307.640911 
L 432.832096 306.954538 
L 433.04363 310.386403 
L 433.254982 306.268165 
L 433.473739 305.581792 
L 433.684741 306.268165 
L 433.896305 304.895419 
L 434.107739 304.895419 
L 434.318799 304.209046 
L 434.960818 295.286195 
L 435.17195 297.345315 
L 435.383596 297.345315 
L 435.594915 304.209046 
L 435.805563 306.954538 
L 436.024978 313.131896 
L 436.44754 317.936507 
L 436.869655 326.172984 
L 437.080439 340.586819 
L 437.301232 335.782208 
L 437.512544 343.332311 
L 437.723821 337.154954 
L 437.935091 337.154954 
L 438.146572 339.900446 
L 438.578556 331.663969 
L 438.586269 328.918477 
L 438.797817 323.427492 
L 439.008808 327.54573 
L 439.219671 326.859357 
L 439.431324 322.741119 
L 439.642441 322.054746 
L 440.072991 328.918477 
L 440.284401 326.859357 
L 440.707496 330.291223 
L 440.919032 329.60485 
L 441.349123 337.154954 
L 441.771097 328.918477 
L 441.981882 330.291223 
L 442.193279 335.095834 
L 442.413815 336.468581 
L 442.624877 322.741119 
L 442.835744 335.782208 
L 443.047312 337.154954 
L 443.470005 322.054746 
L 443.688984 325.486611 
L 443.899876 325.486611 
L 444.110934 324.113865 
L 444.322257 324.113865 
L 444.533525 322.054746 
L 444.744726 322.741119 
L 444.963357 325.486611 
L 445.386261 323.427492 
L 445.596811 323.427492 
L 445.808242 329.60485 
L 446.019295 326.859357 
L 446.450283 333.723088 
L 446.872052 326.859357 
L 447.083053 328.232104 
L 447.294342 337.841327 
L 447.513301 335.782208 
L 447.724683 344.705058 
L 447.936083 344.018685 
L 448.146985 351.568789 
L 448.56959 357.746146 
L 448.790077 350.196042 
L 449.001567 347.45055 
L 449.213126 347.45055 
L 449.424035 346.077804 
L 449.634964 358.432519 
L 449.845869 351.568789 
L 450.275779 358.432519 
L 450.698429 357.059773 
L 450.909884 351.568789 
L 451.121158 354.314281 
L 451.354511 352.255162 
L 451.565107 352.941535 
L 451.776276 348.136923 
L 451.987469 348.136923 
L 452.198776 347.45055 
L 452.410419 348.136923 
L 452.842607 356.3734 
L 453.053993 361.178012 
L 453.265297 361.864385 
L 453.476572 357.746146 
L 453.687981 373.532727 
L 453.907278 358.432519 
L 454.118704 359.118892 
L 454.330209 361.178012 
L 454.541442 361.864385 
L 455.183003 350.196042 
L 455.394179 358.432519 
L 455.605541 355.000654 
L 455.816801 359.805266 
L 456.239445 349.509669 
L 456.458249 348.823296 
L 456.669629 353.627908 
L 456.881207 352.941535 
L 457.091681 348.136923 
L 457.514606 346.764177 
L 457.733924 337.841327 
L 457.944648 339.900446 
L 458.155547 337.841327 
L 458.366983 340.586819 
L 458.578079 340.586819 
L 459.00987 346.764177 
L 459.432511 341.273192 
L 459.64378 330.977596 
L 460.496008 337.154954 
L 460.918892 340.586819 
L 461.341114 340.586819 
L 461.559674 344.705058 
L 461.770853 346.077804 
L 461.98228 349.509669 
L 462.193862 350.882415 
L 462.405226 361.178012 
L 462.616061 362.550758 
L 463.04603 354.314281 
L 463.468916 350.882415 
L 463.890536 346.077804 
L 464.128632 339.900446 
L 464.339963 343.332311 
L 464.762577 330.291223 
L 464.973535 344.018685 
L 465.184804 314.504642 
L 465.404308 312.445523 
L 466.037593 346.764177 
L 466.249208 318.62288 
L 466.460521 322.054746 
L 466.679717 338.5277 
L 466.890769 333.723088 
L 467.102132 334.409461 
L 467.313582 330.977596 
L 467.524658 332.350342 
L 467.955211 340.586819 
L 468.166452 335.782208 
L 468.377243 336.468581 
L 468.588733 330.977596 
L 468.799961 330.291223 
L 469.011569 327.54573 
L 469.445246 329.60485 
L 469.86788 330.977596 
L 470.079149 333.723088 
L 470.290439 331.663969 
L 470.509708 333.036715 
L 470.720733 331.663969 
L 471.142605 324.113865 
L 471.354071 323.427492 
L 471.564706 322.054746 
L 471.78492 317.250134 
L 472.206746 325.486611 
L 472.417722 319.995627 
L 472.629036 328.918477 
L 472.84061 329.60485 
L 473.061116 328.918477 
L 473.272365 327.54573 
L 473.483875 330.291223 
L 473.69508 326.859357 
L 473.906535 328.918477 
L 474.117907 328.232104 
L 474.337563 326.859357 
L 474.337563 337.154954 
L 474.549267 346.077804 
L 474.760505 348.823296 
L 474.971828 347.45055 
L 475.183209 347.45055 
L 475.394246 346.764177 
L 475.620757 346.764177 
L 475.832032 340.586819 
L 476.043416 344.705058 
L 476.254699 346.077804 
L 476.465981 346.077804 
L 476.67735 344.705058 
L 477.530835 354.314281 
L 477.742019 352.255162 
L 477.953363 348.823296 
L 478.390763 335.782208 
L 478.601674 335.095834 
L 479.456125 329.60485 
L 480.08976 310.386403 
L 480.301123 309.70003 
L 480.511664 312.445523 
L 480.731202 307.640911 
L 480.94245 305.581792 
L 481.153471 293.913449 
L 481.364938 300.77718 
L 481.576361 301.463553 
L 481.787713 300.77718 
L 482.218528 306.954538 
L 482.430009 306.954538 
L 482.852309 302.836299 
L 483.063824 294.599822 
L 483.494941 290.481584 
L 483.706556 292.540703 
L 483.91781 291.167957 
L 484.561431 273.322257 
L 484.77284 269.204018 
L 485.195205 276.067749 
L 485.406751 276.067749 
L 485.617865 274.00863 
L 485.837827 273.322257 
L 486.049079 302.836299 
L 486.260457 284.990599 
L 486.47183 284.990599 
L 486.683035 285.676972 
L 486.885121 284.304226 
L 486.894301 285.676972 
L 487.105928 283.617853 
L 487.317095 285.676972 
L 487.528454 283.617853 
L 487.73992 297.345315 
L 487.951399 289.795211 
L 488.171891 293.913449 
L 488.38319 293.913449 
L 488.594512 289.108838 
L 489.228916 293.227076 
L 489.450753 292.540703 
L 489.661956 285.676972 
L 489.873304 288.422465 
L 490.084745 285.676972 
L 490.296027 285.676972 
L 490.507621 284.304226 
L 490.728887 283.617853 
L 490.940278 283.617853 
L 491.151476 284.304226 
L 491.362882 284.304226 
L 491.574291 285.676972 
L 491.785523 290.481584 
L 492.005141 289.795211 
L 492.21628 280.872361 
L 492.427754 291.167957 
L 492.639136 282.245107 
L 492.850506 284.304226 
L 493.061615 283.617853 
L 493.281323 281.558734 
L 493.492808 276.067749 
L 493.704106 274.695003 
L 493.915467 274.695003 
L 494.126995 276.067749 
L 494.338429 270.576764 
L 494.557974 273.322257 
L 494.769117 273.322257 
L 494.980609 270.576764 
L 495.191993 258.908422 
L 495.403246 258.222049 
L 495.835759 251.358318 
L 496.04668 254.10381 
L 496.258211 250.671945 
L 496.469461 245.18096 
L 496.680847 232.826245 
L 497.112178 244.494587 
L 497.323741 247.240079 
L 497.535109 243.121841 
L 497.746765 241.749095 
L 497.957614 244.494587 
L 498.168923 245.18096 
L 498.388879 249.299199 
L 499.023354 232.826245 
L 499.234832 233.512618 
L 499.44566 233.512618 
L 499.654355 221.157902 
L 499.666744 271.263137 
L 499.878291 214.980544 
L 500.089403 217.039664 
L 500.511992 223.217021 
L 500.722973 219.098783 
L 500.944218 222.530648 
L 501.1552 223.903394 
L 501.3668 228.708006 
L 501.577689 230.080752 
L 501.78877 225.276141 
L 502.000261 225.276141 
L 502.219744 226.648887 
L 502.641944 219.785156 
L 503.064268 221.844275 
L 503.496782 227.33526 
L 503.708229 225.276141 
L 503.919706 221.157902 
L 504.131117 213.607798 
L 504.34226 216.35329 
L 504.553724 228.021633 
L 504.773431 218.41241 
L 504.98431 217.039664 
L 505.195599 217.039664 
L 505.40686 226.648887 
L 505.618001 217.039664 
L 505.828806 214.980544 
L 506.260529 201.253083 
L 506.471774 211.548679 
L 506.682861 209.48956 
L 506.894296 220.471529 
L 507.105567 224.589768 
L 507.327764 225.962514 
L 507.538671 221.844275 
L 507.961261 226.648887 
L 508.172597 234.198991 
L 508.603431 237.630856 
L 508.814434 233.512618 
L 509.02555 235.571737 
L 509.236567 239.003602 
L 509.447597 238.317229 
L 509.659188 239.003602 
L 509.879639 239.003602 
L 510.090978 233.512618 
L 510.302416 234.198991 
L 510.513378 234.198991 
L 510.724558 230.767125 
L 510.935411 234.885364 
L 511.156463 234.885364 
L 511.578771 241.062722 
L 511.789925 243.121841 
L 512.001394 247.240079 
L 512.213027 247.240079 
L 512.422366 245.18096 
L 512.435181 247.240079 
L 512.646195 245.18096 
L 512.857461 244.494587 
L 513.280446 247.926452 
L 513.491608 248.612826 
L 513.711757 250.671945 
L 513.923141 245.867333 
L 514.134274 255.476556 
L 514.556438 260.281168 
L 514.767528 234.885364 
L 514.987327 257.535676 
L 515.409452 249.985572 
L 515.620579 250.671945 
L 515.832073 249.985572 
L 516.04294 249.985572 
L 516.476735 247.240079 
L 516.68809 249.985572 
L 516.899236 249.985572 
L 517.110468 249.299199 
L 517.321847 251.358318 
L 517.54215 245.18096 
L 517.753208 245.18096 
L 517.964649 245.867333 
L 518.175713 244.494587 
L 518.3871 247.240079 
L 518.598216 243.121841 
L 518.817619 243.121841 
L 519.240089 249.985572 
L 519.451578 249.985572 
L 519.662987 247.926452 
L 519.874054 247.926452 
L 520.093605 244.494587 
L 520.304766 243.121841 
L 520.515703 244.494587 
L 520.72697 244.494587 
L 521.148823 247.926452 
L 521.579016 247.926452 
L 522.212296 252.044691 
L 522.423623 256.16293 
L 522.855995 247.926452 
L 523.27812 244.494587 
L 523.489388 245.18096 
L 523.919743 243.808214 
L 524.131318 239.689975 
L 524.342136 238.317229 
L 524.976223 245.867333 
L 525.19338 245.867333 
L 525.200787 249.299199 
L 525.411871 246.553706 
L 525.623249 253.417437 
L 525.834326 252.731064 
L 526.04594 254.790183 
L 526.25724 254.10381 
L 526.475836 254.790183 
L 526.687136 254.790183 
L 526.898289 258.222049 
L 527.109063 258.908422 
L 527.320168 255.476556 
L 527.531507 258.908422 
L 527.752715 255.476556 
L 528.174973 260.281168 
L 528.386026 258.222049 
L 528.808178 260.967541 
L 529.027928 258.222049 
L 529.2391 258.222049 
L 529.45009 258.908422 
L 529.661218 258.222049 
L 529.872208 260.281168 
L 530.302323 260.281168 
L 530.513335 261.653914 
L 530.723848 265.08578 
L 530.934957 270.576764 
L 531.146301 269.890391 
L 531.35758 268.517645 
L 531.576081 267.831272 
L 531.78725 269.890391 
L 531.998601 273.322257 
L 532.20994 270.576764 
L 532.421285 269.890391 
L 532.852267 273.322257 
L 533.063438 278.126868 
L 533.274902 274.695003 
L 533.486447 278.813241 
L 533.697413 278.813241 
L 533.908337 272.635884 
L 534.338062 272.635884 
L 534.972283 283.617853 
L 535.183147 283.617853 
L 535.40544 289.108838 
L 535.616576 284.990599 
L 535.827864 285.676972 
L 536.038925 287.736091 
L 536.250442 287.736091 
L 536.461735 290.481584 
L 536.681443 289.108838 
L 536.892479 289.108838 
L 537.31452 286.363345 
L 537.737316 292.540703 
L 537.973005 292.540703 
L 538.184437 284.990599 
L 538.395578 284.304226 
L 538.818442 287.049718 
L 539.02954 285.676972 
L 539.250219 287.049718 
L 539.461587 287.049718 
L 539.672719 289.108838 
L 540.095602 290.481584 
L 540.306917 292.540703 
L 540.527802 293.227076 
L 540.950685 289.108838 
L 541.162084 287.736091 
L 541.372925 289.795211 
L 541.584099 287.736091 
L 542.647688 284.304226 
L 542.858483 288.422465 
L 543.077136 290.481584 
L 543.922393 314.504642 
L 544.13364 313.131896 
L 544.352483 319.309253 
L 544.563763 319.309253 
L 544.775257 329.60485 
L 544.986566 325.486611 
L 545.197569 326.859357 
L 545.408617 326.859357 
L 545.6277 327.54573 
L 545.839344 326.859357 
L 546.050201 324.113865 
L 546.472397 328.918477 
L 546.683543 329.60485 
L 547.114905 324.113865 
L 547.326241 323.427492 
L 547.748395 330.291223 
L 547.959962 335.782208 
L 548.178425 329.60485 
L 548.38987 333.723088 
L 548.601284 332.350342 
L 548.812365 333.036715 
L 549.02335 329.60485 
L 549.234599 328.918477 
L 549.45609 326.172984 
L 549.667324 326.172984 
L 549.878257 332.350342 
L 550.089674 331.663969 
L 550.74046 336.468581 
L 550.951916 336.468581 
L 551.163616 340.586819 
L 551.585831 336.468581 
L 551.796659 338.5277 
L 552.015183 335.095834 
L 552.226145 334.409461 
L 552.437174 337.841327 
L 552.860013 335.782208 
L 553.071147 336.468581 
L 553.290995 341.959565 
L 553.502276 341.959565 
L 553.713432 340.586819 
L 554.135579 341.959565 
L 554.346748 348.823296 
L 554.564805 346.764177 
L 554.776117 348.136923 
L 554.987533 346.077804 
L 555.199074 345.391431 
L 555.409671 346.764177 
L 555.620987 341.959565 
L 555.838544 339.900446 
L 556.049905 339.900446 
L 556.261615 337.154954 
L 556.472982 337.154954 
L 556.68412 341.959565 
L 557.324416 346.077804 
L 557.535997 338.5277 
L 557.747155 336.468581 
L 557.958521 333.036715 
L 558.170026 335.095834 
L 558.388095 333.723088 
L 558.599038 331.663969 
L 558.810524 330.977596 
L 559.021477 332.350342 
L 559.232478 332.350342 
L 559.443665 330.977596 
L 559.663392 322.741119 
L 559.874529 324.800238 
L 560.085756 318.62288 
L 560.508644 322.741119 
L 560.720012 322.054746 
L 560.938294 322.741119 
L 561.360623 327.54573 
L 561.571851 326.859357 
L 561.782833 331.663969 
L 561.993864 326.859357 
L 562.211944 329.60485 
L 562.423089 319.309253 
L 562.634598 317.936507 
L 562.845957 329.60485 
L 563.057386 333.036715 
L 563.268708 328.918477 
L 563.509983 327.54573 
L 563.721621 324.800238 
L 563.932801 324.800238 
L 564.143753 322.741119 
L 564.355285 325.486611 
L 564.566571 326.172984 
L 564.784552 328.918477 
L 564.99541 329.60485 
L 565.206731 331.663969 
L 565.628971 330.291223 
L 565.840389 327.54573 
L 566.06058 328.232104 
L 566.272051 328.232104 
L 566.483303 326.859357 
L 566.69459 326.859357 
L 566.905632 322.741119 
L 567.116716 321.368373 
L 567.335018 326.172984 
L 567.546167 326.859357 
L 567.757563 328.918477 
L 568.179663 340.586819 
L 568.820008 330.291223 
L 569.030932 330.977596 
L 569.24204 329.60485 
L 569.453483 330.977596 
L 569.664534 330.977596 
L 570.094485 323.427492 
L 570.728562 335.782208 
L 570.940257 337.154954 
L 571.158791 337.154954 
L 571.370045 335.095834 
L 571.581051 331.663969 
L 571.792184 330.291223 
L 572.002874 330.977596 
L 572.214093 334.409461 
L 572.433955 332.350342 
L 572.645201 335.782208 
L 572.645201 309.013657 
L 572.856498 311.072776 
L 573.068149 315.191015 
L 573.27981 313.818269 
L 574.135933 319.995627 
L 574.347874 314.504642 
L 574.55925 315.877388 
L 574.770476 313.131896 
L 574.982302 315.191015 
L 575.200865 315.877388 
L 575.412503 314.504642 
L 575.62383 314.504642 
L 575.835719 313.818269 
L 576.047288 313.818269 
L 576.258894 309.70003 
L 576.477716 309.013657 
L 576.689769 306.268165 
L 576.900946 309.013657 
L 577.112764 309.70003 
L 577.324158 308.327284 
L 577.535653 305.581792 
L 577.75453 293.913449 
L 577.965826 291.85433 
L 578.17762 292.540703 
L 578.38925 295.972569 
L 578.600956 287.049718 
L 578.812603 291.85433 
L 579.032527 300.77718 
L 579.244133 300.77718 
L 579.455682 305.581792 
L 579.66733 306.268165 
L 579.879003 309.70003 
L 580.090678 305.581792 
L 580.309548 309.70003 
L 580.52108 309.013657 
L 580.944551 309.013657 
L 581.156062 304.895419 
L 581.368341 306.954538 
L 581.587668 304.895419 
L 582.222144 310.386403 
L 582.43376 314.504642 
L 582.645127 314.504642 
L 582.865325 312.445523 
L 583.076938 312.445523 
L 583.288622 313.818269 
L 583.500031 311.759149 
L 583.711591 311.072776 
L 583.923496 311.072776 
L 584.143344 311.759149 
L 584.355139 310.386403 
L 584.566677 306.954538 
L 584.778562 307.640911 
L 584.990362 307.640911 
L 585.201432 306.268165 
L 585.413049 303.522672 
L 585.625056 291.167957 
L 585.836607 295.972569 
L 586.048243 293.913449 
L 586.260017 279.499614 
L 586.48095 279.499614 
L 586.692814 283.617853 
L 586.904898 282.93148 
L 587.116337 284.304226 
L 587.328036 282.245107 
L 587.539842 277.440495 
L 587.7599 276.067749 
L 587.971328 277.440495 
L 588.182767 280.872361 
L 588.394098 279.499614 
L 588.605822 285.676972 
L 588.817685 285.676972 
L 589.03692 288.422465 
L 589.248785 282.93148 
L 589.460427 282.245107 
L 589.883515 272.635884 
L 590.09538 270.576764 
L 590.318868 271.94951 
L 590.530517 275.381376 
L 590.74239 275.381376 
L 590.953662 268.517645 
L 591.164937 269.890391 
L 591.376124 268.517645 
L 591.809465 268.517645 
L 592.232443 264.399407 
L 592.44424 263.02666 
L 592.876275 270.576764 
L 593.088029 278.126868 
L 593.299175 276.067749 
L 593.72199 268.517645 
L 594.364099 278.813241 
L 594.575732 278.813241 
L 594.787639 260.281168 
L 594.999366 277.440495 
L 595.210673 277.440495 
L 595.429802 271.94951 
L 596.064595 276.067749 
L 596.276292 273.322257 
L 596.487726 263.02666 
L 596.708891 272.635884 
L 596.920401 276.754122 
L 597.13185 261.653914 
L 597.343437 276.067749 
L 597.555172 269.890391 
L 597.766678 275.381376 
L 597.961234 274.695003 
L 597.986584 274.00863 
L 598.198457 271.94951 
L 598.410512 274.00863 
L 598.621988 272.635884 
L 598.833599 272.635884 
L 599.045114 273.322257 
L 599.265333 275.381376 
L 599.476971 275.381376 
L 599.688725 273.322257 
L 600.111757 278.813241 
L 600.323229 278.813241 
L 600.542489 279.499614 
L 600.754125 275.381376 
L 600.965949 275.381376 
L 601.177931 251.358318 
L 601.389949 252.044691 
L 601.60161 244.494587 
L 601.822609 252.731064 
L 602.034404 250.671945 
L 602.669441 238.317229 
L 602.881281 245.18096 
L 603.10263 248.612826 
L 603.313812 247.240079 
L 603.525639 249.985572 
L 603.737401 247.240079 
L 603.949131 240.376349 
L 604.160723 241.062722 
L 604.380341 243.121841 
L 604.591819 278.813241 
L 604.803004 249.985572 
L 605.014614 237.630856 
L 605.226102 232.139871 
L 605.437775 240.376349 
L 605.657096 237.630856 
L 605.869031 241.749095 
L 606.080713 254.790183 
L 606.292315 256.16293 
L 606.504243 254.790183 
L 606.71609 265.08578 
L 607.147987 258.222049 
L 607.359721 258.908422 
L 607.571472 243.808214 
L 607.782939 251.358318 
L 607.994627 254.790183 
L 608.213859 239.689975 
L 608.425443 238.317229 
L 608.637289 239.689975 
L 608.848726 239.003602 
L 609.060298 247.240079 
L 609.271658 237.630856 
L 609.492973 237.630856 
L 609.70425 251.358318 
L 609.916075 236.25811 
L 610.128086 253.417437 
L 610.339641 257.535676 
L 610.551819 255.476556 
L 610.728133 251.358318 
L 610.77149 245.867333 
L 610.983498 245.867333 
L 611.194909 249.985572 
L 611.406768 242.435468 
L 611.618425 241.749095 
L 611.830237 243.121841 
L 612.260431 250.671945 
L 612.472146 247.926452 
L 612.895517 247.926452 
L 613.10716 246.553706 
L 613.327109 247.240079 
L 613.538792 250.671945 
L 613.750741 249.985572 
L 614.173925 230.767125 
L 614.385595 238.317229 
L 614.60709 236.25811 
L 614.818824 239.689975 
L 615.242337 242.435468 
L 615.454311 241.749095 
L 615.665886 244.494587 
L 615.884857 254.790183 
L 616.09606 254.10381 
L 616.30804 260.281168 
L 616.519466 256.849303 
L 616.731069 260.281168 
L 616.942815 246.553706 
L 617.161551 263.02666 
L 617.37299 263.02666 
L 617.58472 256.849303 
L 617.796561 265.08578 
L 618.007926 260.967541 
L 618.438443 258.222049 
L 618.861422 265.08578 
L 619.495952 247.240079 
L 619.714634 258.908422 
L 619.926237 254.790183 
L 620.137976 258.908422 
L 620.349739 236.25811 
L 620.561222 244.494587 
L 620.773164 239.689975 
L 620.994327 241.062722 
L 621.418063 248.612826 
L 621.629506 248.612826 
L 621.840716 250.671945 
L 622.052169 251.358318 
L 622.271197 250.671945 
L 622.482379 254.10381 
L 622.906043 254.10381 
L 623.117759 252.731064 
L 623.329589 254.790183 
L 623.498249 252.044691 
L 623.549913 252.731064 
L 623.761338 254.790183 
L 623.973124 252.044691 
L 624.184764 244.494587 
L 624.39628 251.358318 
L 624.826926 252.731064 
L 625.038502 256.849303 
L 625.250197 254.790183 
L 625.461813 248.612826 
L 625.673412 247.926452 
L 625.884907 251.358318 
L 626.105679 249.299199 
L 626.317488 249.985572 
L 626.529395 247.926452 
L 626.740885 247.926452 
L 626.952601 245.18096 
L 627.164403 246.553706 
L 627.38509 253.417437 
L 627.59659 254.790183 
L 627.80827 283.617853 
L 628.019657 278.126868 
L 628.231436 246.553706 
L 628.442369 243.808214 
L 628.661972 278.813241 
L 628.873838 278.813241 
L 629.085085 244.494587 
L 629.296959 279.499614 
L 629.508393 280.185988 
L 629.719233 282.245107 
L 629.938182 280.185988 
L 630.14998 274.00863 
L 630.361786 243.121841 
L 630.573427 282.245107 
L 630.784985 290.481584 
L 630.996575 289.795211 
L 631.215839 288.422465 
L 631.849881 278.126868 
L 632.061155 276.754122 
L 632.272751 274.00863 
L 632.493448 278.813241 
L 632.705011 278.813241 
L 632.916721 280.872361 
L 633.128322 276.754122 
L 633.339862 269.204018 
L 633.551487 270.576764 
L 633.77073 265.08578 
L 633.982376 268.517645 
L 634.194058 267.831272 
L 634.405891 263.713033 
L 634.61726 265.08578 
L 634.828407 271.94951 
L 635.047153 269.204018 
L 635.258542 265.08578 
L 635.469733 265.08578 
L 635.681371 270.576764 
L 635.892253 262.340287 
L 636.323602 268.517645 
L 636.535434 270.576764 
L 636.746867 263.02666 
L 636.958115 263.713033 
L 637.169305 265.08578 
L 637.381279 263.713033 
L 637.600432 260.281168 
L 637.812254 260.281168 
L 638.023974 266.458526 
L 638.235627 278.126868 
L 638.447075 271.94951 
L 638.658463 271.94951 
L 638.878726 270.576764 
L 639.08984 277.440495 
L 639.301897 278.813241 
L 639.513554 278.126868 
L 639.724901 271.94951 
L 639.936323 272.635884 
L 640.155468 270.576764 
L 640.367161 271.94951 
L 640.790308 268.517645 
L 641.001615 270.576764 
L 641.213124 269.890391 
L 641.643896 260.967541 
L 641.855636 268.517645 
L 642.067386 265.08578 
L 642.279054 266.458526 
L 642.710258 274.695003 
L 642.92202 274.00863 
L 643.133264 267.831272 
L 643.344993 269.890391 
L 643.556621 273.322257 
L 643.767987 271.94951 
L 643.986825 275.381376 
L 644.198272 273.322257 
L 644.409977 289.108838 
L 644.621308 290.481584 
L 644.832819 290.481584 
L 645.04472 291.85433 
L 645.265542 303.522672 
L 645.477295 298.031688 
L 645.689082 296.658942 
L 645.900567 301.463553 
L 646.112202 298.031688 
L 646.323039 297.345315 
L 646.542536 293.227076 
L 646.754348 292.540703 
L 646.965904 302.836299 
L 647.177206 297.345315 
L 647.388439 298.031688 
L 647.600252 295.286195 
L 647.820463 294.599822 
L 648.032047 296.658942 
L 648.243454 286.363345 
L 648.45491 289.108838 
L 648.666613 288.422465 
L 649.098083 299.404434 
L 649.309669 298.718061 
L 649.521334 299.404434 
L 649.732979 298.718061 
L 650.156134 301.463553 
L 650.378532 311.072776 
L 650.589918 309.013657 
L 650.801358 312.445523 
L 651.0127 309.70003 
L 651.224169 314.504642 
L 651.435733 313.818269 
L 651.655611 316.563761 
L 651.867192 315.877388 
L 652.078783 317.936507 
L 652.290747 313.131896 
L 652.502421 313.818269 
L 652.714013 313.818269 
L 652.933526 313.131896 
L 653.145051 313.131896 
L 653.356592 319.995627 
L 653.779682 313.131896 
L 653.991208 319.995627 
L 654.2104 322.054746 
L 654.42175 313.818269 
L 654.845829 316.563761 
L 655.057555 313.818269 
L 655.269106 315.191015 
L 655.490272 315.877388 
L 655.70233 310.386403 
L 655.913879 311.759149 
L 656.125328 316.563761 
L 656.548723 309.013657 
L 656.7733 308.327284 
L 657.408136 316.563761 
L 657.619739 315.191015 
L 657.831591 311.072776 
L 658.052884 298.718061 
L 658.2641 306.268165 
L 658.687732 309.70003 
L 658.899481 306.268165 
L 659.111301 311.072776 
L 659.331827 309.70003 
L 659.543586 307.640911 
L 659.755232 309.70003 
L 659.966911 313.818269 
L 660.178557 309.70003 
L 660.822007 327.54573 
L 661.033542 328.232104 
L 661.456837 321.368373 
L 661.810801 324.800238 
L 661.887772 320.682 
L 662.31104 314.504642 
L 662.523284 299.404434 
L 662.735296 315.191015 
L 663.170143 300.77718 
L 663.381451 300.090807 
L 663.593237 289.108838 
L 663.804831 293.913449 
L 664.228139 309.013657 
L 664.66013 304.209046 
L 664.871525 304.895419 
L 665.082983 304.895419 
L 665.294547 311.759149 
L 665.506243 304.895419 
L 665.726228 306.954538 
L 665.937897 307.640911 
L 666.149068 306.268165 
L 666.57248 298.031688 
L 666.784074 299.404434 
L 667.003653 302.149926 
L 667.215338 302.149926 
L 667.426722 308.327284 
L 668.06176 310.386403 
L 668.282071 309.70003 
L 668.493572 309.70003 
L 668.705491 314.504642 
L 668.91711 308.327284 
L 669.128611 318.62288 
L 669.340283 318.62288 
L 669.561168 319.995627 
L 669.772668 311.759149 
L 669.984162 311.759149 
L 670.195853 303.522672 
L 670.407208 308.327284 
L 670.618661 308.327284 
L 670.838824 309.70003 
L 671.050432 315.191015 
L 671.262029 310.386403 
L 671.473435 309.70003 
L 671.685042 306.954538 
L 671.896924 311.072776 
L 672.329037 315.191015 
L 672.752911 315.191015 
L 672.964731 323.427492 
L 673.176684 321.368373 
L 673.397178 322.741119 
L 673.608692 322.741119 
L 674.031911 317.936507 
L 674.455303 328.232104 
L 674.676753 326.859357 
L 674.888647 308.327284 
L 675.100633 328.232104 
L 675.524102 338.5277 
L 675.73558 341.273192 
L 676.16726 334.409461 
L 676.802219 339.900446 
L 677.013511 326.859357 
L 677.232951 326.859357 
L 677.444267 322.741119 
L 677.65551 326.859357 
L 677.867242 323.427492 
L 678.078965 322.054746 
L 678.290446 323.427492 
L 678.512292 321.368373 
L 678.935316 319.995627 
L 679.14736 319.995627 
L 679.359182 313.818269 
L 679.570455 300.77718 
L 679.570455 300.77718 
" clip-path="url(#p2b697ec0bc)" style="fill: none; stroke: #000000; stroke-width: 1.5; stroke-linecap: square"/>
   </g>
   <g id="patch_3">
    <path d="M 57.35 390.04 
L 57.35 26.88 
" style="fill: none; stroke: #000000; stroke-width: 0.8; stroke-linejoin: miter; stroke-linecap: square"/>
   </g>
   <g id="patch_4">
    <path d="M 709.2 390.04 
L 709.2 26.88 
" style="fill: none; stroke: #000000; stroke-width: 0.8; stroke-linejoin: miter; stroke-linecap: square"/>
   </g>
   <g id="patch_5">
    <path d="M 57.35 390.04 
L 709.2 390.04 
" style="fill: none; stroke: #000000; stroke-width: 0.8; stroke-linejoin: miter; stroke-linecap: square"/>
   </g>
   <g id="patch_6">
    <path d="M 57.35 26.88 
L 709.2 26.88 
" style="fill: none; stroke: #000000; stroke-width: 0.8; stroke-linejoin: miter; stroke-linecap: square"/>
   </g>
   <g id="text_14">
    <!-- Price Over Time (Paper Trading) -->
    <g transform="translate(288.2125 20.88) scale(0.12 -0.12)">
     <defs>
      <path id="DejaVuSans-4f" d="M 2522 4238 
Q 1834 4238 1429 3725 
Q 1025 3213 1025 2328 
Q 1025 1447 1429 934 
Q 1834 422 2522 422 
Q 3209 422 3611 934 
Q 4013 1447 4013 2328 
Q 4013 3213 3611 3725 
Q 3209 4238 2522 4238 
z
M 2522 4750 
Q 3503 4750 4090 4092 
Q 4678 3434 4678 2328 
Q 4678 1225 4090 567 
Q 3503 -91 2522 -91 
Q 1538 -91 948 565 
Q 359 1222 359 2328 
Q 359 3434 948 4092 
Q 1538 4750 2522 4750 
z
" transform="scale(0.015625)"/>
      <path id="DejaVuSans-76" d="M 191 3500 
L 800 3500 
L 1894 563 
L 2988 3500 
L 3597 3500 
L 2284 0 
L 1503 0 
L 191 3500 
z
" transform="scale(0.015625)"/>
      <path id="DejaVuSans-6d" d="M 3328 2828 
Q 3544 3216 3844 3400 
Q 4144 3584 4550 3584 
Q 5097 3584 5394 3201 
Q 5691 2819 5691 2113 
L 5691 0 
L 5113 0 
L 5113 2094 
Q 5113 2597 4934 2840 
Q 4756 3084 4391 3084 
Q 3944 3084 3684 2787 
Q 3425 2491 3425 1978 
L 3425 0 
L 2847 0 
L 2847 2094 
Q 2847 2600 2669 2842 
Q 2491 3084 2119 3084 
Q 1678 3084 1418 2786 
Q 1159 2488 1159 1978 
L 1159 0 
L 581 0 
L 581 3500 
L 1159 3500 
L 1159 2956 
Q 1356 3278 1631 3431 
Q 1906 3584 2284 3584 
Q 2666 3584 2933 3390 
Q 3200 3197 3328 2828 
z
" transform="scale(0.015625)"/>
      <path id="DejaVuSans-28" d="M 1984 4856 
Q 1566 4138 1362 3434 
Q 1159 2731 1159 2009 
Q 1159 1288 1364 580 
Q 1569 -128 1984 -844 
L 1484 -844 
Q 1016 -109 783 600 
Q 550 1309 550 2009 
Q 550 2706 781 3412 
Q 1013 4119 1484 4856 
L 1984 4856 
z
" transform="scale(0.015625)"/>
      <path id="DejaVuSans-29" d="M 513 4856 
L 1013 4856 
Q 1481 4119 1714 3412 
Q 1947 2706 1947 2009 
Q 1947 1309 1714 600 
Q 1481 -109 1013 -844 
L 513 -844 
Q 928 -128 1133 580 
Q 1338 1288 1338 2009 
Q 1338 2731 1133 3434 
Q 928 4138 513 4856 
z
" transform="scale(0.015625)"/>
     </defs>
     <use xlink:href="#DejaVuSans-50"/>
     <use xlink:href="#DejaVuSans-72" x="58.552734"/>
     <use xlink:href="#DejaVuSans-69" x="99.666016"/>
     <use xlink:href="#DejaVuSans-63" x="127.449219"/>
     <use xlink:href="#DejaVuSans-65" x="182.429688"/>
     <use xlink:href="#DejaVuSans-20" x="243.953125"/>
     <use xlink:href="#DejaVuSans-4f" x="275.740234"/>
     <use xlink:href="#DejaVuSans-76" x="354.451172"/>
     <use xlink:href="#DejaVuSans-65" x="413.630859"/>
     <use xlink:href="#DejaVuSans-72" x="475.154297"/>
     <use xlink:href="#DejaVuSans-20" x="516.267578"/>
     <use xlink:href="#DejaVuSans-54" x="548.054688"/>
     <use xlink:href="#DejaVuSans-69" x="606.013672"/>
     <use xlink:href="#DejaVuSans-6d" x="633.796875"/>
     <use xlink:href="#DejaVuSans-65" x="731.208984"/>
     <use xlink:href="#DejaVuSans-20" x="792.732422"/>
     <use xlink:href="#DejaVuSans-28" x="824.519531"/>
     <use xlink:href="#DejaVuSans-50" x="863.533203"/>
     <use xlink:href="#DejaVuSans-61" x="919.335938"/>
     <use xlink:href="#DejaVuSans-70" x="980.615234"/>
     <use xlink:href="#DejaVuSans-65" x="1044.091797"/>
     <use xlink:href="#DejaVuSans-72" x="1105.615234"/>
     <use xlink:href="#DejaVuSans-20" x="1146.728516"/>
     <use xlink:href="#DejaVuSans-54" x="1178.515625"/>
     <use xlink:href="#DejaVuSans-72" x="1224.849609"/>
     <use xlink:href="#DejaVuSans-61" x="1265.962891"/>
     <use xlink:href="#DejaVuSans-64" x="1327.242188"/>
     <use xlink:href="#DejaVuSans-69" x="1390.71875"/>
     <use xlink:href="#DejaVuSans-6e" x="1418.501953"/>
     <use xlink:href="#DejaVuSans-67" x="1481.880859"/>
     <use xlink:href="#DejaVuSans-29" x="1545.357422"/>
    </g>
   </g>
   <g id="legend_1">
    <g id="patch_7">
     <path d="M 645.804688 49.558125 
L 702.2 49.558125 
Q 704.2 49.558125 704.2 47.558125 
L 704.2 33.88 
Q 704.2 31.88 702.2 31.88 
L 645.804688 31.88 
Q 643.804688 31.88 643.804688 33.88 
L 643.804688 47.558125 
Q 643.804688 49.558125 645.804688 49.558125 
z
" style="fill: #ffffff; opacity: 0.8; stroke: #cccccc; stroke-linejoin: miter"/>
    </g>
    <g id="line2d_24">
     <path d="M 647.804688 39.978438 
L 657.804688 39.978438 
L 667.804688 39.978438 
" style="fill: none; stroke: #000000; stroke-width: 1.5; stroke-linecap: square"/>
    </g>
    <g id="text_15">
     <!-- Price -->
     <g transform="translate(675.804688 43.478438) scale(0.1 -0.1)">
      <use xlink:href="#DejaVuSans-50"/>
      <use xlink:href="#DejaVuSans-72" x="58.552734"/>
      <use xlink:href="#DejaVuSans-69" x="99.666016"/>
      <use xlink:href="#DejaVuSans-63" x="127.449219"/>
      <use xlink:href="#DejaVuSans-65" x="182.429688"/>
     </g>
    </g>
   </g>
  </g>
 </g>
 <defs>
  <clipPath id="p2b697ec0bc">
   <rect x="57.35" y="26.88" width="651.85" height="363.16"/>
  </clipPath>
 </defs>
</svg>
