<?xml version="1.0" encoding="utf-8" standalone="no"?>
<!DOCTYPE svg PUBLIC "-//W3C//DTD SVG 1.1//EN"
  "http://www.w3.org/Graphics/SVG/1.1/DTD/svg11.dtd">
<svg xmlns:xlink="http://www.w3.org/1999/xlink" width="599.440625pt" height="392.514375pt" viewBox="0 0 599.440625 392.514375" xmlns="http://www.w3.org/2000/svg" version="1.1">
 <metadata>
  <rdf:RDF xmlns:dc="http://purl.org/dc/elements/1.1/" xmlns:cc="http://creativecommons.org/ns#" xmlns:rdf="http://www.w3.org/1999/02/22-rdf-syntax-ns#">
   <cc:Work>
    <dc:type rdf:resource="http://purl.org/dc/dcmitype/StillImage"/>
    <dc:date>2026-03-17T23:44:50.344911</dc:date>
    <dc:format>image/svg+xml</dc:format>
    <dc:creator>
     <cc:Agent>
      <dc:title>Matplotlib v3.10.8, https://matplotlib.org/</dc:title>
     </cc:Agent>
    </dc:creator>
   </cc:Work>
  </rdf:RDF>
 </metadata>
 <defs>
  <style type="text/css">*{stroke-linejoin: round; stroke-linecap: butt}</style>
 </defs>
 <g id="figure_1">
  <g id="patch_1">
   <path d="M 0 392.514375 
L 599.440625 392.514375 
L 599.440625 0 
L 0 0 
z
" style="fill: #ffffff"/>
  </g>
  <g id="axes_1">
   <g id="patch_2">
    <path d="M 34.240625 354.958125 
L 592.240625 354.958125 
L 592.240625 22.318125 
L 34.240625 22.318125 
z
" style="fill: #ffffff"/>
   </g>
   <g id="matplotlib.axis_1">
    <g id="xtick_1">
     <g id="line2d_1">
      <path d="M 58.551828 354.958125 
L 58.551828 22.318125 
" clip-path="url(#p28b1fc354d)" style="fill: none; stroke: #b0b0b0; stroke-width: 0.8; stroke-linecap: square"/>
     </g>
     <g id="line2d_2">
      <defs>
       <path id="mca7e75ac45" d="M 0 0 
L 0 3.5 
" style="stroke: #000000; stroke-width: 0.8"/>
      </defs>
      <g>
       <use xlink:href="#mca7e75ac45" x="58.551828" y="354.958125" style="stroke: #000000; stroke-width: 0.8"/>
      </g>
     </g>
     <g id="text_1">
      <!-- 2024-01 -->
      <g transform="translate(37.660422 369.556562) scale(0.1 -0.1)">
       <defs>
        <path id="DejaVuSans-32" d="M 1228 531 
L 3431 531 
L 3431 0 
L 469 0 
L 469 531 
Q 828 903 1448 1529 
Q 2069 2156 2228 2338 
Q 2531 2678 2651 2914 
Q 2772 3150 2772 3378 
Q 2772 3750 2511 3984 
Q 2250 4219 1831 4219 
Q 1534 4219 1204 4116 
Q 875 4013 500 3803 
L 500 4441 
Q 881 4594 1212 4672 
Q 1544 4750 1819 4750 
Q 2544 4750 2975 4387 
Q 3406 4025 3406 3419 
Q 3406 3131 3298 2873 
Q 3191 2616 2906 2266 
Q 2828 2175 2409 1742 
Q 1991 1309 1228 531 
z
" transform="scale(0.015625)"/>
        <path id="DejaVuSans-30" d="M 2034 4250 
Q 1547 4250 1301 3770 
Q 1056 3291 1056 2328 
Q 1056 1369 1301 889 
Q 1547 409 2034 409 
Q 2525 409 2770 889 
Q 3016 1369 3016 2328 
Q 3016 3291 2770 3770 
Q 2525 4250 2034 4250 
z
M 2034 4750 
Q 2819 4750 3233 4129 
Q 3647 3509 3647 2328 
Q 3647 1150 3233 529 
Q 2819 -91 2034 -91 
Q 1250 -91 836 529 
Q 422 1150 422 2328 
Q 422 3509 836 4129 
Q 1250 4750 2034 4750 
z
" transform="scale(0.015625)"/>
        <path id="DejaVuSans-34" d="M 2419 4116 
L 825 1625 
L 2419 1625 
L 2419 4116 
z
M 2253 4666 
L 3047 4666 
L 3047 1625 
L 3713 1625 
L 3713 1100 
L 3047 1100 
L 3047 0 
L 2419 0 
L 2419 1100 
L 313 1100 
L 313 1709 
L 2253 4666 
z
" transform="scale(0.015625)"/>
        <path id="DejaVuSans-2d" d="M 313 2009 
L 1997 2009 
L 1997 1497 
L 313 1497 
L 313 2009 
z
" transform="scale(0.015625)"/>
        <path id="DejaVuSans-31" d="M 794 531 
L 1825 531 
L 1825 4091 
L 703 3866 
L 703 4441 
L 1819 4666 
L 2450 4666 
L 2450 531 
L 3481 531 
L 3481 0 
L 794 0 
L 794 531 
z
" transform="scale(0.015625)"/>
       </defs>
       <use xlink:href="#DejaVuSans-32"/>
       <use xlink:href="#DejaVuSans-30" transform="translate(63.623047 0)"/>
       <use xlink:href="#DejaVuSans-32" transform="translate(127.246094 0)"/>
       <use xlink:href="#DejaVuSans-34" transform="translate(190.869141 0)"/>
       <use xlink:href="#DejaVuSans-2d" transform="translate(254.492188 0)"/>
       <use xlink:href="#DejaVuSans-30" transform="translate(290.576172 0)"/>
       <use xlink:href="#DejaVuSans-31" transform="translate(354.199219 0)"/>
      </g>
     </g>
    </g>
    <g id="xtick_2">
     <g id="line2d_3">
      <path d="M 121.697811 354.958125 
L 121.697811 22.318125 
" clip-path="url(#p28b1fc354d)" style="fill: none; stroke: #b0b0b0; stroke-width: 0.8; stroke-linecap: square"/>
     </g>
     <g id="line2d_4">
      <g>
       <use xlink:href="#mca7e75ac45" x="121.697811" y="354.958125" style="stroke: #000000; stroke-width: 0.8"/>
      </g>
     </g>
     <g id="text_2">
      <!-- 2024-03 -->
      <g transform="translate(100.806405 369.556562) scale(0.1 -0.1)">
       <defs>
        <path id="DejaVuSans-33" d="M 2597 2516 
Q 3050 2419 3304 2112 
Q 3559 1806 3559 1356 
Q 3559 666 3084 287 
Q 2609 -91 1734 -91 
Q 1441 -91 1130 -33 
Q 819 25 488 141 
L 488 750 
Q 750 597 1062 519 
Q 1375 441 1716 441 
Q 2309 441 2620 675 
Q 2931 909 2931 1356 
Q 2931 1769 2642 2001 
Q 2353 2234 1838 2234 
L 1294 2234 
L 1294 2753 
L 1863 2753 
Q 2328 2753 2575 2939 
Q 2822 3125 2822 3475 
Q 2822 3834 2567 4026 
Q 2313 4219 1838 4219 
Q 1578 4219 1281 4162 
Q 984 4106 628 3988 
L 628 4550 
Q 988 4650 1302 4700 
Q 1616 4750 1894 4750 
Q 2613 4750 3031 4423 
Q 3450 4097 3450 3541 
Q 3450 3153 3228 2886 
Q 3006 2619 2597 2516 
z
" transform="scale(0.015625)"/>
       </defs>
       <use xlink:href="#DejaVuSans-32"/>
       <use xlink:href="#DejaVuSans-30" transform="translate(63.623047 0)"/>
       <use xlink:href="#DejaVuSans-32" transform="translate(127.246094 0)"/>
       <use xlink:href="#DejaVuSans-34" transform="translate(190.869141 0)"/>
       <use xlink:href="#DejaVuSans-2d" transform="translate(254.492188 0)"/>
       <use xlink:href="#DejaVuSans-30" transform="translate(290.576172 0)"/>
       <use xlink:href="#DejaVuSans-33" transform="translate(354.199219 0)"/>
      </g>
     </g>
    </g>
    <g id="xtick_3">
     <g id="line2d_5">
      <path d="M 185.896227 354.958125 
L 185.896227 22.318125 
" clip-path="url(#p28b1fc354d)" style="fill: none; stroke: #b0b0b0; stroke-width: 0.8; stroke-linecap: square"/>
     </g>
     <g id="line2d_6">
      <g>
       <use xlink:href="#mca7e75ac45" x="185.896227" y="354.958125" style="stroke: #000000; stroke-width: 0.8"/>
      </g>
     </g>
     <g id="text_3">
      <!-- 2024-05 -->
      <g transform="translate(165.00482 369.556562) scale(0.1 -0.1)">
       <defs>
        <path id="DejaVuSans-35" d="M 691 4666 
L 3169 4666 
L 3169 4134 
L 1269 4134 
L 1269 2991 
Q 1406 3038 1543 3061 
Q 1681 3084 1819 3084 
Q 2600 3084 3056 2656 
Q 3513 2228 3513 1497 
Q 3513 744 3044 326 
Q 2575 -91 1722 -91 
Q 1428 -91 1123 -41 
Q 819 9 494 109 
L 494 744 
Q 775 591 1075 516 
Q 1375 441 1709 441 
Q 2250 441 2565 725 
Q 2881 1009 2881 1497 
Q 2881 1984 2565 2268 
Q 2250 2553 1709 2553 
Q 1456 2553 1204 2497 
Q 953 2441 691 2322 
L 691 4666 
z
" transform="scale(0.015625)"/>
       </defs>
       <use xlink:href="#DejaVuSans-32"/>
       <use xlink:href="#DejaVuSans-30" transform="translate(63.623047 0)"/>
       <use xlink:href="#DejaVuSans-32" transform="translate(127.246094 0)"/>
       <use xlink:href="#DejaVuSans-34" transform="translate(190.869141 0)"/>
       <use xlink:href="#DejaVuSans-2d" transform="translate(254.492188 0)"/>
       <use xlink:href="#DejaVuSans-30" transform="translate(290.576172 0)"/>
       <use xlink:href="#DejaVuSans-35" transform="translate(354.199219 0)"/>
      </g>
     </g>
    </g>
    <g id="xtick_4">
     <g id="line2d_7">
      <path d="M 250.094642 354.958125 
L 250.094642 22.318125 
" clip-path="url(#p28b1fc354d)" style="fill: none; stroke: #b0b0b0; stroke-width: 0.8; stroke-linecap: square"/>
     </g>
     <g id="line2d_8">
      <g>
       <use xlink:href="#mca7e75ac45" x="250.094642" y="354.958125" style="stroke: #000000; stroke-width: 0.8"/>
      </g>
     </g>
     <g id="text_4">
      <!-- 2024-07 -->
      <g transform="translate(229.203236 369.556562) scale(0.1 -0.1)">
       <defs>
        <path id="DejaVuSans-37" d="M 525 4666 
L 3525 4666 
L 3525 4397 
L 1831 0 
L 1172 0 
L 2766 4134 
L 525 4134 
L 525 4666 
z
" transform="scale(0.015625)"/>
       </defs>
       <use xlink:href="#DejaVuSans-32"/>
       <use xlink:href="#DejaVuSans-30" transform="translate(63.623047 0)"/>
       <use xlink:href="#DejaVuSans-32" transform="translate(127.246094 0)"/>
       <use xlink:href="#DejaVuSans-34" transform="translate(190.869141 0)"/>
       <use xlink:href="#DejaVuSans-2d" transform="translate(254.492188 0)"/>
       <use xlink:href="#DejaVuSans-30" transform="translate(290.576172 0)"/>
       <use xlink:href="#DejaVuSans-37" transform="translate(354.199219 0)"/>
      </g>
     </g>
    </g>
    <g id="xtick_5">
     <g id="line2d_9">
      <path d="M 315.345491 354.958125 
L 315.345491 22.318125 
" clip-path="url(#p28b1fc354d)" style="fill: none; stroke: #b0b0b0; stroke-width: 0.8; stroke-linecap: square"/>
     </g>
     <g id="line2d_10">
      <g>
       <use xlink:href="#mca7e75ac45" x="315.345491" y="354.958125" style="stroke: #000000; stroke-width: 0.8"/>
      </g>
     </g>
     <g id="text_5">
      <!-- 2024-09 -->
      <g transform="translate(294.454085 369.556562) scale(0.1 -0.1)">
       <defs>
        <path id="DejaVuSans-39" d="M 703 97 
L 703 672 
Q 941 559 1184 500 
Q 1428 441 1663 441 
Q 2288 441 2617 861 
Q 2947 1281 2994 2138 
Q 2813 1869 2534 1725 
Q 2256 1581 1919 1581 
Q 1219 1581 811 2004 
Q 403 2428 403 3163 
Q 403 3881 828 4315 
Q 1253 4750 1959 4750 
Q 2769 4750 3195 4129 
Q 3622 3509 3622 2328 
Q 3622 1225 3098 567 
Q 2575 -91 1691 -91 
Q 1453 -91 1209 -44 
Q 966 3 703 97 
z
M 1959 2075 
Q 2384 2075 2632 2365 
Q 2881 2656 2881 3163 
Q 2881 3666 2632 3958 
Q 2384 4250 1959 4250 
Q 1534 4250 1286 3958 
Q 1038 3666 1038 3163 
Q 1038 2656 1286 2365 
Q 1534 2075 1959 2075 
z
" transform="scale(0.015625)"/>
       </defs>
       <use xlink:href="#DejaVuSans-32"/>
       <use xlink:href="#DejaVuSans-30" transform="translate(63.623047 0)"/>
       <use xlink:href="#DejaVuSans-32" transform="translate(127.246094 0)"/>
       <use xlink:href="#DejaVuSans-34" transform="translate(190.869141 0)"/>
       <use xlink:href="#DejaVuSans-2d" transform="translate(254.492188 0)"/>
       <use xlink:href="#DejaVuSans-30" transform="translate(290.576172 0)"/>
       <use xlink:href="#DejaVuSans-39" transform="translate(354.199219 0)"/>
      </g>
     </g>
    </g>
    <g id="xtick_6">
     <g id="line2d_11">
      <path d="M 379.543907 354.958125 
L 379.543907 22.318125 
" clip-path="url(#p28b1fc354d)" style="fill: none; stroke: #b0b0b0; stroke-width: 0.8; stroke-linecap: square"/>
     </g>
     <g id="line2d_12">
      <g>
       <use xlink:href="#mca7e75ac45" x="379.543907" y="354.958125" style="stroke: #000000; stroke-width: 0.8"/>
      </g>
     </g>
     <g id="text_6">
      <!-- 2024-11 -->
      <g transform="translate(358.652501 369.556562) scale(0.1 -0.1)">
       <use xlink:href="#DejaVuSans-32"/>
       <use xlink:href="#DejaVuSans-30" transform="translate(63.623047 0)"/>
       <use xlink:href="#DejaVuSans-32" transform="translate(127.246094 0)"/>
       <use xlink:href="#DejaVuSans-34" transform="translate(190.869141 0)"/>
       <use xlink:href="#DejaVuSans-2d" transform="translate(254.492188 0)"/>
       <use xlink:href="#DejaVuSans-31" transform="translate(290.576172 0)"/>
       <use xlink:href="#DejaVuSans-31" transform="translate(354.199219 0)"/>
      </g>
     </g>
    </g>
    <g id="xtick_7">
     <g id="line2d_13">
      <path d="M 443.742322 354.958125 
L 443.742322 22.318125 
" clip-path="url(#p28b1fc354d)" style="fill: none; stroke: #b0b0b0; stroke-width: 0.8; stroke-linecap: square"/>
     </g>
     <g id="line2d_14">
      <g>
       <use xlink:href="#mca7e75ac45" x="443.742322" y="354.958125" style="stroke: #000000; stroke-width: 0.8"/>
      </g>
     </g>
     <g id="text_7">
      <!-- 2025-01 -->
      <g transform="translate(422.850916 369.556562) scale(0.1 -0.1)">
       <use xlink:href="#DejaVuSans-32"/>
       <use xlink:href="#DejaVuSans-30" transform="translate(63.623047 0)"/>
       <use xlink:href="#DejaVuSans-32" transform="translate(127.246094 0)"/>
       <use xlink:href="#DejaVuSans-35" transform="translate(190.869141 0)"/>
       <use xlink:href="#DejaVuSans-2d" transform="translate(254.492188 0)"/>
       <use xlink:href="#DejaVuSans-30" transform="translate(290.576172 0)"/>
       <use xlink:href="#DejaVuSans-31" transform="translate(354.199219 0)"/>
      </g>
     </g>
    </g>
    <g id="xtick_8">
     <g id="line2d_15">
      <path d="M 505.835872 354.958125 
L 505.835872 22.318125 
" clip-path="url(#p28b1fc354d)" style="fill: none; stroke: #b0b0b0; stroke-width: 0.8; stroke-linecap: square"/>
     </g>
     <g id="line2d_16">
      <g>
       <use xlink:href="#mca7e75ac45" x="505.835872" y="354.958125" style="stroke: #000000; stroke-width: 0.8"/>
      </g>
     </g>
     <g id="text_8">
      <!-- 2025-03 -->
      <g transform="translate(484.944466 369.556562) scale(0.1 -0.1)">
       <use xlink:href="#DejaVuSans-32"/>
       <use xlink:href="#DejaVuSans-30" transform="translate(63.623047 0)"/>
       <use xlink:href="#DejaVuSans-32" transform="translate(127.246094 0)"/>
       <use xlink:href="#DejaVuSans-35" transform="translate(190.869141 0)"/>
       <use xlink:href="#DejaVuSans-2d" transform="translate(254.492188 0)"/>
       <use xlink:href="#DejaVuSans-30" transform="translate(290.576172 0)"/>
       <use xlink:href="#DejaVuSans-33" transform="translate(354.199219 0)"/>
      </g>
     </g>
    </g>
    <g id="xtick_9">
     <g id="line2d_17">
      <path d="M 570.034288 354.958125 
L 570.034288 22.318125 
" clip-path="url(#p28b1fc354d)" style="fill: none; stroke: #b0b0b0; stroke-width: 0.8; stroke-linecap: square"/>
     </g>
     <g id="line2d_18">
      <g>
       <use xlink:href="#mca7e75ac45" x="570.034288" y="354.958125" style="stroke: #000000; stroke-width: 0.8"/>
      </g>
     </g>
     <g id="text_9">
      <!-- 2025-05 -->
      <g transform="translate(549.142882 369.556562) scale(0.1 -0.1)">
       <use xlink:href="#DejaVuSans-32"/>
       <use xlink:href="#DejaVuSans-30" transform="translate(63.623047 0)"/>
       <use xlink:href="#DejaVuSans-32" transform="translate(127.246094 0)"/>
       <use xlink:href="#DejaVuSans-35" transform="translate(190.869141 0)"/>
       <use xlink:href="#DejaVuSans-2d" transform="translate(254.492188 0)"/>
       <use xlink:href="#DejaVuSans-30" transform="translate(290.576172 0)"/>
       <use xlink:href="#DejaVuSans-35" transform="translate(354.199219 0)"/>
      </g>
     </g>
    </g>
    <g id="text_10">
     <!-- Time Step -->
     <g transform="translate(288.032813 383.234687) scale(0.1 -0.1)">
      <defs>
       <path id="DejaVuSans-54" d="M -19 4666 
L 3928 4666 
L 3928 4134 
L 2272 4134 
L 2272 0 
L 1638 0 
L 1638 4134 
L -19 4134 
L -19 4666 
z
" transform="scale(0.015625)"/>
       <path id="DejaVuSans-69" d="M 603 3500 
L 1178 3500 
L 1178 0 
L 603 0 
L 603 3500 
z
M 603 4863 
L 1178 4863 
L 1178 4134 
L 603 4134 
L 603 4863 
z
" transform="scale(0.015625)"/>
       <path id="DejaVuSans-6d" d="M 3328 2828 
Q 3544 3216 3844 3400 
Q 4144 3584 4550 3584 
Q 5097 3584 5394 3201 
Q 5691 2819 5691 2113 
L 5691 0 
L 5113 0 
L 5113 2094 
Q 5113 2597 4934 2840 
Q 4756 3084 4391 3084 
Q 3944 3084 3684 2787 
Q 3425 2491 3425 1978 
L 3425 0 
L 2847 0 
L 2847 2094 
Q 2847 2600 2669 2842 
Q 2491 3084 2119 3084 
Q 1678 3084 1418 2786 
Q 1159 2488 1159 1978 
L 1159 0 
L 581 0 
L 581 3500 
L 1159 3500 
L 1159 2956 
Q 1356 3278 1631 3431 
Q 1906 3584 2284 3584 
Q 2666 3584 2933 3390 
Q 3200 3197 3328 2828 
z
" transform="scale(0.015625)"/>
       <path id="DejaVuSans-65" d="M 3597 1894 
L 3597 1613 
L 953 1613 
Q 991 1019 1311 708 
Q 1631 397 2203 397 
Q 2534 397 2845 478 
Q 3156 559 3463 722 
L 3463 178 
Q 3153 47 2828 -22 
Q 2503 -91 2169 -91 
Q 1331 -91 842 396 
Q 353 884 353 1716 
Q 353 2575 817 3079 
Q 1281 3584 2069 3584 
Q 2775 3584 3186 3129 
Q 3597 2675 3597 1894 
z
M 3022 2063 
Q 3016 2534 2758 2815 
Q 2500 3097 2075 3097 
Q 1594 3097 1305 2825 
Q 1016 2553 972 2059 
L 3022 2063 
z
" transform="scale(0.015625)"/>
       <path id="DejaVuSans-20" transform="scale(0.015625)"/>
       <path id="DejaVuSans-53" d="M 3425 4513 
L 3425 3897 
Q 3066 4069 2747 4153 
Q 2428 4238 2131 4238 
Q 1616 4238 1336 4038 
Q 1056 3838 1056 3469 
Q 1056 3159 1242 3001 
Q 1428 2844 1947 2747 
L 2328 2669 
Q 3034 2534 3370 2195 
Q 3706 1856 3706 1288 
Q 3706 609 3251 259 
Q 2797 -91 1919 -91 
Q 1588 -91 1214 -16 
Q 841 59 441 206 
L 441 856 
Q 825 641 1194 531 
Q 1563 422 1919 422 
Q 2459 422 2753 634 
Q 3047 847 3047 1241 
Q 3047 1584 2836 1778 
Q 2625 1972 2144 2069 
L 1759 2144 
Q 1053 2284 737 2584 
Q 422 2884 422 3419 
Q 422 4038 858 4394 
Q 1294 4750 2059 4750 
Q 2388 4750 2728 4690 
Q 3069 4631 3425 4513 
z
" transform="scale(0.015625)"/>
       <path id="DejaVuSans-74" d="M 1172 4494 
L 1172 3500 
L 2356 3500 
L 2356 3053 
L 1172 3053 
L 1172 1153 
Q 1172 725 1289 603 
Q 1406 481 1766 481 
L 2356 481 
L 2356 0 
L 1766 0 
Q 1100 0 847 248 
Q 594 497 594 1153 
L 594 3053 
L 172 3053 
L 172 3500 
L 594 3500 
L 594 4494 
L 1172 4494 
z
" transform="scale(0.015625)"/>
       <path id="DejaVuSans-70" d="M 1159 525 
L 1159 -1331 
L 581 -1331 
L 581 3500 
L 1159 3500 
L 1159 2969 
Q 1341 3281 1617 3432 
Q 1894 3584 2278 3584 
Q 2916 3584 3314 3078 
Q 3713 2572 3713 1747 
Q 3713 922 3314 415 
Q 2916 -91 2278 -91 
Q 1894 -91 1617 61 
Q 1341 213 1159 525 
z
M 3116 1747 
Q 3116 2381 2855 2742 
Q 2594 3103 2138 3103 
Q 1681 3103 1420 2742 
Q 1159 2381 1159 1747 
Q 1159 1113 1420 752 
Q 1681 391 2138 391 
Q 2594 391 2855 752 
Q 3116 1113 3116 1747 
z
" transform="scale(0.015625)"/>
      </defs>
      <use xlink:href="#DejaVuSans-54"/>
      <use xlink:href="#DejaVuSans-69" transform="translate(57.958984 0)"/>
      <use xlink:href="#DejaVuSans-6d" transform="translate(85.742188 0)"/>
      <use xlink:href="#DejaVuSans-65" transform="translate(183.154297 0)"/>
      <use xlink:href="#DejaVuSans-20" transform="translate(244.677734 0)"/>
      <use xlink:href="#DejaVuSans-53" transform="translate(276.464844 0)"/>
      <use xlink:href="#DejaVuSans-74" transform="translate(339.941406 0)"/>
      <use xlink:href="#DejaVuSans-65" transform="translate(379.150391 0)"/>
      <use xlink:href="#DejaVuSans-70" transform="translate(440.673828 0)"/>
     </g>
    </g>
   </g>
   <g id="matplotlib.axis_2">
    <g id="ytick_1">
     <g id="line2d_19">
      <path d="M 34.240625 343.348402 
L 592.240625 343.348402 
" clip-path="url(#p28b1fc354d)" style="fill: none; stroke: #b0b0b0; stroke-width: 0.8; stroke-linecap: square"/>
     </g>
     <g id="line2d_20">
      <defs>
       <path id="mc88e426333" d="M 0 0 
L -3.5 0 
" style="stroke: #000000; stroke-width: 0.8"/>
      </defs>
      <g>
       <use xlink:href="#mc88e426333" x="34.240625" y="343.348402" style="stroke: #000000; stroke-width: 0.8"/>
      </g>
     </g>
     <g id="text_11">
      <!-- 0 -->
      <g transform="translate(20.878125 347.14762) scale(0.1 -0.1)">
       <use xlink:href="#DejaVuSans-30"/>
      </g>
     </g>
    </g>
    <g id="ytick_2">
     <g id="line2d_21">
      <path d="M 34.240625 291.726688 
L 592.240625 291.726688 
" clip-path="url(#p28b1fc354d)" style="fill: none; stroke: #b0b0b0; stroke-width: 0.8; stroke-linecap: square"/>
     </g>
     <g id="line2d_22">
      <g>
       <use xlink:href="#mc88e426333" x="34.240625" y="291.726688" style="stroke: #000000; stroke-width: 0.8"/>
      </g>
     </g>
     <g id="text_12">
      <!-- 1 -->
      <g transform="translate(20.878125 295.525906) scale(0.1 -0.1)">
       <use xlink:href="#DejaVuSans-31"/>
      </g>
     </g>
    </g>
    <g id="ytick_3">
     <g id="line2d_23">
      <path d="M 34.240625 240.104974 
L 592.240625 240.104974 
" clip-path="url(#p28b1fc354d)" style="fill: none; stroke: #b0b0b0; stroke-width: 0.8; stroke-linecap: square"/>
     </g>
     <g id="line2d_24">
      <g>
       <use xlink:href="#mc88e426333" x="34.240625" y="240.104974" style="stroke: #000000; stroke-width: 0.8"/>
      </g>
     </g>
     <g id="text_13">
      <!-- 2 -->
      <g transform="translate(20.878125 243.904193) scale(0.1 -0.1)">
       <use xlink:href="#DejaVuSans-32"/>
      </g>
     </g>
    </g>
    <g id="ytick_4">
     <g id="line2d_25">
      <path d="M 34.240625 188.48326 
L 592.240625 188.48326 
" clip-path="url(#p28b1fc354d)" style="fill: none; stroke: #b0b0b0; stroke-width: 0.8; stroke-linecap: square"/>
     </g>
     <g id="line2d_26">
      <g>
       <use xlink:href="#mc88e426333" x="34.240625" y="188.48326" style="stroke: #000000; stroke-width: 0.8"/>
      </g>
     </g>
     <g id="text_14">
      <!-- 3 -->
      <g transform="translate(20.878125 192.282479) scale(0.1 -0.1)">
       <use xlink:href="#DejaVuSans-33"/>
      </g>
     </g>
    </g>
    <g id="ytick_5">
     <g id="line2d_27">
      <path d="M 34.240625 136.861546 
L 592.240625 136.861546 
" clip-path="url(#p28b1fc354d)" style="fill: none; stroke: #b0b0b0; stroke-width: 0.8; stroke-linecap: square"/>
     </g>
     <g id="line2d_28">
      <g>
       <use xlink:href="#mc88e426333" x="34.240625" y="136.861546" style="stroke: #000000; stroke-width: 0.8"/>
      </g>
     </g>
     <g id="text_15">
      <!-- 4 -->
      <g transform="translate(20.878125 140.660765) scale(0.1 -0.1)">
       <use xlink:href="#DejaVuSans-34"/>
      </g>
     </g>
    </g>
    <g id="ytick_6">
     <g id="line2d_29">
      <path d="M 34.240625 85.239832 
L 592.240625 85.239832 
" clip-path="url(#p28b1fc354d)" style="fill: none; stroke: #b0b0b0; stroke-width: 0.8; stroke-linecap: square"/>
     </g>
     <g id="line2d_30">
      <g>
       <use xlink:href="#mc88e426333" x="34.240625" y="85.239832" style="stroke: #000000; stroke-width: 0.8"/>
      </g>
     </g>
     <g id="text_16">
      <!-- 5 -->
      <g transform="translate(20.878125 89.039051) scale(0.1 -0.1)">
       <use xlink:href="#DejaVuSans-35"/>
      </g>
     </g>
    </g>
    <g id="ytick_7">
     <g id="line2d_31">
      <path d="M 34.240625 33.618118 
L 592.240625 33.618118 
" clip-path="url(#p28b1fc354d)" style="fill: none; stroke: #b0b0b0; stroke-width: 0.8; stroke-linecap: square"/>
     </g>
     <g id="line2d_32">
      <g>
       <use xlink:href="#mc88e426333" x="34.240625" y="33.618118" style="stroke: #000000; stroke-width: 0.8"/>
      </g>
     </g>
     <g id="text_17">
      <!-- 6 -->
      <g transform="translate(20.878125 37.417337) scale(0.1 -0.1)">
       <defs>
        <path id="DejaVuSans-36" d="M 2113 2584 
Q 1688 2584 1439 2293 
Q 1191 2003 1191 1497 
Q 1191 994 1439 701 
Q 1688 409 2113 409 
Q 2538 409 2786 701 
Q 3034 994 3034 1497 
Q 3034 2003 2786 2293 
Q 2538 2584 2113 2584 
z
M 3366 4563 
L 3366 3988 
Q 3128 4100 2886 4159 
Q 2644 4219 2406 4219 
Q 1781 4219 1451 3797 
Q 1122 3375 1075 2522 
Q 1259 2794 1537 2939 
Q 1816 3084 2150 3084 
Q 2853 3084 3261 2657 
Q 3669 2231 3669 1497 
Q 3669 778 3244 343 
Q 2819 -91 2113 -91 
Q 1303 -91 875 529 
Q 447 1150 447 2328 
Q 447 3434 972 4092 
Q 1497 4750 2381 4750 
Q 2619 4750 2861 4703 
Q 3103 4656 3366 4563 
z
" transform="scale(0.015625)"/>
       </defs>
       <use xlink:href="#DejaVuSans-36"/>
      </g>
     </g>
    </g>
    <g id="text_18">
     <!-- Holding Period Return (%) -->
     <g transform="translate(14.798438 253.352187) rotate(-90) scale(0.1 -0.1)">
      <defs>
       <path id="DejaVuSans-48" d="M 628 4666 
L 1259 4666 
L 1259 2753 
L 3553 2753 
L 3553 4666 
L 4184 4666 
L 4184 0 
L 3553 0 
L 3553 2222 
L 1259 2222 
L 1259 0 
L 628 0 
L 628 4666 
z
" transform="scale(0.015625)"/>
       <path id="DejaVuSans-6f" d="M 1959 3097 
Q 1497 3097 1228 2736 
Q 959 2375 959 1747 
Q 959 1119 1226 758 
Q 1494 397 1959 397 
Q 2419 397 2687 759 
Q 2956 1122 2956 1747 
Q 2956 2369 2687 2733 
Q 2419 3097 1959 3097 
z
M 1959 3584 
Q 2709 3584 3137 3096 
Q 3566 2609 3566 1747 
Q 3566 888 3137 398 
Q 2709 -91 1959 -91 
Q 1206 -91 779 398 
Q 353 888 353 1747 
Q 353 2609 779 3096 
Q 1206 3584 1959 3584 
z
" transform="scale(0.015625)"/>
       <path id="DejaVuSans-6c" d="M 603 4863 
L 1178 4863 
L 1178 0 
L 603 0 
L 603 4863 
z
" transform="scale(0.015625)"/>
       <path id="DejaVuSans-64" d="M 2906 2969 
L 2906 4863 
L 3481 4863 
L 3481 0 
L 2906 0 
L 2906 525 
Q 2725 213 2448 61 
Q 2172 -91 1784 -91 
Q 1150 -91 751 415 
Q 353 922 353 1747 
Q 353 2572 751 3078 
Q 1150 3584 1784 3584 
Q 2172 3584 2448 3432 
Q 2725 3281 2906 2969 
z
M 947 1747 
Q 947 1113 1208 752 
Q 1469 391 1925 391 
Q 2381 391 2643 752 
Q 2906 1113 2906 1747 
Q 2906 2381 2643 2742 
Q 2381 3103 1925 3103 
Q 1469 3103 1208 2742 
Q 947 2381 947 1747 
z
" transform="scale(0.015625)"/>
       <path id="DejaVuSans-6e" d="M 3513 2113 
L 3513 0 
L 2938 0 
L 2938 2094 
Q 2938 2591 2744 2837 
Q 2550 3084 2163 3084 
Q 1697 3084 1428 2787 
Q 1159 2491 1159 1978 
L 1159 0 
L 581 0 
L 581 3500 
L 1159 3500 
L 1159 2956 
Q 1366 3272 1645 3428 
Q 1925 3584 2291 3584 
Q 2894 3584 3203 3211 
Q 3513 2838 3513 2113 
z
" transform="scale(0.015625)"/>
       <path id="DejaVuSans-67" d="M 2906 1791 
Q 2906 2416 2648 2759 
Q 2391 3103 1925 3103 
Q 1463 3103 1205 2759 
Q 947 2416 947 1791 
Q 947 1169 1205 825 
Q 1463 481 1925 481 
Q 2391 481 2648 825 
Q 2906 1169 2906 1791 
z
M 3481 434 
Q 3481 -459 3084 -895 
Q 2688 -1331 1869 -1331 
Q 1566 -1331 1297 -1286 
Q 1028 -1241 775 -1147 
L 775 -588 
Q 1028 -725 1275 -790 
Q 1522 -856 1778 -856 
Q 2344 -856 2625 -561 
Q 2906 -266 2906 331 
L 2906 616 
Q 2728 306 2450 153 
Q 2172 0 1784 0 
Q 1141 0 747 490 
Q 353 981 353 1791 
Q 353 2603 747 3093 
Q 1141 3584 1784 3584 
Q 2172 3584 2450 3431 
Q 2728 3278 2906 2969 
L 2906 3500 
L 3481 3500 
L 3481 434 
z
" transform="scale(0.015625)"/>
       <path id="DejaVuSans-50" d="M 1259 4147 
L 1259 2394 
L 2053 2394 
Q 2494 2394 2734 2622 
Q 2975 2850 2975 3272 
Q 2975 3691 2734 3919 
Q 2494 4147 2053 4147 
L 1259 4147 
z
M 628 4666 
L 2053 4666 
Q 2838 4666 3239 4311 
Q 3641 3956 3641 3272 
Q 3641 2581 3239 2228 
Q 2838 1875 2053 1875 
L 1259 1875 
L 1259 0 
L 628 0 
L 628 4666 
z
" transform="scale(0.015625)"/>
       <path id="DejaVuSans-72" d="M 2631 2963 
Q 2534 3019 2420 3045 
Q 2306 3072 2169 3072 
Q 1681 3072 1420 2755 
Q 1159 2438 1159 1844 
L 1159 0 
L 581 0 
L 581 3500 
L 1159 3500 
L 1159 2956 
Q 1341 3275 1631 3429 
Q 1922 3584 2338 3584 
Q 2397 3584 2469 3576 
Q 2541 3569 2628 3553 
L 2631 2963 
z
" transform="scale(0.015625)"/>
       <path id="DejaVuSans-52" d="M 2841 2188 
Q 3044 2119 3236 1894 
Q 3428 1669 3622 1275 
L 4263 0 
L 3584 0 
L 2988 1197 
Q 2756 1666 2539 1819 
Q 2322 1972 1947 1972 
L 1259 1972 
L 1259 0 
L 628 0 
L 628 4666 
L 2053 4666 
Q 2853 4666 3247 4331 
Q 3641 3997 3641 3322 
Q 3641 2881 3436 2590 
Q 3231 2300 2841 2188 
z
M 1259 4147 
L 1259 2491 
L 2053 2491 
Q 2509 2491 2742 2702 
Q 2975 2913 2975 3322 
Q 2975 3731 2742 3939 
Q 2509 4147 2053 4147 
L 1259 4147 
z
" transform="scale(0.015625)"/>
       <path id="DejaVuSans-75" d="M 544 1381 
L 544 3500 
L 1119 3500 
L 1119 1403 
Q 1119 906 1312 657 
Q 1506 409 1894 409 
Q 2359 409 2629 706 
Q 2900 1003 2900 1516 
L 2900 3500 
L 3475 3500 
L 3475 0 
L 2900 0 
L 2900 538 
Q 2691 219 2414 64 
Q 2138 -91 1772 -91 
Q 1169 -91 856 284 
Q 544 659 544 1381 
z
M 1991 3584 
L 1991 3584 
z
" transform="scale(0.015625)"/>
       <path id="DejaVuSans-28" d="M 1984 4856 
Q 1566 4138 1362 3434 
Q 1159 2731 1159 2009 
Q 1159 1288 1364 580 
Q 1569 -128 1984 -844 
L 1484 -844 
Q 1016 -109 783 600 
Q 550 1309 550 2009 
Q 550 2706 781 3412 
Q 1013 4119 1484 4856 
L 1984 4856 
z
" transform="scale(0.015625)"/>
       <path id="DejaVuSans-25" d="M 4653 2053 
Q 4381 2053 4226 1822 
Q 4072 1591 4072 1178 
Q 4072 772 4226 539 
Q 4381 306 4653 306 
Q 4919 306 5073 539 
Q 5228 772 5228 1178 
Q 5228 1588 5073 1820 
Q 4919 2053 4653 2053 
z
M 4653 2450 
Q 5147 2450 5437 2106 
Q 5728 1763 5728 1178 
Q 5728 594 5436 251 
Q 5144 -91 4653 -91 
Q 4153 -91 3862 251 
Q 3572 594 3572 1178 
Q 3572 1766 3864 2108 
Q 4156 2450 4653 2450 
z
M 1428 4353 
Q 1159 4353 1004 4120 
Q 850 3888 850 3481 
Q 850 3069 1003 2837 
Q 1156 2606 1428 2606 
Q 1700 2606 1854 2837 
Q 2009 3069 2009 3481 
Q 2009 3884 1853 4118 
Q 1697 4353 1428 4353 
z
M 4250 4750 
L 4750 4750 
L 1831 -91 
L 1331 -91 
L 4250 4750 
z
M 1428 4750 
Q 1922 4750 2215 4408 
Q 2509 4066 2509 3481 
Q 2509 2891 2217 2550 
Q 1925 2209 1428 2209 
Q 931 2209 642 2551 
Q 353 2894 353 3481 
Q 353 4063 643 4406 
Q 934 4750 1428 4750 
z
" transform="scale(0.015625)"/>
       <path id="DejaVuSans-29" d="M 513 4856 
L 1013 4856 
Q 1481 4119 1714 3412 
Q 1947 2706 1947 2009 
Q 1947 1309 1714 600 
Q 1481 -109 1013 -844 
L 513 -844 
Q 928 -128 1133 580 
Q 1338 1288 1338 2009 
Q 1338 2731 1133 3434 
Q 928 4138 513 4856 
z
" transform="scale(0.015625)"/>
      </defs>
      <use xlink:href="#DejaVuSans-48"/>
      <use xlink:href="#DejaVuSans-6f" transform="translate(75.195312 0)"/>
      <use xlink:href="#DejaVuSans-6c" transform="translate(136.376953 0)"/>
      <use xlink:href="#DejaVuSans-64" transform="translate(164.160156 0)"/>
      <use xlink:href="#DejaVuSans-69" transform="translate(227.636719 0)"/>
      <use xlink:href="#DejaVuSans-6e" transform="translate(255.419922 0)"/>
      <use xlink:href="#DejaVuSans-67" transform="translate(318.798828 0)"/>
      <use xlink:href="#DejaVuSans-20" transform="translate(382.275391 0)"/>
      <use xlink:href="#DejaVuSans-50" transform="translate(414.0625 0)"/>
      <use xlink:href="#DejaVuSans-65" transform="translate(470.740234 0)"/>
      <use xlink:href="#DejaVuSans-72" transform="translate(532.263672 0)"/>
      <use xlink:href="#DejaVuSans-69" transform="translate(573.376953 0)"/>
      <use xlink:href="#DejaVuSans-6f" transform="translate(601.160156 0)"/>
      <use xlink:href="#DejaVuSans-64" transform="translate(662.341797 0)"/>
      <use xlink:href="#DejaVuSans-20" transform="translate(725.818359 0)"/>
      <use xlink:href="#DejaVuSans-52" transform="translate(757.605469 0)"/>
      <use xlink:href="#DejaVuSans-65" transform="translate(822.587891 0)"/>
      <use xlink:href="#DejaVuSans-74" transform="translate(884.111328 0)"/>
      <use xlink:href="#DejaVuSans-75" transform="translate(923.320312 0)"/>
      <use xlink:href="#DejaVuSans-72" transform="translate(986.699219 0)"/>
      <use xlink:href="#DejaVuSans-6e" transform="translate(1026.0625 0)"/>
      <use xlink:href="#DejaVuSans-20" transform="translate(1089.441406 0)"/>
      <use xlink:href="#DejaVuSans-28" transform="translate(1121.228516 0)"/>
      <use xlink:href="#DejaVuSans-25" transform="translate(1160.242188 0)"/>
      <use xlink:href="#DejaVuSans-29" transform="translate(1255.261719 0)"/>
     </g>
    </g>
   </g>
   <g id="line2d_33">
    <path d="M 59.604261 327.552157 
L 60.656694 327.552157 
L 61.709127 338.49596 
L 62.76156 338.49596 
L 66.971293 337.8765 
L 68.023726 335.501901 
L 69.076159 335.088927 
L 70.128592 334.985684 
L 74.338324 334.985684 
L 75.390757 330.236486 
L 76.44319 330.236486 
L 77.495623 339.838125 
L 80.652922 339.115421 
L 81.705355 339.012178 
L 82.757788 336.740822 
L 83.810221 333.230546 
L 84.862654 332.301355 
L 89.072387 330.029999 
L 90.12482 326.622966 
L 91.177253 326.209993 
L 92.229686 326.003506 
L 95.386985 317.227814 
L 96.439418 317.021327 
L 97.491851 318.363492 
L 105.911315 311.446182 
L 110.121047 311.446182 
L 111.173481 310.723478 
L 112.225914 307.832662 
L 113.278347 307.316445 
L 114.33078 307.316445 
L 117.488079 306.490498 
L 118.540512 304.322386 
L 119.592945 304.322386 
L 120.645378 302.154274 
L 121.697811 300.915353 
L 125.907543 300.915353 
L 126.959976 323.42242 
L 128.012409 321.357551 
L 129.064842 316.918084 
L 132.222141 310.310505 
L 133.274574 306.284011 
L 134.327007 304.73536 
L 135.379441 303.393195 
L 136.431874 297.301833 
L 139.589173 292.346148 
L 140.641606 284.396404 
L 141.694039 283.776944 
L 142.746472 283.776944 
L 143.798905 270.665028 
L 146.956204 291.623444 
L 148.008637 286.048299 
L 149.06107 285.738569 
L 150.113503 285.738569 
L 151.165936 281.815319 
L 154.323235 277.479095 
L 155.375668 277.479095 
L 156.428101 288.422898 
L 158.532968 288.422898 
L 161.690267 285.222352 
L 165.899999 285.222352 
L 169.057298 282.641266 
L 171.162164 274.691522 
L 173.26703 274.691522 
L 176.424329 272.729897 
L 177.476762 270.768272 
L 178.529195 266.328804 
L 179.581628 259.721225 
L 180.634061 255.385001 
L 186.94866 242.99579 
L 188.001093 239.38227 
L 191.158392 247.951474 
L 193.263258 247.951474 
L 194.315691 246.91904 
L 198.525423 246.91904 
L 199.577856 246.712553 
L 200.630289 245.060658 
L 201.682722 244.854171 
L 202.735155 244.854171 
L 205.892454 240.311461 
L 206.944888 240.311461 
L 207.997321 235.562263 
L 210.102187 235.562263 
L 213.259486 234.633072 
L 214.311919 234.633072 
L 215.364352 233.600638 
L 216.416785 244.441198 
L 217.469218 242.892546 
L 220.626517 242.066599 
L 221.67895 238.659566 
L 223.783816 238.659566 
L 224.836249 240.414704 
L 227.993548 239.175783 
L 229.045981 237.833618 
L 230.098415 237.833618 
L 231.150848 233.497394 
L 232.203281 233.497394 
L 235.36058 229.057927 
L 236.413013 229.057927 
L 237.465446 239.898487 
L 238.517879 237.833618 
L 239.570312 233.497394 
L 242.727611 229.883874 
L 243.780044 223.173052 
L 244.832477 222.760078 
L 245.88491 221.417913 
L 246.937343 221.417913 
L 250.094642 219.869262 
L 251.147075 214.707091 
L 252.199508 212.642222 
L 253.251941 210.887084 
L 257.461674 210.887084 
L 258.514107 209.957893 
L 259.56654 208.512485 
L 260.618973 198.394629 
L 261.671406 196.123274 
L 264.828705 193.851918 
L 265.881138 191.374076 
L 266.933571 190.135155 
L 267.986004 190.135155 
L 269.038437 188.070286 
L 272.195736 186.934608 
L 273.248169 186.934608 
L 274.300602 180.017299 
L 275.353035 174.855127 
L 281.667634 174.855127 
L 282.720067 172.583772 
L 283.7725 171.035121 
L 286.929799 181.462707 
L 287.982232 178.262161 
L 289.034665 174.648641 
L 290.087098 171.964311 
L 291.139531 171.035121 
L 294.29683 170.002686 
L 295.349263 167.628087 
L 296.401696 167.628087 
L 297.454129 166.389166 
L 298.506562 164.943758 
L 301.663862 161.846455 
L 302.716295 161.330238 
L 303.768728 161.639969 
L 304.821161 160.504291 
L 305.873594 160.194561 
L 309.030893 158.749153 
L 310.083326 158.749153 
L 311.135759 156.374554 
L 312.188192 156.374554 
L 313.240625 156.064824 
L 318.50279 156.064824 
L 319.555223 155.548606 
L 320.607656 154.309685 
L 323.764955 144.914533 
L 324.817388 125.195039 
L 325.869822 124.265848 
L 326.922255 121.788006 
L 327.974688 117.555025 
L 332.18442 117.555025 
L 333.236853 118.793946 
L 334.289286 117.658268 
L 335.341719 116.729078 
L 339.551451 116.729078 
L 340.603884 114.044748 
L 341.656317 113.425288 
L 342.70875 112.28961 
L 346.918482 112.28961 
L 347.970915 110.534472 
L 350.075782 110.534472 
L 353.233081 109.192307 
L 354.285514 107.333926 
L 355.337947 118.174486 
L 356.39038 112.909071 
L 357.442813 110.947446 
L 360.600112 94.22201 
L 361.652545 91.950655 
L 362.704978 86.68524 
L 363.757411 85.652806 
L 364.809844 75.018733 
L 367.967143 73.883055 
L 370.072009 69.959805 
L 375.334175 69.959805 
L 376.386608 74.502516 
L 377.439041 74.502516 
L 378.491474 72.747377 
L 379.543907 83.691181 
L 382.701206 83.691181 
L 383.753639 83.38145 
L 384.806072 83.38145 
L 385.858505 82.555503 
L 386.910938 82.555503 
L 390.068237 104.44311 
L 391.12067 102.171754 
L 392.173103 99.177695 
L 394.277969 99.177695 
L 397.435269 94.22201 
L 398.487702 94.22201 
L 399.540135 87.511187 
L 400.592568 86.581997 
L 401.645001 87.304701 
L 404.8023 84.000911 
L 405.854733 82.555503 
L 406.907166 82.349016 
L 409.012032 82.349016 
L 412.169331 80.903608 
L 413.221764 78.012792 
L 415.32663 78.012792 
L 416.379063 76.877114 
L 419.536362 76.257654 
L 420.588796 73.573325 
L 421.641229 72.334404 
L 422.693662 70.785752 
L 423.746095 68.204666 
L 426.903394 67.791693 
L 427.955827 66.449528 
L 429.00826 66.449528 
L 430.060693 65.830068 
L 449.004488 65.830068 
L 450.056921 63.042495 
L 451.109354 63.042495 
L 452.161787 61.08087 
L 457.423952 61.08087 
L 458.476385 66.139798 
L 459.528818 57.46735 
L 460.581251 68.204666 
L 463.73855 67.378719 
L 466.895849 62.629521 
L 467.948282 62.629521 
L 478.472613 71.508456 
L 479.525046 73.573325 
L 480.577479 73.057108 
L 481.629912 71.301969 
L 482.682345 70.682509 
L 485.839644 70.888996 
L 486.892077 70.372778 
L 488.996943 70.372778 
L 490.049376 70.166292 
L 493.206676 70.166292 
L 494.259109 69.753318 
L 495.311542 69.650074 
L 496.363975 68.101423 
L 500.573707 68.101423 
L 501.62614 67.275476 
L 502.678573 66.656015 
L 503.731006 66.656015 
L 504.783439 65.107364 
L 507.940738 60.874383 
L 508.993171 58.603028 
L 510.045604 57.46735 
L 511.098037 56.951133 
L 512.15047 52.201935 
L 515.307769 50.963014 
L 516.360203 50.963014 
L 517.412636 50.446797 
L 518.465069 48.588415 
L 519.517502 47.349494 
L 522.674801 48.691659 
L 523.727234 42.084079 
L 524.779667 41.258132 
L 525.8321 37.438125 
L 526.884533 37.954342 
L 530.041832 49.517606 
L 531.094265 48.588415 
L 532.146698 48.588415 
L 533.199131 48.175441 
L 538.461296 48.175441 
L 539.513729 46.833277 
L 545.828328 46.833277 
L 546.880761 127.05342 
L 547.933194 129.840993 
L 548.985627 140.88804 
L 552.142926 137.687493 
L 553.195359 127.672881 
L 554.247792 107.953386 
L 556.352658 107.953386 
L 559.509957 103.410675 
L 560.56239 99.797155 
L 561.614823 77.806305 
L 562.667256 77.393332 
L 563.71969 74.192785 
L 566.876989 70.166292 
L 566.876989 70.166292 
" clip-path="url(#p28b1fc354d)" style="fill: none; stroke: #000000; stroke-width: 1.5; stroke-linecap: square"/>
   </g>
   <g id="patch_3">
    <path d="M 34.240625 354.958125 
L 34.240625 22.318125 
" style="fill: none; stroke: #000000; stroke-width: 0.8; stroke-linejoin: miter; stroke-linecap: square"/>
   </g>
   <g id="patch_4">
    <path d="M 592.240625 354.958125 
L 592.240625 22.318125 
" style="fill: none; stroke: #000000; stroke-width: 0.8; stroke-linejoin: miter; stroke-linecap: square"/>
   </g>
   <g id="patch_5">
    <path d="M 34.240625 354.958125 
L 592.240625 354.958125 
" style="fill: none; stroke: #000000; stroke-width: 0.8; stroke-linejoin: miter; stroke-linecap: square"/>
   </g>
   <g id="patch_6">
    <path d="M 34.240625 22.318125 
L 592.240625 22.318125 
" style="fill: none; stroke: #000000; stroke-width: 0.8; stroke-linejoin: miter; stroke-linecap: square"/>
   </g>
   <g id="text_19">
    <!-- Holding Period Return Over Time -->
    <g transform="translate(214.946563 16.318125) scale(0.12 -0.12)">
     <defs>
      <path id="DejaVuSans-4f" d="M 2522 4238 
Q 1834 4238 1429 3725 
Q 1025 3213 1025 2328 
Q 1025 1447 1429 934 
Q 1834 422 2522 422 
Q 3209 422 3611 934 
Q 4013 1447 4013 2328 
Q 4013 3213 3611 3725 
Q 3209 4238 2522 4238 
z
M 2522 4750 
Q 3503 4750 4090 4092 
Q 4678 3434 4678 2328 
Q 4678 1225 4090 567 
Q 3503 -91 2522 -91 
Q 1538 -91 948 565 
Q 359 1222 359 2328 
Q 359 3434 948 4092 
Q 1538 4750 2522 4750 
z
" transform="scale(0.015625)"/>
      <path id="DejaVuSans-76" d="M 191 3500 
L 800 3500 
L 1894 563 
L 2988 3500 
L 3597 3500 
L 2284 0 
L 1503 0 
L 191 3500 
z
" transform="scale(0.015625)"/>
     </defs>
     <use xlink:href="#DejaVuSans-48"/>
     <use xlink:href="#DejaVuSans-6f" transform="translate(75.195312 0)"/>
     <use xlink:href="#DejaVuSans-6c" transform="translate(136.376953 0)"/>
     <use xlink:href="#DejaVuSans-64" transform="translate(164.160156 0)"/>
     <use xlink:href="#DejaVuSans-69" transform="translate(227.636719 0)"/>
     <use xlink:href="#DejaVuSans-6e" transform="translate(255.419922 0)"/>
     <use xlink:href="#DejaVuSans-67" transform="translate(318.798828 0)"/>
     <use xlink:href="#DejaVuSans-20" transform="translate(382.275391 0)"/>
     <use xlink:href="#DejaVuSans-50" transform="translate(414.0625 0)"/>
     <use xlink:href="#DejaVuSans-65" transform="translate(470.740234 0)"/>
     <use xlink:href="#DejaVuSans-72" transform="translate(532.263672 0)"/>
     <use xlink:href="#DejaVuSans-69" transform="translate(573.376953 0)"/>
     <use xlink:href="#DejaVuSans-6f" transform="translate(601.160156 0)"/>
     <use xlink:href="#DejaVuSans-64" transform="translate(662.341797 0)"/>
     <use xlink:href="#DejaVuSans-20" transform="translate(725.818359 0)"/>
     <use xlink:href="#DejaVuSans-52" transform="translate(757.605469 0)"/>
     <use xlink:href="#DejaVuSans-65" transform="translate(822.587891 0)"/>
     <use xlink:href="#DejaVuSans-74" transform="translate(884.111328 0)"/>
     <use xlink:href="#DejaVuSans-75" transform="translate(923.320312 0)"/>
     <use xlink:href="#DejaVuSans-72" transform="translate(986.699219 0)"/>
     <use xlink:href="#DejaVuSans-6e" transform="translate(1026.0625 0)"/>
     <use xlink:href="#DejaVuSans-20" transform="translate(1089.441406 0)"/>
     <use xlink:href="#DejaVuSans-4f" transform="translate(1121.228516 0)"/>
     <use xlink:href="#DejaVuSans-76" transform="translate(1199.939453 0)"/>
     <use xlink:href="#DejaVuSans-65" transform="translate(1259.119141 0)"/>
     <use xlink:href="#DejaVuSans-72" transform="translate(1320.642578 0)"/>
     <use xlink:href="#DejaVuSans-20" transform="translate(1361.755859 0)"/>
     <use xlink:href="#DejaVuSans-54" transform="translate(1393.542969 0)"/>
     <use xlink:href="#DejaVuSans-69" transform="translate(1451.501953 0)"/>
     <use xlink:href="#DejaVuSans-6d" transform="translate(1479.285156 0)"/>
     <use xlink:href="#DejaVuSans-65" transform="translate(1576.697266 0)"/>
    </g>
   </g>
   <g id="legend_1">
    <g id="patch_7">
     <path d="M 41.240625 44.99625 
L 114.371875 44.99625 
Q 116.371875 44.99625 116.371875 42.99625 
L 116.371875 29.318125 
Q 116.371875 27.318125 114.371875 27.318125 
L 41.240625 27.318125 
Q 39.240625 27.318125 39.240625 29.318125 
L 39.240625 42.99625 
Q 39.240625 44.99625 41.240625 44.99625 
z
" style="fill: #ffffff; opacity: 0.8; stroke: #cccccc; stroke-linejoin: miter"/>
    </g>
    <g id="line2d_34">
     <path d="M 43.240625 35.416563 
L 53.240625 35.416563 
L 63.240625 35.416563 
" style="fill: none; stroke: #000000; stroke-width: 1.5; stroke-linecap: square"/>
    </g>
    <g id="text_20">
     <!-- Portfolio -->
     <g transform="translate(71.240625 38.916563) scale(0.1 -0.1)">
      <defs>
       <path id="DejaVuSans-66" d="M 2375 4863 
L 2375 4384 
L 1825 4384 
Q 1516 4384 1395 4259 
Q 1275 4134 1275 3809 
L 1275 3500 
L 2222 3500 
L 2222 3053 
L 1275 3053 
L 1275 0 
L 697 0 
L 697 3053 
L 147 3053 
L 147 3500 
L 697 3500 
L 697 3744 
Q 697 4328 969 4595 
Q 1241 4863 1831 4863 
L 2375 4863 
z
" transform="scale(0.015625)"/>
      </defs>
      <use xlink:href="#DejaVuSans-50"/>
      <use xlink:href="#DejaVuSans-6f" transform="translate(56.677734 0)"/>
      <use xlink:href="#DejaVuSans-72" transform="translate(117.859375 0)"/>
      <use xlink:href="#DejaVuSans-74" transform="translate(158.972656 0)"/>
      <use xlink:href="#DejaVuSans-66" transform="translate(198.181641 0)"/>
      <use xlink:href="#DejaVuSans-6f" transform="translate(233.386719 0)"/>
      <use xlink:href="#DejaVuSans-6c" transform="translate(294.568359 0)"/>
      <use xlink:href="#DejaVuSans-69" transform="translate(322.351562 0)"/>
      <use xlink:href="#DejaVuSans-6f" transform="translate(350.134766 0)"/>
     </g>
    </g>
   </g>
  </g>
 </g>
 <defs>
  <clipPath id="p28b1fc354d">
   <rect x="34.240625" y="22.318125" width="558" height="332.64"/>
  </clipPath>
 </defs>
</svg>
